<?xml version="1.0" encoding="utf-8"?>
<!-- Generator: Adobe Illustrator 27.0.1, SVG Export Plug-In . SVG Version: 6.00 Build 0)  -->
<svg version="1.1" id="圖層_1" xmlns="http://www.w3.org/2000/svg" xmlns:xlink="http://www.w3.org/1999/xlink" x="0px" y="0px"
	 viewBox="0 0 375 1000" style="enable-background:new 0 0 375 1000;" xml:space="preserve">
<style type="text/css">
	.st0{fill:#FFFFFF;}
	.st1{clip-path:url(#SVGID_00000170270969612348453190000002620835540462086311_);}
	.st2{fill:none;stroke:#FFFFFF;stroke-miterlimit:10;}
	.st3{clip-path:url(#SVGID_00000165939163781159289540000012364904370807897773_);}
</style>
<g id="B3主標題_m" transform="translate(163.16 334.269)">
	<g id="Group_7136" transform="translate(-132.16 -58.826)">
		<path id="Path_50302" class="st0" d="M283.1-110.8c1.8,0,3.6-0.4,5.2-1.2l-1-5.2c-1.1,0.5-2.3,0.8-3.5,0.8c-2.6,0-4.1-1.4-4.1-4.1
			c-0.1-2.1,1.5-3.9,3.6-4c0.2,0,0.3,0,0.5,0c1.1,0,2.3,0.3,3.3,0.7l1-5c-1.5-0.7-3.2-1.1-4.9-1.1c-5.9,0-9.4,3.7-9.4,9.5
			S277.1-110.8,283.1-110.8 M263.7-111.2h5.7v-18.3h-5.7V-111.2z M250.7-121.8v3.8h3.5c-0.2,1.6-1.6,2.4-3.3,2.4
			c-2.3,0-3.8-1.9-3.8-4.8c0-2.8,1.5-4.6,3.7-4.6c1.3,0,2.4,0.7,3,1.8l4.6-2.3c-1.6-2.8-4.1-4.5-8.1-4.5c-4.9,0-9.2,3.4-9.2,9.5
			s4.3,9.5,9.3,9.5s8.8-2.5,8.8-8.9v-2.2L250.7-121.8z M227.4-117.9l1.6-5.3l1.6,5.3H227.4z M232.7-111.2h6.3l-6.3-18.3h-6.4
			l-6.4,18.3h5.5l1-3.2h5.4L232.7-111.2z M217-111.2l-2-18.3h-6.6l-3.4,10.2l-3.4-10.2h-6.4l-2,18.3h5l1.2-10.5l3.4,10.5h3.9
			l3.4-10.5l1.4,10.5H217z M183.9-129.4h-14v4.8h4.2v13.4h5.7v-13.4h4.2L183.9-129.4z M166.6-124.7v-4.7h-11.5v18.3h11.5v-4.7h-5.8
			v-2.5h5v-4.2h-5v-2.1L166.6-124.7z M146.2-129.4l-2.9,11l-2.9-11h-6.2l5.6,18.3h6.4l5.6-18.3H146.2z M128.3-116v-13.4h-5.7v18.3
			h10.6v-4.8L128.3-116z M118-124.7v-4.7h-11.5v18.3H118v-4.7h-5.8v-2.5h5v-4.2h-5v-2.1L118-124.7z M97.6-129.4l-2.9,11l-2.9-11
			h-6.2l5.6,18.3h6.4l5.6-18.3H97.6z M65.9-116v-8.6h1.7c2.1,0,3.5,1.3,3.5,4.3s-1.5,4.3-3.5,4.3L65.9-116z M60.3-111.2h7.3
			c5.7,0,9.5-2.7,9.5-9.1s-3.8-9.1-9.5-9.1h-7.3L60.3-111.2z M55.6-124.7v-4.7H44.1v18.3h11.5v-4.7h-5.8v-2.5h5v-4.2h-5v-2.1
			L55.6-124.7z M29.7-124.7h1.5c1.9,0,2.7,0.6,2.7,1.9s-0.8,2.2-2.7,2.2h-1.5L29.7-124.7z M33.8-111.2h6.5l-4.3-6.3
			c2.4-0.9,4-3.3,3.8-5.9c0-3.9-2.5-6.1-7.3-6.1H24v18.3h5.7v-5.7h0.8L33.8-111.2z"/>
		<path id="Path_50303" class="st0" d="M234.4-87.4c-0.2,2.3-0.9,4.5-1.9,6.5l4.1,1c0.8-2.4,1.2-4.9,1.2-7.5L234.4-87.4z
			 M219.6-83.6l-2.8,1.8c1.7,1.7,3.2,3.6,4.5,5.6l3.1-2.7C223-80.6,221.4-82.2,219.6-83.6 M225-86.7l2.4,9.9l-10.2,2.5l0.8,3.2
			l6.6-1.6c0.4,1.9,0.3,3.9-0.3,5.8c-1,1.9-2.4,3.6-4.2,4.9l3.9,2.4c1.9-1.9,3.4-4.3,4.2-6.9c0.5-2.3,0.5-4.7,0-7l3-0.7l2,8.2
			c0.2,0.9,0.6,1.7,1.4,2.2c0.8,0.5,1.9,0.7,2.8,0.4l3.7-0.9c1-0.1,1.9-0.6,2.5-1.5c0.5-0.9,0.5-2.9,0-6.1l-3.6-0.2
			c0.3,1.5,0.4,2.3,0.4,2.3c0.2,1.2,0.1,1.9-0.4,2l-2.3,0.5c-0.7,0.2-1.1,0-1.2-0.6l-1.8-7.3L242-77l-0.8-3.2l-10,2.4l-2.4-9.9
			L225-86.7z M202.9-65.1l-2.8,1.4c1.4,1.3,2.6,2.8,3.6,4.4l3.1-2.1C205.6-62.8,204.3-64,202.9-65.1 M197.4-78.7l0.5,3.1l5-0.7
			l0.3,2.4l-5.6,0.8l0.5,3.2l9-1.3l0.3,2.1l-9.1,1.3l0.5,3.2l9.1-1.3l0.7,4.7c0.1,0.4-0.1,0.7-0.4,0.9c-0.1,0-0.1,0-0.2,0
			c-0.2,0-1.1,0.1-2.5,0.3l1,3.4l3.8-0.6c1.7-0.2,2.4-1.4,2.1-3.3l-0.9-5.9l3-0.4l-0.5-3.2l-3,0.4l-0.3-2.1l3.1-0.4l-0.5-3.2
			l-6.4,0.9l-0.3-2.4l5.5-0.8l-0.5-3.1l-5.5,0.8l-0.4-2.8l-3.5,0.5l0.4,2.8L197.4-78.7z M191.5-71.1l-0.7-4.6l2.4-0.4l0.7,4.6
			L191.5-71.1z M192.7-63.2l-0.7-5l2.4-0.4l0.7,5L192.7-63.2z M196.1-79.5l-9,1.3l2.9,19.9l3.3-0.5l-0.2-1.5l2.4-0.4l0.2,1.3
			l3.3-0.5L196.1-79.5z M170.8-65.2l0.1,2l12.7-0.6l-0.1-2L170.8-65.2z M178-60.3l3.3-0.2c-0.4,0.6-0.9,1.2-1.5,1.7
			C179.2-59.2,178.6-59.7,178-60.3 M184.2-69.2l-17.9,0.9l0.2,3.3c0.3,3.2-0.4,6.5-1.9,9.4l3.1,2.4c0.9-2.1,1.5-4.3,1.8-6.6l1.3-0.1
			l0.2,3.5c-0.7,0.1-1.3,0.2-2,0.2l0.7,3.1c2.3-0.4,4.6-0.9,6.9-1.7l-0.1-2.9c-0.8,0.3-1.6,0.5-2.4,0.7l-0.1-3.1l0.9,0
			c0.9,1.4,1.9,2.6,3.1,3.6c1.7,1.3,3.7,2.3,5.8,2.9l1.7-3.2c-1-0.2-2.1-0.4-3-0.8c0.7-0.5,1.3-1.1,1.8-1.8l-2.1-1.1l2.8-0.1
			l-0.1-2.5l-15.2,0.7c0-0.9,0-1.8,0-2.7l0-1l14.7-0.7L184.2-69.2z M178.2-75.9l1.9-0.1l0,1l-1.9,0.1L178.2-75.9z M173.8-75.7
			l1.8-0.1l0,1l-1.8,0.1L173.8-75.7z M169.3-74.5l0-1l1.9-0.1l0,1L169.3-74.5z M171.4-71.6l-1.9,0.1l-0.1-1.1l1.9-0.1L171.4-71.6z
			 M175.8-71.8l-1.8,0.1l-0.1-1.1l1.8-0.1L175.8-71.8z M180.3-72l-1.9,0.1l-0.1-1.1l1.9-0.1L180.3-72z M165.9-77.5l0.4,8.4l17.4-0.8
			l-0.4-8.4l-4.4,0.2l-0.1-1.4l-3.2,0.2l0.1,1.4l-2.1,0.1l-0.1-1.4l-3.2,0.2l0.1,1.4L165.9-77.5z M162.4-64.7
			c-0.5,3.5-1.6,6.8-3.1,10l3.5,1.8c1.3-3.5,2.2-7.1,2.7-10.8L162.4-64.7z M160.8-71.7l-2.4,2.4c1.7,1.2,3.3,2.5,4.8,4l2.4-3.2
			C164.1-69.7,162.5-70.8,160.8-71.7 M161.4-78.2l-2,2.4c1.5,1.1,2.9,2.3,4.1,3.7l2.3-2.8C164.5-76.1,163-77.2,161.4-78.2
			 M143.9-65.8l0.2-4.3c1.6,1.7,3.4,3.3,5.4,4.6L143.9-65.8z M135.2-66.2c0.6-0.3,1.2-0.6,1.8-1c1.3-0.8,2.5-1.9,3.6-3l-0.2,4.2
			L135.2-66.2z M136.1-61.7l0.1-1.5l11.8,0.6l-0.1,1.5L136.1-61.7z M135.9-57.6l0.1-1.7l11.8,0.6l-0.1,1.7L135.9-57.6z M152.3-78.8
			c-6.9,0.5-13.9,0.5-20.8,0.1l0.8,3.2c3,0.1,5.9,0.2,8.5,0.3l-0.1,1.5L130-74.2l-0.1,3l7.1,0.4c-2.4,1.5-5.1,2.5-7.9,2.9l1.5,3.5
			c0.7-0.2,1.4-0.4,2-0.6L132-53.8l3.8,0.2l0.1-1.2l11.8,0.6l-0.1,1.2l3.7,0.2l0.6-11.4c0.6,0.3,1.2,0.6,1.9,0.8l2.1-3.1
			c-2.8-0.8-5.5-2.1-7.9-3.8l7.3,0.4l0.1-3l-11.1-0.5l0.1-1.7c3,0,6.1-0.2,9.1-0.6L152.3-78.8z M113.7-79.3l-0.5,3.5l8.5,1.3
			l-0.8,4.8c-0.7,4.5-1.4,7.3-1.9,8.4c-0.4,0.7-1.2,1.1-2,0.9c-0.3,0-1.3-0.2-2.8-0.6l0.4,4.3l1.8,0.3c2.1,0.3,3.7-0.1,4.7-1.1
			c1.2-1.3,2.4-4.9,3.4-11l1.5-8.8L113.7-79.3z M107.4-83.1c-1.2,3.5-2.9,6.7-5.1,9.6c-0.5,0-1-0.1-1.5-0.2l-0.3,3.4
			c2.2,0.2,4.3,0.4,6.2,0.5c-1.5,1.9-3.1,3.6-5,5.2c-0.8-0.1-1.7-0.2-2.5-0.3l0.1,3.8c3.5,0.2,6.9,0.3,10.4,0.3
			c0.1,0.8,0.1,1.6,0.1,2.6l3.7-0.8c-0.3-2.7-0.8-5.4-1.5-8.1l-3.1,0.5c0.2,0.9,0.3,1.8,0.5,2.8c-1.2-0.1-2.5-0.2-3.6-0.3
			c3.3-3,6.1-6.4,8.5-10.2l-3.4-2.1c-0.7,1.3-1.5,2.5-2.2,3.7c-1-0.1-1.9-0.2-2.9-0.4c0.2-0.2,0.4-0.5,0.6-0.8
			c1.8-2.4,3.4-5,4.7-7.7L107.4-83.1z M87.5-73.1l4.7,1.2L91.9-71l-4.7-1.2L87.5-73.1z M80.1-74.1l0.2-0.9l4.4,1.1l-0.2,0.9
			L80.1-74.1z M83.8-70.6l-4.4-1.1l0.2-0.9l4.4,1.1L83.8-70.6z M91.3-68.7l-4.7-1.2l0.2-0.9l4.7,1.2L91.3-68.7z M96.4-77.5L94-78.1
			l-0.4,1.6c-0.4,1.4,0,2.2,1,2.4l2.6,0.7l0.5-1.9l-1.4-0.4C96-75.8,96-76,96.1-76.5L96.4-77.5z M90.6-65.8c-0.6,0-1.2,0-1.9-0.1
			c0.3-0.4,0.5-0.8,0.7-1.2l1,0.3C90.5-66.5,90.6-66.1,90.6-65.8 M92.3-63.6L92.3-63.6c-0.2,0.5-0.7,0.8-1.1,0.6c0,0,0,0,0,0
			l-5.5-1.4c-0.5-0.1-0.7-0.4-0.6-0.7l0.7-2.9l1.6,0.4c-0.3,0.4-0.5,0.8-0.9,1.2c-0.2-0.1-0.4-0.1-0.6-0.2l-0.2,1.9
			c1.6,0.4,3.3,0.6,5,0.7c0,0.2,0,0.4,0,0.6L92.3-63.6z M85-80.5l-0.8,3.1l0.8,0.2c-0.3,0.4-0.6,0.8-1,1.1l-6.3-1.6l-1.8,7.1
			l3.2,0.8c-0.6,0.8-1.4,1.3-2.3,1.6c-1.3,0.4-2.6,0.5-3.9,0.3l1,3.1c1.7,0,3.4-0.4,5-1c1.4-0.7,2.7-1.8,3.5-3.2l0.5,0.1L82-65.4
			c-0.2,0.6-0.1,1.3,0.2,1.8c0.4,0.6,1.1,1.1,1.8,1.2l6.6,1.7c0.8,0.3,1.6,0.3,2.5,0.2c0.6-0.2,1.3-1.2,2-2.7l-2.4-1.4
			c-0.1,0.1-0.1,0.3-0.2,0.4c-0.1-0.8-0.2-1.6-0.3-2.2l1.7,0.4l1.8-7.1l-8.6-2.2c0.3-0.2,0.5-0.3,0.8-0.5l0.7,0.5
			c0.8-1.2,1.3-2.4,1.7-3.8l-2.2-0.6c-0.2,1-0.7,2-1.4,2.8L86.3-77l0.8-2.9L85-80.5z M82.4-83.9l-3.8-1l0.2-0.8l3.8,1L82.4-83.9z
			 M90.4-87L86-87.6c0.1,0.4,0.2,0.8,0.2,1.2L76.4-89L74-79.7c-0.9,4-2.7,7.8-5.3,11.1l2.2,3.2c2.9-4.1,5-8.6,6.1-13.5l0,0l1.8,1.3
			c1.1-1,1.9-2.4,2.3-3.9L78.9-82c-0.2,1.1-0.8,2.1-1.8,2.8l0.9-3.6l3.8,1l-1.1,4.4l2.7,0.7l1.1-4.4l2.9,0.7l0.5-2L85-83.2l0.2-0.8
			l6.3,1.6l-0.2,0.8l-3-0.8l-0.5,2l3,0.8l-1.1,4.3l2.7,0.7l1.1-4.3l4.2,1.1l0.5-2L94-80.9l0.2-0.9l4.6,1.2l0.6-2.5l-9.3-2.4
			C90.2-85.9,90.3-86.4,90.4-87"/>
		<path id="Path_50304" class="st0" d="M209-151.8h1.4v3H209V-151.8z M205.9-156.1h7.6v-2.7h-7.6V-156.1z M205.9-160.3h7.6v-2.8
			h-7.6V-160.3z M213.8-169.3v1.9h-2.3c-0.1-0.9-0.2-1.8-0.3-2.8l-4,0.3c0.2,0.7,0.3,1.5,0.5,2.4h-3v2.9h9.8v-1.8h1.9
			c-0.7,1.8-1.6,3.5-2.7,5v2.8h3.6c-0.1,1.1-0.2,2.2-0.3,3.1c-0.3-0.9-0.5-1.7-0.7-2.6l-2.5,0.9c0.5,2.1,1.2,4.1,2.1,6
			c-0.6,1.2-1.4,2.3-2.4,3.1v-6.5h-7.6v9.8h3.1v-1.3h4.2l1.1,1.6c1.3-1.1,2.5-2.5,3.4-4c0.9,1.1,2,1.9,3.3,2.4c1.5,0.7,4.6,1,9.3,1
			l0.6-3.5c-2.3,0.2-3.6,0.3-4.1,0.3c-2.9,0-5-0.6-6.5-1.8c-0.5-0.4-0.9-0.9-1.3-1.4c1-3.3,1.5-6.7,1.4-10.2h-3.1
			c1.1-1.7,2-3.5,2.7-5.4v-2.3H213.8z M229.3-170.1c-2.8,1.4-5.9,2-9.1,1.9l1,3.1c1.3,0,2.5-0.1,3.8-0.3v12.1h-0.6
			c-0.4,0-0.6-0.4-0.6-1.2v-8.9H221v10.2c0,2.1,0.9,3.1,2.8,3.1h6.6v-3.1h-2.2v-5.3h2v-3.1h-2v-4.5c0.8-0.3,1.7-0.7,2.4-1.2
			L229.3-170.1z M200-169.6h-10.5v25.2h3.5v-21.9h3.3c-0.6,2.6-1.4,5.1-2.4,7.5c1.8,2.4,2.7,4.5,2.7,6.3c-0.1,1.3-0.6,2-1.7,2
			c-0.5,0-1-0.1-1.4-0.2l0.7,3.3c2.7,0,4.4-0.4,5-1.1c0.9-1.1,1.3-2.5,1.1-4c0-1.8-0.8-3.9-2.4-6.3c1-3.5,1.8-6.4,2.2-8.6L200-169.6
			z M179.8-166.4h4.2v2.8h-4.2V-166.4z M179.8-160.7h4.2v3h-4.2V-160.7z M179.8-151.3v-3.6h4.2v3.1
			C182.5-151.6,181.1-151.4,179.8-151.3 M174.7-169.6v3.2h1.6v15.5c-0.7,0.1-1.3,0.1-1.9,0.1l0.9,3.7c2.7-0.4,5.6-0.9,8.7-1.5v4.3
			h3.5v-22h1.3v-3.2H174.7z M150.9-152.7l-2.5,0.2c0.3,2.4,0.4,4.6,0.5,6.7l3-0.5C151.5-148.7,151.2-150.9,150.9-152.7 M145.2-152.6
			c-0.1,2.3-0.4,4.7-0.9,7l3.1,0.3c0.3-2.5,0.4-4.9,0.4-7.2L145.2-152.6z M151.8-157.3c-0.9,0.2-1.7,0.3-2.5,0.4
			c0.6-0.7,1.2-1.4,1.9-2.2C151.4-158.5,151.6-157.9,151.8-157.3 M148.2-170.2c-0.6,2.5-1.6,4.9-2.9,7c-0.3,0-0.7,0.1-1.1,0.1
			l0.6,3.1c1.3-0.1,2.6-0.3,3.8-0.5c-0.9,1.4-1.9,2.7-3,4c-0.5,0-0.9,0-1.4,0l0.6,3.3c2.5-0.4,5.1-0.9,7.7-1.6
			c0.1,0.5,0.2,1,0.3,1.6l2.9-1c-0.1-0.4-0.3-0.7-0.4-1.1h1.3c0,1.4-0.2,2.8-0.6,4.2c-0.2,0.6-0.5,1.2-0.8,1.8
			c-0.5-1.6-0.8-2.8-1.2-3.8l-2.4,0.7c0.5,1.9,0.9,3.9,1.2,5.9l1.7-0.6l2.7,1.7c0.9-1.3,1.6-2.7,2-4.2c0.5-1.8,0.7-3.6,0.7-5.5h1.7
			v-3h-1.7v-3.7h-3.3v3.7h-1.7v2.1c-0.5-1.3-1-2.7-1.6-4l-1.8,0.5c1.4-1.8,2.6-3.6,3.7-5.5v2.5h6.3c0,3.4,0.3,6.8,0.9,10.1
			c0,0.3,0.1,0.6,0.2,1c-1.1,1.5-2.4,2.8-3.9,3.8l2.3,2.9c1-0.9,2-1.9,2.9-2.9c0.2,0.5,0.5,0.9,0.8,1.3c0.9,1.3,1.8,1.9,2.6,1.9
			c0.6,0,1.1-0.4,1.4-0.9c0.9-1.5,1.5-3.2,1.7-5l-2.7-1.7c-0.1,1.5-0.2,2.2-0.2,2.2c-0.1,0.9-0.1,1.4-0.3,1.4
			c-0.4,0-0.8-0.8-1.2-2.4c0,0,0.1-0.1,0.1-0.1c1.5-2.9,2.7-6,3.5-9.2l-2.7-1.2c-0.5,1.8-1.1,3.7-1.8,5.4c-0.2-1.8-0.3-4-0.4-6.6
			h4.9v-3.2h-2.6l2.7-1.3c-0.4-1-1-2-1.6-2.9l-2.9,1c0.5,1,0.8,2.1,1.2,3.2h-1.8c0-1.4,0-2.9,0-4.5h-3.3c0,1.6,0,3.1,0,4.5h-6.2v0.2
			l-2.7-1.6c-0.6,1.2-1.3,2.4-2,3.6c-0.6,0.1-1.2,0.2-1.8,0.3c1.1-1.8,2.1-3.7,2.9-5.7L148.2-170.2z M137.5-154l-3,0.8
			c0.8,2.2,1.4,4.4,1.8,6.7l3.4-1C139.2-149.7,138.5-151.9,137.5-154 M130.5-170.4c-0.9,2.5-2.2,4.8-3.9,6.8c-0.5,0-1,0.1-1.5,0.1
			l0.8,3.1c1.6-0.2,3.4-0.4,5.2-0.6c-1.1,1.3-2.4,2.4-3.8,3.4c-0.5,0-1.2-0.1-2-0.1l0.5,3.3c1.6,0,3.2-0.1,4.6-0.2v6.2
			c0,0.5-0.3,0.7-0.8,0.7c-0.1,0-0.5,0-1.2-0.1l0.5,3.2h2.4c1.7,0,2.5-0.9,2.5-2.7v-7.7c0.8-0.1,1.6-0.3,2.3-0.5
			c0.1,0.5,0.3,0.9,0.4,1.4l3.1-1.1c-0.6-2-1.4-3.9-2.4-5.7l-2.7,0.8c0.3,0.6,0.5,1.2,0.8,1.9c-1.2,0.3-2.4,0.5-3.7,0.6
			c2.8-2.4,5.2-5.1,7.3-8.1l-3.5-1.5c-0.6,1.1-1.3,2.2-2,3.3c-1,0.1-1.9,0.1-2.9,0.2c1.3-1.6,2.4-3.3,3.3-5.2L130.5-170.4z M124-153
			l-2.4,0.7c0.6,2,1,4,1.3,6l2.4-0.8l2.2,1.1c0.9-2.2,1.7-4.5,2.1-6.8l-2.9-0.7c-0.4,1.5-0.9,2.9-1.5,4.2
			C124.9-150.6,124.5-151.8,124-153 M120.8-152.3l-2.5,0.2c0.2,2.3,0.3,4.5,0.3,6.5l3-0.4C121.3-148.5,121.1-150.6,120.8-152.3
			 M114.8-152.3c-0.1,2.3-0.5,4.7-1,7l3.2,0.3c0.3-2.3,0.5-4.7,0.5-7.1L114.8-152.3z M118.1-170.4c-0.7,2.6-1.8,5.1-3.3,7.4
			c-0.3,0-0.7,0.1-1,0.1l0.6,3.1c1.4-0.1,2.8-0.3,4.2-0.5c-1,1.4-2.1,2.7-3.2,4c-0.5,0-0.9,0-1.4,0l0.6,3.3c2.7-0.4,5.4-1,8.1-1.6
			c0.1,0.5,0.2,1,0.3,1.6l2.9-1c-0.5-1.9-1.1-3.7-1.9-5.5l-2.4,0.7c0.2,0.5,0.4,1.1,0.5,1.7c-1,0.2-1.9,0.3-2.9,0.5
			c2.5-2.7,4.7-5.7,6.6-8.8l-2.9-1.8c-0.7,1.2-1.4,2.4-2.1,3.6c-0.7,0.1-1.5,0.3-2.3,0.3l0-0.1c1.2-1.9,2.3-3.9,3.2-6L118.1-170.4z
			 M94.1-152.9l-2.6,0.8c0.7,1.6,1.2,3.3,1.5,5l0.9-0.3v2.1h15.4v-3.4h-5.7v-16.6h5.3v-3.3H94.9v3.3h4.8v16.6h-3.7
			C95.4-150.2,94.8-151.6,94.1-152.9 M90.7-152l-2.7,0.2c0.3,1.9,0.5,3.8,0.5,5.7l3.2-0.5C91.5-148.3,91.1-150.2,90.7-152
			 M84.2-151.9c-0.1,2.2-0.5,4.3-1.2,6.4l3.3,0.3c0.4-2.1,0.7-4.3,0.8-6.5L84.2-151.9z M87.6-170.4c-0.7,2.6-1.8,5-3.4,7.2
			c-0.4,0-0.8,0-1.2,0l0.4,3c1.6-0.1,3.2-0.2,4.7-0.4c-1.1,1.4-2.2,2.8-3.4,4.1c-0.5,0-1,0.1-1.5,0.1l0.5,3.3c3-0.5,6-1,9-1.7
			c0.1,0.5,0.3,1,0.4,1.6l2.9-1c-0.6-1.9-1.4-3.8-2.3-5.5l-2.4,0.7c0.2,0.5,0.5,1.1,0.7,1.8c-1.2,0.2-2.3,0.4-3.4,0.5
			c2.4-2.5,4.6-5.3,6.4-8.2l-2.9-1.8c-0.6,1.1-1.2,2.2-1.9,3.2c-0.8,0.1-1.6,0.2-2.4,0.2c0,0,0.1-0.1,0.1-0.1
			c1.3-1.8,2.3-3.8,3.2-5.8L87.6-170.4z"/>
	</g>
</g>
<g id="B3紅絲絨風味燕麥奶那堤" transform="translate(163.417 723.548)">
	<g id="Group_7102" transform="translate(-87.417 -15.105)">
		<path id="Path_49880" class="st0" d="M26.2-159.1c-0.1,1.4-0.3,2.9-0.6,4.3l-1.6-0.5c0.4-1.3,0.7-2.6,0.8-4L26.2-159.1z M28.8-170
			c-0.6,1.4-1.3,2.8-2.1,4.1c0.6,0,1.2-0.1,1.8-0.2c0.3-0.6,0.7-1.3,1.1-2l1.5,0.6c-1.1,2.1-2.4,4.1-4,6c0.9-0.1,1.8-0.2,2.6-0.4
			c-0.2-0.6-0.4-1.2-0.6-1.7l1.2-0.4c0.5,1.3,0.9,2.7,1.2,4l-1.4,0.3c-0.1-0.3-0.1-0.7-0.2-1c-1.8,0.4-3.6,0.7-5.4,0.8l-0.4-1.5
			c0.4,0,0.8,0,1.2,0c0.9-1,1.6-2.1,2.3-3.2c-1,0.2-2.1,0.3-3.4,0.5l-0.3-1.4c0.3,0,0.7,0,1-0.1c0.9-1.5,1.7-3.1,2.3-4.7L28.8-170z
			 M28.8-155.8l-1.5,0.1c0-1.1-0.1-2.3-0.4-3.4l1.3-0.1C28.6-158.2,28.8-157,28.8-155.8 M31.3-156.9h3.6v-10.8h-3.5v-1.5H40v1.5
			h-3.4v10.8h3.7v1.6h-9.1v-1.3l-1,0.4c-0.2-1-0.4-2-0.7-3l1.1-0.3C30.8-158.5,31.1-157.7,31.3-156.9"/>
		<path id="Path_49881" class="st0" d="M44.1-158.7c-0.1,1.4-0.3,2.9-0.7,4.2l-1.5-0.5c0.4-1.3,0.7-2.6,0.9-3.9L44.1-158.7z
			 M46.7-170c-0.6,1.4-1.2,2.8-2,4.1c0.6,0,1.1-0.1,1.6-0.2c0.3-0.7,0.7-1.5,1.1-2.3l1.4,0.5c-1.1,2.4-2.4,4.7-3.9,6.8
			c0.8,0,1.6-0.2,2.3-0.3c-0.2-0.6-0.3-1.2-0.5-1.8l1.2-0.4c0.4,1.3,0.8,2.5,1.1,3.8l-1.4,0.3c-0.1-0.2-0.1-0.5-0.1-0.7
			c-1.6,0.3-3.3,0.6-4.9,0.7l-0.4-1.5c0.3,0,0.7,0,1,0c0.9-1.1,1.7-2.4,2.3-3.6c-1,0.2-2,0.3-3.1,0.5l-0.3-1.5c0.3,0,0.6,0,0.9-0.1
			c0.9-1.5,1.6-3.1,2.2-4.7L46.7-170z M46.5-155.2l-1.4,0.1c0-1.2-0.1-2.4-0.3-3.6l1.2-0.1C46.2-157.7,46.4-156.5,46.5-155.2
			 M48.8-156.1l-1.4,0.5c-0.2-1.2-0.5-2.3-0.8-3.5l1.2-0.3C48.2-158.3,48.6-157.2,48.8-156.1 M53.3-169.9c-0.5,1.3-1.2,2.5-1.9,3.7
			c0.8-0.1,1.6-0.2,2.3-0.3c0.5-0.7,0.9-1.4,1.3-2.2l1.6,0.6c-1.3,2.1-2.8,4-4.5,5.7c1.1-0.1,2.2-0.3,3.3-0.6
			c-0.2-0.6-0.5-1.1-0.7-1.6l1.4-0.4c0.6,1.2,1.1,2.4,1.5,3.6l-1.4,0.6c-0.1-0.3-0.2-0.7-0.3-1c-0.6,0.2-1.1,0.3-1.7,0.4v5.3
			c0,0.4-0.1,0.9-0.4,1.2c-0.4,0.3-0.9,0.4-1.4,0.4h-1.6l-0.3-1.6c0.5,0.1,1,0.1,1.6,0.1c0.4,0,0.6-0.1,0.6-0.4v-4.7
			c-1.1,0.2-2.3,0.3-3.5,0.4l-0.4-1.6c0.6,0,1.1,0,1.7,0c0.9-0.9,1.7-1.8,2.4-2.8c-1.1,0.2-2.4,0.4-3.7,0.6l-0.3-1.4
			c0.3,0,0.7-0.1,1-0.1c0.8-1.4,1.5-2.9,2-4.4L53.3-169.9z M51.4-160.1c-0.1,1.2-0.4,2.5-1,3.6l-1.4-0.4c0.5-1,0.9-2.2,1.1-3.3
			L51.4-160.1z M57.4-156.6l-1.4,0.3c-0.3-1.2-0.7-2.4-1.2-3.6l1.3-0.4C56.7-159.1,57.1-157.9,57.4-156.6"/>
		<path id="Path_49882" class="st0" d="M63.5-170c-0.5,1.5-1.2,3-1.9,4.4c0.5-0.1,0.9-0.1,1.3-0.2c0.3-0.8,0.7-1.7,1.1-2.6l1.4,0.5
			c-0.9,2.3-2,4.5-3.3,6.6c0.6-0.1,1.3-0.2,1.9-0.3c-0.1-0.6-0.3-1.1-0.4-1.7l1.2-0.3c0.4,1.2,0.7,2.4,1,3.6l-1.3,0.4
			c-0.1-0.2-0.1-0.5-0.1-0.7c-1.5,0.4-3,0.6-4.5,0.7l-0.4-1.5c0.4,0,0.8,0,1.1,0c0.6-1,1.2-2.1,1.7-3.1c-0.8,0.2-1.7,0.4-2.7,0.6
			l-0.3-1.5c0.3,0,0.5-0.1,0.8-0.1c0.8-1.6,1.5-3.3,2.1-5.1L63.5-170z M61.4-159c-0.1,1.5-0.3,3-0.7,4.4l-1.4-0.4
			c0.4-1.4,0.7-2.7,0.8-4.2L61.4-159z M63.5-155.2l-1.4,0.1c0-1.7-0.1-3-0.2-3.9l1.2-0.1C63.4-157.8,63.5-156.5,63.5-155.2
			 M65.8-156.5c0.4-0.7,0.7-1.4,1-2.2c0.2-0.8,0.3-1.6,0.3-2.5h-1.4v-1.4h1.4v-3h1.5v3h1.5v1.4h-1.5c0,1-0.2,2-0.4,3
			c-0.3,1.2-0.8,2.4-1.5,3.4l-1.3-1.1C65.5-156.1,65.6-156.3,65.8-156.5l-1.3,0.4c-0.2-1-0.4-2.1-0.7-3.1l1.2-0.3
			C65.3-158.6,65.5-157.6,65.8-156.5 M70.1-167.8c0-0.8,0-1.7,0-2.6h1.6c0,0.9,0,1.8,0,2.6h1.7c-0.3-0.5-0.7-1-1.2-1.6l1.1-0.7
			c0.7,0.7,1.2,1.2,1.6,1.7l-0.8,0.5h1.2v1.5h-3.5c0,1.7,0.2,3.4,0.4,5.1c0.6-1.3,1.1-2.7,1.5-4.1l1.4,0.6c-0.7,2-1.5,3.9-2.4,5.7
			c0,0,0,0,0,0c0.5,1.8,0.8,2.6,1,2.6c0.1,0,0.3-0.8,0.5-2.3l1.4,0.9c-0.1,1-0.5,2-1,2.9c-0.1,0.2-0.4,0.4-0.6,0.4
			c-0.5,0-1-0.4-1.6-1.3c-0.3-0.5-0.5-1-0.7-1.6c-0.8,1-1.6,2-2.4,2.9l-1.2-1.1c1.1-1.1,2.2-2.4,3.1-3.7c-0.1-0.5-0.2-1-0.3-1.6
			c-0.3-1.8-0.5-3.7-0.5-5.5h-4.6v-1.5L70.1-167.8z"/>
		<path id="Path_49883" class="st0" d="M90.9-169.9v9.5c-0.1,1.1,0,2.3,0.3,3.4c0.1,0.3,0.2,0.4,0.3,0.4c0.2,0,0.4-0.6,0.6-2
			l1.2,0.7c-0.1,1-0.3,1.9-0.8,2.8c-0.2,0.3-0.5,0.4-0.8,0.5c-0.5,0-1-0.2-1.3-0.6c-0.6-0.7-0.9-2.4-0.9-5.1v-8h-9.6v5.8
			c0,1.3-0.1,2.7-0.3,4c-0.2,1.5-0.7,2.9-1.2,4.3l-1.4-1.2c0.5-1.1,0.9-2.3,1.1-3.5c0.1-1.2,0.2-2.4,0.2-3.5v-7.3L90.9-169.9
			L90.9-169.9z M88.8-167.4v1.4h-3.5v1.4h3.1v5.3h-3.1v2.1c0.7-0.1,1.3-0.2,1.8-0.3c-0.2-0.4-0.4-0.7-0.6-1.1l1.3-0.4
			c0.7,1,1.2,2.1,1.7,3.3l-1.3,0.5c-0.1-0.3-0.3-0.7-0.4-1c-2.5,0.4-5,0.7-7.5,0.8l-0.5-1.6c1.5,0,2.8,0,3.9-0.1v-2.3h-3v-5.3h3
			v-1.4h-3.3v-1.4H88.8z M83.7-163.1h-1.6v2.6h1.6V-163.1z M86.9-163.1h-1.6v2.6h1.6V-163.1z"/>
		<path id="Path_49884" class="st0" d="M100.1-158h-3.3v1.9h-1.5v-13.2h4.8L100.1-158z M98.6-167.9h-1.8v8.4h1.8V-167.9z
			 M104.6-168.1v-2.4h1.6v2.4h3.6v1.4h-3.6v2.4h4.2v1.5h-3.3c0.3,0.9,0.8,1.8,1.3,2.6c0.6,1,1.4,1.9,2.2,2.8l-1.2,1.5
			c-0.9-1.1-1.7-2.3-2.3-3.6c-0.4-0.7-0.7-1.4-0.9-2.2v7.2h-1.6v-7c-0.9,2-2.2,3.9-3.8,5.5l-1-1.5c1.7-1.5,3-3.3,4-5.3h-3.3v-1.5
			h4.1v-2.4h-3.4v-1.4L104.6-168.1z"/>
		<path id="Path_49885" class="st0" d="M116.8-165.3v4c0.2,0,0.3-0.1,0.5-0.2v1.5c-1.5,0.6-3.1,1.1-4.7,1.5l-0.4-1.7
			c1.1-0.1,2.1-0.4,3.1-0.7v-2h-2.9v-1.5h2.9v-1L116.8-165.3z M116.4-169.4v-1h1.6v1h4.1v-1h1.6v1h4.1v1.4h-4.1v2.3h-7.4v-2.3h-3.9
			v-1.4L116.4-169.4z M116-158c-0.5,1.3-1.1,2.5-1.9,3.6l-1.6-1.1c0.8-1,1.5-2.1,2-3.2L116-158z M119.3-154.8l-1.8,0.2
			c0-1.2-0.1-2.4-0.4-3.5l1.5-0.1C119-157.1,119.2-155.9,119.3-154.8 M122.4-158.9h-4.7v-6h4.7V-158.9z M118-167h4.1v-1H118V-167z
			 M120.9-163.6h-1.7v3.3h1.7V-163.6z M123.6-154.8l-1.9,0.2c0-1.3-0.3-2.5-0.9-3.6l1.6-0.1C123.1-157.3,123.5-156.1,123.6-154.8
			 M124.7-165.3v1.7c0.8-0.5,1.5-1,2.2-1.7l1,1.3c-1,0.8-2.1,1.4-3.2,2v1.4c0,0.3,0.2,0.5,0.6,0.5h0.6c0.2,0,0.4,0,0.5-0.2
			c0.2-0.5,0.3-1.1,0.3-1.7l1.5,0.5c-0.1,1.4-0.4,2.2-0.7,2.4c-0.4,0.3-0.9,0.4-1.4,0.4h-1.4c-0.4,0-0.8-0.1-1.1-0.4
			c-0.3-0.3-0.5-0.7-0.4-1.1v-5.2H124.7z M128.2-155.1l-1.6,0.7c-0.4-1.3-0.9-2.5-1.5-3.7l1.6-0.5
			C127.3-157.5,127.8-156.3,128.2-155.1"/>
		<path id="Path_49886" class="st0" d="M136.9-169.4v-1.1h1.6v1.1h6.5v1.4h-2.4l0.8,0.5c-0.1,0.3-0.3,0.5-0.4,0.8
			c0.9,0.6,1.8,1.3,2.6,2.1l-1,1.4c-0.7-0.8-1.5-1.6-2.4-2.2c-0.1,0.1-0.1,0.2-0.2,0.2c-0.3,0.4-0.6,0.8-1,1.1
			c0.2,0.1,0.3,0.2,0.5,0.3c1.4,0.8,2.9,1.4,4.5,1.8l-0.8,1.6c-1.8-0.6-3.5-1.4-5-2.5c-0.7-0.5-1.3-1-1.8-1.6v1.6h-1.6v-1.1
			c-0.6,0.6-1.3,1.1-2,1.6c-1.4,0.9-2.9,1.7-4.5,2.4l-0.9-1.5c1.6-0.6,3.2-1.3,4.6-2.2c0.2-0.1,0.4-0.2,0.6-0.4
			c-0.5-0.5-1-0.9-1.5-1.3c-0.1,0.2-0.3,0.3-0.4,0.5c-0.6,0.8-1.4,1.5-2.2,2.1l-0.8-1.4c0.7-0.5,1.3-1,1.9-1.7
			c0.5-0.6,0.9-1.3,1.3-2h-2.5v-1.4H136.9z M138.1-162.3c-0.2,0.4-0.5,0.8-0.8,1.2h5.7v1.2c-0.6,1-1.3,2-2.1,2.8
			c0.9,0.4,1.7,0.8,2.4,1.3l-1.2,1.2c-0.8-0.5-1.6-1-2.6-1.5c-2.2,1-4.4,1.5-6.8,1.7l-1.1-1.5c2.1-0.1,4.1-0.5,6.1-1.1
			c-1.1-0.5-2.2-1-3.5-1.5c-0.8,0.5-1.7,0.9-2.5,1.3l-1-1.4c1.3-0.5,2.5-1.1,3.6-1.8c0.8-0.6,1.6-1.3,2.1-2.1L138.1-162.3z
			 M136.9-166v-1.9h-3.4l0.9,0.5c-0.1,0.3-0.3,0.5-0.4,0.8c0.7,0.5,1.3,1,2,1.5C136.3-165.4,136.6-165.7,136.9-166 M139.5-157.8
			c0.7-0.5,1.3-1.2,1.8-1.9h-5.2c-0.1,0.1-0.2,0.2-0.4,0.3C137-158.9,138.3-158.3,139.5-157.8 M139.8-165c0.4-0.4,0.8-0.8,1.1-1.2
			c0.4-0.5,0.8-1.1,1-1.7h-3.5v1.7C138.9-165.8,139.3-165.4,139.8-165"/>
		<path id="Path_49887" class="st0" d="M149.5-167.4c0.2-0.9,0.3-1.9,0.4-2.9l1.6,0.1c-0.1,1-0.3,1.9-0.5,2.8h3v1.5
			c-0.1,1.7-0.4,3.3-0.8,4.9c-0.1,0.5-0.3,1-0.5,1.5c0.5,0.4,1,0.8,1.3,1.1l-1,1.2c-0.3-0.3-0.7-0.6-1.1-0.9
			c-0.1,0.1-0.1,0.2-0.2,0.3c-0.8,1.2-1.9,2.3-3.1,3.2l-1.2-1.4c1.2-0.9,2.3-2,3.1-3.2c-0.9-0.6-1.8-1.3-2.9-2
			c0.7-1.6,1.2-3.2,1.5-4.9h-1.9v-1.5L149.5-167.4z M149.7-161.6c0.6,0.4,1.2,0.8,1.7,1.2c0.6-1.8,1-3.6,1.1-5.4h-1.6
			C150.5-164.4,150.2-163,149.7-161.6 M162.2-169.9c-0.3,1.7-0.7,3.4-1.2,5h2.2c-0.2,3.8-0.4,6.3-0.6,7.5c-0.1,0.7-0.3,1.3-0.7,1.8
			c-0.5,0.6-1.3,0.9-2.1,0.8h-2.3l-0.5-1.7c0.8,0.1,1.6,0.1,2.4,0.1c0.5,0.1,0.9-0.1,1.2-0.5c0.3-0.5,0.4-1.1,0.5-1.7
			c0.2-1.1,0.3-2.7,0.4-4.9h-2.5c0.5-1.7,1-3.3,1.3-5H158v2c0.1,2.3-0.3,4.5-0.9,6.7c-0.8,2-2,3.9-3.5,5.4l-1.4-1.2
			c1.5-1.3,2.6-2.9,3.3-4.7c0.7-2,1-4.1,0.9-6.2v-2h-2.7v-1.5H162.2z"/>
		<path id="Path_49888" class="st0" d="M172.8-169.8c0,7.1-0.1,11.3-0.2,12.6c0,0.7-0.2,1.4-0.6,2c-0.5,0.4-1.1,0.7-1.7,0.6
			c-0.4,0-0.9,0-1.4-0.1l-0.3-1.9c0.6,0.1,1.1,0.1,1.7,0.1c0.4,0,0.7-0.4,0.7-1.3c0-0.5,0.1-1.3,0.1-2.7h-2.2
			c-0.1,0.5-0.2,1-0.3,1.5c-0.5,1.6-1.3,3-2.4,4.3l-1.3-1.2c1-1,1.7-2.3,2.2-3.6c0.1-0.3,0.2-0.7,0.3-1h-1.9v-1.5h2.1
			c0.1-0.7,0.1-1.4,0.1-2.3v-0.2h-2.2v-1.5h2.2v-2.3h-2.1v-1.5H172.8z M169.2-164.2c0,0.8,0,1.6-0.1,2.3h2c0-0.8,0-1.6,0-2.5h-2
			V-164.2z M169.2-165.9h2v-2.3h-2V-165.9z M180.7-169.8v1.2c-0.6,1.8-1.3,3.6-2,5.3c0.7,0.7,1.2,1.5,1.6,2.4
			c0.3,0.5,0.5,1.1,0.5,1.7c0.1,0.9-0.2,1.7-0.6,2.4c-0.4,0.5-1.5,0.8-3.2,0.8l-0.5-1.7c0.5,0.1,1,0.1,1.5,0.1c0.4,0,0.8-0.1,1-0.4
			c0.2-0.4,0.3-0.8,0.2-1.2c0-0.5-0.1-0.9-0.3-1.3c-0.5-1-1.1-1.9-1.8-2.7c0.7-1.6,1.4-3.3,1.9-5h-3.1v13.8h-1.6v-15.3H180.7z"/>
		<path id="Path_49889" class="st0" d="M184.6-165.8v-4.5h1.6v4.5h1.9v1.5h-1.9v5c0.6-0.2,1.2-0.5,1.8-0.8v1.6
			c-1.6,0.8-3.3,1.5-5,2.1l-0.4-1.8c0.7-0.1,1.4-0.3,2-0.5v-5.5h-1.9v-1.5L184.6-165.8z M198.5-162.6v1.4h-4.6v1.6h4v1.4h-4v1.8
			c0.7,0.1,1.3,0.1,2,0.1c1,0,2,0,3-0.1l-0.5,1.6c-3.8,0-6.1-0.2-6.8-0.5c-0.8-0.4-1.4-1-1.8-1.7c-0.6,0.9-1.2,1.8-2,2.6l-1.2-1.1
			c0.7-0.8,1.4-1.6,2-2.5c0.4-0.8,0.6-1.6,0.7-2.5l1.6,0.2c-0.1,0.7-0.2,1.3-0.4,2c0.4,0.8,1,1.3,1.8,1.7c0.1,0,0.1,0.1,0.2,0.1
			v-4.4h-4.4v-1.4L198.5-162.6z M197.5-163.7h-8.7v-6.1h8.7V-163.7z M196-168.5h-5.6v1.2h5.6V-168.5z M196-166.1h-5.6v1.2h5.6
			V-166.1z"/>
		<path id="Path_49890" class="st0" d="M47.8-143.2H47v2.8h-1.4v-7.7h2.7c1.7,0,2.9,0.7,2.9,2.3c0.1,1.1-0.7,2.2-1.8,2.4l2,3h-1.7
			L47.8-143.2z M47-144.3h1.1c1,0,1.5-0.4,1.5-1.3s-0.6-1.3-1.5-1.3H47L47-144.3z"/>
		<path id="Path_49891" class="st0" d="M57.8-142.9h-4c0.1,0.9,0.9,1.5,1.8,1.4c0.6,0,1.2-0.2,1.6-0.6l0.5,1
			c-0.6,0.6-1.5,0.9-2.4,0.9c-1.6,0.1-3-1.2-3.1-2.8c-0.1-1.6,1.2-3,2.8-3.1c0,0,0,0,0,0c1.4-0.1,2.6,1,2.7,2.4c0,0.1,0,0.2,0,0.3
			L57.8-142.9z M53.8-143.7h2.6c0-0.7-0.5-1.3-1.2-1.3c0,0,0,0,0,0C54.4-145,53.8-144.4,53.8-143.7"/>
		<path id="Path_49892" class="st0" d="M64.5-148.5v8.1h-1.3l0-0.8c-0.4,0.6-1.1,1-1.8,1c-1.4,0-2.5-1.1-2.5-2.9s1.1-2.9,2.5-2.9
			c0.7,0,1.3,0.3,1.7,0.8v-3.3H64.5z M63.2-143.2c0.1-0.8-0.5-1.6-1.3-1.7c0,0-0.1,0-0.1,0c-0.9,0-1.5,0.7-1.5,1.7s0.5,1.7,1.5,1.7
			c0.8,0,1.5-0.7,1.5-1.6C63.2-143.1,63.2-143.1,63.2-143.2"/>
		<path id="Path_49893" class="st0" d="M74.9-148.1l-2.7,7.7h-1.5l-2.6-7.7h1.6l1.9,5.7l1.9-5.7H74.9z"/>
		<path id="Path_49894" class="st0" d="M81.1-142.9h-4c0.1,0.9,0.9,1.5,1.8,1.4c0.6,0,1.2-0.2,1.6-0.6l0.5,1
			c-0.6,0.6-1.5,0.9-2.4,0.9c-1.6,0.1-3-1.2-3.1-2.8c-0.1-1.6,1.2-3,2.8-3.1c0,0,0,0,0,0c1.4-0.1,2.6,1,2.7,2.4c0,0.1,0,0.2,0,0.3
			L81.1-142.9z M77.1-143.7h2.6c0-0.7-0.5-1.3-1.2-1.3c0,0,0,0,0,0C77.7-145,77.2-144.4,77.1-143.7"/>
		<rect id="Rectangle_2643" x="82.5" y="-148.5" class="st0" width="1.4" height="8.1"/>
		<path id="Path_49895" class="st0" d="M90.6-145.9l-2.1,5.5h-1.4l-2-5.5h1.5l1.3,3.9l1.3-3.9H90.6z"/>
		<path id="Path_49896" class="st0" d="M96.9-142.9h-4c0.1,0.9,0.9,1.5,1.8,1.4c0.6,0,1.2-0.2,1.6-0.6l0.5,1
			c-0.6,0.6-1.5,0.9-2.4,0.9c-1.6,0.1-3-1.2-3.1-2.8c-0.1-1.6,1.2-3,2.8-3.1c0,0,0,0,0,0c1.4-0.1,2.6,1,2.7,2.4c0,0.1,0,0.2,0,0.3
			L96.9-142.9z M92.9-143.7h2.6c0-0.7-0.5-1.3-1.2-1.3c0,0,0,0,0,0C93.5-145,92.9-144.4,92.9-143.7"/>
		<path id="Path_49897" class="st0" d="M101.6-140.4c-0.4,0.1-0.8,0.1-1.2,0.1c-1.4,0-1.8-0.6-1.8-1.8v-2.8h-0.9v-1.1h0.9v-1.3
			l1.4-0.3v1.6h1.5v1.1H100v2.6c0,0.7,0.3,0.8,0.9,0.8c0.2,0,0.5,0,0.7-0.1L101.6-140.4z"/>
		<path id="Path_49898" class="st0" d="M105.1-144.2c0.1-2.1,1.9-3.8,4-3.7c2.1,0.1,3.8,1.9,3.7,4c-0.1,2.1-1.8,3.7-3.9,3.7
			c-2.1,0-3.9-1.7-3.9-3.8C105.1-144.1,105.1-144.2,105.1-144.2 M111.3-144.2c-0.2-1.3-1.4-2.2-2.7-2c-1.3,0.2-2.2,1.4-2,2.7
			c0.2,1.2,1.2,2.1,2.3,2.1c1.3,0,2.4-1.1,2.4-2.5C111.3-144.1,111.3-144.2,111.3-144.2"/>
		<path id="Path_49899" class="st0" d="M117.6-140.4c-0.1-0.2-0.1-0.4-0.1-0.6c-0.5,0.5-1.1,0.8-1.8,0.8c-1,0-1.8-0.4-1.8-1.6
			c0-1.3,1.2-1.9,3.6-2v-0.2c0-0.6-0.4-0.9-1.1-0.9c-0.6,0-1.2,0.2-1.6,0.7l-0.6-0.8c0.6-0.7,1.5-1,2.4-1c1.2,0,2.3,0.5,2.3,2.1v2.8
			c0,0.3,0,0.5,0.1,0.8H117.6z M117.5-142v-1.1c-1.3,0-2.1,0.3-2.1,1.1c0,0.4,0.3,0.7,0.8,0.7C116.7-141.3,117.2-141.5,117.5-142"/>
		<path id="Path_49900" class="st0" d="M124-140.4c-0.4,0.1-0.8,0.1-1.2,0.1c-1.4,0-1.8-0.6-1.8-1.8v-2.8h-0.9v-1.1h0.9v-1.3
			l1.4-0.3v1.6h1.5v1.1h-1.5v2.6c0,0.7,0.3,0.8,0.9,0.8c0.2,0,0.5,0,0.7-0.1L124-140.4z"/>
		<path id="Path_49901" class="st0" d="M134.2-144.1v3.7h-1.4v-3.2c0-0.9-0.3-1.2-1-1.2c-0.6,0.1-1.2,0.5-1.4,1.1v3.4H129v-3.2
			c0-0.9-0.3-1.2-1-1.2c-0.6,0-1.1,0.4-1.3,0.9v3.6h-1.4v-5.5h1.4v0.8c0.4-0.6,1.1-1,1.8-0.9c0.7-0.1,1.4,0.3,1.7,1.1
			c0.5-0.7,1.3-1.1,2.1-1.1c0.9-0.1,1.8,0.6,1.9,1.5C134.2-144.4,134.2-144.2,134.2-144.1"/>
		<path id="Path_49902" class="st0" d="M136-147.7c0-0.5,0.5-0.8,1-0.8c0.4,0,0.8,0.4,0.8,0.8c0,0.5-0.4,0.7-0.9,0.7
			S136-147.2,136-147.7 M136.2-145.9h1.4v5.5h-1.4V-145.9z"/>
		<rect id="Rectangle_2644" x="139.5" y="-148.5" class="st0" width="1.4" height="8.1"/>
		<path id="Path_49903" class="st0" d="M144.6-142.6l-0.5,0.5v1.6h-1.4v-8.1h1.4v5l2.1-2.4h1.6l-2.2,2.4l2.4,3.2h-1.6L144.6-142.6z"
			/>
		<path id="Path_49904" class="st0" d="M155.5-141.6v1.2h-4v-7.7h1.4v6.5H155.5z"/>
		<path id="Path_49905" class="st0" d="M160.3-140.4c-0.1-0.2-0.1-0.4-0.1-0.6c-0.5,0.5-1.1,0.8-1.8,0.8c-1,0-1.8-0.4-1.8-1.6
			c0-1.3,1.2-1.9,3.6-2v-0.2c0-0.6-0.4-0.9-1.1-0.9c-0.6,0-1.2,0.2-1.6,0.7l-0.6-0.8c0.6-0.7,1.5-1,2.4-1c1.2,0,2.3,0.5,2.3,2.1v2.8
			c0,0.3,0,0.5,0.1,0.8H160.3z M160.2-142v-1.1c-1.3,0-2.1,0.3-2.1,1.1c0,0.4,0.3,0.7,0.8,0.7C159.4-141.3,159.9-141.5,160.2-142"/>
		<path id="Path_49906" class="st0" d="M166.6-140.4c-0.4,0.1-0.8,0.1-1.2,0.1c-1.4,0-1.8-0.6-1.8-1.8v-2.8h-0.9v-1.1h0.9v-1.3
			l1.4-0.3v1.6h1.5v1.1H165v2.6c0,0.7,0.3,0.8,0.9,0.8c0.2,0,0.5,0,0.7-0.1L166.6-140.4z"/>
		<path id="Path_49907" class="st0" d="M171.3-140.4c-0.4,0.1-0.8,0.1-1.2,0.1c-1.4,0-1.8-0.6-1.8-1.8v-2.8h-0.9v-1.1h0.9v-1.3
			l1.4-0.3v1.6h1.5v1.1h-1.5v2.6c0,0.7,0.3,0.8,0.9,0.8c0.2,0,0.5,0,0.7-0.1L171.3-140.4z"/>
		<path id="Path_49908" class="st0" d="M177.8-142.9h-4c0.1,0.9,0.9,1.5,1.8,1.4c0.6,0,1.2-0.2,1.6-0.6l0.5,1
			c-0.6,0.6-1.5,0.9-2.4,0.9c-1.6,0.1-3-1.2-3.1-2.8c-0.1-1.6,1.2-3,2.8-3.1c0,0,0,0,0,0c1.4-0.1,2.6,1,2.7,2.4c0,0.1,0,0.2,0,0.3
			L177.8-142.9z M173.8-143.7h2.6c0-0.7-0.5-1.3-1.2-1.3c0,0,0,0,0,0C174.4-145,173.8-144.4,173.8-143.7"/>
	</g>
</g>
<g id="Group_7249" transform="translate(-25.4 -10.495)">
	<path id="Path_50398" class="st0" d="M207.3,534.5l-1.7-4.8l-0.1-0.4h-0.1v5.2h-1.3V526h1.5l1.7,4.8l0.1,0.4h0.1V526h1.3v8.5
		L207.3,534.5z"/>
	<path id="Path_50399" class="st0" d="M211.7,527.2v2.3h1.6v1.2h-1.6v2.5h1.9v1.2h-3.4V526h3.4v1.2H211.7z"/>
	<path id="Path_50400" class="st0" d="M220.2,534.5H219l-1.1-5.3h0l-1.1,5.3h-1.3l-1.2-8.5h1.4l0.6,5.3l0,0l1-5.3h1.1l1,5.3l0,0
		l0.6-5.3h1.3L220.2,534.5z"/>
	<g id="Group_7248">
		<g>
			<defs>
				<rect id="SVGID_1_" x="187.4" y="519.5" width="50.8" height="21"/>
			</defs>
			<clipPath id="SVGID_00000093879007750627277420000007489390815818993554_">
				<use xlink:href="#SVGID_1_"  style="overflow:visible;"/>
			</clipPath>
			<g id="Group_7247" style="clip-path:url(#SVGID_00000093879007750627277420000007489390815818993554_);">
				<path id="Path_50401" class="st2" d="M227.7,540.3h-29.8c-5.7,0-10.3-4.6-10.3-10.3c0-5.7,4.6-10.3,10.3-10.3c0,0,0,0,0,0h29.8
					c5.7,0,10.3,4.6,10.3,10.3C238,535.7,233.4,540.3,227.7,540.3C227.7,540.3,227.7,540.3,227.7,540.3z"/>
			</g>
		</g>
	</g>
</g>
<g id="B3紅絲絨風味燕麥奶星冰樂" transform="translate(163.181 1072.068)">
	<g id="Group_7103" transform="translate(-107.18 -19.625)">
		<path id="Path_49909" class="st0" d="M191.4-133.3c0,0.7-0.5,1-1.3,1h-1.4v-3.7h1.3c0.7,0,1.3,0.3,1.3,1c0,0.4-0.2,0.7-0.6,0.8
			C191.1-134.2,191.4-133.8,191.4-133.3 M189.4-135.4v1.1h0.5c0.4,0,0.6-0.1,0.6-0.5s-0.2-0.5-0.6-0.5H189.4z M190.6-133.4
			c0-0.4-0.3-0.5-0.6-0.5h-0.6v1.1h0.6C190.4-132.8,190.6-133,190.6-133.4"/>
		<rect id="Rectangle_2645" x="192.1" y="-136.2" class="st0" width="0.7" height="3.9"/>
		<path id="Path_49910" class="st0" d="M196.1-133.5h-1.9c0,0.4,0.4,0.7,0.8,0.7c0.3,0,0.6-0.1,0.8-0.3l0.3,0.5
			c-0.3,0.3-0.7,0.4-1.1,0.4c-0.8,0-1.4-0.6-1.5-1.4c0-0.8,0.6-1.4,1.4-1.5c0.7,0,1.3,0.5,1.3,1.1c0,0.1,0,0.1,0,0.2L196.1-133.5z
			 M194.2-133.9h1.2c0-0.3-0.3-0.6-0.6-0.6c0,0,0,0,0,0C194.5-134.5,194.2-134.2,194.2-133.9"/>
		<path id="Path_49911" class="st0" d="M199.3-134.1v1.8h-0.7v-1.6c0-0.4-0.2-0.6-0.5-0.6c-0.3,0-0.5,0.2-0.7,0.5v1.7h-0.7v-2.7h0.7
			v0.4c0.2-0.3,0.6-0.5,0.9-0.5C199-135,199.3-134.7,199.3-134.1"/>
		<path id="Path_49912" class="st0" d="M202.7-136.2v3.9h-0.6l0-0.4c-0.2,0.3-0.5,0.5-0.9,0.5c-0.8-0.1-1.3-0.8-1.2-1.6
			c0.1-0.6,0.6-1.1,1.2-1.2c0.3,0,0.6,0.1,0.8,0.4v-1.6H202.7z M202.1-133.6c0.1-0.4-0.2-0.8-0.6-0.8c0,0,0,0-0.1,0
			c-0.5,0-0.7,0.3-0.7,0.8c0,0.5,0.3,0.8,0.7,0.8C201.8-132.8,202.1-133.2,202.1-133.6C202.1-133.6,202.1-133.6,202.1-133.6"/>
		<path id="Path_49913" class="st0" d="M206.1-133.5h-1.9c0,0.4,0.4,0.7,0.8,0.7c0.3,0,0.6-0.1,0.8-0.3l0.3,0.5
			c-0.3,0.3-0.7,0.4-1.1,0.4c-0.8,0-1.4-0.6-1.5-1.4c0-0.8,0.6-1.4,1.4-1.5c0.7,0,1.3,0.5,1.3,1.1c0,0.1,0,0.1,0,0.2L206.1-133.5z
			 M204.2-133.9h1.2c0-0.3-0.3-0.6-0.6-0.6c0,0,0,0,0,0C204.5-134.5,204.2-134.2,204.2-133.9"/>
		<path id="Path_49914" class="st0" d="M209.3-136.2v3.9h-0.6l0-0.4c-0.2,0.3-0.5,0.5-0.9,0.5c-0.8-0.1-1.3-0.8-1.2-1.6
			c0.1-0.6,0.6-1.1,1.2-1.2c0.3,0,0.6,0.1,0.8,0.4v-1.6H209.3z M208.7-133.6c0.1-0.4-0.2-0.8-0.6-0.8c0,0,0,0-0.1,0
			c-0.5,0-0.7,0.3-0.7,0.8c0,0.5,0.3,0.8,0.7,0.8C208.4-132.8,208.7-133.2,208.7-133.6C208.7-133.6,208.7-133.6,208.7-133.6"/>
		<path id="Path_49915" class="st0" d="M214.2-133.3c0,0.7-0.5,1-1.3,1h-1.4v-3.7h1.3c0.7,0,1.3,0.3,1.3,1c0,0.4-0.2,0.7-0.6,0.8
			C213.8-134.2,214.2-133.8,214.2-133.3 M212.2-135.4v1.1h0.5c0.4,0,0.6-0.1,0.6-0.5s-0.2-0.5-0.6-0.5H212.2z M213.4-133.4
			c0-0.4-0.3-0.5-0.6-0.5h-0.6v1.1h0.6C213.1-132.8,213.4-133,213.4-133.4"/>
		<path id="Path_49916" class="st0" d="M217.3-133.5h-1.9c0,0.4,0.4,0.7,0.8,0.7c0.3,0,0.6-0.1,0.8-0.3l0.3,0.5
			c-0.3,0.3-0.7,0.4-1.1,0.4c-0.8,0-1.4-0.6-1.5-1.4c0-0.8,0.6-1.4,1.4-1.5c0.7,0,1.3,0.5,1.3,1.1c0,0.1,0,0.1,0,0.2L217.3-133.5z
			 M215.4-133.9h1.2c0-0.3-0.3-0.6-0.6-0.6c0,0,0,0,0,0C215.7-134.5,215.4-134.2,215.4-133.9"/>
		<path id="Path_49917" class="st0" d="M220.4-134.9l-1,2.7h-0.7l-1-2.7h0.7l0.6,1.9l0.6-1.9H220.4z"/>
		<path id="Path_49918" class="st0" d="M223.4-133.5h-1.9c0,0.4,0.4,0.7,0.8,0.7c0.3,0,0.6-0.1,0.8-0.3l0.3,0.5
			c-0.3,0.3-0.7,0.4-1.1,0.4c-0.8,0-1.4-0.6-1.5-1.4c0-0.8,0.6-1.4,1.4-1.5c0.7,0,1.3,0.5,1.3,1.1c0,0.1,0,0.1,0,0.2L223.4-133.5z
			 M221.5-133.9h1.2c0-0.3-0.3-0.6-0.6-0.6c0,0,0,0,0,0C221.8-134.5,221.5-134.2,221.5-133.9"/>
		<path id="Path_49919" class="st0" d="M225.7-135v0.7c-0.5,0-0.9,0.3-0.9,0.8c0,0,0,0.1,0,0.1v1.1h-0.7v-2.7h0.7v0.6
			C224.9-134.7,225.3-135,225.7-135"/>
		<path id="Path_49920" class="st0" d="M228-132.3c0-0.1-0.1-0.2-0.1-0.3c-0.2,0.2-0.5,0.4-0.9,0.4c-0.5,0-0.9-0.2-0.9-0.8
			c0-0.6,0.6-0.9,1.7-1v-0.1c0-0.3-0.2-0.4-0.5-0.5c-0.3,0-0.6,0.1-0.8,0.3l-0.3-0.4c0.3-0.3,0.7-0.5,1.1-0.5c0.6,0,1.1,0.2,1.1,1
			v1.3c0,0.1,0,0.3,0.1,0.4L228-132.3z M227.9-133v-0.5c-0.6,0-1,0.2-1,0.5c0,0.2,0.1,0.3,0.4,0.3
			C227.5-132.7,227.8-132.8,227.9-133"/>
		<path id="Path_49921" class="st0" d="M231.9-132.1c0,0.5-0.4,0.9-1.5,0.9c-0.7,0-1.3-0.2-1.3-0.6c0-0.3,0.3-0.4,0.5-0.5
			c-0.2-0.1-0.3-0.2-0.3-0.4c0-0.3,0.2-0.4,0.4-0.6c-0.3-0.2-0.4-0.4-0.4-0.8c0-0.6,0.5-0.9,1.2-0.9c0.3,0,0.5,0.1,0.7,0.2l0.5-0.4
			l0.4,0.4l-0.5,0.3c0.1,0.1,0.1,0.3,0.1,0.5c0,0.6-0.5,1-1.2,1c-0.1,0-0.3,0-0.4,0c-0.1,0-0.2,0.1-0.2,0.2c0,0.2,0.5,0.2,0.9,0.2
			C231.6-132.8,231.9-132.5,231.9-132.1 M231.3-131.9c0-0.3-0.5-0.3-0.9-0.3c-0.1,0-0.2,0-0.4,0c-0.1,0.1-0.2,0.2-0.2,0.3
			c0,0.2,0.2,0.3,0.7,0.3C231-131.6,231.3-131.7,231.3-131.9 M230-134.1c0,0.3,0.2,0.5,0.5,0.5c0,0,0,0,0.1,0c0.3,0,0.5-0.2,0.5-0.4
			c0,0,0,0,0-0.1c0-0.3-0.2-0.5-0.4-0.5c0,0,0,0-0.1,0C230.3-134.6,230-134.4,230-134.1C230-134.1,230-134.1,230-134.1"/>
		<path id="Path_49922" class="st0" d="M235-133.5h-1.9c0,0.4,0.4,0.7,0.8,0.7c0.3,0,0.6-0.1,0.8-0.3l0.3,0.5
			c-0.3,0.3-0.7,0.4-1.1,0.4c-0.8,0-1.4-0.6-1.5-1.4c0-0.8,0.6-1.4,1.4-1.5c0.7,0,1.3,0.5,1.3,1.1c0,0.1,0,0.1,0,0.2L235-133.5z
			 M233.1-133.9h1.2c0-0.3-0.3-0.6-0.6-0.6c0,0,0,0,0,0C233.4-134.5,233.1-134.2,233.1-133.9"/>
		<path id="Path_49923" class="st0" d="M36.9-159.1c-0.1,1.4-0.3,2.9-0.6,4.3l-1.6-0.5c0.4-1.3,0.7-2.6,0.8-4L36.9-159.1z M39.5-170
			c-0.6,1.4-1.3,2.8-2.1,4.1c0.6,0,1.2-0.1,1.8-0.2c0.3-0.6,0.7-1.3,1.1-2l1.5,0.6c-1.1,2.1-2.4,4.1-4,6c0.9-0.1,1.8-0.2,2.6-0.4
			c-0.2-0.6-0.4-1.2-0.6-1.7l1.2-0.4c0.5,1.3,0.9,2.7,1.2,4l-1.4,0.3c-0.1-0.3-0.1-0.7-0.2-1c-1.8,0.4-3.6,0.7-5.4,0.8l-0.4-1.5
			c0.4,0,0.8,0,1.2,0c0.9-1,1.6-2.1,2.3-3.2c-1,0.2-2.1,0.3-3.4,0.5l-0.3-1.4c0.3,0,0.7,0,1-0.1c0.9-1.5,1.7-3.1,2.3-4.7L39.5-170z
			 M39.5-155.8l-1.5,0.1c0-1.1-0.1-2.3-0.4-3.4l1.3-0.1C39.3-158.2,39.5-157,39.5-155.8 M42-156.9h3.6v-10.8h-3.6v-1.5h8.6v1.5h-3.4
			v10.8h3.7v1.6h-9.1v-1.3l-1,0.4c-0.2-1-0.4-2-0.7-3l1.1-0.3C41.5-158.5,41.8-157.7,42-156.9"/>
		<path id="Path_49924" class="st0" d="M54.8-158.7c-0.1,1.4-0.3,2.9-0.7,4.2l-1.5-0.5c0.4-1.3,0.7-2.6,0.9-3.9L54.8-158.7z
			 M57.4-170c-0.6,1.4-1.2,2.8-2,4.1c0.6,0,1.1-0.1,1.6-0.2c0.3-0.7,0.7-1.5,1.1-2.3l1.4,0.5c-1.1,2.4-2.4,4.7-3.9,6.8
			c0.8,0,1.6-0.2,2.3-0.3c-0.2-0.6-0.3-1.2-0.5-1.8l1.2-0.4c0.4,1.3,0.8,2.5,1.1,3.8l-1.4,0.3c-0.1-0.2-0.1-0.5-0.1-0.7
			c-1.6,0.3-3.3,0.6-4.9,0.7l-0.4-1.5c0.3,0,0.7,0,1,0c0.9-1.2,1.6-2.4,2.3-3.7c-1,0.2-2,0.3-3.1,0.5l-0.3-1.5c0.3,0,0.6,0,0.9-0.1
			c0.9-1.5,1.6-3.1,2.2-4.7L57.4-170z M57.2-155.2l-1.4,0.1c0-1.2-0.1-2.4-0.3-3.6l1.2-0.1C56.9-157.7,57.1-156.5,57.2-155.2
			 M59.5-156.1l-1.4,0.5c-0.2-1.2-0.5-2.3-0.8-3.5l1.2-0.3C58.9-158.3,59.3-157.2,59.5-156.1 M64-169.9c-0.5,1.3-1.2,2.5-1.9,3.7
			c0.8-0.1,1.6-0.2,2.3-0.3c0.5-0.7,0.9-1.4,1.3-2.2l1.6,0.6c-1.3,2.1-2.8,4-4.5,5.7c1.1-0.1,2.2-0.3,3.3-0.6
			c-0.2-0.6-0.5-1.1-0.7-1.6l1.4-0.4c0.6,1.2,1.1,2.4,1.5,3.6l-1.4,0.6c-0.1-0.3-0.2-0.7-0.3-1c-0.6,0.2-1.1,0.3-1.7,0.4v5.3
			c0,0.4-0.1,0.9-0.4,1.2c-0.4,0.3-0.9,0.4-1.4,0.4h-1.6l-0.3-1.6c0.5,0.1,1,0.1,1.6,0.1c0.4,0,0.6-0.1,0.6-0.4v-4.7
			c-1.1,0.2-2.3,0.3-3.5,0.4l-0.4-1.6c0.6,0,1.1,0,1.7,0c0.9-0.9,1.7-1.8,2.4-2.8c-1.1,0.2-2.4,0.4-3.7,0.6l-0.3-1.4
			c0.3,0,0.7-0.1,1-0.1c0.8-1.4,1.5-2.9,2-4.4L64-169.9z M62.1-160.1c-0.1,1.2-0.4,2.5-1,3.6l-1.4-0.4c0.5-1,0.9-2.2,1.1-3.3
			L62.1-160.1z M68.1-156.6l-1.4,0.3c-0.3-1.2-0.7-2.4-1.2-3.6l1.3-0.4C67.4-159.1,67.8-157.9,68.1-156.6"/>
		<path id="Path_49925" class="st0" d="M74.2-170c-0.5,1.5-1.2,3-1.9,4.4c0.5-0.1,0.9-0.1,1.3-0.2c0.3-0.8,0.7-1.7,1.1-2.6l1.4,0.5
			c-0.9,2.3-2,4.5-3.3,6.6c0.6-0.1,1.3-0.2,1.9-0.3c-0.1-0.6-0.3-1.1-0.4-1.7l1.2-0.3c0.4,1.2,0.7,2.4,1,3.6l-1.3,0.4
			c-0.1-0.2-0.1-0.5-0.1-0.7c-1.5,0.4-3,0.6-4.5,0.7l-0.4-1.5c0.4,0,0.8,0,1.1,0c0.6-1,1.2-2.1,1.7-3.1c-0.8,0.2-1.7,0.4-2.7,0.6
			l-0.3-1.5c0.3,0,0.5-0.1,0.8-0.1c0.8-1.6,1.5-3.3,2.1-5.1L74.2-170z M72.1-159c-0.1,1.5-0.3,3-0.7,4.4L70-155
			c0.4-1.4,0.7-2.7,0.8-4.2L72.1-159z M74.2-155.2l-1.4,0.1c0-1.7-0.1-3-0.2-3.9l1.2-0.1C74.1-157.8,74.2-156.5,74.2-155.2
			 M76.5-156.5c0.4-0.7,0.7-1.4,1-2.2c0.2-0.8,0.3-1.6,0.3-2.5h-1.4v-1.4h1.4v-3h1.5v3h1.5v1.4h-1.5c0,1-0.2,2-0.4,3
			c-0.3,1.2-0.8,2.4-1.5,3.4l-1.3-1.1C76.2-156.1,76.3-156.3,76.5-156.5l-1.3,0.4c-0.2-1-0.4-2.1-0.7-3.1l1.2-0.3
			C76-158.6,76.2-157.6,76.5-156.5 M80.8-167.8c0-0.8,0-1.7,0-2.6h1.6c0,0.9,0,1.8,0,2.6H84c-0.3-0.5-0.7-1-1.2-1.6L84-170
			c0.7,0.7,1.2,1.2,1.6,1.7l-0.8,0.5H86v1.5h-3.5c0,1.7,0.2,3.4,0.4,5.1c0.6-1.3,1.1-2.7,1.5-4.1l1.4,0.6c-0.7,2-1.5,3.9-2.4,5.7
			c0,0,0,0,0,0c0.5,1.8,0.8,2.6,1,2.6c0.1,0,0.3-0.8,0.5-2.3l1.4,0.9c-0.1,1-0.5,2-1,2.9c-0.1,0.2-0.4,0.4-0.6,0.4
			c-0.5,0-1-0.4-1.6-1.3c-0.3-0.5-0.5-1-0.7-1.6c-0.8,1-1.6,2-2.4,2.9l-1.2-1.1c1.1-1.1,2.2-2.4,3.1-3.7c-0.1-0.5-0.2-1-0.3-1.6
			c-0.3-1.8-0.4-3.7-0.5-5.5h-4.6v-1.5L80.8-167.8z"/>
		<path id="Path_49926" class="st0" d="M101.6-169.9v9.5c-0.1,1.1,0,2.3,0.3,3.4c0.1,0.3,0.2,0.4,0.3,0.4c0.2,0,0.4-0.6,0.6-2
			l1.2,0.7c-0.1,1-0.3,1.9-0.8,2.8c-0.2,0.3-0.5,0.4-0.8,0.5c-0.5,0-1-0.2-1.3-0.6c-0.6-0.7-0.9-2.4-0.9-5.1v-8h-9.6v5.8
			c0,1.3-0.1,2.7-0.3,4c-0.2,1.5-0.6,2.9-1.2,4.3l-1.4-1.2c0.5-1.1,0.9-2.3,1.1-3.5c0.1-1.2,0.2-2.4,0.2-3.5v-7.3L101.6-169.9
			L101.6-169.9z M99.5-167.4v1.4H96v1.4h3.1v5.3H96v2.1c0.7-0.1,1.3-0.2,1.8-0.3c-0.2-0.4-0.4-0.7-0.6-1.1l1.3-0.4
			c0.7,1,1.2,2.1,1.7,3.3l-1.3,0.5c-0.1-0.3-0.3-0.7-0.4-1c-2.5,0.4-5,0.7-7.5,0.8l-0.5-1.6c1.5,0,2.8,0,3.9-0.1v-2.3h-3v-5.3h3
			v-1.4h-3.3v-1.4H99.5z M94.4-163.1h-1.6v2.6h1.6V-163.1z M97.6-163.1H96v2.6h1.6L97.6-163.1z"/>
		<path id="Path_49927" class="st0" d="M110.7-158h-3.3v1.9H106v-13.2h4.8L110.7-158z M109.2-167.9h-1.8v8.4h1.8V-167.9z
			 M115.3-168.1v-2.4h1.6v2.4h3.6v1.4h-3.6v2.4h4.2v1.5h-3.3c0.3,0.9,0.8,1.8,1.3,2.6c0.6,1,1.4,1.9,2.2,2.8l-1.2,1.5
			c-0.9-1.1-1.7-2.3-2.3-3.6c-0.4-0.7-0.7-1.4-0.9-2.2v7.2h-1.6v-7c-0.9,2-2.2,3.9-3.8,5.5l-1-1.5c1.7-1.5,3-3.3,4-5.3h-3.3v-1.5
			h4.1v-2.4h-3.4v-1.4L115.3-168.1z"/>
		<path id="Path_49928" class="st0" d="M127.5-165.3v4c0.2,0,0.3-0.1,0.5-0.2v1.5c-1.5,0.6-3.1,1.1-4.7,1.5l-0.4-1.7
			c1.1-0.1,2.1-0.4,3.1-0.7v-2h-2.9v-1.5h2.9v-1L127.5-165.3z M127.1-169.4v-1h1.6v1h4.1v-1h1.6v1h4.1v1.4h-4.1v2.3h-7.4v-2.3h-3.9
			v-1.4L127.1-169.4z M126.7-158c-0.5,1.3-1.1,2.5-1.9,3.6l-1.6-1.1c0.8-1,1.5-2.1,2-3.2L126.7-158z M130-154.8l-1.8,0.2
			c0-1.2-0.1-2.4-0.4-3.5l1.5-0.1C129.7-157.1,129.9-155.9,130-154.8 M133.1-158.9h-4.7v-6h4.7L133.1-158.9z M128.7-167h4.1v-1h-4.1
			V-167z M131.6-163.6h-1.7v3.3h1.7L131.6-163.6z M134.3-154.8l-1.9,0.2c0-1.3-0.3-2.5-0.9-3.6l1.6-0.1
			C133.8-157.3,134.2-156.1,134.3-154.8 M135.4-165.3v1.7c0.8-0.5,1.5-1,2.2-1.7l1,1.3c-1,0.8-2.1,1.4-3.2,2v1.4
			c0,0.3,0.2,0.5,0.6,0.5h0.6c0.2,0,0.4,0,0.5-0.2c0.2-0.5,0.3-1.1,0.3-1.7l1.5,0.5c-0.1,1.4-0.4,2.2-0.7,2.4
			c-0.4,0.3-0.9,0.4-1.4,0.4h-1.4c-0.4,0-0.8-0.1-1.1-0.4c-0.3-0.3-0.5-0.7-0.4-1.1v-5.2L135.4-165.3z M138.9-155.1l-1.6,0.7
			c-0.4-1.3-0.9-2.5-1.5-3.7l1.6-0.5C137.9-157.5,138.5-156.3,138.9-155.1"/>
		<path id="Path_49929" class="st0" d="M147.6-169.4v-1.1h1.6v1.1h6.5v1.4h-2.4l0.8,0.5c-0.1,0.3-0.3,0.5-0.4,0.8
			c0.9,0.6,1.8,1.3,2.6,2.1l-1,1.4c-0.7-0.8-1.5-1.6-2.4-2.2c-0.1,0.1-0.1,0.2-0.2,0.2c-0.3,0.4-0.6,0.8-1,1.1
			c0.2,0.1,0.3,0.2,0.5,0.3c1.4,0.8,2.9,1.4,4.5,1.8l-0.8,1.6c-1.8-0.6-3.5-1.4-5-2.5c-0.7-0.5-1.3-1-1.8-1.6v1.6h-1.6v-1.1
			c-0.6,0.6-1.3,1.1-2,1.6c-1.4,0.9-2.9,1.7-4.5,2.4l-0.9-1.5c1.6-0.6,3.2-1.3,4.6-2.2c0.2-0.1,0.4-0.2,0.6-0.4
			c-0.5-0.5-1-0.9-1.5-1.3c-0.1,0.2-0.3,0.3-0.4,0.5c-0.6,0.8-1.4,1.5-2.2,2.1l-0.8-1.4c0.7-0.5,1.3-1,1.9-1.7
			c0.5-0.6,0.9-1.3,1.3-2h-2.5v-1.4H147.6z M148.8-162.3c-0.2,0.4-0.5,0.8-0.8,1.2h5.7v1.2c-0.6,1-1.3,2-2.1,2.8
			c0.9,0.4,1.7,0.8,2.4,1.3l-1.2,1.2c-0.8-0.5-1.6-1-2.6-1.5c-2.2,1-4.4,1.5-6.8,1.7l-1.1-1.5c2.1-0.1,4.1-0.5,6.1-1.1
			c-1.1-0.5-2.2-1-3.5-1.5c-0.8,0.5-1.7,0.9-2.5,1.3l-1-1.4c1.3-0.5,2.5-1.1,3.6-1.8c0.8-0.6,1.6-1.3,2.1-2.1L148.8-162.3z
			 M147.6-166v-1.9h-3.4l0.9,0.5c-0.1,0.3-0.3,0.5-0.4,0.8c0.7,0.5,1.3,1,2,1.5C147-165.4,147.3-165.7,147.6-166 M150.2-157.8
			c0.7-0.5,1.3-1.2,1.8-1.9h-5.2c-0.1,0.1-0.2,0.2-0.4,0.3C147.7-158.9,149-158.3,150.2-157.8 M150.5-165c0.4-0.4,0.8-0.8,1.1-1.2
			c0.4-0.5,0.8-1.1,1-1.7h-3.5v1.7C149.6-165.8,150-165.4,150.5-165"/>
		<path id="Path_49930" class="st0" d="M160.2-167.4c0.2-0.9,0.3-1.9,0.4-2.9l1.6,0.1c-0.1,1-0.3,1.9-0.5,2.8h3v1.5
			c-0.1,1.7-0.4,3.3-0.8,4.9c-0.1,0.5-0.3,1-0.5,1.5c0.5,0.4,1,0.8,1.3,1.1l-1,1.2c-0.3-0.3-0.7-0.6-1.1-0.9
			c-0.1,0.1-0.1,0.2-0.2,0.3c-0.8,1.2-1.9,2.3-3.1,3.2l-1.2-1.4c1.2-0.9,2.3-2,3.1-3.2c-0.9-0.6-1.8-1.3-2.9-2
			c0.7-1.6,1.2-3.2,1.5-4.9H158v-1.5L160.2-167.4z M160.4-161.6c0.6,0.4,1.2,0.8,1.7,1.2c0.6-1.8,1-3.6,1.1-5.4h-1.6
			C161.2-164.4,160.9-163,160.4-161.6 M172.9-169.9c-0.3,1.7-0.7,3.4-1.2,5h2.2c-0.2,3.8-0.4,6.3-0.6,7.5c-0.1,0.7-0.3,1.3-0.7,1.8
			c-0.5,0.6-1.3,0.9-2.1,0.8h-2.3l-0.5-1.7c0.8,0.1,1.6,0.1,2.4,0.1c0.5,0.1,0.9-0.1,1.2-0.5c0.3-0.5,0.4-1.1,0.5-1.7
			c0.2-1.1,0.3-2.7,0.4-4.9h-2.5c0.5-1.7,1-3.3,1.3-5h-2.4v2c0.1,2.3-0.3,4.5-0.9,6.7c-0.8,2-2,3.9-3.5,5.4l-1.4-1.2
			c1.5-1.3,2.6-2.9,3.3-4.7c0.7-2,1-4.1,0.9-6.2v-2h-2.7v-1.5H172.9z"/>
		<path id="Path_49931" class="st0" d="M190.3-170v6.5H185v1.6h5.9v1.4H185v1.3h5.4v1.4H185v1.6h6.7v1.4h-15.6v-1.4h7.2v-1.6h-5
			v-1.4h5v-1.3h-4.3c-0.6,0.7-1.3,1.3-2,1.9l-1.4-1.2c0.8-0.5,1.5-1.1,2.1-1.8c0.5-0.6,0.9-1.3,1.2-2h-1.5v-6.5H190.3z M188.7-168.7
			H179v1.2h9.6V-168.7z M188.7-166.1H179v1.2h9.6V-166.1z M183.3-163.6h-3.8l1,0.4c-0.2,0.5-0.4,0.9-0.6,1.2h3.4L183.3-163.6z"/>
		<path id="Path_49932" class="st0" d="M197.2-162.5c-0.6,2.6-1.4,5.1-2.5,7.5l-1.4-1.3c1-2.3,1.7-4.6,2.3-7L197.2-162.5z
			 M197.3-167l-1.4,1.4c-0.6-0.9-1.4-1.7-2.2-2.5l1.3-1.2C195.8-168.6,196.5-167.9,197.3-167 M201.4-166.6c0.1,2.1-0.3,4.2-1,6.1
			c-0.7,1.7-1.7,3.2-3.1,4.4l-1-1.6c1.2-1,2.1-2.3,2.7-3.7c0.5-1.2,0.7-2.5,0.8-3.7H197v-1.5L201.4-166.6z M203.8-170.4v3.3
			c0.2,0.8,0.5,1.5,0.9,2.3c1-1.1,2-2.3,2.7-3.5l1.2,1c-0.8,1.5-1.9,3-3.1,4.2c0.2,0.3,0.3,0.7,0.5,1c1,1.7,2.2,3.3,3.5,4.7
			l-1.2,1.5c-1.5-1.7-2.7-3.6-3.8-5.6c-0.3-0.6-0.6-1.1-0.8-1.7v6.9c0.1,0.5-0.1,1-0.5,1.3c-0.5,0.3-1,0.5-1.6,0.4H200l-0.3-1.7
			c0.5,0.1,1.1,0.1,1.6,0.1c0.5,0,0.8-0.1,0.8-0.4v-13.8H203.8z"/>
		<path id="Path_49933" class="st0" d="M218.2-160.4v-0.9h1.6v0.9h7v1.4h-5.4c0.6,0.5,1.2,0.9,1.9,1.2c1.2,0.6,2.4,1,3.7,1.3
			l-0.7,1.5c-1.5-0.5-2.9-1.1-4.3-1.9c-0.8-0.5-1.6-1.2-2.2-2v4.5h-1.6v-4.6c-0.5,0.7-1.1,1.3-1.8,1.7c-1.4,0.9-3,1.7-4.6,2.2
			l-0.9-1.4c1.5-0.4,3-0.9,4.3-1.6c0.4-0.2,0.9-0.5,1.2-0.9H211v-1.4H218.2z M215-170c-0.3,1.2-0.8,2.4-1.4,3.5c0.3,0,0.7-0.1,1-0.1
			c0.2-0.5,0.5-1,0.8-1.6l1.3,0.5c-0.7,1.6-1.6,3.1-2.7,4.6c0.4,0,0.8-0.1,1.1-0.2c0-0.4-0.1-0.7-0.1-1.1l1.2-0.1
			c0.2,1,0.3,2.1,0.5,3.3l-1.4,0.1c0-0.3-0.1-0.7-0.1-1c-1.2,0.2-2.3,0.4-3.5,0.5l-0.2-1.3c0.3,0,0.7,0,1,0c0.5-0.8,1-1.5,1.5-2.4
			c-0.6,0.1-1.4,0.2-2.3,0.3l-0.1-1.2c0.2,0,0.4,0,0.6,0c0.7-1.2,1.1-2.5,1.4-3.8L215-170z M220.1-170.3c-0.1,0.5-0.3,0.9-0.5,1.4
			h1.7v7.3h-4.5v-7.3h1.3c0.2-0.5,0.4-1,0.5-1.6L220.1-170.3z M219.9-167.7h-1.8v1.7h1.8V-167.7z M219.9-164.8h-1.8v2h1.8V-164.8z
			 M224.7-169.9c-0.3,1.1-0.7,2.2-1.2,3.2c0.3,0,0.6-0.1,1-0.1c0.2-0.4,0.4-0.9,0.6-1.4l1.3,0.5c-0.7,1.6-1.6,3.2-2.7,4.7
			c0.4,0,0.9-0.1,1.3-0.1c-0.1-0.4-0.2-0.8-0.2-1.2l1.1-0.3c0.3,1,0.6,2,0.8,2.9l-1.3,0.5c0-0.2-0.1-0.5-0.1-0.8
			c-1,0.1-2.1,0.2-3.4,0.3l-0.3-1.3c0.2,0,0.5,0,0.7,0c0.6-0.9,1.1-1.8,1.6-2.7c-0.6,0.1-1.3,0.2-2.1,0.3l-0.3-1.2
			c0.2,0,0.4,0,0.6-0.1c0.5-1.2,1-2.5,1.3-3.8L224.7-169.9z"/>
		<path id="Path_49934" class="st0" d="M26.3-143.2h-0.9v2.8H24v-7.7h2.7c1.7,0,2.9,0.7,2.9,2.3c0.1,1.1-0.7,2.2-1.8,2.4l2,3h-1.7
			L26.3-143.2z M25.4-144.3h1.1c1,0,1.5-0.4,1.5-1.3s-0.6-1.3-1.5-1.3h-1.1L25.4-144.3z"/>
		<path id="Path_49935" class="st0" d="M36.3-142.9h-4c0.1,0.9,0.9,1.5,1.7,1.4c0.6,0,1.2-0.2,1.6-0.6l0.5,1
			c-0.6,0.6-1.5,0.9-2.4,0.9c-1.6,0.1-3-1.2-3.1-2.8c-0.1-1.6,1.2-3,2.8-3.1c0,0,0,0,0,0c1.4-0.1,2.6,1,2.7,2.4c0,0.1,0,0.2,0,0.3
			L36.3-142.9z M32.3-143.7h2.6c0-0.7-0.5-1.3-1.2-1.3c0,0,0,0,0,0C32.9-145,32.3-144.4,32.3-143.7"/>
		<path id="Path_49936" class="st0" d="M43-148.5v8.1h-1.3l0-0.8c-0.4,0.6-1.1,1-1.8,1c-1.4,0-2.5-1.1-2.5-2.9s1.1-2.9,2.5-2.9
			c0.7,0,1.3,0.3,1.7,0.8v-3.3H43z M41.7-143.2c0.1-0.8-0.5-1.6-1.3-1.7c0,0-0.1,0-0.1,0c-0.9,0-1.5,0.7-1.5,1.7s0.5,1.7,1.5,1.7
			c0.8,0,1.5-0.7,1.5-1.6C41.7-143.1,41.7-143.1,41.7-143.2"/>
		<path id="Path_49937" class="st0" d="M53.4-148.1l-2.7,7.7h-1.5l-2.6-7.7h1.6l1.9,5.7l1.9-5.7H53.4z"/>
		<path id="Path_49938" class="st0" d="M59.6-142.9h-4c0.1,0.9,0.9,1.5,1.8,1.4c0.6,0,1.2-0.2,1.6-0.6l0.5,1
			c-0.6,0.6-1.5,0.9-2.4,0.9c-1.6,0.1-3-1.2-3.1-2.8c-0.1-1.6,1.2-3,2.8-3.1c0,0,0,0,0,0c1.4-0.1,2.6,1,2.7,2.4c0,0.1,0,0.2,0,0.3
			L59.6-142.9z M55.6-143.7h2.6c0-0.7-0.5-1.3-1.2-1.3c0,0,0,0,0,0C56.2-145,55.6-144.4,55.6-143.7"/>
		<rect id="Rectangle_2646" x="61" y="-148.5" class="st0" width="1.4" height="8.1"/>
		<path id="Path_49939" class="st0" d="M69.1-145.9l-2.1,5.5h-1.4l-2-5.5H65l1.3,3.9l1.3-3.9H69.1z"/>
		<path id="Path_49940" class="st0" d="M75.4-142.9h-4c0.1,0.9,0.9,1.5,1.8,1.4c0.6,0,1.2-0.2,1.6-0.6l0.5,1
			c-0.6,0.6-1.5,0.9-2.4,0.9c-1.6,0.1-3-1.2-3.1-2.8c-0.1-1.6,1.2-3,2.8-3.1c0,0,0,0,0,0c1.4-0.1,2.6,1,2.7,2.4c0,0.1,0,0.2,0,0.3
			L75.4-142.9z M71.4-143.7h2.6c0-0.7-0.5-1.3-1.2-1.3c0,0,0,0,0,0C72-145,71.4-144.4,71.4-143.7"/>
		<path id="Path_49941" class="st0" d="M80.1-140.4c-0.4,0.1-0.8,0.1-1.2,0.1c-1.4,0-1.8-0.6-1.8-1.8v-2.8h-0.9v-1.1h0.9v-1.3
			l1.4-0.3v1.6h1.5v1.1h-1.5v2.6c0,0.7,0.3,0.8,0.9,0.8c0.2,0,0.5,0,0.7-0.1L80.1-140.4z"/>
		<path id="Path_49942" class="st0" d="M83.6-144.2c0.1-2.1,1.9-3.8,4-3.7c2.1,0.1,3.8,1.9,3.7,4c-0.1,2.1-1.8,3.7-3.9,3.7
			c-2.1,0-3.9-1.7-3.9-3.8C83.6-144.1,83.6-144.2,83.6-144.2 M89.8-144.2c-0.2-1.3-1.4-2.2-2.7-2c-1.3,0.2-2.2,1.4-2,2.7
			c0.2,1.2,1.2,2.1,2.3,2.1c1.3,0,2.4-1.1,2.4-2.5C89.8-144.1,89.8-144.2,89.8-144.2"/>
		<path id="Path_49943" class="st0" d="M96.1-140.4c-0.1-0.2-0.1-0.4-0.1-0.6c-0.5,0.5-1.1,0.8-1.8,0.8c-1,0-1.8-0.4-1.8-1.6
			c0-1.3,1.2-1.9,3.6-2v-0.2c0-0.6-0.4-0.9-1.1-0.9c-0.6,0-1.2,0.2-1.6,0.7l-0.6-0.8c0.6-0.7,1.5-1,2.4-1c1.2,0,2.3,0.5,2.3,2.1v2.8
			c0,0.3,0,0.5,0.1,0.8H96.1z M96-142v-1.1c-1.3,0-2.1,0.3-2.1,1.1c0,0.4,0.3,0.7,0.8,0.7C95.2-141.3,95.6-141.5,96-142"/>
		<path id="Path_49944" class="st0" d="M102.4-140.4c-0.4,0.1-0.8,0.1-1.2,0.1c-1.4,0-1.8-0.6-1.8-1.8v-2.8h-0.9v-1.1h0.9v-1.3
			l1.4-0.3v1.6h1.5v1.1h-1.5v2.6c0,0.7,0.3,0.8,0.9,0.8c0.2,0,0.5,0,0.7-0.1L102.4-140.4z"/>
		<path id="Path_49945" class="st0" d="M112.7-144.1v3.7h-1.4v-3.2c0-0.9-0.3-1.2-1-1.2c-0.6,0.1-1.2,0.5-1.4,1.1v3.4h-1.4v-3.2
			c0-0.9-0.3-1.2-1-1.2c-0.6,0-1.1,0.4-1.3,0.9v3.6h-1.4v-5.5h1.4v0.8c0.4-0.6,1.1-1,1.8-0.9c0.7-0.1,1.5,0.3,1.7,1.1
			c0.5-0.7,1.3-1.1,2.1-1.1c0.9-0.1,1.8,0.6,1.9,1.5C112.7-144.4,112.7-144.2,112.7-144.1"/>
		<path id="Path_49946" class="st0" d="M114.4-147.7c0-0.5,0.5-0.8,1-0.8c0.4,0,0.8,0.4,0.8,0.8c0,0.5-0.4,0.7-0.9,0.7
			S114.4-147.2,114.4-147.7 M114.6-145.9h1.4v5.5h-1.4V-145.9z"/>
		<rect id="Rectangle_2647" x="118" y="-148.5" class="st0" width="1.4" height="8.1"/>
		<path id="Path_49947" class="st0" d="M123.1-142.6l-0.5,0.5v1.6h-1.4v-8.1h1.4v5l2.1-2.4h1.6l-2.2,2.4l2.4,3.2h-1.6L123.1-142.6z"
			/>
		<path id="Path_49948" class="st0" d="M129.5-144.2c-0.2-2,1.3-3.8,3.3-4c0.1,0,0.2,0,0.4,0c0.9,0,1.8,0.2,2.5,0.8l-0.4,1.3
			c-0.5-0.5-1.2-0.7-1.8-0.7c-1.5,0.2-2.5,1.5-2.3,2.9c0.1,1.2,1.1,2.2,2.4,2.4c0.8,0,1.5-0.3,2-0.8l0.4,1.3c-0.7,0.7-1.7,1-2.6,0.9
			c-2,0-3.7-1.6-3.7-3.6C129.5-144,129.5-144.1,129.5-144.2"/>
		<path id="Path_49949" class="st0" d="M140.4-146v1.5c-1-0.1-1.8,0.7-1.9,1.7c0,0.1,0,0.1,0,0.2v2.3h-1.4v-5.5h1.4v1.2
			C138.8-145.5,139.6-146,140.4-146"/>
		<path id="Path_49950" class="st0" d="M147-142.9h-4c0.1,0.9,0.9,1.5,1.8,1.4c0.6,0,1.2-0.2,1.6-0.6l0.5,1
			c-0.6,0.6-1.5,0.9-2.4,0.9c-1.6,0.1-3-1.2-3.1-2.8c-0.1-1.6,1.2-3,2.8-3.1c0,0,0,0,0,0c1.4-0.1,2.6,1,2.7,2.4c0,0.1,0,0.2,0,0.3
			L147-142.9z M143-143.7h2.6c0-0.7-0.5-1.3-1.2-1.3c0,0,0,0,0,0C143.6-145,143-144.4,143-143.7"/>
		<path id="Path_49951" class="st0" d="M151.7-140.4c-0.1-0.2-0.1-0.4-0.1-0.6c-0.5,0.5-1.1,0.8-1.8,0.8c-1,0-1.8-0.4-1.8-1.6
			c0-1.3,1.2-1.9,3.6-2v-0.2c0-0.6-0.4-0.9-1.1-0.9c-0.6,0-1.2,0.2-1.6,0.7l-0.6-0.8c0.6-0.7,1.5-1,2.4-1c1.2,0,2.3,0.5,2.3,2.1v2.8
			c0,0.3,0,0.5,0.1,0.8H151.7z M151.6-142v-1.1c-1.3,0-2.1,0.3-2.1,1.1c0,0.4,0.3,0.7,0.8,0.7C150.8-141.3,151.3-141.5,151.6-142"/>
		<path id="Path_49952" class="st0" d="M163.6-144.1v3.7h-1.4v-3.2c0-0.9-0.3-1.2-1-1.2c-0.6,0.1-1.2,0.5-1.4,1.1v3.4h-1.4v-3.2
			c0-0.9-0.3-1.2-1-1.2c-0.6,0-1.1,0.4-1.3,0.9v3.6h-1.4v-5.5h1.4v0.8c0.4-0.6,1.1-1,1.8-0.9c0.7-0.1,1.5,0.3,1.7,1.1
			c0.5-0.7,1.3-1.1,2.1-1.1c0.9-0.1,1.8,0.6,1.9,1.5C163.7-144.4,163.6-144.2,163.6-144.1"/>
		<path id="Path_49953" class="st0" d="M169.5-146.9v2.1h2.4v1.1h-2.4v3.2H168v-7.7h4.2v1.2H169.5z"/>
		<path id="Path_49954" class="st0" d="M176.9-146v1.5c-1-0.1-1.8,0.7-1.9,1.7c0,0.1,0,0.1,0,0.2v2.3h-1.4v-5.5h1.4v1.2
			C175.3-145.5,176-146,176.9-146"/>
		<path id="Path_49955" class="st0" d="M181.6-140.4c-0.1-0.2-0.1-0.4-0.1-0.6c-0.5,0.5-1.1,0.8-1.8,0.8c-1,0-1.8-0.4-1.8-1.6
			c0-1.3,1.2-1.9,3.6-2v-0.2c0-0.6-0.4-0.9-1.1-0.9c-0.6,0-1.2,0.2-1.6,0.7l-0.6-0.8c0.6-0.7,1.5-1,2.4-1c1.2,0,2.3,0.5,2.3,2.1v2.8
			c0,0.3,0,0.5,0.1,0.8H181.6z M181.5-142v-1.1c-1.3,0-2.1,0.3-2.1,1.1c0,0.4,0.3,0.7,0.8,0.7C180.7-141.3,181.2-141.5,181.5-142"/>
		<path id="Path_49956" class="st0" d="M190.4-143.2c0,1.9-1.1,2.9-2.5,2.9c-0.7,0-1.5-0.3-1.8-1v2.9h-1.4v-7.5h1.3v1
			c0.3-0.8,1.1-1.2,1.9-1.2C189.3-146.1,190.4-145,190.4-143.2 M189-143.2c0-1-0.5-1.7-1.5-1.7c-0.9,0.2-1.6,1.1-1.4,2
			c0.1,0.7,0.7,1.3,1.4,1.4C188.4-141.4,189-142.1,189-143.2"/>
		<path id="Path_49957" class="st0" d="M197.6-143.2c0,1.9-1.1,2.9-2.5,2.9c-0.7,0-1.5-0.3-1.8-1v2.9h-1.4v-7.5h1.3v1
			c0.3-0.8,1.1-1.2,1.9-1.2C196.5-146.1,197.6-145,197.6-143.2 M196.2-143.2c0-1-0.5-1.7-1.5-1.7c-0.9,0.2-1.6,1.1-1.4,2
			c0.1,0.7,0.7,1.3,1.4,1.4C195.6-141.4,196.2-142.1,196.2-143.2"/>
		<path id="Path_49958" class="st0" d="M198.9-142.6v-3.3h1.4v3.3c0,0.8,0.3,1.2,1.1,1.2s1.1-0.5,1.1-1.2v-3.3h1.4v3.3
			c0,1.8-1,2.4-2.5,2.4S198.9-140.9,198.9-142.6"/>
		<path id="Path_49959" class="st0" d="M205.2-143.2c-0.1-1.5,1.1-2.8,2.6-2.9c0.1,0,0.2,0,0.3,0c0.7,0,1.3,0.2,1.9,0.6l-0.4,1.1
			c-0.4-0.3-0.9-0.5-1.4-0.4c-0.8,0-1.5,0.7-1.5,1.5c0,0,0,0.1,0,0.1c-0.1,0.9,0.6,1.6,1.5,1.7c0,0,0.1,0,0.1,0c0.5,0,1-0.2,1.4-0.5
			l0.4,1.1c-0.6,0.4-1.3,0.7-2,0.7c-1.5,0.1-2.8-1-2.9-2.5C205.2-142.9,205.2-143,205.2-143.2"/>
		<path id="Path_49960" class="st0" d="M211-143.2c-0.1-1.5,1.1-2.8,2.6-2.9c0.1,0,0.2,0,0.3,0c0.7,0,1.3,0.2,1.9,0.6l-0.4,1.1
			c-0.4-0.3-0.9-0.5-1.4-0.4c-0.8,0-1.5,0.7-1.5,1.5c0,0,0,0.1,0,0.1c-0.1,0.9,0.6,1.6,1.5,1.7c0,0,0.1,0,0.1,0c0.5,0,1-0.2,1.4-0.5
			l0.4,1.1c-0.6,0.4-1.3,0.7-2,0.7c-1.5,0.1-2.8-1-2.9-2.5C211-142.9,211-143,211-143.2"/>
		<path id="Path_49961" class="st0" d="M217.1-147.7c0.1-0.5,0.5-0.8,1-0.8c0.4,0,0.7,0.4,0.8,0.8c0,0.5-0.4,0.7-0.9,0.7
			S217.1-147.2,217.1-147.7 M217.3-145.9h1.4v5.5h-1.4V-145.9z"/>
		<path id="Path_49962" class="st0" d="M225.8-144.1v3.7h-1.4v-3.2c0-0.9-0.3-1.2-1-1.2c-0.6,0-1.1,0.4-1.4,1v3.5h-1.4v-5.5h1.4v0.8
			c0.5-0.6,1.2-1,2-1C225.3-146.1,225.8-145.3,225.8-144.1"/>
		<path id="Path_49963" class="st0" d="M227.3-143.2c0-1.6,1.3-2.9,2.9-2.9c1.6,0,2.9,1.3,2.9,2.9c0,1.6-1.3,2.9-2.9,2.9
			c0,0,0,0,0,0c-1.6,0.1-2.9-1.2-2.9-2.7C227.3-143,227.3-143.1,227.3-143.2 M231.6-143.2c0-1.1-0.6-1.7-1.4-1.7s-1.4,0.6-1.4,1.7
			c-0.1,0.8,0.4,1.5,1.2,1.7c0.8,0.1,1.5-0.4,1.7-1.2C231.7-142.9,231.7-143,231.6-143.2"/>
		<path id="Path_49964" class="st0" d="M238.4-146.2c0,1.3-1.1,2.3-2.3,2.3s-2.3-1.1-2.3-2.3c0-1.3,1-2.3,2.3-2.3
			C237.3-148.6,238.3-147.6,238.4-146.2C238.4-146.3,238.4-146.3,238.4-146.2 M238-146.2c0-1.1-0.9-1.9-2-1.9c-1.1,0-1.9,0.9-1.9,2
			c0,1,0.9,1.9,1.9,1.9c1,0,1.9-0.8,1.9-1.9C238-146.2,238-146.2,238-146.2 M236.4-146l0.6,0.8h-0.5L236-146h-0.2v0.8h-0.4v-2.2h0.8
			c0.5,0,0.8,0.2,0.8,0.7C236.9-146.4,236.7-146.1,236.4-146 M235.7-146.2h0.3c0.3,0,0.4-0.1,0.4-0.4s-0.2-0.3-0.4-0.3h-0.3
			L235.7-146.2z"/>
	</g>
</g>
<g id="NEW-2" transform="translate(163.4 1033.938)">
	<g id="Group_7249-2" transform="translate(-25.4 -10.495)">
		<path id="Path_50398-2" class="st0" d="M43.9-155.5l-1.7-4.8l-0.1-0.4H42v5.2h-1.3v-8.5h1.5l1.7,4.8l0.1,0.4h0.1v-5.2h1.3v8.5
			L43.9-155.5z"/>
		<path id="Path_50399-2" class="st0" d="M48.3-162.7v2.3H50v1.2h-1.6v2.5h1.9v1.2h-3.4v-8.5h3.4v1.2H48.3z"/>
		<path id="Path_50400-2" class="st0" d="M56.8-155.5h-1.3l-1.1-5.3h0l-1.1,5.3H52l-1.2-8.5h1.4l0.6,5.3l0,0l1-5.3H55l1,5.3l0,0
			l0.6-5.3H58L56.8-155.5z"/>
		<g id="Group_7248-2">
			<g>
				<defs>
					<rect id="SVGID_00000088119487703295876580000003034214959191240083_" x="24" y="-170.4" width="50.8" height="21"/>
				</defs>
				<clipPath id="SVGID_00000070822796210306881120000007837379375211960763_">
					<use xlink:href="#SVGID_00000088119487703295876580000003034214959191240083_"  style="overflow:visible;"/>
				</clipPath>
				<g id="Group_7247-2" style="clip-path:url(#SVGID_00000070822796210306881120000007837379375211960763_);">
					<path id="Path_50401-2" class="st2" d="M64.3-149.6H34.5c-5.7,0-10.3-4.6-10.3-10.3c0-5.7,4.6-10.3,10.3-10.3c0,0,0,0,0,0h29.8
						c5.7,0,10.3,4.6,10.3,10.3C74.6-154.2,70-149.6,64.3-149.6C64.3-149.6,64.3-149.6,64.3-149.6z"/>
				</g>
			</g>
		</g>
	</g>
</g>
</svg>
