<?xml version="1.0" encoding="utf-8"?>
<!-- Generator: Adobe Illustrator 26.3.1, SVG Export Plug-In . SVG Version: 6.00 Build 0)  -->
<svg version="1.1" id="banner_mobile_online-redeem_text-block"
	 xmlns="http://www.w3.org/2000/svg" xmlns:xlink="http://www.w3.org/1999/xlink" x="0px" y="0px" viewBox="0 0 375 507.3"
	 style="enable-background:new 0 0 375 507.3;" xml:space="preserve">
<style type="text/css">
	.st0{fill:#FFFFFF;}
	.st1{fill:none;stroke:#FFFFFF;stroke-miterlimit:10;}
</style>
<path id="Path_39840" class="st0" d="M52.1,137h12.2c0.2,0,0.3,0.1,0.3,0.3v13.5c0,0.6-0.3,1.1-0.9,1.3c-0.7,0.3-1.4,0.4-2.2,0.5
	c-0.1,0-0.2-0.1-0.2-0.2c-0.1-0.4-0.2-0.8-0.4-1.1c0-0.1,0.1-0.1,0.2-0.1c0.6,0.1,1.3,0,1.9-0.2c0.2-0.1,0.4-0.4,0.3-0.6v-2.9h-4.6
	v4.7c0,0.1-0.1,0.2-0.3,0.2h-0.7c-0.2,0-0.3-0.1-0.3-0.2v-4.7h-4.8c0,0.1,0,0.3-0.1,0.4c-0.2,1.1-0.5,2.1-0.9,3.1
	c-0.2,0.6-0.6,1.2-1,1.8c-0.1,0-0.1,0-0.2,0c-0.2-0.2-0.4-0.4-0.7-0.5c-0.1-0.1-0.1-0.1-0.1-0.2c0.4-0.7,0.8-1.4,1-2.1
	c0.3-1,0.5-1.9,0.6-2.9c0.2-1.3,0.2-2.6,0.2-3.9v-5.6C51.8,137.1,51.9,137,52.1,137C52.1,137,52.1,137,52.1,137 M53,146.2h4.6v-3.5
	h-4.5v0.2C53.1,144.1,53.1,145.2,53,146.2 M53.1,141.5h4.5v-3.4h-4.5V141.5z M58.9,141.5h4.6v-3.4h-4.6L58.9,141.5z M58.9,146.2h4.6
	v-3.5h-4.6L58.9,146.2z"/>
<path id="Path_39841" class="st0" d="M70.9,143.9l1.1,0.5c0.2,0.1,0.2,0.1,0.2,0.2c0,0.1-0.1,0.2-0.3,0.3c-0.2,0-0.4,0.1-0.5,0.3
	c0,0.1-0.1,0.2-0.1,0.2h4.4v-1.6c0-0.1,0.1-0.2,0.3-0.2c0.9,0,1.3,0.1,1.3,0.2c0,0.2-0.1,0.2-0.2,0.3s-0.2,0.1-0.2,0.4v0.9h5.4
	c0.1,0,0.2,0.1,0.2,0.3v0.5c0,0.2-0.1,0.3-0.2,0.3H77v1.7h4.8c0.1,0,0.2,0.1,0.2,0.3v0.6c0,0.2-0.1,0.3-0.2,0.3H77v1.8h6.9
	c0.1,0,0.2,0.1,0.2,0.3v0.6c0,0.2-0.1,0.3-0.2,0.3H68.3c-0.1,0-0.2-0.1-0.2-0.3v-0.6c0-0.2,0.1-0.3,0.2-0.3h7.4v-1.8h-4.8
	c-0.1,0-0.2-0.1-0.2-0.3v-0.6c0-0.2,0.1-0.3,0.2-0.3h4.8v-1.7h-5c-0.4,0.7-0.8,1.4-1.3,2c-0.2,0.2-0.3,0.3-0.4,0.3
	c-0.1,0-0.2-0.1-0.3-0.1c-0.2-0.1-0.5-0.2-0.7-0.4c-0.1,0-0.2-0.1-0.2-0.1c0-0.1,0.1-0.1,0.1-0.2c0.6-0.6,1.1-1.2,1.6-1.9
	c0.5-0.6,0.8-1.3,1.1-2.1C70.7,144,70.8,143.9,70.9,143.9 M70.6,136.9h10.9c0.2,0,0.3,0.1,0.3,0.2v5.8c0,0.1-0.1,0.2-0.3,0.2H70.6
	c-0.2,0-0.3-0.1-0.3-0.2v-5.8C70.3,137,70.4,136.9,70.6,136.9 M71.6,139.4h8.9v-1.5h-8.9L71.6,139.4z M80.5,140.6h-8.9v1.5h8.9
	L80.5,140.6z"/>
<path id="Path_39842" class="st0" d="M88.9,143.9l1.1,0.5c0.2,0.1,0.2,0.1,0.2,0.2c0,0.1-0.1,0.2-0.3,0.3c-0.2,0-0.4,0.1-0.5,0.3
	c0,0.1-0.1,0.2-0.1,0.2h4.4v-1.6c0-0.1,0.1-0.2,0.3-0.2c0.9,0,1.3,0.1,1.3,0.2c0,0.2-0.1,0.2-0.2,0.3s-0.2,0.1-0.2,0.4v0.9h5.4
	c0.1,0,0.2,0.1,0.2,0.3v0.5c0,0.2-0.1,0.3-0.2,0.3H95v1.7h4.8c0.1,0,0.2,0.1,0.2,0.3v0.6c0,0.2-0.1,0.3-0.2,0.3H95v1.8h6.9
	c0.1,0,0.2,0.1,0.2,0.3v0.6c0,0.2-0.1,0.3-0.2,0.3H86.3c-0.1,0-0.2-0.1-0.2-0.3v-0.6c0-0.2,0.1-0.3,0.2-0.3h7.4v-1.8h-4.8
	c-0.1,0-0.2-0.1-0.2-0.3v-0.6c0-0.2,0.1-0.3,0.2-0.3h4.8v-1.7h-5c-0.4,0.7-0.8,1.4-1.3,2c-0.2,0.2-0.3,0.3-0.4,0.3
	c-0.1,0-0.2-0.1-0.3-0.1c-0.2-0.1-0.5-0.2-0.7-0.4c-0.1,0-0.2-0.1-0.2-0.1c0-0.1,0.1-0.1,0.1-0.2c0.6-0.6,1.1-1.2,1.6-1.9
	c0.5-0.6,0.8-1.3,1.1-2.1C88.7,144,88.8,143.9,88.9,143.9 M88.6,136.9h10.9c0.2,0,0.3,0.1,0.3,0.2v5.8c0,0.1-0.1,0.2-0.3,0.2H88.6
	c-0.2,0-0.3-0.1-0.3-0.2v-5.8C88.3,137,88.4,136.9,88.6,136.9 M89.6,139.4h8.9v-1.5h-8.9L89.6,139.4z M98.5,140.6h-8.9v1.5h8.9
	L98.5,140.6z"/>
<path id="Path_39843" class="st0" d="M108.3,137.5l1,0.8c0.1,0.1,0.1,0.1,0.2,0.2c0,0.1-0.1,0.1-0.2,0.1c-0.2,0-0.3,0.1-0.4,0.2
	c-0.4,0.6-0.8,1.1-1.2,1.7h8.6c-0.5-0.9-0.9-1.8-1.2-2.8h-4.6c-0.1,0-0.2-0.1-0.2-0.3V137c0-0.2,0.1-0.3,0.2-0.3h5.3
	c0.1,0,0.2,0.1,0.2,0.2c0.3,1.1,0.7,2.1,1.3,3.1c0.6,1,1.5,1.6,2.6,1.9c0.1,0,0.2,0.1,0.2,0.2c0,0,0,0,0,0c0,0.1,0,0.1-0.1,0.2
	c-0.2,0.2-0.4,0.4-0.6,0.6c-0.1,0.1-0.2,0.2-0.3,0.2c-0.7-0.3-1.4-0.8-2-1.3v5.6c0,0.2-0.1,0.3-0.3,0.3h-0.7c-0.2,0-0.3-0.1-0.3-0.3
	v-0.6h-1.6v3.7c0,0.5,0.3,0.8,1,0.8h2.8c0.2,0,0.5-0.1,0.6-0.4c0.2-0.5,0.3-1.1,0.2-1.6c0-0.1,0.1-0.2,0.1-0.2
	c0.3,0.2,0.7,0.3,1.1,0.3c0.1,0,0.2,0.1,0.2,0.2c0,0,0,0,0,0c-0.1,0.8-0.3,1.6-0.7,2.4c-0.2,0.3-0.5,0.5-0.9,0.4h-4.2
	c-1.1,0-1.6-0.4-1.6-1.2v-4.5h-1.8c0,0.6,0,1.2-0.1,1.6c-0.1,0.5-0.3,1.1-0.6,1.6c-0.3,0.5-0.7,1-1.2,1.3c-0.6,0.4-1.3,0.8-2.1,1
	c-0.7,0.2-1.5,0.4-2.3,0.5c-0.1,0-0.2-0.1-0.2-0.2c0,0,0,0,0,0c-0.2-0.3-0.4-0.5-0.5-0.8c0-0.1-0.1-0.1-0.1-0.2c1-0.1,2-0.3,2.9-0.5
	c0.5-0.1,1-0.4,1.4-0.7c0.3-0.2,0.6-0.5,0.8-0.8c0.3-0.4,0.4-0.8,0.5-1.2c0.1-0.5,0.1-1.1,0.1-1.6h-1.7v0.7c0,0.1-0.1,0.2-0.3,0.2
	h-0.7c-0.2,0-0.3-0.1-0.3-0.2v-5.9c-0.6,0.6-1.3,1.2-2,1.7c-0.1,0-0.2,0-0.3-0.1c-0.3-0.2-0.5-0.4-0.7-0.6c-0.1,0-0.1-0.1-0.1-0.1
	s0-0.1,0.1-0.1c0.4-0.2,0.8-0.4,1.1-0.7c0.6-0.5,1.2-1.1,1.7-1.7c0.5-0.6,0.9-1.3,1.3-1.9C108.2,137.6,108.3,137.5,108.3,137.5
	 M108.3,145.5h7.6v-3.7h-7.6V145.5z"/>
<path id="Path_39844" class="st0" d="M122.3,140.3h2v-2.6c0-0.3,0-0.5-0.1-0.8c0-0.1-0.1-0.2-0.1-0.4c0-0.1,0.1-0.1,0.4-0.1l1.4,0.2
	c0.1,0.1,0.2,0.1,0.2,0.2c0,0.1-0.1,0.2-0.2,0.2c-0.2,0.1-0.3,0.4-0.3,0.8v2.6h1.8c0.1,0,0.2,0.1,0.2,0.3v0.5c0,0.2-0.1,0.3-0.2,0.3
	h-1.8v3.8c0.6-0.3,1.2-0.6,1.8-0.9c0,0,0.1-0.1,0.1-0.1c0.1,0,0.1,0,0.1,0.1c0,0,0,0,0,0c0,0.3,0,0.7-0.1,1c-0.7,0.4-1.3,0.7-2,1.1
	v5c0,0.8-0.6,1.3-1.9,1.3H123c-0.1,0-0.2-0.1-0.2-0.3c-0.1-0.3-0.2-0.6-0.3-0.8c0-0.1,0-0.1,0.1-0.1c0,0,0,0,0,0
	c0.3,0.1,0.6,0.1,0.8,0.1c0.5,0,0.8-0.2,0.8-0.6V147c-0.4,0.2-0.9,0.4-1.3,0.6c-0.2,0.3-0.3,0.5-0.4,0.5s-0.3-0.5-0.7-1.5
	c0.8-0.3,1.7-0.6,2.5-0.9v-4.4h-2c-0.1,0-0.2-0.1-0.2-0.3v-0.5C122.1,140.4,122.2,140.3,122.3,140.3 M131.3,136.1l1.3,0.6
	c0.1,0.1,0.2,0.1,0.2,0.2c0,0.1-0.1,0.2-0.4,0.2c-0.1,0-0.3,0-0.4,0.1c-0.1,0.2-0.2,0.3-0.4,0.5h4.1c0.2,0,0.3,0,0.3,0.1
	c0.2,0.2,0.4,0.4,0.4,0.5l-1.7,2.1h2.4c0.2,0,0.3,0.1,0.3,0.2v6h0.8c0.1,0,0.2,0.1,0.2,0.3v0.6c0,0.2-0.1,0.3-0.2,0.3h-4.8
	c0.2,0.4,0.4,0.7,0.6,1.1c0.3,0.5,0.7,0.9,1.2,1.3c0.6,0.5,1.2,0.8,1.9,1.1c0.3,0.1,0.6,0.2,1,0.3c0.1,0,0.2,0.1,0.2,0.1
	c0,0.1,0,0.2-0.1,0.3c-0.2,0.2-0.4,0.4-0.5,0.6c0,0.1-0.1,0.1-0.2,0.1c-0.2-0.1-0.5-0.1-0.7-0.2c-0.9-0.3-1.7-0.8-2.4-1.4
	c-0.5-0.4-0.9-0.9-1.3-1.4c-0.1-0.2-0.2-0.4-0.3-0.5c0,0,0,0.1-0.1,0.1c-0.4,0.8-0.9,1.6-1.6,2.1c-0.8,0.6-1.7,1.1-2.7,1.4
	c-0.1,0-0.2,0-0.3-0.1c-0.2-0.2-0.4-0.3-0.6-0.5c-0.1-0.1-0.2-0.2-0.2-0.2s0.1-0.1,0.3-0.1c0.8-0.3,1.6-0.7,2.3-1.2
	c0.6-0.4,1-0.9,1.4-1.5c0.2-0.4,0.4-0.8,0.5-1.2h-4.4c-0.1,0-0.2-0.1-0.2-0.3v-0.6c0-0.2,0.1-0.3,0.2-0.3h1.1v-5.9
	c0-0.1,0-0.1,0-0.2c-0.1,0-0.1-0.1-0.2-0.1c-0.1-0.2-0.3-0.5-0.5-0.6c-0.1-0.1-0.2-0.1-0.2-0.2c0,0,0,0,0.1-0.1
	c0.4-0.2,0.7-0.4,1.1-0.6c0.4-0.3,0.9-0.7,1.2-1.1c0.2-0.2,0.5-0.5,0.7-0.8c0.2-0.3,0.4-0.6,0.5-0.9
	C131.2,136.2,131.3,136.1,131.3,136.1 M129.3,140.5h4.1l1.2-1.6h-3.9c-0.1,0.1-0.3,0.3-0.5,0.4c-0.3,0.3-0.6,0.5-0.9,0.8
	c-0.2,0.1-0.4,0.3-0.5,0.4L129.3,140.5L129.3,140.5z M129.7,146.7h2.2c0-0.4,0.1-0.9,0.1-1.3c0-0.2,0.1-0.3,0.3-0.3l1.2,0.1
	c0.2,0,0.3,0.1,0.3,0.2c0,0.2-0.1,0.3-0.2,0.4c-0.2,0-0.2,0.1-0.2,0.3c0,0.2,0,0.3-0.1,0.5h2.9v-5.1h-6.5L129.7,146.7L129.7,146.7z
	 M132.8,141.7l0.9,0.7c0.1,0.1,0.1,0.1,0.1,0.2c0,0.1,0,0.1-0.1,0.1c0,0,0,0,0,0c-0.1,0-0.2,0.1-0.3,0.2c-0.1,0.1-0.2,0.3-0.2,0.4
	c0.5,0.3,0.8,0.5,1.2,0.7c0.5,0.4,0.9,0.7,1.2,1c0,0.1-0.1,0.1-0.1,0.1c-0.2,0.3-0.3,0.5-0.5,0.8c-0.5-0.5-1.1-0.9-1.6-1.3
	c-0.2-0.2-0.5-0.3-0.7-0.4c-0.1,0.1-0.1,0.1-0.1,0.2c-0.4,0.6-0.9,1.1-1.5,1.6c-0.1,0-0.2,0-0.3-0.1c-0.2-0.2-0.4-0.4-0.6-0.5
	c-0.1,0-0.1-0.1-0.1-0.1c0,0,0-0.1,0.1-0.1c0.3-0.1,0.5-0.3,0.7-0.5c0.4-0.4,0.7-0.8,1-1.3c0.3-0.5,0.6-0.9,0.8-1.4
	C132.8,141.7,132.8,141.7,132.8,141.7"/>
<path id="Path_39845" class="st0" d="M150,147.9h6.9c0-0.1,0.1-0.1,0.1-0.2c0.2-0.5,0.3-1,0.3-1.5c0-0.1,0.1-0.2,0.2-0.2l1.2,0.2
	c0.1,0,0.2,0.1,0.2,0.1c0,0-0.1,0.1-0.2,0.2c-0.1,0-0.2,0.1-0.3,0.3c-0.1,0.4-0.2,0.7-0.3,1.1h3c-0.3-0.1-0.5-0.3-0.8-0.4
	c-0.3-0.1-0.6-0.3-0.8-0.4c0.1-0.3,0.3-0.6,0.6-0.8c0.1-0.1,0.1-0.1,0.1-0.1c0.4,0.1,0.8,0.3,1.1,0.5c0.3,0.2,0.6,0.3,0.9,0.5
	c0,0.1,0,0.1-0.1,0.2c-0.2,0.2-0.3,0.4-0.4,0.5h4.1c0.1,0,0.2,0.1,0.2,0.3v0.6c0,0.2-0.1,0.3-0.2,0.3h-6.8c0.2,0.2,0.5,0.4,0.7,0.6
	c0.4,0.3,0.9,0.6,1.4,0.8c0.5,0.2,1,0.5,1.6,0.6c0.5,0.1,1.1,0.3,1.7,0.4c0.3,0.1,0.7,0.1,1.1,0.2c0.1,0,0.2,0,0.2,0.1
	c0,0.1-0.1,0.2-0.2,0.3c-0.2,0.2-0.4,0.4-0.5,0.6c-0.1,0.1-0.2,0.1-0.3,0.1c-0.9-0.2-1.8-0.4-2.6-0.7c-0.7-0.3-1.2-0.5-1.6-0.7
	c-0.5-0.3-1-0.6-1.5-1c-0.5-0.4-0.9-0.8-1.3-1.3c-0.2,0.3-0.4,0.6-0.6,0.8c-0.5,0.5-1,0.9-1.6,1.2c-0.7,0.4-1.4,0.8-2.2,1
	c-0.5,0.1-1.1,0.3-1.9,0.5c-0.2,0-0.3-0.1-0.4-0.2c-0.1-0.2-0.3-0.5-0.5-0.6c0,0-0.1-0.1-0.1-0.2c0-0.1,0-0.1,0.1-0.1
	c0.8-0.1,1.6-0.3,2.4-0.5c0.8-0.2,1.6-0.6,2.3-1c0.5-0.3,0.9-0.6,1.2-1H150c-0.1,0-0.2-0.1-0.2-0.3v-0.6
	C149.8,148,149.9,147.9,150,147.9 M154.6,136.3c0.8,0,1.3,0.1,1.3,0.2s-0.1,0.2-0.1,0.2s-0.1,0.1-0.1,0.3v9.3c0,0.1-0.1,0.2-0.3,0.2
	h-0.7c-0.1,0-0.2-0.1-0.2-0.2V143h-1.6c0,0.5-0.1,0.9-0.1,1.4c-0.1,0.4-0.2,0.8-0.5,1.2c-0.2,0.3-0.4,0.5-0.6,0.6
	c-0.2,0.2-0.5,0.4-0.8,0.5c-0.3-0.3-0.6-0.6-0.8-0.8c0.2-0.1,0.4-0.2,0.6-0.3c0.2-0.1,0.4-0.3,0.6-0.5c0.2-0.3,0.3-0.6,0.4-0.9
	c0.1-0.3,0.1-0.7,0.2-1h-1.1c-0.1,0-0.1-0.1-0.1-0.3v-0.6c0-0.1,0.1-0.2,0.1-0.2h3.8v-1.6H152v0.5c0,0.1-0.1,0.2-0.3,0.2H151
	c-0.1,0-0.2-0.1-0.2-0.2c0,0,0,0,0-0.1V137c0-0.1,0.1-0.1,0.2-0.1c0.9,0,1.3,0.1,1.3,0.2s-0.1,0.2-0.2,0.2c-0.1,0-0.1,0.1-0.1,0.4
	v1.7h2.4v-2.8C154.4,136.4,154.4,136.3,154.6,136.3 M161,136.1l1.1,0.5c0.1,0,0.1,0.1,0.1,0.2c0,0.1-0.1,0.2-0.3,0.2
	c-0.2,0-0.3,0-0.5,0.1c-0.1,0.1-0.2,0.2-0.3,0.2h3.8c0.1,0,0.3,0,0.4,0.1c0.1,0.1,0.1,0.2,0.1,0.3c-0.6,0.8-1.2,1.4-2,2
	c-0.9,0.7-1.9,1.2-2.9,1.6c-1.2,0.5-2.4,0.8-3.6,1c-0.1,0-0.2-0.1-0.3-0.2c-0.1-0.3-0.3-0.5-0.4-0.8c0-0.1,0.1-0.2,0.2-0.2
	c0.7-0.1,1.3-0.2,2-0.3c-0.4-0.4-0.9-0.8-1.3-1.1c-0.1,0-0.2,0.1-0.3,0.1c-0.1,0-0.2-0.1-0.2-0.2c-0.1-0.2-0.3-0.4-0.4-0.5
	c-0.1-0.1-0.2-0.1-0.2-0.2c0,0,0,0,0.1-0.1c0.5-0.1,1-0.3,1.5-0.5c0.6-0.2,1.1-0.5,1.6-0.8c0.3-0.2,0.6-0.4,0.9-0.6
	c0.3-0.2,0.5-0.5,0.7-0.7C160.9,136.1,161,136.1,161,136.1 M156.5,142.3h6.5v-0.5c0-0.3,0-0.5,0-0.8c0-0.1,0-0.2,0-0.3
	c0-0.1,0.1-0.1,0.3-0.1l1.4,0.2c0.1,0.1,0.2,0.1,0.2,0.2c0,0.1-0.1,0.2-0.2,0.2c-0.2,0.1-0.4,0.4-0.4,0.8v0.4h1.8
	c0.1,0,0.1,0.1,0.1,0.2v0.6c0,0.1-0.1,0.2-0.1,0.2h-1.8v1.7c0,0.8-0.6,1.2-1.8,1.2h-1c-0.1,0-0.1-0.1-0.1-0.3
	c-0.1-0.3-0.2-0.5-0.3-0.8c0-0.1,0.1-0.1,0.1-0.1c0.4,0.1,0.8,0.1,1.1,0.1c0.5,0,0.7-0.2,0.7-0.6v-1.3h-6.5c-0.1,0-0.1-0.1-0.1-0.2
	v-0.6C156.3,142.4,156.4,142.3,156.5,142.3 M158.4,143.6c0.4,0.2,0.7,0.4,1.1,0.6c0.3,0.2,0.6,0.4,0.8,0.6c0,0.1,0,0.1-0.1,0.1
	c-0.3,0.4-0.5,0.6-0.5,0.6c-0.3-0.3-0.7-0.6-1.1-0.8c-0.3-0.2-0.5-0.3-0.8-0.4c0.1-0.2,0.3-0.5,0.5-0.7
	C158.3,143.7,158.3,143.6,158.4,143.6 M158.2,139.2c0.5,0.4,1,0.8,1.5,1.2c0.5-0.2,1-0.4,1.4-0.5c-0.6-0.4-1.3-0.8-1.9-1.1
	C158.9,138.9,158.5,139.1,158.2,139.2 M160,138.3c0.7,0.3,1.4,0.7,2,1.1c0.1-0.1,0.3-0.2,0.4-0.2c0.5-0.3,0.9-0.6,1.3-0.9h-3.6
	C160.1,138.2,160.1,138.2,160,138.3"/>
<path id="Path_39846" class="st0" d="M169.6,137.9v4.8c0,1.6,0,3.3-0.2,4.9c-0.1,1-0.3,2.1-0.5,3.1c-0.2,0.6-0.4,1.2-0.6,1.8
	c-0.1,0-0.1,0-0.2,0c-0.2-0.2-0.4-0.3-0.6-0.5c-0.1-0.1-0.1-0.1-0.1-0.2c0.3-0.7,0.4-1.4,0.6-2.1c0.2-1,0.3-2,0.4-3
	c0.1-1.1,0.1-2.4,0.1-4v-5.6c0-0.1,0.1-0.2,0.2-0.2c0,0,0,0,0.1,0h9.4c0.1,0,0.1,0.1,0.1,0.2v0.6c0,0.2-0.1,0.3-0.1,0.3L169.6,137.9
	z M170.8,141.7h6.2c0.2,0,0.3,0.1,0.3,0.2v4.3c0,0.1-0.1,0.2-0.3,0.2h-2.6v0.9h3.3c0.2,0,0.4,0.1,0.4,0.3v4.5c0,0.2-0.2,0.3-0.7,0.4
	c-0.5,0.1-1.1,0.1-1.6,0.1c-0.1,0-0.2-0.1-0.2-0.2c0,0,0,0,0,0c-0.1-0.4-0.2-0.7-0.4-1.1c0,0,0.1,0,0.1,0c0.5,0,0.9,0,1.4-0.1
	c0.2,0,0.2-0.1,0.2-0.2v-2.8h-2.5v1.6c0.4-0.1,0.7-0.1,1-0.2c-0.1-0.2-0.1-0.4-0.2-0.6c0-0.1,0.2-0.2,0.7-0.4
	c0.2,0.3,0.3,0.7,0.5,1.1c0.1,0.3,0.2,0.6,0.3,0.9c-0.3,0.1-0.5,0.2-0.8,0.3c0-0.2-0.1-0.4-0.1-0.6c-1.2,0.3-2.4,0.5-3.6,0.8
	c-0.2,0.2-0.3,0.4-0.4,0.4c-0.1,0-0.2-0.4-0.5-1.1c0.6-0.1,1.3-0.2,2.1-0.3v-1.8H171v4.1c0,0.1-0.1,0.2-0.3,0.2h-0.7
	c-0.1,0-0.2-0.1-0.2-0.2v-4.9c0-0.1,0.1-0.2,0.2-0.2h3.2v-0.9h-2.5c-0.2,0-0.3-0.1-0.3-0.2v-4.3
	C170.5,141.7,170.6,141.7,170.8,141.7 M170.3,139.2h1.5v-0.8c0-0.1,0.1-0.1,0.3-0.1c0.8,0,1.1,0,1.1,0.1c0,0.1-0.1,0.2-0.1,0.2
	c-0.1,0-0.1,0.1-0.1,0.3v0.3h2v-0.8c0-0.1,0.1-0.1,0.3-0.1c0.8,0,1.1,0,1.1,0.1c0,0.1-0.1,0.2-0.1,0.2c-0.1,0-0.1,0.1-0.1,0.3v0.2
	h1.7c0.1,0,0.1,0.1,0.1,0.2v0.6c0,0.1-0.1,0.2-0.1,0.2H176v0.7c0,0.1-0.1,0.2-0.3,0.2h-0.6c-0.2,0-0.3-0.1-0.3-0.2v-0.7h-2v0.7
	c0,0.1-0.1,0.2-0.3,0.2H172c-0.2,0-0.3-0.1-0.3-0.2v-0.7h-1.5c-0.1,0-0.2-0.1-0.2-0.2v-0.6C170.1,139.3,170.2,139.2,170.3,139.2
	 M171.7,143.6h1.6v-1h-1.6V143.6z M173.3,144.5h-1.6v1h1.6V144.5z M174.4,143.6h1.8v-1h-1.8L174.4,143.6z M176.2,144.5h-1.8v1h1.8
	L176.2,144.5z M178.5,140.3h1.5c0-0.7,0-1.5,0-2.4v-1.3c0-0.1,0.1-0.1,0.2-0.1l1.2,0.1c0.1,0,0.2,0.1,0.2,0.2c0,0.1-0.1,0.2-0.2,0.3
	c-0.2,0.1-0.3,0.2-0.3,0.4c0,1,0,1.9,0,2.8h2.4c0.1,0,0.2,0.1,0.2,0.2c0,0,0,0,0,0.1c0,3.2-0.1,5.6-0.2,7c-0.1,1.3-0.2,2.5-0.5,3.8
	c-0.1,0.8-0.8,1.4-1.6,1.3c-0.4,0-0.7-0.1-0.7-0.4c-0.1-0.3-0.1-0.7-0.3-1v-0.1c0.3,0.1,0.6,0.1,0.9,0.1c0.3,0,0.6-0.3,0.6-0.9
	c0.2-1,0.3-2,0.3-2.9c0.1-1.2,0.1-3.2,0.2-6h-1.5c0,1.6-0.1,3-0.2,4c-0.1,1.6-0.3,3.2-0.7,4.7c-0.2,0.9-0.5,1.8-0.8,2.6h-0.1
	c-0.4-0.1-0.7-0.2-1-0.4c-0.1,0-0.1-0.1-0.1-0.2c0.4-0.9,0.7-1.7,0.9-2.7c0.3-1.2,0.5-2.4,0.6-3.6c0.1-1,0.2-2.5,0.2-4.4h-1.4
	c-0.1,0-0.2-0.1-0.2-0.3v-0.5C178.3,140.3,178.3,140.3,178.5,140.3"/>
<path id="Path_39847" class="st0" d="M193.1,136.3c0.6,0.2,1.1,0.4,1.6,0.7c0,0.1-0.1,0.1-0.3,0.2c-0.2,0-0.4,0.1-0.5,0.3
	c-0.2,0.3-0.4,0.6-0.6,0.8h6.2c0.2,0,0.3,0.1,0.3,0.2v13.9c0,0.1-0.1,0.2-0.3,0.2h-0.7c-0.2,0-0.3-0.1-0.3-0.2v-1.2h-9.4v1.2
	c0,0.1-0.1,0.2-0.3,0.2h-0.7c-0.2,0-0.3-0.1-0.3-0.2v-13.8c0-0.2,0.1-0.3,0.3-0.3h3.5c0.1-0.1,0.3-0.3,0.4-0.4
	c0.3-0.4,0.6-0.9,0.8-1.4C193,136.4,193,136.3,193.1,136.3 M189.2,142.2h9.4v-2.7h-9.4V142.2z M189.2,146h9.4v-2.7h-9.4V146z
	 M189.2,150h9.4v-2.9h-9.4V150z"/>
<path id="Path_39848" class="st0" d="M205.2,137h12.9c0.2,0,0.3,0.1,0.3,0.2v8.4c0,0.1-0.1,0.2-0.3,0.2h-0.7c-0.2,0-0.3-0.1-0.3-0.2
	V144h-10.7v6.2c0,0.6,0.4,0.8,1.1,0.8h8.9c0.9,0,1.5-0.3,1.7-0.9c0.3-0.6,0.5-1.3,0.6-2c0.3,0.2,0.6,0.4,1,0.6
	c0.1,0,0.2,0.1,0.2,0.3c-0.1,0.8-0.4,1.6-0.8,2.3c-0.3,0.6-1,0.9-2.2,0.9h-10.1c-1.1,0-1.6-0.4-1.6-1.2V143c0-0.1,0.1-0.2,0.3-0.2
	h11.7v-4.7h-11.9c-0.1,0-0.2-0.1-0.2-0.3v-0.7C205,137,205,137,205.2,137"/>
<path id="Path_39849" class="st0" d="M229.9,148.8c0.1,0,0.1,0,0.1,0.1c-0.1,0.3-0.1,0.6-0.1,0.9c0,0.1,0,0.2-0.1,0.2
	c-0.5,0-1,0.1-1.5,0.2c-1.7,0.3-3.4,0.6-5.1,0.9c-0.1,0.4-0.3,0.5-0.4,0.6c-0.1,0-0.2-0.1-0.2-0.1l-0.5-1.7c0.7-0.1,2.9-0.4,6.4-0.9
	C229.1,148.9,229.6,148.8,229.9,148.8 M222.4,139.1h8.7c-0.1-0.9-0.1-1.9-0.1-2.9c0-0.1,0.1-0.2,0.1-0.2l1.2,0.1
	c0.2,0,0.3,0.1,0.3,0.2c0,0.1,0,0.2-0.1,0.3c-0.1,0-0.1,0.2-0.1,0.4c0,0.8,0,1.5,0,2.1h5.3c0.1,0,0.2,0.1,0.2,0.3v0.6
	c0,0.2-0.1,0.3-0.2,0.3h-5.2c0,0.6,0.1,1.2,0.1,1.8c0.1,1.2,0.3,2.5,0.6,3.7c0.2,0.7,0.4,1.3,0.6,1.9c0.5-0.8,0.9-1.6,1.2-2.4
	c0.4-1,0.7-2,0.9-3c0-0.2,0.1-0.2,0.3-0.2c1,0.4,1.6,0.6,1.6,0.7c0,0.1-0.1,0.2-0.2,0.2c-0.2,0-0.4,0.1-0.5,0.3
	c-0.4,1.3-0.9,2.6-1.5,3.8c-0.4,0.7-0.8,1.3-1.2,2c0.3,0.6,0.6,1.2,1.1,1.7c0.2,0.2,0.5,0.3,0.7,0.3c0.1,0,0.3-0.2,0.5-0.6
	c0.3-0.7,0.5-1.4,0.6-2.1c0.1,0,0.1,0.1,0.2,0.2c0.2,0.2,0.3,0.4,0.5,0.6c0.1,0.1,0.2,0.2,0.2,0.4c-0.2,0.7-0.5,1.5-0.9,2.2
	c-0.4,0.8-0.8,1.1-1.1,1.1c-0.2,0-0.4,0-0.5-0.1c-0.4-0.2-0.8-0.5-1.1-0.9c-0.4-0.5-0.8-1-1.1-1.6c-0.9,1-1.9,1.9-3,2.6
	c-0.1,0-0.2,0.1-0.4,0.1c-0.1,0-0.3-0.1-0.3-0.2c-0.1-0.2-0.3-0.3-0.4-0.5c-0.1,0-0.2-0.1-0.2-0.2c0-0.1,0.1-0.1,0.2-0.2
	c0.5-0.2,1-0.5,1.4-0.8c0.8-0.6,1.5-1.2,2.1-2c-0.3-0.8-0.6-1.6-0.8-2.4c-0.3-1.3-0.5-2.6-0.7-4c-0.1-0.6-0.1-1.3-0.2-2.1h-8.7
	c-0.1,0-0.2-0.1-0.2-0.3v-0.6C222.1,139.2,222.2,139.1,222.4,139.1 M223.5,141.9h5.4c0.2,0,0.3,0.1,0.3,0.2v4.6
	c0,0.1-0.1,0.3-0.2,0.3c0,0-0.1,0-0.1,0h-4.4v1.1c0,0.1-0.1,0.2-0.3,0.2h-0.7c-0.2,0-0.3-0.1-0.3-0.2v-5.9
	C223.2,142,223.3,141.9,223.5,141.9C223.4,141.9,223.5,141.9,223.5,141.9 M224.5,145.8h3.4V143h-3.4V145.8z M234.5,136.3
	c0.6,0.3,1.1,0.5,1.4,0.8c0.4,0.3,0.8,0.6,1.1,0.8c0,0.1,0,0.1-0.1,0.1c-0.2,0.3-0.3,0.5-0.5,0.8c-0.5-0.4-1-0.7-1.5-1
	c-0.3-0.2-0.7-0.4-1.1-0.5c0.2-0.3,0.3-0.6,0.6-0.8C234.4,136.4,234.5,136.3,234.5,136.3"/>
<path id="Path_39850" class="st0" d="M244.9,137.7c-0.1,0-0.2,0-0.2,0.1c-0.8,0.3-1.6,0.5-2.4,0.6v1.9h2.8c0.1,0,0.2,0.1,0.2,0.3
	v0.6c0,0.2-0.1,0.3-0.2,0.3h-2.8v2.3h2.9c0.1,0,0.2,0.1,0.2,0.3v0.6c0,0.2-0.1,0.3-0.2,0.3h-2.9v2.4h3.9v-3.9c0-0.1,0.1-0.2,0.3-0.2
	c0.8,0,1.1,0.1,1.1,0.2c0,0.1-0.1,0.2-0.1,0.2s-0.1,0.1-0.1,0.3v3.3h1.4v-4.9h-2.2c-0.1,0-0.3-0.1-0.3-0.2c0,0,0-0.1,0-0.1v-5.7
	c0-0.1,0.1-0.1,0.3-0.1c0.8,0,1.1,0.1,1.1,0.1c0,0.1-0.1,0.2-0.1,0.2s-0.1,0.1-0.1,0.3v1.4h2.4c0.1,0,0.1,0.1,0.1,0.2v0.6
	c0,0.2-0.1,0.3-0.1,0.3h-2.4v1.9h2.2c0.2,0,0.3,0.1,0.3,0.2v5.8h3.4v-2.4h-2.7c-0.1,0-0.2-0.1-0.2-0.3v-0.6c0-0.2,0.1-0.3,0.2-0.3
	h2.7v-2.3h-2.7c-0.1,0-0.2-0.1-0.2-0.3v-0.6c0-0.2,0.1-0.3,0.2-0.3h2.7v-2.2h-2.7c-0.1,0-0.2-0.1-0.2-0.3v-0.7
	c0-0.1,0.1-0.2,0.2-0.2c0,0,0,0,0.1,0h3.7c0.2,0,0.3,0.1,0.3,0.2v10.2h1.1c0.1,0,0.2,0.1,0.2,0.3v0.6c0,0.2-0.1,0.3-0.2,0.3h-16
	c-0.1,0-0.2-0.1-0.2-0.3v-0.6c0-0.2,0.1-0.3,0.2-0.3h1.2v-10.1c0-0.1,0.1-0.2,0.2-0.2c0,0,0,0,0.1,0l0.8,0.3
	c0.4-0.1,0.7-0.1,1.1-0.3c0.5-0.1,1-0.3,1.4-0.6c0.1,0,0.1-0.1,0.2-0.1c0.3,0.4,0.5,0.9,0.7,1.3c0,0.1,0,0.1-0.1,0.1c0,0,0,0,0,0
	L244.9,137.7z M244.8,148.6l1.3,0.6c0.1,0.1,0.1,0.1,0.2,0.2c0,0.1-0.1,0.2-0.4,0.2c-0.1,0-0.3,0-0.4,0.1c-0.3,0.4-0.7,0.7-1.1,1.1
	c-0.3,0.3-0.6,0.5-0.9,0.7c-0.4,0.3-0.7,0.5-1.1,0.7c-0.3,0.2-0.6,0.3-0.9,0.4c-0.1,0-0.2-0.1-0.3-0.2c-0.1-0.2-0.3-0.5-0.5-0.6
	c-0.1-0.1-0.2-0.1-0.2-0.2c0,0,0,0,0.1-0.1c0.4-0.2,0.9-0.3,1.3-0.5c0.5-0.3,1-0.6,1.4-0.9c0.3-0.2,0.5-0.4,0.8-0.7
	c0.2-0.3,0.4-0.5,0.6-0.8C244.8,148.7,244.8,148.6,244.8,148.6 M251.2,148.6c0.5,0.7,1.1,1.2,1.7,1.7c0.7,0.6,1.6,1.1,2.5,1.4
	c-0.2,0.4-0.5,0.7-0.8,1c-0.8-0.3-1.6-0.7-2.3-1.3c-0.8-0.6-1.5-1.2-2.1-1.9C250.2,149.4,250.5,149.1,251.2,148.6"/>
<path id="Path_39851" class="st0" d="M260.7,136.5c1,0.2,1.5,0.4,1.5,0.5c0,0.1-0.1,0.2-0.2,0.3c-0.1,0.1-0.2,0.2-0.2,0.4
	c-0.1,0.8-0.2,1.8-0.4,2.8h2.6c0.1,0,0.2,0,0.3,0.1c0.2,0.1,0.3,0.3,0.3,0.4c-0.1,1.2-0.2,2.2-0.4,3c-0.2,0.9-0.4,1.7-0.6,2.5
	c-0.2,0.6-0.4,1.2-0.6,1.8c0,0,0,0,0,0c0.3,0.3,0.5,0.5,0.8,0.8c0.5,0.5,0.9,1,1.3,1.5c0,0,0,0.1,0,0.1c0,0.1-0.3,0.3-0.8,0.6
	c-0.1,0-0.1,0-0.2-0.1c-0.5-0.7-1-1.3-1.6-1.8c-0.1,0.2-0.3,0.4-0.4,0.7c-0.3,0.5-0.7,0.9-1.1,1.3c-0.4,0.5-0.9,0.9-1.5,1.2
	c-0.1,0-0.2-0.1-0.3-0.2c-0.2-0.2-0.5-0.4-0.7-0.5c-0.1-0.1-0.1-0.1-0.1-0.2c0-0.1,0-0.1,0.1-0.1c0.6-0.3,1.2-0.8,1.7-1.2
	c0.5-0.5,0.9-1,1.2-1.6c0.1-0.1,0.1-0.2,0.2-0.3c-0.2-0.1-0.4-0.3-0.6-0.4c-0.5-0.3-0.9-0.6-1.4-0.9c-0.1,0.4-0.3,0.7-0.5,1.1
	c-0.1,0-0.2,0-0.3-0.1c-0.2-0.1-0.5-0.1-0.8-0.2c-0.1-0.1-0.1-0.2-0.1-0.2c0.5-0.9,0.9-1.8,1.2-2.7c0.4-1.2,0.7-2.5,1-3.7h-1.9
	c-0.1,0-0.2-0.1-0.2-0.3v-0.6c0-0.2,0.1-0.3,0.2-0.3h2.1c0.2-1.3,0.4-2.5,0.4-3.8C260.5,136.6,260.6,136.5,260.7,136.5 M261.9,147.6
	c0.1-0.2,0.2-0.4,0.2-0.6c0.3-0.7,0.5-1.5,0.7-2.3c0.1-0.8,0.3-1.8,0.5-3.1h-2.3c-0.1,0.6-0.3,1.2-0.4,1.8c-0.2,0.9-0.5,1.9-0.8,2.8
	c0.5,0.3,1,0.6,1.6,1C261.6,147.3,261.8,147.5,261.9,147.6 M265.2,137.4h8c0.2,0,0.3,0,0.3,0.1c0.2,0.2,0.4,0.4,0.4,0.5l-3.6,4.2
	c0,0,0,0-0.1,0.1v2.4h3.6c0.1,0,0.2,0.1,0.2,0.2c0,0,0,0,0,0.1v0.7c0,0.2-0.1,0.3-0.2,0.3h-3.6v5.4c0,0.9-0.7,1.4-2,1.4h-1.5
	c-0.1,0-0.1-0.1-0.1-0.4c0-0.3-0.2-0.6-0.4-0.9c0-0.1,0-0.1,0.1-0.1c0,0,0,0,0,0c0.6,0.1,1.3,0.2,1.9,0.2c0.3,0,0.6-0.2,0.6-0.5
	c0-0.1,0-0.1,0-0.2v-5h-3.8c-0.1,0-0.2-0.1-0.2-0.3v-0.7c0-0.1,0.1-0.2,0.2-0.2c0,0,0,0,0.1,0h3.8v-3.4c0-0.1,0.1-0.3,0.2-0.3
	c0,0,0.1,0,0.1,0l0.4,0.2l2.3-2.6h-6.7c-0.1,0-0.2-0.1-0.2-0.3v-0.6C265,137.5,265.1,137.4,265.2,137.4"/>
<path id="Path_39852" class="st0" d="M276.5,139.1h5.3v0c0.1-0.8,0.2-1.7,0.3-2.7c0-0.1,0-0.1,0.1-0.1c0,0,0,0,0,0
	c0.5,0.1,1,0.4,1.5,0.6c0,0.1-0.1,0.3-0.2,0.3c-0.1,0.1-0.2,0.2-0.2,0.4c-0.1,0.5-0.2,1-0.2,1.5h8.3c0.1,0,0.2,0.1,0.2,0.3v0.6
	c0,0.2-0.1,0.3-0.2,0.3h-8.5c-0.1,0.4-0.2,0.9-0.3,1.3c-0.1,0.5-0.2,0.9-0.3,1.4h6.9c0.1,0,0.2,0,0.3,0.1c0.3,0.3,0.4,0.5,0.4,0.6
	c-0.3,1-0.8,2-1.3,2.9c-0.4,0.8-0.9,1.5-1.4,2.1c-0.2,0.3-0.5,0.5-0.7,0.7c0.6,0.4,1.3,0.7,2,1c1.1,0.4,2.2,0.8,3.4,1
	c0.2,0,0.2,0.1,0.2,0.1c0,0.1,0,0.2-0.1,0.2c-0.2,0.2-0.5,0.4-0.7,0.7c-0.1,0.1-0.2,0.2-0.2,0.2c-0.1,0-0.3-0.1-0.4-0.2
	c-0.6-0.2-1.4-0.4-2.1-0.7c-0.9-0.3-1.8-0.8-2.6-1.2c-0.1-0.1-0.3-0.2-0.4-0.3c-0.1,0-0.1,0.1-0.2,0.1c-0.9,0.6-1.8,1.1-2.8,1.5
	c-0.9,0.3-1.8,0.6-2.7,0.8c-0.1,0-0.3-0.1-0.4-0.2c-0.1-0.2-0.3-0.4-0.4-0.6c-0.1-0.1-0.1-0.1-0.1-0.2c0-0.1,0-0.1,0.1-0.1
	c0.7-0.1,1.4-0.3,2-0.5c1.1-0.3,2.1-0.8,3.1-1.4c0.1-0.1,0.2-0.1,0.2-0.2c-0.2-0.2-0.4-0.3-0.5-0.5c-0.6-0.6-1.1-1.3-1.5-2
	c-0.3-0.5-0.6-1.1-0.8-1.7c-0.1,0.2-0.2,0.4-0.2,0.5c-0.4,1-0.9,1.9-1.6,2.6c-0.8,0.9-1.7,1.7-2.7,2.4c-0.1,0-0.3,0-0.4-0.1
	c-0.2-0.3-0.4-0.5-0.6-0.8c-0.1-0.1-0.1-0.2-0.1-0.3c1-0.4,1.8-1.1,2.5-1.9c0.5-0.5,0.9-1,1.3-1.6c0.6-1.3,1.1-2.6,1.5-4
	c0.2-0.6,0.3-1.2,0.5-1.8h-5c-0.1,0-0.2-0.1-0.2-0.3v-0.6C276.3,139.2,276.4,139.1,276.5,139.1 M282.2,143.9
	c0.2,0.5,0.4,1.1,0.6,1.6c0.4,0.8,0.8,1.5,1.4,2.1c0.3,0.3,0.6,0.6,1,0.9c0.3-0.3,0.6-0.5,0.9-0.8c0.5-0.6,1-1.3,1.3-2.1
	c0.3-0.5,0.5-1.1,0.7-1.7H282.2z"/>
<path id="Path_39853" class="st0" d="M298.7,137.2c0.9,0.3,1.4,0.5,1.4,0.6c0,0.1-0.1,0.2-0.2,0.3c-0.1,0-0.3,0.1-0.3,0.2
	c-0.3,0.9-0.7,1.8-1.1,2.6c-0.4,0.7-0.8,1.4-1.4,2c-0.7,0.7-1.5,1.4-2.4,2c-0.1,0-0.2,0.1-0.2,0.1c-0.1,0-0.3-0.1-0.3-0.2
	c-0.1-0.2-0.3-0.3-0.4-0.5c-0.1,0-0.2-0.1-0.2-0.2c0,0,0-0.1,0.1-0.1c0.4-0.1,0.7-0.3,1-0.6c0.6-0.4,1.1-0.8,1.6-1.4
	c0.7-0.7,1.2-1.6,1.5-2.5c0.3-0.7,0.5-1.4,0.7-2.1C298.5,137.3,298.6,137.2,298.7,137.2 M302,137h3.3c0.1,0,0.2,0.1,0.2,0.2
	c0.3,1.4,0.8,2.8,1.5,4.1c0.6,1.2,1.7,2.2,3.1,2.6c0.1,0,0.2,0.2,0.2,0.3c0,0.1-0.1,0.1-0.1,0.2c-0.2,0.2-0.4,0.4-0.6,0.6
	c-0.1,0.1-0.2,0.2-0.3,0.2c-0.9-0.5-1.7-1.1-2.4-1.8v0.1c0,1.8-0.1,3.5-0.2,5.3c-0.1,1-0.3,1.9-0.6,2.9c-0.2,0.7-0.9,1-1.9,1
	c-1,0-1.5-0.1-1.6-0.4c-0.1-0.4-0.3-0.7-0.6-1v-0.1c0.8,0.1,1.5,0.1,2.2,0.1c0.4,0,0.9-0.3,1-0.7c0.2-0.7,0.4-1.4,0.4-2.2
	c0.1-0.8,0.2-2.2,0.2-4h-4.8c0,1.1-0.2,2.2-0.5,3.3c-0.2,0.9-0.7,1.8-1.2,2.5c-0.5,0.6-1,1-1.7,1.4c-0.7,0.4-1.5,0.8-2.3,1.1
	c-0.3-0.3-0.6-0.6-0.8-0.9c0.6-0.2,1.2-0.4,1.7-0.7c0.7-0.3,1.3-0.8,1.9-1.3c0.6-0.7,1-1.5,1.2-2.3c0.3-1,0.4-2,0.4-3h-2.3
	c-0.1,0-0.2-0.1-0.2-0.3v-0.5c0-0.2,0.1-0.3,0.2-0.3h9.4c-0.2-0.3-0.5-0.6-0.7-0.9c-0.7-1.3-1.2-2.7-1.6-4.1H302
	c-0.1,0-0.2-0.1-0.2-0.3v-0.6C301.7,137.1,301.8,137,302,137"/>
<path id="Path_39854" class="st0" d="M319.4,136.2c0.9,0,1.3,0.1,1.3,0.2c0,0.2-0.1,0.2-0.2,0.3s-0.2,0.1-0.2,0.4v0.4h7.3
	c0.1,0,0.2,0.1,0.2,0.3v0.6c0,0.2-0.1,0.3-0.2,0.3h-15.6c-0.1,0-0.2-0.1-0.2-0.3v-0.6c0-0.2,0.1-0.3,0.2-0.3h7v-1.1
	C319.1,136.3,319.2,136.2,319.4,136.2 M314.2,144.6h11c0.2,0,0.3,0,0.3,0.1c0.2,0.2,0.4,0.4,0.4,0.5l-4.8,2.6
	c-0.1,0.1-0.2,0.1-0.3,0.1v0.8h6.8c0.1,0,0.2,0.1,0.2,0.3v0.6c0,0.2-0.1,0.3-0.2,0.3h-6.8v1.7c0,0.8-0.6,1.3-1.8,1.3h-1.3
	c-0.1,0-0.1-0.1-0.1-0.3c0-0.3-0.1-0.6-0.3-0.8c0-0.1,0-0.1,0.1-0.1c0.5,0.1,1.1,0.1,1.6,0.1c0.4,0,0.6-0.2,0.6-0.6v-1.2h-7.2
	c-0.1,0-0.2-0.1-0.2-0.3v-0.6c0-0.2,0.1-0.3,0.2-0.3h7.2v-1.6c0-0.1,0.1-0.2,0.3-0.2l0.4,0.2l2.6-1.4h-8.5c-0.1,0-0.2-0.1-0.2-0.3
	v-0.6C314,144.6,314,144.6,314.2,144.6 M314.9,139.7h10c0.2,0,0.3,0.1,0.3,0.2v3.3c0,0.1-0.1,0.2-0.3,0.2h-10
	c-0.2,0-0.3-0.1-0.3-0.2v-3.3C314.6,139.8,314.7,139.7,314.9,139.7 M323.9,140.8h-8v1.6h8V140.8z"/>
<path id="Path_39855" class="st0" d="M106.7,163.3l1.4,0.5c0.1,0.1,0.2,0.2,0.2,0.2c0,0.1-0.1,0.2-0.2,0.3c-0.3,0-0.5,0.2-0.6,0.6
	c-0.2,0.7-0.3,1.3-0.5,1.8h5.2c0.2,0,0.3,0.1,0.3,0.2l-0.6,3h2.2c0.2,0,0.3,0.1,0.3,0.2l-0.6,2.9h1.8c0.2,0,0.3,0.1,0.3,0.4
	c-0.3,1.7-0.5,3.1-0.8,4.3c-0.1,0.6-0.3,1.1-0.7,1.6c-0.5,0.3-1.1,0.4-1.7,0.4c-0.8,0-1.2-0.1-1.2-0.3c-0.1-0.3-0.2-0.6-0.3-0.9
	c0-0.1,0-0.1,0.1-0.1c0,0,0,0,0,0c0.5,0.1,1,0.1,1.5,0.1c0.3,0,0.6-0.1,0.7-0.3c0.4-1.3,0.8-2.6,1-4h-10.5c-0.2,0.5-0.5,1-0.7,1.5
	c-0.7,1.2-1.4,2.3-2.3,3.3c-0.1,0-0.3,0-0.4-0.1c-0.3-0.1-0.5-0.2-0.8-0.3c-0.1-0.1-0.1-0.1-0.1-0.1c0-0.1,0-0.3,0.2-0.4
	c1.4-1.6,2.5-3.4,3.4-5.3c0.6-1.2,1.1-2.5,1.5-3.8c0.1-0.4,0.3-0.8,0.4-1.3h-4.9c-0.1,0-0.2-0.1-0.2-0.3v-0.6c0-0.2,0.1-0.3,0.2-0.3
	h5.2c0.2-0.9,0.5-2,0.7-3.1C106.4,163.4,106.5,163.3,106.7,163.3 M102.6,163.5c0.1,0,0.2,0,0.2,0.1c0.5,0.7,1,1.4,1.4,2.1
	c0,0.2,0,0.3-0.1,0.3c-0.3,0.2-0.7,0.4-1,0.4c-0.4-0.8-0.8-1.6-1.3-2.3C101.9,163.9,102.1,163.7,102.6,163.5 M104.5,175.7l0.7,0.1
	c0.2,0,0.2,0.1,0.2,0.2c-0.2,1.1-0.4,2.1-0.8,3.2c0,0.1-0.1,0.1-0.1,0.1c-0.2,0-0.3,0-0.4-0.1c-0.2-0.1-0.5-0.2-0.7-0.3
	c-0.1,0-0.1-0.1-0.1-0.2c0.4-0.9,0.7-1.9,0.9-2.9C104.3,175.8,104.4,175.7,104.5,175.7 M104.7,173.2h7.8l0.6-2h-7.5
	c0,0.1,0,0.1-0.1,0.2C105.3,171.9,105,172.6,104.7,173.2 M106,170h4.6l0.6-2.1h-4.5C106.4,168.7,106.2,169.4,106,170 M107.4,175.8
	c0,0,0.1,0,0.1,0.1c0.3,0.9,0.5,1.9,0.7,2.8c0,0.1-0.4,0.2-1.1,0.3c-0.1,0-0.1,0-0.1-0.1c-0.1-0.9-0.3-1.9-0.5-2.9
	C106.4,176,106.7,175.9,107.4,175.8 M109.5,175.6c0.1,0,0.1,0,0.1,0.1c0.3,0.7,0.6,1.4,0.9,2.1c0,0.2,0,0.3-0.1,0.3
	c-0.3,0.2-0.6,0.4-0.9,0.4c-0.3-0.9-0.5-1.7-0.8-2.3C108.7,176,109,175.8,109.5,175.6 M111.6,175.2c0.1,0,0.1,0,0.1,0.1
	c0.5,0.5,0.9,1,1.3,1.6c0,0.2,0,0.3-0.1,0.3c-0.3,0.2-0.6,0.4-0.9,0.4c-0.3-0.6-0.7-1.2-1.2-1.8
	C110.9,175.6,111.1,175.5,111.6,175.2"/>
<path id="Path_39856" class="st0" d="M121.1,163.7l1.3,0.4c0.1,0.1,0.2,0.2,0.2,0.2c0,0.1-0.1,0.3-0.2,0.3c-0.1,0-0.2,0.1-0.3,0.2
	c-0.2,0.8-0.4,1.4-0.6,1.9h4.3v-3.2c0-0.1,0.1-0.2,0.3-0.2c0.9,0,1.3,0.1,1.3,0.2c0,0.2-0.1,0.3-0.2,0.3s-0.2,0.1-0.2,0.4v2.6h5.9
	c0.1,0,0.2,0.1,0.2,0.2c0,0,0,0,0,0v0.7c0,0.2-0.1,0.3-0.2,0.3H127v4h5.1c0.1,0,0.2,0.1,0.2,0.3v0.6c0,0.2-0.1,0.3-0.2,0.3H127v4.8
	h6.8c0.1,0,0.2,0.1,0.2,0.2v0.7c0,0.2-0.1,0.3-0.2,0.3h-15.6c-0.1,0-0.2-0.1-0.2-0.3v-0.7c0-0.1,0.1-0.2,0.2-0.2h7.6v-4.8h-5.5
	c-0.1,0-0.2-0.1-0.2-0.3v-0.6c0-0.2,0.1-0.3,0.2-0.3h5.5v-4H121c-0.2,0.6-0.5,1.1-0.8,1.6c-0.3,0.5-0.6,1-1,1.5
	c-0.1,0-0.3,0-0.4-0.1c-0.2-0.1-0.5-0.2-0.7-0.3c-0.1-0.1-0.1-0.1-0.1-0.1c0-0.1,0-0.1,0.1-0.2c0.6-0.7,1.2-1.5,1.6-2.4
	c0.3-0.6,0.5-1.1,0.7-1.7c0.3-0.8,0.5-1.6,0.6-2.5C121,163.8,121,163.7,121.1,163.7"/>
<path id="Path_39857" class="st0" d="M136.5,168.3c0.5,0.2,1.1,0.4,1.6,0.7c0.4,0.2,0.8,0.5,1.2,0.8c0,0.1-0.1,0.1-0.1,0.1
	c-0.2,0.3-0.3,0.5-0.5,0.8c-0.5-0.4-1.1-0.7-1.7-0.9c-0.4-0.2-0.8-0.4-1.2-0.5c0.2-0.3,0.3-0.6,0.6-0.8
	C136.4,168.3,136.4,168.3,136.5,168.3 M139.7,172.2c0.1,0,0.1,0.1,0.1,0.2c0.2,0.3,0.3,0.7,0.5,1c0,0.1,0,0.2-0.1,0.2
	c-0.6,1.3-1.2,2.4-1.7,3.3c-0.3,0.5-0.6,1.1-1.1,1.6c-0.1,0.2-0.1,0.4-0.1,0.6c0,0.1-0.1,0.2-0.1,0.2c-0.4-0.3-0.8-0.7-1.1-1.1
	c-0.1,0-0.1-0.1-0.1-0.2c0-0.1,0-0.2,0.1-0.2c0.4-0.4,0.8-0.8,1.1-1.2c0.5-0.7,1-1.4,1.5-2.3c0.4-0.7,0.8-1.4,1.1-2
	C139.6,172.2,139.7,172.2,139.7,172.2 M137.1,163.7c0.6,0.3,1.2,0.6,1.7,0.9c0.5,0.3,1,0.6,1.4,0.9c0,0.1,0,0.1-0.1,0.2
	c-0.4,0.5-0.5,0.8-0.5,0.8c-0.6-0.5-1.2-0.9-1.9-1.2c-0.4-0.2-0.9-0.4-1.3-0.6c0.1-0.3,0.3-0.6,0.6-0.8
	C137,163.7,137.1,163.7,137.1,163.7 M150.5,164.7c-0.1,0-0.2,0-0.4,0.1c-1,0.3-2.1,0.6-3.1,0.7v2.9h4.9c0.1,0,0.2,0.1,0.2,0.3v0.6
	c0,0.2-0.1,0.3-0.2,0.3H147v3.1h3.8c0.2,0,0.3,0.1,0.3,0.2v6.6c0,0.1-0.1,0.2-0.3,0.2h-0.7c-0.2,0-0.3-0.1-0.3-0.2v-0.9h-7v0.9
	c0,0.1-0.1,0.2-0.3,0.2h-0.7c-0.2,0-0.3-0.1-0.3-0.2v-6.5c0-0.2,0.1-0.3,0.3-0.3h3.9v-3.1h-4.9c-0.1,0-0.2-0.1-0.2-0.3v-0.6
	c0-0.2,0.1-0.3,0.2-0.3h4.9v-2.7c-1.2,0.1-2.4,0.2-3.7,0.2c-0.2,0-0.3-0.1-0.4-0.2c0-0.2-0.1-0.4-0.2-0.6c0-0.1-0.1-0.2-0.1-0.2
	c1.6,0,3.1-0.1,4.7-0.2c1.3-0.1,2.5-0.4,3.7-0.8c0.1-0.1,0.2-0.1,0.3-0.1c0.1,0,0.1,0.1,0.2,0.1c0.6,0.5,0.9,0.8,0.9,1
	s-0.1,0.3-0.2,0.3L150.5,164.7z M142.8,177.3h7v-3.7h-7V177.3z"/>
<path id="Path_39858" class="st0" d="M154.5,167.9c0.7,0.3,1.3,0.6,1.7,0.9c0.5,0.4,1,0.7,1.3,1c0,0.1-0.1,0.1-0.1,0.1
	c-0.4,0.5-0.5,0.8-0.5,0.8c-0.6-0.5-1.2-0.9-1.8-1.2c-0.4-0.3-0.9-0.5-1.3-0.6c0.2-0.3,0.3-0.6,0.6-0.8
	C154.4,167.9,154.4,167.9,154.5,167.9 M157,171.9c0.1,0,0.1,0.1,0.1,0.2c0.3,0.7,0.5,1,0.5,1c0,0.1,0,0.2-0.1,0.3
	c-0.5,1.3-0.9,2.5-1.3,3.4c-0.2,0.5-0.5,1.1-0.8,1.7c-0.1,0.2-0.1,0.4-0.1,0.6c0,0.1-0.1,0.2-0.1,0.2c-0.4-0.3-0.8-0.7-1.1-1.1
	c-0.1,0-0.1-0.1-0.1-0.2c0-0.1,0-0.2,0.1-0.3c0.3-0.4,0.6-0.8,0.9-1.2c0.4-0.8,0.8-1.6,1.2-2.4c0.3-0.8,0.6-1.5,0.9-2.1
	C156.9,172,157,171.9,157,171.9 M155.2,163.9c0.6,0.3,1.1,0.6,1.6,0.9c0.5,0.4,0.9,0.7,1.3,1c0,0.1-0.1,0.1-0.1,0.2
	c-0.2,0.3-0.3,0.5-0.5,0.8c-0.5-0.5-1.1-0.9-1.7-1.3c-0.4-0.3-0.8-0.5-1.2-0.6c0.2-0.3,0.3-0.6,0.6-0.8
	C155.1,163.9,155.1,163.9,155.2,163.9 M159.8,163.9h8.5c0.1,0,0.2,0.1,0.2,0.3v0.6c0,0.2-0.1,0.3-0.2,0.3h-3.7
	c-0.1,0.8-0.1,1.4-0.2,2h5.3c0.1,0,0.2,0.1,0.2,0.3v0.6c0,0.2-0.1,0.3-0.2,0.3h-4.9c0.2,0.3,0.3,0.6,0.5,0.8
	c0.3,0.4,0.7,0.8,1.1,1.2c0.5,0.4,1.1,0.7,1.7,1c0.5,0.2,1.1,0.4,1.7,0.5c0.1,0,0.2,0,0.2,0.1c0,0.1,0,0.2-0.1,0.3
	c-0.2,0.2-0.3,0.4-0.5,0.6c0,0.1-0.1,0.2-0.2,0.2c0,0,0,0,0,0c-0.7-0.2-1.4-0.5-2.1-0.8c-0.5-0.2-0.9-0.5-1.4-0.9
	c-0.4-0.3-0.8-0.7-1.1-1.1c-0.3-0.4-0.5-0.8-0.8-1.2c-0.3,0.6-0.6,1.2-1.1,1.7c-0.5,0.5-1.1,1-1.7,1.3c-0.7,0.4-1.5,0.8-2.4,1
	c-0.3-0.3-0.6-0.6-0.8-0.9c0.6-0.2,1.2-0.4,1.8-0.7c0.7-0.3,1.3-0.7,1.9-1.2c0.5-0.5,0.9-1.2,1.2-1.9h-4.5c-0.1,0-0.2-0.1-0.2-0.3
	v-0.6c0-0.2,0.1-0.3,0.2-0.3h4.8c0.1-0.7,0.2-1.3,0.2-2h-3.6c-0.1,0-0.2-0.1-0.2-0.3v-0.6C159.6,164,159.7,163.9,159.8,163.9
	 M160.8,173.3l1.1,0.4c0.2,0.1,0.3,0.2,0.3,0.3c0,0.1-0.1,0.2-0.3,0.3c-0.2,0-0.4,0.1-0.4,0.3c-0.5,1.2-1.1,2.3-1.9,3.2
	c-0.1,0.2-0.3,0.3-0.4,0.3c-0.1,0-0.2-0.1-0.3-0.1c-0.2-0.1-0.5-0.2-0.7-0.3c-0.1,0-0.1-0.1-0.1-0.1c0-0.1,0.1-0.1,0.1-0.2
	c0.5-0.6,1-1.2,1.4-1.8c0.4-0.6,0.8-1.3,1-2C160.6,173.4,160.7,173.3,160.8,173.3 M163.4,171.5l1.4,0.2c0.1,0.1,0.2,0.1,0.2,0.2
	c0,0.1-0.1,0.2-0.2,0.2c-0.2,0.1-0.4,0.4-0.4,0.8v5.5c0,0.8-0.6,1.3-1.9,1.3h-1c-0.1,0-0.1-0.1-0.1-0.3c-0.1-0.3-0.2-0.6-0.4-0.8
	c0-0.1,0-0.1,0.1-0.1c0,0,0,0,0,0c0.4,0.1,0.8,0.1,1.2,0.1c0.5,0,0.8-0.2,0.8-0.6v-5.1c0-0.3,0-0.5-0.1-0.8
	c-0.1-0.1-0.1-0.2-0.1-0.4C163,171.5,163.2,171.5,163.4,171.5 M166.1,174c0.4,0.8,0.7,1.6,1,2.3c0.2,0.6,0.4,1.3,0.6,2
	c-0.4,0.2-0.7,0.3-1.1,0.4c-0.1-0.6-0.2-1.2-0.4-1.8c-0.2-0.8-0.5-1.6-0.9-2.4C165.1,174.5,165.5,174.3,166.1,174 M168.5,173.7
	c0.4,0.8,0.8,1.6,1.1,2.4c0.3,0.7,0.5,1.4,0.7,2.1c-0.4,0.2-0.7,0.3-1.1,0.4c-0.1-0.6-0.3-1.2-0.5-1.8c-0.3-0.8-0.6-1.7-1.1-2.5
	C167.6,174.2,167.9,174,168.5,173.7"/>
<path id="Path_39859" class="st0" d="M172.2,166.4h2.7v-1.2c0-0.3,0-0.8-0.1-1.5c0-0.1,0.1-0.2,0.3-0.2l1.4,0.2
	c0.2,0,0.3,0.1,0.3,0.2c0,0.1-0.1,0.2-0.2,0.3c-0.2,0-0.3,0.2-0.3,0.4c0,0.6,0,1.2,0,1.7h3.8c0.1,0,0.2,0.1,0.2,0.3
	c0,3.4-0.1,5.9-0.2,7.4c-0.1,1.4-0.3,2.7-0.6,4c-0.1,0.9-0.9,1.5-1.8,1.4c-0.8,0-1.3-0.1-1.3-0.4c-0.1-0.3-0.3-0.7-0.5-0.9v-0.1
	c0.7,0,1.3,0.1,1.8,0.1c0.5,0,0.8-0.3,0.9-1c0.2-1,0.3-2.1,0.4-3.2c0.1-1.3,0.2-3.4,0.2-6.4h-2.9c0,1.6-0.1,3.2-0.3,4.8
	c-0.2,1.6-0.6,3.2-1.3,4.7c-0.4,0.9-0.9,1.8-1.6,2.6h-0.2c-0.4-0.1-0.8-0.3-1.2-0.4c-0.1-0.1-0.1-0.1-0.1-0.2
	c0.7-0.8,1.3-1.6,1.8-2.6c0.6-1.1,0.9-2.3,1.1-3.6c0.3-1.7,0.4-3.5,0.4-5.2h-2.7c-0.1,0-0.2-0.1-0.2-0.3v-0.7
	C172,166.4,172,166.4,172.2,166.4 M182,165.4h5.3c0.2,0,0.3,0.1,0.3,0.2v13.6c0,0.1-0.1,0.2-0.3,0.2h-0.7c-0.2,0-0.3-0.1-0.3-0.2
	V178H183v1.2c0,0.1-0.1,0.2-0.3,0.2H182c-0.2,0-0.3-0.1-0.3-0.2v-13.6C181.8,165.5,181.8,165.4,182,165.4 M183,176.9h3.3v-10.4H183
	V176.9z"/>
<path id="Path_39860" class="st0" d="M190.1,164.2h2v-0.8c0-0.1,0.1-0.1,0.2-0.1c0.8,0,1.2,0.1,1.2,0.2s-0.1,0.2-0.1,0.2
	s-0.1,0.1-0.1,0.3v0.2h2.2v-0.8c0-0.1,0.1-0.1,0.2-0.1c0.8,0,1.3,0.1,1.3,0.2s0,0.2-0.1,0.2c-0.1,0-0.2,0.1-0.2,0.3v0.2h1.8
	c0.1,0,0.1,0.1,0.1,0.2v0.5c0,0.1-0.1,0.2-0.1,0.2h-1.8v0.5c0,0.1-0.1,0.2-0.3,0.2h-0.7c-0.1,0-0.2-0.1-0.2-0.2v-0.5h-2.2v0.5
	c0,0.1-0.1,0.2-0.3,0.2h-0.2c0,0,0,0,0,0.1c0,0.1-0.1,0.1-0.2,0.2c-0.1,0-0.3,0.1-0.3,0.2c0,0,0,0-0.1,0.1h5.7
	c0.1,0,0.2,0.1,0.2,0.2c-0.1,1-0.1,1.8-0.2,2.4c0,0.5-0.2,0.9-0.5,1.3c-0.3,0.2-0.7,0.4-1.1,0.4c-0.2,0-0.3-0.1-0.3-0.2
	c-0.1-0.3-0.2-0.7-0.4-1c0,0,0,0,0.1,0c0.3,0,0.5-0.1,0.7-0.2c0.2-0.2,0.3-0.4,0.3-0.7c0.1-0.3,0.1-0.7,0.1-1.3h-5.2
	c-0.2,0.4-0.5,0.8-0.8,1.1c-0.1,0.1-0.2,0.2-0.2,0.2c-0.1,0-0.2,0-0.3-0.1c-0.2-0.1-0.4-0.2-0.6-0.3c-0.1,0-0.1,0-0.1-0.1
	c0-0.1,0-0.1,0.1-0.1c0.4-0.3,0.7-0.7,0.9-1.1c0.3-0.4,0.5-0.8,0.7-1.2c0.1-0.1,0.1-0.2,0.2-0.2l0.4,0.2v-0.4h-2
	c-0.1,0-0.2-0.1-0.2-0.2v-0.5C190,164.3,190,164.2,190.1,164.2 M191.6,177.2l1.1,0.4c0.2,0.1,0.3,0.2,0.3,0.3c0,0.1-0.1,0.1-0.2,0.1
	c-0.1,0-0.2,0-0.3,0.1c-0.3,0.6-0.7,1.1-1.2,1.6c-0.1,0.1-0.1,0.1-0.2,0.1c-0.1,0-0.2-0.1-0.3-0.1c-0.2-0.1-0.5-0.2-0.7-0.3
	c-0.1-0.1-0.2-0.1-0.2-0.1c0,0,0-0.1,0.1-0.1c0.3-0.3,0.6-0.6,0.8-0.9c0.3-0.3,0.5-0.7,0.6-1C191.5,177.2,191.5,177.2,191.6,177.2
	 M192,168h3.2c0.2,0,0.3,0.1,0.3,0.2v1.9c0,0.1-0.1,0.2-0.3,0.2H192c-0.2,0-0.3-0.1-0.3-0.2v-1.9C191.7,168.1,191.8,168,192,168
	 M198.9,172.1v0.8h4.9c0.1,0,0.1,0.1,0.1,0.2v0.4c0,0.1-0.1,0.2-0.1,0.2h-4.9v0.8h5c0.1,0,0.1,0.1,0.1,0.2v0.4
	c0,0.1-0.1,0.2-0.1,0.2h-5v0.8h6c0.1,0,0.2,0.1,0.2,0.1c0,0.7-0.1,1.4-0.2,2c-0.1,0.4-0.2,0.8-0.4,1.1c-0.2,0.3-0.6,0.4-1.3,0.4
	c-0.6,0-0.8-0.1-0.9-0.4c-0.1-0.3-0.2-0.7-0.3-1v-0.1c0.4,0.1,0.8,0.1,1.2,0.1c0.2,0,0.4,0,0.5-0.2c0.1-0.2,0.2-0.4,0.2-0.6
	c0-0.2,0.1-0.4,0.1-0.6h-11.5c-0.2,0-0.3-0.1-0.3-0.2v-5.3c0-0.1,0.1-0.2,0.3-0.2h12.1c0.1,0,0.1,0.1,0.1,0.2v0.4
	c0,0.2-0.1,0.3-0.1,0.3L198.9,172.1L198.9,172.1z M194.4,168.8h-1.6v0.8h1.6V168.8z M193.4,172.8h4.3v-0.8h-4.3V172.8z M197.6,173.7
	h-4.3v0.8h4.3V173.7z M193.4,176.1h4.3v-0.8h-4.3V176.1z M194.9,177.3c0.1,0,0.1,0,0.1,0.1c0.3,0.6,0.6,1.2,0.8,1.8
	c0,0.2,0,0.3-0.1,0.3c-0.3,0.2-0.6,0.4-0.9,0.4c-0.2-0.8-0.5-1.5-0.7-2C194.1,177.7,194.4,177.5,194.9,177.3 M197.8,177.3
	c0.1,0,0.1,0,0.1,0.1c0.3,0.5,0.5,1.1,0.8,1.7c0,0.2,0,0.3-0.1,0.3c-0.3,0.2-0.6,0.4-0.9,0.4c-0.2-0.8-0.4-1.4-0.6-1.9
	C197,177.7,197.3,177.5,197.8,177.3 M201,163.3l1.1,0.4c0.1,0.1,0.2,0.1,0.2,0.2c0,0.1-0.1,0.2-0.2,0.2c-0.1,0-0.2,0.1-0.2,0.2
	c-0.1,0.2-0.2,0.4-0.2,0.6h4.3c0.1,0,0.1,0.1,0.1,0.2v0.6c0,0.1,0,0.2-0.1,0.2h-1c-0.1,0.4-0.2,0.7-0.4,1c-0.2,0.4-0.4,0.9-0.7,1.3
	c-0.1,0.2-0.2,0.3-0.3,0.4c0.2,0.1,0.4,0.3,0.7,0.5c0.4,0.2,0.8,0.4,1.2,0.6l0.7,0.2c0.1,0,0.1,0,0.1,0.1c0,0.1,0,0.2-0.1,0.2
	c-0.2,0.2-0.3,0.4-0.5,0.6c-0.1,0.1-0.2,0.1-0.2,0.1c-0.6-0.2-1.2-0.5-1.8-0.9c-0.3-0.2-0.6-0.5-0.9-0.7c-0.3,0.2-0.6,0.4-1,0.6
	c-0.7,0.3-1.4,0.6-2.1,0.8c-0.1,0-0.2,0-0.2-0.1c-0.1-0.2-0.3-0.4-0.5-0.7c-0.1-0.1-0.1-0.1-0.1-0.2c0.2,0,0.4-0.1,0.6-0.2
	c0.4-0.1,0.7-0.2,1.1-0.3c0.5-0.2,0.9-0.4,1.3-0.7c0,0,0,0,0.1,0c-0.2-0.2-0.3-0.4-0.5-0.7c-0.3-0.4-0.5-0.8-0.7-1.3
	c-0.1,0.2-0.3,0.4-0.4,0.6c-0.3,0.3-0.5,0.6-0.9,0.9c-0.1,0-0.2,0-0.3-0.1c-0.2-0.1-0.4-0.1-0.6-0.2c-0.1,0-0.1-0.1-0.1-0.1
	c0,0,0-0.1,0.1-0.1c0.5-0.4,0.9-0.9,1.3-1.5c0.2-0.4,0.4-0.7,0.6-1.1C200.6,164.5,200.8,164,201,163.3
	C200.9,163.4,201,163.3,201,163.3 M200.2,177.1c0.1,0,0.1,0,0.1,0.1c0.4,0.5,0.7,1.1,1.1,1.7c0,0.2,0,0.3-0.1,0.3
	c-0.3,0.2-0.6,0.4-0.9,0.4c-0.3-0.7-0.6-1.3-0.9-1.9C199.5,177.6,199.7,177.4,200.2,177.1 M201.5,165.9c0.2,0.4,0.4,0.9,0.6,1.3
	c0.2,0.2,0.4,0.5,0.6,0.7c0.3-0.3,0.5-0.6,0.6-1c0.2-0.3,0.3-0.6,0.4-1H201.5z"/>
<path id="Path_39861" class="st0" d="M210.9,168.7h10.5c0.2,0,0.3,0.1,0.3,0.2v2.9c0,0.1-0.1,0.2-0.3,0.2h-1.5c0,0,0.1,0.1,0.1,0.1
	c0,0.1,0,0.1-0.1,0.1c-0.1,0-0.2,0.1-0.2,0.1c-0.1,0.3-0.3,0.6-0.4,0.9h4.7c0.1,0,0.1,0.1,0.1,0.2v0.6c0,0.2,0,0.3-0.1,0.3h-15.8
	c-0.1,0-0.2-0.1-0.2-0.3v-0.6c0-0.1,0.1-0.2,0.2-0.2h4.8c-0.2-0.4-0.4-0.9-0.6-1.4h-1.4c-0.2,0-0.3-0.1-0.3-0.2V169
	C210.6,168.8,210.7,168.7,210.9,168.7 M208.9,164.5h6.6v-1.1c0-0.1,0.1-0.2,0.3-0.2c0.9,0,1.4,0.1,1.4,0.2c0,0.2-0.1,0.2-0.2,0.3
	s-0.2,0.1-0.2,0.4v0.4h6.5c0.1,0,0.1,0.1,0.1,0.2v0.6c0,0.2-0.1,0.3-0.1,0.3h-6.5v1.3h5.4c0.1,0,0.1,0.1,0.1,0.2v0.6
	c0,0.2-0.1,0.3-0.1,0.3H210c-0.1,0-0.1-0.1-0.1-0.3V167c0-0.1,0.1-0.2,0.1-0.2h5.5v-1.3h-6.6c-0.1,0-0.1-0.1-0.1-0.3v-0.6
	C208.8,164.5,208.8,164.5,208.9,164.5 M210.1,175.5h11.7c0.2,0,0.3,0.1,0.3,0.2v3.8c0,0.1-0.1,0.2-0.3,0.2h-0.7
	c-0.2,0-0.3-0.1-0.3-0.2V179h-9.7v0.5c0,0.1-0.1,0.2-0.3,0.2h-0.7c-0.2,0-0.3-0.1-0.3-0.2v-3.8C209.9,175.6,210,175.5,210.1,175.5
	 M211.1,178h9.7v-1.4h-9.7V178z M220.4,169.8h-8.5v1.2h8.5V169.8z M217.7,173.5c0.2-0.2,0.3-0.5,0.4-0.8c0.1-0.2,0.2-0.4,0.2-0.6
	h-4.8c0.2,0.5,0.4,1,0.6,1.4H217.7z"/>
<path id="Path_39862" class="st0" d="M231,164.7c-0.1,0-0.2,0-0.2,0.1c-0.8,0.3-1.6,0.5-2.4,0.6v1.9h2.8c0.1,0,0.2,0.1,0.2,0.3v0.6
	c0,0.2-0.1,0.3-0.2,0.3h-2.8v2.3h2.9c0.1,0,0.2,0.1,0.2,0.3v0.6c0,0.2-0.1,0.3-0.2,0.3h-2.9v2.4h3.9v-3.9c0-0.1,0.1-0.2,0.3-0.2
	c0.8,0,1.1,0.1,1.1,0.2c0,0.1-0.1,0.2-0.1,0.2s-0.1,0.1-0.1,0.3v3.3h1.4v-4.9h-2.2c-0.1,0-0.3-0.1-0.3-0.2c0,0,0-0.1,0-0.1v-5.7
	c0-0.1,0.1-0.1,0.3-0.1c0.8,0,1.1,0.1,1.1,0.1c0,0.1-0.1,0.2-0.1,0.2s-0.1,0.1-0.1,0.3v1.4h2.4c0.1,0,0.1,0.1,0.1,0.2v0.6
	c0,0.2-0.1,0.3-0.1,0.3h-2.4v1.9h2.2c0.2,0,0.3,0.1,0.3,0.2v5.8h3.4v-2.4h-2.7c-0.1,0-0.2-0.1-0.2-0.3v-0.6c0-0.2,0.1-0.3,0.2-0.3
	h2.7v-2.3h-2.7c-0.1,0-0.2-0.1-0.2-0.3v-0.6c0-0.2,0.1-0.3,0.2-0.3h2.7v-2.2h-2.7c-0.1,0-0.2-0.1-0.2-0.3v-0.7
	c0-0.1,0.1-0.2,0.2-0.2c0,0,0,0,0.1,0h3.7c0.2,0,0.3,0.1,0.3,0.2v10.2h1.1c0.1,0,0.2,0.1,0.2,0.3v0.6c0,0.2-0.1,0.3-0.2,0.3h-16
	c-0.1,0-0.2-0.1-0.2-0.3v-0.6c0-0.2,0.1-0.3,0.2-0.3h1.2v-10.1c0-0.1,0.1-0.2,0.2-0.2c0,0,0,0,0.1,0l0.8,0.3
	c0.4-0.1,0.7-0.1,1.1-0.3c0.5-0.1,1-0.3,1.4-0.6c0.1,0,0.1-0.1,0.2-0.1c0.3,0.4,0.5,0.9,0.7,1.3c0,0.1,0,0.1-0.1,0.1c0,0,0,0,0,0
	L231,164.7z M231,175.6l1.3,0.6c0.1,0.1,0.1,0.1,0.2,0.2c0,0.1-0.1,0.2-0.4,0.2c-0.1,0-0.3,0-0.4,0.1c-0.3,0.4-0.7,0.7-1.1,1.1
	c-0.3,0.3-0.6,0.5-0.9,0.7c-0.4,0.3-0.7,0.5-1.1,0.7c-0.3,0.2-0.6,0.3-0.9,0.4c-0.1,0-0.2-0.1-0.3-0.2c-0.1-0.2-0.3-0.5-0.5-0.6
	c-0.1-0.1-0.2-0.1-0.2-0.2c0,0,0,0,0.1-0.1c0.4-0.2,0.9-0.3,1.3-0.5c0.5-0.3,1-0.6,1.4-0.9c0.3-0.2,0.5-0.4,0.8-0.7
	c0.2-0.3,0.4-0.5,0.6-0.8C230.9,175.7,230.9,175.6,231,175.6 M237.3,175.6c0.5,0.7,1.1,1.2,1.7,1.7c0.7,0.6,1.6,1.1,2.5,1.4
	c-0.2,0.4-0.5,0.7-0.8,1c-0.8-0.3-1.6-0.7-2.3-1.3c-0.8-0.6-1.5-1.2-2.1-1.9C236.3,176.4,236.6,176.1,237.3,175.6"/>
<path id="Path_39863" class="st0" d="M246.4,175.2l1,0.7c0.1,0.1,0.1,0.2,0.1,0.2c0,0.1,0,0.1-0.1,0.1c-0.1,0-0.2,0.1-0.2,0.2
	c-0.3,0.5-0.6,1-0.9,1.4c-0.4,0.6-0.9,1.1-1.5,1.5c-0.1,0-0.2-0.1-0.3-0.1c-0.2-0.1-0.4-0.3-0.6-0.5c-0.1-0.1-0.1-0.1-0.1-0.1
	c0,0,0-0.1,0.1-0.1c0.3-0.1,0.5-0.3,0.7-0.5c0.4-0.4,0.7-0.8,1-1.2c0.3-0.5,0.6-0.9,0.8-1.4C246.3,175.3,246.3,175.2,246.4,175.2
	 M246.6,166.1v2.5c0,1.1-0.1,2.1-0.3,3.2c-0.1,0.7-0.4,1.3-0.8,1.9c-0.2,0.4-0.5,0.8-0.8,1.1c-0.1,0-0.1,0-0.2,0
	c-0.2-0.2-0.4-0.3-0.6-0.5c-0.1-0.1-0.1-0.2-0.1-0.3c0.4-0.4,0.6-0.8,0.8-1.3c0.3-0.6,0.4-1.2,0.5-1.8c0.1-0.8,0.2-1.6,0.2-2.4v-3.3
	c0-0.1,0.1-0.2,0.3-0.2h8.2c0-0.5-0.1-1.1-0.1-1.7c0-0.1,0-0.1,0.1-0.1c1,0.1,1.6,0.1,1.6,0.2c0,0.1-0.1,0.1-0.2,0.2
	c-0.1,0.1-0.2,0.3-0.2,0.5c0,0.3,0,0.6,0,0.9h3.6c0.1,0,0.1,0.1,0.1,0.2v0.5c0,0.2,0,0.3-0.1,0.3h-3.5c0,0.6,0.1,1.1,0.1,1.4
	c0.1,0.8,0.3,1.5,0.6,2.3c0.1,0.4,0.3,0.7,0.5,1c0.2-0.4,0.4-0.8,0.5-1.2c0.2-0.6,0.4-1.1,0.5-1.7c0-0.1,0.1-0.1,0.1-0.1
	c0,0,0,0,0,0c0.9,0.3,1.4,0.5,1.4,0.6c0,0.1-0.1,0.2-0.2,0.3c-0.1,0-0.2,0.1-0.2,0.2c-0.2,0.7-0.5,1.5-0.8,2.2
	c-0.2,0.4-0.4,0.7-0.5,1c0.1,0.2,0.3,0.4,0.5,0.5c0.4,0.4,0.6,0.6,0.8,0.6c0.1,0,0.3-0.1,0.4-0.4c0.2-0.5,0.4-1,0.4-1.5
	c0-0.1,0.1-0.1,0.1-0.1c0.1,0,0.2,0,0.2,0.1c0.2,0.1,0.4,0.2,0.6,0.3c0.1,0.1,0.2,0.1,0.2,0.2c-0.1,0.7-0.3,1.4-0.6,2
	c-0.3,0.6-0.6,0.9-1,0.9c-0.2,0-0.4-0.1-0.6-0.2c-0.3-0.1-0.5-0.3-0.8-0.5c-0.3-0.3-0.7-0.6-1-1c-0.4,0.5-0.9,0.9-1.5,1.4
	c-0.1,0-0.1,0-0.2,0c-0.1,0-0.3-0.1-0.3-0.2c-0.1-0.2-0.3-0.3-0.4-0.5c-0.1,0-0.2-0.1-0.2-0.2c0,0,0-0.1,0.1-0.1
	c0.3-0.1,0.5-0.3,0.8-0.5c0.4-0.3,0.7-0.6,1-0.9c-0.2-0.3-0.4-0.6-0.5-0.9c-0.2-0.6-0.4-1.2-0.6-1.6c-0.2-0.8-0.4-1.6-0.5-2.4
	c0-0.3-0.1-0.6-0.1-1L246.6,166.1L246.6,166.1z M247.7,167.3h5.3c0.1,0,0.2,0.1,0.2,0.2v0.5c0,0.2-0.1,0.3-0.2,0.3h-5.3
	c-0.1,0-0.1-0.1-0.1-0.3v-0.5C247.6,167.4,247.6,167.3,247.7,167.3 M248,169.5h4.6c0.2,0,0.3,0.1,0.3,0.2v4c0,0.1-0.1,0.2-0.3,0.2
	H252c-0.2,0-0.3-0.1-0.3-0.2v-0.4h-2.9v0.5c0,0.1-0.1,0.2-0.3,0.2H248c-0.2,0-0.3-0.1-0.3-0.2v-4C247.7,169.5,247.8,169.5,248,169.5
	 M248.6,174.8l1.1,0.1c0.1,0,0.2,0.1,0.2,0.1c0,0.1,0,0.2-0.1,0.2c-0.1,0-0.1,0.1-0.1,0.2v2c0,0.5,0.3,0.8,0.9,0.8h3.5
	c0.7,0,1.1-0.1,1.3-0.3c0.3-0.6,0.5-1.2,0.6-1.8c0.2,0.3,0.4,0.5,0.7,0.6c0.1,0.1,0.2,0.1,0.2,0.2c-0.1,0.7-0.4,1.4-0.8,2
	c-0.3,0.3-0.7,0.5-1.2,0.4h-4.5c-1.3,0-2-0.4-2-1.2v-3.2C248.5,174.8,248.6,174.8,248.6,174.8 M248.8,172.2h2.9v-1.7h-2.9V172.2z
	 M251.7,175c0.5,0.2,0.9,0.5,1.3,0.8c0.4,0.3,0.8,0.6,1.1,0.8c0,0.1,0,0.1-0.1,0.2c-0.4,0.5-0.5,0.8-0.5,0.8
	c-0.5-0.4-0.9-0.8-1.4-1.1c-0.3-0.2-0.7-0.4-1-0.6c0.1-0.3,0.3-0.6,0.5-0.8C251.6,175,251.7,175,251.7,175 M256.6,163
	c0.4,0.2,0.7,0.4,1,0.6c0.3,0.2,0.6,0.4,0.8,0.6c0,0,0,0.1-0.1,0.1c-0.2,0.3-0.3,0.5-0.5,0.7c-0.3-0.3-0.7-0.5-1.1-0.8
	c-0.2-0.2-0.5-0.3-0.8-0.4c0.1-0.3,0.3-0.5,0.5-0.7C256.6,163,256.6,163,256.6,163 M258.1,175.2c0.5,0.5,0.9,1.1,1.4,1.7
	c0.3,0.5,0.6,1,0.8,1.5c-0.4,0.2-0.8,0.3-1.2,0.4c-0.1-0.5-0.4-0.9-0.6-1.3c-0.4-0.6-0.8-1.2-1.4-1.7
	C257.1,175.8,257.5,175.5,258.1,175.2"/>
<path id="Path_39864" class="st0" d="M269.7,164.4c-0.1,0-0.2,0-0.3,0c-0.8,0.3-1.6,0.5-2.4,0.6v1.3h3.7c0.1,0,0.1,0.1,0.1,0.2v0.6
	c0,0.2,0,0.3-0.1,0.3H267v1.1h3c0.2,0,0.3,0.1,0.3,0.2v5.1c0,0.1-0.1,0.2-0.3,0.2h-3v1.3h3.2c0.1,0,0.1,0.1,0.1,0.2v0.6
	c0,0.2,0,0.3-0.1,0.3H267v1.2c0.6-0.1,1.3-0.2,2.1-0.3c0.6-0.1,1.1-0.2,1.5-0.3c0,0,0.1,0.1,0.1,0.2c-0.1,0.3-0.1,0.5-0.1,0.8
	c0,0.1,0,0.2-0.1,0.2c-0.6,0.1-1.1,0.1-1.8,0.2c-2,0.3-4,0.6-6,1c-0.1,0.3-0.2,0.5-0.4,0.5c-0.1,0-0.1-0.1-0.2-0.1l-0.4-1.6
	c0.6-0.1,1.9-0.2,4.1-0.5v-1.4h-3.2c-0.1,0-0.1-0.1-0.1-0.3v-0.6c0-0.1,0-0.2,0.1-0.2h3.2v-1.3h-3.1c-0.2,0-0.3-0.1-0.3-0.2v-5.1
	c0-0.1,0.1-0.2,0.3-0.2h3.1v-1.1H262c-0.1,0-0.1-0.1-0.1-0.3v-0.6c0-0.1,0-0.2,0.1-0.2h3.7v-1.1c-1.1,0.1-2.2,0.2-3.2,0.2
	c-0.2,0-0.3-0.1-0.4-0.2c0-0.2-0.1-0.4-0.2-0.6c0-0.1-0.1-0.2,0-0.2c1.3,0,2.7-0.1,4-0.2c1.1-0.1,2.1-0.4,3.1-0.8
	c0.1-0.1,0.2-0.1,0.3-0.1c0.1,0,0.1,0,0.2,0.1c0.6,0.5,0.9,0.8,0.9,0.9c0,0.2-0.1,0.3-0.2,0.3L269.7,164.4z M263.7,170.8h2.1v-1.2
	h-2.1V170.8z M265.8,171.8h-2.1v1.2h2.1V171.8z M267,170.8h2v-1.2h-2V170.8z M269.1,171.8h-2v1.2h2V171.8z M271.4,167.3h1.9
	c0-0.8,0-1.6,0-2.5c0-0.3,0-0.7-0.1-1.4c0-0.1,0.1-0.1,0.2-0.1l1.3,0.1c0.2,0,0.3,0.1,0.3,0.2c0,0.1,0,0.2-0.2,0.3
	c-0.2,0-0.3,0.2-0.3,0.4c0,1.1,0,2.1,0,3h3.1c0.1,0,0.2,0.1,0.2,0.3c0,3.2-0.1,5.5-0.2,6.9c-0.1,1.3-0.3,2.5-0.6,3.7
	c-0.2,0.8-1,1.4-1.8,1.3c-0.8,0-1.2-0.1-1.3-0.4c-0.1-0.3-0.3-0.7-0.5-0.9v-0.1c0.6,0,1.2,0.1,1.8,0.1c0.5,0,0.8-0.3,0.9-0.9
	c0.2-1,0.3-1.9,0.4-2.9c0.1-1.2,0.2-3.1,0.2-5.9h-2.2c0,1.6-0.1,2.8-0.2,3.8c-0.2,1.6-0.5,3.2-1.1,4.8c-0.3,0.9-0.7,1.8-1.2,2.6
	h-0.2c-0.4-0.1-0.7-0.2-1.1-0.4c-0.1,0-0.1-0.1-0.1-0.2c0.6-0.8,1.1-1.7,1.5-2.7c0.5-1.2,0.8-2.4,0.9-3.6c0.2-1.4,0.3-2.9,0.3-4.3
	h-1.9c-0.1,0-0.2-0.1-0.2-0.3v-0.6C271.2,167.4,271.3,167.3,271.4,167.3"/>
<path id="Path_39865" class="st0" d="M120.8,44.9l2,1c0.2,0.1,0.2,0.2,0.2,0.3c0,0.2-0.2,0.3-0.5,0.3c-0.2,0-0.4,0-0.7,0.1
	c0.9,1.3,2,2.4,3.2,3.5c1.1,1,2.3,1.9,3.5,2.7c1.2,0.8,2.5,1.4,3.9,1.7c0,0.1-0.1,0.3-0.2,0.3c-0.4,0.3-0.8,0.7-1.2,1.1
	c-0.1,0.1-0.3,0.2-0.4,0.2c-1.4-0.6-2.7-1.3-4-2.2v0.4c0,0.2-0.1,0.4-0.3,0.4h-4.9v4h6.9c0.2,0,0.3,0.1,0.3,0.4V60
	c0,0.2-0.1,0.4-0.3,0.4h-6.9v5.9h9.4c0.2,0,0.3,0.1,0.3,0.4v0.8c0,0.2-0.1,0.4-0.3,0.4h-20.6c-0.2,0-0.3-0.1-0.3-0.4v-0.8
	c0-0.2,0.1-0.4,0.3-0.4h9.3v-5.9h-7c-0.2,0-0.3-0.1-0.3-0.4v-0.8c0-0.2,0.1-0.4,0.3-0.4h7v-4h-4.9c-0.2,0-0.3-0.1-0.3-0.4v-0.8
	c-0.6,0.4-1.2,0.8-1.8,1.2c-0.8,0.5-1.6,1-2.5,1.3c-0.2,0-0.3-0.1-0.4-0.2c-0.2-0.4-0.5-0.7-0.8-1c-0.2-0.1-0.3-0.2-0.3-0.3
	c0,0,0.1-0.1,0.2-0.1c1.3-0.5,2.5-1,3.6-1.7c1.4-0.8,2.8-1.8,4-2.9c0.8-0.7,1.5-1.4,2.2-2.2c0.7-0.8,1.2-1.6,1.7-2.5
	C120.4,45,120.6,44.9,120.8,44.9 M114.7,61.5c0.2,0,0.3,0,0.3,0.1c0.7,1.1,1.4,2.3,1.9,3.5c0,0.2-0.1,0.4-0.2,0.4
	c-0.4,0.3-0.9,0.5-1.5,0.6c-0.5-1.3-1.1-2.5-1.7-3.8C113.5,62.2,113.9,61.9,114.7,61.5 M114.9,53.1h10.6c-0.4-0.3-0.8-0.6-1.1-1
	c-1.4-1.3-2.7-2.8-3.8-4.3c-0.7,0.9-1.5,1.7-2.3,2.4c-0.8,0.8-1.7,1.6-2.6,2.3C115.5,52.7,115.2,52.9,114.9,53.1 M126.1,61.4
	l1.6,0.7c0.2,0.1,0.4,0.2,0.4,0.4c0,0.1-0.1,0.2-0.2,0.2c-0.2,0-0.3,0.1-0.3,0.2c-0.4,1-1,1.9-1.6,2.8c-0.1,0.1-0.2,0.2-0.3,0.2
	c-0.2,0-0.3-0.1-0.4-0.2c-0.3-0.2-0.7-0.3-1-0.4c-0.1-0.1-0.2-0.1-0.2-0.1c0-0.1,0-0.1,0.1-0.2c0.4-0.5,0.8-1,1.1-1.5
	c0.4-0.6,0.6-1.2,0.8-1.8C126,61.5,126.1,61.4,126.1,61.4"/>
<path id="Path_39866" class="st0" d="M138.9,56l1.6,0.7c0.2,0.1,0.4,0.2,0.4,0.4c0,0.2-0.1,0.3-0.4,0.4c-0.3,0-0.6,0.2-0.7,0.5
	c-0.1,0.1-0.1,0.2-0.2,0.4h6.4V56c0-0.2,0.1-0.3,0.4-0.3c1.3,0,1.9,0.1,1.9,0.3c0,0.2-0.1,0.4-0.2,0.4s-0.2,0.2-0.2,0.5v1.3h7.8
	c0.2,0,0.3,0.1,0.3,0.4v0.8c0,0.3-0.1,0.4-0.3,0.4h-7.8v2.4h6.9c0.2,0,0.3,0.1,0.3,0.4v0.8c0,0.3-0.1,0.4-0.3,0.4h-6.9v2.6h9.9
	c0.2,0,0.3,0.1,0.3,0.4v0.8c0,0.3-0.1,0.4-0.3,0.4h-22.6c-0.2,0-0.3-0.1-0.3-0.4v-0.8c0-0.2,0.1-0.4,0.3-0.4H146v-2.6h-7
	c-0.2,0-0.3-0.1-0.3-0.4v-0.8c0-0.3,0.1-0.4,0.3-0.4h7v-2.4h-7.2c-0.6,1-1.2,2-2,3c-0.2,0.3-0.4,0.4-0.5,0.4c-0.2,0-0.3-0.1-0.5-0.2
	c-0.4-0.2-0.7-0.4-1-0.5c-0.1,0-0.2-0.1-0.2-0.1c0-0.1,0.1-0.2,0.1-0.2c0.8-0.8,1.6-1.7,2.2-2.7c0.7-0.9,1.2-1.9,1.6-3
	C138.7,56.1,138.8,56,138.9,56 M138.5,45.9h15.7c0.3,0,0.4,0.1,0.4,0.3v8.3c0,0.2-0.1,0.3-0.4,0.3h-15.7c-0.3,0-0.4-0.1-0.4-0.3
	v-8.3C138.1,46,138.3,45.9,138.5,45.9 M140,49.6h12.9v-2.1H140V49.6z M152.9,51.2H140v2.1h12.9V51.2z"/>
<path id="Path_39867" class="st0" d="M161.6,54l1.7,0.2c0.2,0.1,0.3,0.2,0.3,0.2c0,0.2-0.1,0.3-0.2,0.4c-0.3,0.1-0.4,0.4-0.4,0.6
	c0,2.5,0,4.3-0.1,5.4c-0.1,1.2-0.1,2.3-0.2,3.3c-0.1,0.7-0.2,1.3-0.3,1.8h-0.1c-0.5-0.2-1-0.3-1.5-0.5c-0.1-0.1-0.1-0.1-0.1-0.2
	c0.1-0.6,0.2-1.1,0.3-1.7c0.1-0.8,0.2-1.6,0.2-2.4c0.1-1,0.1-2.7,0.1-5.1v-1.8C161.3,54.1,161.4,54,161.6,54 M161,50.4h8.6
	c0.1,0,0.2,0.1,0.2,0.3v0.8c0,0.3-0.1,0.4-0.2,0.4h-3.2v16.5c0,0.2-0.1,0.3-0.4,0.3h-1c-0.3,0-0.4-0.1-0.4-0.3V51.9H161
	c-0.1,0-0.2-0.1-0.2-0.4v-0.8C160.8,50.5,160.8,50.4,161,50.4 M161.6,46.5h7.3c0.1,0,0.2,0.1,0.2,0.3v0.8c0,0.3-0.1,0.4-0.2,0.4
	h-7.3c-0.1,0-0.2-0.1-0.2-0.4v-0.8C161.4,46.6,161.5,46.5,161.6,46.5 M167.8,54.2h0.9c0.2,0,0.3,0.1,0.3,0.4
	c-0.1,0.9-0.2,1.9-0.2,2.8c0,2.3,0.3,4.7,0.9,6.9c0,0.1-0.1,0.2-0.2,0.3c-0.8,0.1-1.3,0.1-1.4,0.1l-0.2-0.4
	c-0.4-3.2-0.5-6.5-0.5-9.8C167.4,54.5,167.5,54.3,167.8,54.2C167.7,54.2,167.8,54.2,167.8,54.2 M171.3,58.8h11.5
	c0.3,0,0.4,0.1,0.4,0.3v4.2c0,0.2-0.1,0.3-0.4,0.3h-2.1l1.2,0.7c0.1,0.1,0.2,0.2,0.2,0.2c0,0.1-0.1,0.2-0.2,0.2
	c-0.2,0-0.4,0.1-0.4,0.2c-0.2,0.6-0.5,1.2-0.8,1.8h3.3c0.1,0,0.2,0.1,0.2,0.3v0.8c0,0.3-0.1,0.4-0.2,0.4h-14.2
	c-0.1,0-0.2-0.1-0.2-0.4V67c0-0.2,0.1-0.3,0.2-0.3h4.4c-0.1-0.1-0.1-0.3-0.2-0.4c-0.3-0.7-0.6-1.4-1-2c0-0.1,0.4-0.3,1.1-0.7h-2.8
	c-0.3,0-0.4-0.1-0.4-0.3v-4.2C170.9,58.9,171.1,58.8,171.3,58.8 M170.2,56.1h13.7c0.1,0,0.2,0.1,0.2,0.3v0.8c0,0.3-0.1,0.4-0.2,0.4
	h-13.7c-0.1,0-0.2-0.1-0.2-0.4v-0.8C170,56.2,170.1,56.1,170.2,56.1 M171.1,46.6h3.2v-1.3c0-0.1,0.1-0.2,0.4-0.2
	c1.1,0,1.6,0.1,1.6,0.2c0,0.2-0.1,0.3-0.2,0.4s-0.2,0.2-0.2,0.5v0.5h1.9v-1.3c0-0.1,0.1-0.2,0.4-0.2c1.1,0,1.6,0.1,1.6,0.2
	c0,0.2-0.1,0.3-0.2,0.4s-0.2,0.2-0.2,0.5v0.5h3.2c0.3,0,0.4,0.1,0.4,0.3v7.5c0,0.2-0.1,0.3-0.4,0.3h-11.7c-0.3,0-0.4-0.1-0.4-0.3V47
	C170.7,46.7,170.9,46.6,171.1,46.6 M172.5,50h1.9v-2h-1.9V50z M174.4,53.3v-1.9h-1.9v2L174.4,53.3L174.4,53.3z M181.5,60.2h-8.8v1.9
	h8.8V60.2z M176,66.7h2.8c0.3-0.4,0.5-0.9,0.7-1.3c0.2-0.6,0.5-1.2,0.6-1.8h-5.6c0.4,0.7,0.7,1.3,1,1.9
	C175.6,65.9,175.8,66.3,176,66.7 M176,50h1.9v-2H176V50z M177.9,53.3v-1.9H176v2L177.9,53.3L177.9,53.3z M179.6,50h1.9v-2h-1.9V50z
	 M181.5,53.3v-1.9h-1.9v2L181.5,53.3L181.5,53.3z"/>
<path id="Path_39868" class="st0" d="M194.3,54.5H205c0.2,0,0.3,0.1,0.3,0.4v0.8c0,0.3-0.1,0.4-0.3,0.4h-4.6v2.8h4.1
	c0.2,0,0.3,0.1,0.3,0.4v0.8c0,0.3-0.1,0.4-0.3,0.4h-3.7c0.3,0.5,0.7,0.9,1.1,1.3c0.8,0.8,1.7,1.4,2.7,1.9c0.1,0,0.2,0.1,0.2,0.2
	c0,0.1-0.1,0.1-0.2,0.2c-0.2,0.2-0.4,0.5-0.7,0.7c-0.1,0.2-0.2,0.2-0.2,0.2c-0.1,0-0.3-0.1-0.4-0.2c-0.9-0.5-1.6-1.2-2.3-1.9
	c-0.2-0.2-0.4-0.5-0.6-0.7v6.1c0,0.2-0.1,0.3-0.4,0.3h-1c-0.3,0-0.4-0.1-0.4-0.3V63c-0.1,0.1-0.2,0.3-0.3,0.4
	c-0.5,0.7-1.1,1.3-1.7,2c-0.7,0.6-1.4,1.1-2.1,1.6c-0.2,0-0.3,0-0.4-0.2c-0.3-0.3-0.6-0.6-0.9-0.9c0-0.1-0.1-0.2-0.1-0.3
	c0.6-0.3,1.1-0.7,1.6-1c0.7-0.6,1.3-1.2,1.9-1.9c0.5-0.7,1-1.4,1.5-2.1h-3.4c-0.2,0-0.3-0.1-0.3-0.4v-0.8c0-0.3,0.1-0.4,0.3-0.4h3.9
	v-2.8h-4.3c-0.2,0-0.3-0.1-0.3-0.4v-0.8C194,54.6,194.1,54.5,194.3,54.5 M199.1,45.1c1.3,0,1.9,0.1,1.9,0.3c0,0.2-0.1,0.4-0.2,0.4
	c-0.2,0-0.2,0.2-0.2,0.5V48h4.9c0.1,0,0.2,0.1,0.2,0.3v0.8c0,0.3-0.1,0.4-0.2,0.4H203l0.9,0.4c0.2,0.1,0.4,0.2,0.4,0.4
	c0,0.1-0.1,0.2-0.2,0.3c-0.2,0-0.3,0.1-0.3,0.3c-0.3,1.1-0.7,2.2-1.3,3.2c-0.1,0.2-0.2,0.3-0.2,0.3c-0.2,0-0.3-0.1-0.4-0.2
	c-0.3-0.2-0.6-0.3-0.9-0.4c-0.1,0-0.2-0.1-0.2-0.1c0-0.1,0-0.1,0.1-0.2c0.7-1.2,1.2-2.5,1.6-3.8c0,0,0-0.1,0-0.1h-5.6
	c0.4,0.7,0.7,1.4,1,2.1c0.3,0.7,0.5,1.4,0.7,2.1c-0.5,0.3-1.1,0.4-1.7,0.5c-0.1-0.6-0.3-1.2-0.5-1.8c-0.3-0.8-0.6-1.6-1-2.4
	c0-0.1,0.3-0.3,0.8-0.6h-2c-0.1,0-0.2-0.1-0.2-0.4v-0.8c0-0.2,0.1-0.3,0.2-0.3h4.7v-2.6C198.7,45.2,198.9,45.1,199.1,45.1 M216.3,47
	c-0.1,0-0.2,0-0.3,0c-1,0.5-2,0.8-3.1,1c-1.3,0.2-2.6,0.3-3.9,0.4V53h7.9c0.2,0,0.3,0.1,0.3,0.4v0.8c0,0.3-0.1,0.4-0.3,0.4h-2.4
	v13.7c0,0.2-0.1,0.3-0.4,0.3h-1c-0.3,0-0.4-0.1-0.4-0.3V54.7h-3.7v1.1c0,2.2-0.1,4.3-0.4,6.5c-0.2,1.4-0.6,2.7-1.1,4
	c-0.3,0.8-0.7,1.6-1.2,2.3c-0.1,0-0.2,0-0.2-0.1c-0.3-0.3-0.6-0.5-0.9-0.7c-0.1-0.1-0.1-0.2-0.1-0.3c0.5-0.9,0.9-1.8,1.2-2.8
	c0.4-1.2,0.6-2.5,0.8-3.8c0.2-1.7,0.3-3.4,0.2-5.1v-8.5c0-0.2,0.1-0.3,0.4-0.3h0.3c1.4,0,2.8-0.1,4.2-0.4c1.1-0.2,2.2-0.5,3.2-1.1
	c0.1-0.1,0.2-0.1,0.3-0.1c0.1,0,0.2,0.1,0.3,0.2c0.8,0.7,1.2,1.2,1.2,1.4s-0.1,0.4-0.3,0.4L216.3,47z"/>
<path id="Path_39869" class="st0" d="M220.2,48.2h9.1c0.2,0,0.3,0.1,0.3,0.4v0.8c0,0.3-0.1,0.4-0.3,0.4h-3.6v11.3
	c1.2-0.4,2.4-0.7,3.5-1.1c0,0,0.1,0,0.1,0c0.1,0,0.2,0.1,0.2,0.3c0,0.5,0,1-0.1,1.5c-2.8,0.9-5.7,1.7-8.5,2.4
	c-0.3,0.5-0.5,0.7-0.7,0.7c-0.2,0-0.5-0.7-1-2.2c1.6-0.3,3.1-0.6,4.7-1V49.8h-3.8c-0.2,0-0.3-0.1-0.3-0.4v-0.8
	C219.9,48.3,220,48.1,220.2,48.2 M230.4,50.4h4.2c0-1,0-2,0-3c0-0.4,0-1.1-0.1-2.1c0-0.1,0.1-0.2,0.4-0.2l2,0.2
	c0.2,0.1,0.4,0.2,0.4,0.3c0,0.2-0.1,0.4-0.2,0.4c-0.3,0.1-0.5,0.3-0.5,0.6c0,1.4,0,2.7-0.1,3.9h6c0.2,0,0.3,0.1,0.3,0.4
	c0,4.8-0.2,8.2-0.4,10.3c-0.1,1.9-0.4,3.7-0.9,5.6c-0.4,1.3-1.4,2-3,2c-1.3,0-1.9-0.2-2-0.5c-0.2-0.5-0.4-1-0.8-1.4v-0.2
	c0.9,0.1,1.8,0.2,2.7,0.2c0.8,0,1.5-0.6,1.6-1.4c0.4-1.4,0.6-2.9,0.7-4.4c0.2-1.8,0.3-4.7,0.4-8.9h-4.8c-0.1,2-0.3,3.9-0.6,5.9
	c-0.4,2.4-1.2,4.8-2.5,6.9c-0.8,1.4-1.8,2.7-3,3.8H230c-0.6-0.2-1.2-0.4-1.7-0.6c-0.1-0.1-0.1-0.2-0.1-0.3c1.4-1.1,2.5-2.4,3.5-3.8
	c1-1.6,1.8-3.4,2.1-5.3c0.5-2.2,0.7-4.4,0.8-6.6h-4.2c-0.2,0-0.3-0.1-0.3-0.4v-0.8C230.1,50.5,230.2,50.4,230.4,50.4"/>
<path id="Path_39870" class="st0" d="M250.5,44.9c1.6,0.5,2.4,0.9,2.4,1c0,0.2-0.1,0.3-0.4,0.3s-0.4,0.1-0.4,0.2
	c-0.6,1-1.2,2.1-1.9,3c-0.2,0.4-0.5,0.7-0.7,1.1c2-0.2,3.9-0.4,5.9-0.7c-0.3-0.8-0.6-1.5-1-2.3c0-0.1,0.4-0.4,1.4-0.8
	c0.5,1.2,1,2.3,1.3,3.3c0.4,0.9,0.6,1.9,0.9,2.9c-0.5,0.3-1.1,0.4-1.6,0.5c-0.1-0.7-0.2-1.3-0.4-2c-2.6,0.4-5.4,0.8-8.5,1.1
	c-0.2,0-0.3,0.1-0.4,0.2c-0.1,0.3-0.2,0.4-0.4,0.4s-0.6-0.8-1.3-2.4l2-0.2c0.8-1.2,1.4-2.4,2.1-3.7c0.3-0.7,0.5-1.3,0.7-2
	C250.3,44.9,250.4,44.9,250.5,44.9 M247.7,54.1h8.7c0.3,0,0.5,0.1,0.5,0.4v12.4c0,0.5-0.4,0.9-1,1.2c-0.8,0.3-1.7,0.4-2.5,0.5
	c-0.2,0-0.3-0.1-0.3-0.3c-0.1-0.6-0.3-1.1-0.6-1.6c0-0.1,0.1-0.1,0.2-0.1c0.7,0.1,1.4,0,2-0.2c0.2-0.1,0.4-0.3,0.4-0.6v-1.7h-6v4.3
	c0,0.2-0.1,0.3-0.4,0.3h-1c-0.3,0-0.4-0.1-0.4-0.3V54.5c0-0.2,0.1-0.4,0.3-0.4C247.6,54.1,247.6,54.1,247.7,54.1 M249.1,58.3h6v-2.5
	h-6V58.3z M249.1,62.5h6V60h-6V62.5z M268.2,48.5c0,0-0.1,0-0.1,0c-0.6,0.4-1.2,0.7-1.8,1c-0.8,0.4-1.7,0.7-2.6,1
	c-0.6,0.2-1.4,0.4-2.4,0.6V53c0,0.8,0.5,1.1,1.4,1.1h2.7c1,0,1.6-0.1,1.8-0.4c0.4-0.7,0.8-1.4,0.9-2.2c0.3,0.4,0.6,0.7,1.1,1
	c0.2,0.1,0.3,0.2,0.3,0.4c-0.2,0.9-0.6,1.7-1.1,2.5c-0.2,0.3-0.8,0.5-1.6,0.5h-4.3c-2,0-3-0.6-3-1.8v-8.7c0-0.2,0.1-0.3,0.2-0.3
	l1.7,0.2c0.2,0,0.3,0.1,0.3,0.2c0,0.2-0.1,0.3-0.1,0.3c-0.1,0-0.3,0.1-0.3,0.2c0,0,0,0,0,0v3.5c0.8-0.2,1.5-0.4,2.2-0.6
	c0.9-0.3,1.7-0.7,2.5-1.1c0.5-0.3,1.1-0.7,1.5-1.1c0,0,0.1,0,0.1,0c0.1,0,0.2,0.1,0.3,0.2c0.4,0.5,0.8,0.9,1.1,1.5
	c0,0.1-0.1,0.2-0.1,0.2c0,0,0,0-0.1,0L268.2,48.5z M268.5,60.6c0,0-0.1,0-0.1,0c-0.6,0.4-1.2,0.7-1.9,1c-0.9,0.4-1.8,0.7-2.7,1
	c-0.7,0.2-1.5,0.4-2.5,0.6v2.2c0,0.7,0.5,1.1,1.4,1.1h2.7c1,0,1.6-0.1,1.8-0.4c0.4-0.7,0.7-1.5,0.9-2.4c0.3,0.4,0.6,0.7,1.1,1
	c0.2,0.1,0.3,0.2,0.3,0.4c-0.2,0.9-0.6,1.8-1.1,2.6c-0.2,0.4-0.8,0.6-1.6,0.6h-4.3c-2,0-3-0.6-3-1.8v-9.2c0-0.2,0.1-0.3,0.2-0.3
	l1.7,0.2c0.2,0,0.3,0.1,0.3,0.2c0,0.2,0,0.3-0.1,0.3c-0.1,0-0.3,0.1-0.3,0.2c0,0,0,0,0,0v3.6c0.9-0.2,1.6-0.4,2.3-0.6
	c0.9-0.3,1.7-0.7,2.5-1.1c0.6-0.3,1.1-0.7,1.6-1.1h0.1c0.1,0,0.2,0.1,0.3,0.2c0.4,0.5,0.8,0.9,1.1,1.5c0,0.1-0.1,0.2-0.1,0.2
	c0,0,0,0-0.1,0L268.5,60.6z"/>
<path id="Path_39871" class="st0" d="M74.1,100c1.2,0.3,1.8,0.5,1.8,0.6c0,0.1-0.1,0.3-0.2,0.3c-0.2,0.1-0.3,0.3-0.3,0.5
	c-0.1,1.3-0.3,2.5-0.5,3.8c-0.1,0.5-0.3,1.1-0.5,1.7c-0.1,0.1-0.1,0.2-0.2,0.2c-0.5-0.1-0.9-0.3-1.4-0.4c-0.2,0-0.2-0.1-0.2-0.2
	c0.3-0.8,0.5-1.6,0.7-2.4c0.3-1.2,0.4-2.5,0.5-3.8C73.9,100.1,74,100,74.1,100 M77.9,84.9l1.9,1.1c0.1,0.2,0.1,0.2,0.1,0.2
	c0,0.2-0.1,0.2-0.4,0.2c-0.4,0-0.6,0.1-0.7,0.3c-0.9,1.3-1.8,2.6-2.6,3.7c0.5,0.5,1,1.1,1.5,1.7c0,0,0,0,0.1,0
	c1-1.3,1.8-2.5,2.5-3.6c0.7,0.5,1.3,1,1.8,1.7c0,0.1-0.1,0.2-0.3,0.2c-0.4,0-0.7,0.1-0.8,0.2c-1.5,2.1-3,3.9-4.4,5.7
	c1.1-0.1,2.5-0.3,4.1-0.5c-0.2-0.6-0.5-1.2-0.8-1.8c0-0.1,0.4-0.4,1.3-0.8c0.4,1,0.8,1.8,1.1,2.6c0.3,0.8,0.5,1.5,0.7,2.3
	c-0.5,0.3-1,0.4-1.5,0.5c-0.1-0.6-0.2-1.2-0.4-1.8l-2.3,0.6v10.8c0,0.2-0.1,0.3-0.4,0.3h-1c-0.2,0-0.4-0.1-0.4-0.3V97.9l-2.8,0.7
	c-0.2,0.3-0.4,0.5-0.7,0.7c-0.3-0.8-0.4-1.6-0.5-2.4c0-0.1,0.4-0.2,1.3-0.3c1.1-1.3,2-2.5,2.8-3.4c-0.8-0.7-1.4-1.2-1.8-1.6
	c-0.7-0.5-1.4-0.9-2.1-1.2c0-0.1,0.3-0.6,1-1.2c0-0.1,0.1-0.1,0.2-0.2c0.2,0.2,0.4,0.3,0.7,0.5c0.5-0.6,0.9-1.3,1.3-1.9
	C77.1,86.3,77.6,85.5,77.9,84.9 M80.8,99.8c0.1,0,0.1,0.1,0.1,0.2c0.6,1.6,1.1,3.2,1.4,4.8c0,0.1-0.5,0.3-1.4,0.4
	c-0.2,0-0.3-0.1-0.3-0.2c-0.2-1.6-0.6-3.3-1-4.9C79.6,100,80,99.9,80.8,99.8 M83.1,98.6h4.1c0.2,0,0.4,0,0.6,0.1
	c0.5,0.4,0.7,0.7,0.7,0.9c-0.5,1.4-1.1,2.7-1.8,4c-0.5,0.8-1,1.5-1.6,2.2c-0.6,0.6-1.4,1.3-2.2,2c-0.1,0-0.2-0.1-0.2-0.2
	c-0.3-0.4-0.5-0.8-0.8-1.1c-0.1-0.1-0.1-0.1-0.1-0.2c0-0.1,0-0.2,0.1-0.3c0.6-0.3,1.2-0.7,1.7-1.2c0.7-0.6,1.3-1.3,1.8-2.1
	c0.5-0.7,0.8-1.4,1.1-2.1c0.1-0.2,0.1-0.3,0.2-0.5h-3.6c-0.2,0-0.3-0.1-0.3-0.4V99C82.7,98.8,82.8,98.6,83.1,98.6 M89.2,84.8
	l1.4,0.4c0.2,0,0.3,0.2,0.3,0.4c0,0.2-0.1,0.4-0.3,0.4c-0.1,0.1-0.2,0.2-0.3,0.3c-0.2,0.4-0.4,0.8-0.6,1.1h5.4
	c0.3,0,0.4,0.1,0.4,0.3v8.8c0,0.2-0.1,0.3-0.4,0.3h-4.4V98c0.4,1.1,0.7,2,1,2.7c0.3-0.2,0.6-0.4,0.9-0.7c0.7-0.5,1.3-1.2,1.8-1.8
	c0.1-0.1,0.1-0.1,0.2-0.1c0.9,0.8,1.4,1.3,1.4,1.4c0,0.1-0.1,0.2-0.3,0.2c-0.3,0-0.5,0-0.5,0.1c-0.8,0.9-1.7,1.7-2.7,2.4
	c0.3,0.6,0.7,1.1,1.2,1.7c0.5,0.6,1,1.1,1.6,1.6c0.5,0.4,1.1,0.8,1.7,1.1c0,0.1-0.1,0.2-0.2,0.3c-0.2,0.3-0.4,0.5-0.6,0.8
	c-0.1,0.1-0.2,0.1-0.3,0.1c-0.8-0.5-1.6-1-2.2-1.6c-0.6-0.6-1.2-1.3-1.7-2.1c-0.5-0.7-0.9-1.4-1.3-2.1v4.5c0,1.3-1.1,2-3.2,2h-0.9
	c-0.1,0-0.2-0.2-0.2-0.5c-0.1-0.5-0.2-0.9-0.4-1.3v-0.1c0.5,0.1,0.9,0.2,1.4,0.2c0.9,0,1.4-0.3,1.4-0.9v-9h-4.5
	c-0.3,0-0.4-0.1-0.4-0.3v-8.9c0-0.2,0.1-0.3,0.4-0.3H88c0.4-0.8,0.7-1.5,1-2.3C89,84.9,89.1,84.8,89.2,84.8 M85.8,91.3h8v-2.4h-8
	V91.3z M93.8,92.8h-8v2.4h8V92.8z"/>
<path id="Path_39872" class="st0" d="M109.4,85c1.3,0,2,0.1,2,0.3c0,0.2-0.1,0.4-0.2,0.4c-0.2,0-0.2,0.2-0.2,0.5v8h9.2
	c0.2,0,0.3,0.1,0.3,0.4v1c0,0.3-0.1,0.4-0.3,0.4h-9.2v9.9h11.4c0.2,0,0.3,0.1,0.3,0.4v1c0,0.2-0.1,0.4-0.3,0.4H99.7
	c-0.2,0-0.3-0.1-0.3-0.4v-1c0-0.3,0.1-0.4,0.3-0.4h9.2V85.3C109,85.1,109.1,85,109.4,85"/>
<path id="Path_39873" class="st0" d="M131.5,86.8L133,88c0.1,0.1,0.2,0.2,0.2,0.4s-0.1,0.2-0.2,0.2c-0.2,0-0.5,0.1-0.6,0.3
	c-0.5,0.8-1.1,1.6-1.7,2.4h12.4c-0.7-1.3-1.3-2.7-1.7-4.1h-6.7c-0.2,0-0.3-0.1-0.3-0.4V86c0-0.2,0.1-0.4,0.3-0.4h7.7
	c0.1,0,0.3,0.1,0.3,0.2c0.4,1.6,1,3.1,1.9,4.5c0.9,1.4,2.2,2.4,3.8,2.8c0.2,0,0.3,0.2,0.3,0.3c0,0,0,0,0,0c0,0.1-0.1,0.2-0.2,0.2
	c-0.3,0.3-0.6,0.6-0.9,0.8c-0.1,0.2-0.3,0.2-0.5,0.2c-1-0.5-2-1.1-2.8-1.9v8c0,0.2-0.1,0.4-0.4,0.4h-1c-0.3,0-0.4-0.1-0.4-0.4V100
	h-2.3v5.4c0,0.7,0.5,1.1,1.4,1.1h4.1c0.3,0,0.7-0.2,0.8-0.5c0.3-0.7,0.4-1.5,0.4-2.3c0-0.2,0.1-0.3,0.1-0.3c0.5,0.3,1,0.5,1.6,0.5
	c0.2,0,0.4,0.1,0.4,0.4c-0.1,1.2-0.4,2.4-0.9,3.4c-0.3,0.4-0.8,0.7-1.3,0.6h-6c-1.6,0-2.3-0.6-2.3-1.7v-6.5h-2.5
	c0,0.9-0.1,1.7-0.1,2.4c-0.2,0.8-0.5,1.5-0.9,2.2c-0.5,0.7-1.1,1.4-1.8,1.9c-0.9,0.6-1.9,1.1-3,1.4c-1,0.3-2.1,0.6-3.3,0.8
	c-0.2,0-0.3-0.1-0.3-0.3c0,0,0,0,0,0c-0.3-0.4-0.5-0.8-0.7-1.2c-0.1-0.1-0.1-0.2-0.1-0.3c1.4-0.1,2.8-0.4,4.2-0.8
	c0.7-0.2,1.4-0.5,2-1c0.5-0.3,0.9-0.7,1.2-1.2c0.4-0.5,0.6-1.1,0.8-1.8c0.1-0.8,0.2-1.5,0.2-2.3h-2.4v1c0,0.2-0.1,0.3-0.4,0.3h-1
	c-0.3,0-0.4-0.1-0.4-0.3v-8.6c-0.9,0.9-1.9,1.7-2.9,2.5c-0.2,0-0.4-0.1-0.5-0.2c-0.4-0.3-0.7-0.6-1-0.8c-0.1-0.1-0.2-0.1-0.2-0.2
	s0.1-0.1,0.2-0.2c0.6-0.3,1.2-0.6,1.7-1c0.9-0.7,1.7-1.6,2.4-2.5c0.7-0.9,1.4-1.8,2-2.8C131.4,86.9,131.4,86.9,131.5,86.8
	 M131.5,98.3h11v-5.4h-11L131.5,98.3z"/>
<path id="Path_39874" class="st0" d="M151.7,90.8h2.8V87c0-0.4,0-0.8-0.1-1.1c-0.1-0.2-0.1-0.3-0.1-0.5c0-0.1,0.2-0.2,0.5-0.2l2,0.3
	c0.2,0.1,0.3,0.2,0.3,0.2c0,0.2-0.1,0.2-0.3,0.2c-0.3,0.1-0.5,0.5-0.5,1.2v3.8h2.5c0.2,0,0.3,0.1,0.3,0.4V92c0,0.3-0.1,0.4-0.3,0.4
	h-2.5v5.5c0.9-0.4,1.8-0.9,2.6-1.3c0,0,0.1-0.1,0.1-0.1c0.1,0,0.2,0.1,0.2,0.1c0,0,0,0,0,0.1c0,0.5,0,0.9-0.1,1.4
	c-0.9,0.5-1.9,1.1-2.8,1.6v7.2c0,1.2-0.9,1.8-2.7,1.8h-0.9c-0.1,0-0.2-0.2-0.2-0.5c-0.1-0.4-0.3-0.8-0.5-1.2c0-0.1,0.1-0.2,0.1-0.2
	c0,0,0,0,0.1,0c0.4,0.1,0.8,0.2,1.2,0.2c0.8,0,1.1-0.3,1.1-0.9v-5.6c-0.6,0.3-1.3,0.6-1.9,0.9c-0.2,0.5-0.5,0.7-0.6,0.7
	s-0.5-0.7-1-2.1c1.2-0.4,2.4-0.8,3.6-1.3v-6.3h-2.8c-0.2,0-0.3-0.1-0.3-0.4v-0.8C151.4,90.9,151.5,90.8,151.7,90.8 M164.7,84.8
	l1.9,0.9c0.2,0.1,0.2,0.2,0.2,0.3c0,0.2-0.2,0.3-0.5,0.3c-0.2,0-0.4,0.1-0.5,0.2c-0.2,0.3-0.4,0.5-0.5,0.7h5.9c0.2,0,0.4,0,0.5,0.1
	c0.4,0.3,0.5,0.5,0.5,0.7l-2.4,3.1h3.4c0.3,0,0.4,0.1,0.4,0.3v8.6h1.1c0.2,0,0.3,0.1,0.3,0.4v0.8c0,0.3-0.1,0.4-0.3,0.4h-6.9
	c0.2,0.5,0.5,1.1,0.8,1.6c0.5,0.7,1.1,1.3,1.8,1.8c0.8,0.7,1.7,1.2,2.7,1.6c0.5,0.2,0.9,0.3,1.4,0.4c0.1,0.1,0.2,0.1,0.2,0.1
	c0,0.1,0,0.3-0.1,0.4c-0.3,0.3-0.5,0.7-0.8,0.9c0,0.1-0.2,0.2-0.3,0.2c-0.4-0.1-0.7-0.2-1-0.3c-1.3-0.5-2.5-1.2-3.5-2
	c-0.7-0.6-1.3-1.3-1.8-2.1c-0.1-0.2-0.3-0.5-0.4-0.8c0,0-0.1,0.1-0.1,0.1c-0.5,1.2-1.4,2.3-2.4,3.1c-1.2,0.9-2.5,1.6-4,2
	c-0.1,0-0.3,0-0.4-0.1c-0.3-0.3-0.6-0.5-0.9-0.7c-0.2-0.1-0.2-0.2-0.2-0.4c0-0.1,0.1-0.2,0.4-0.2c1.2-0.4,2.3-1,3.3-1.8
	c0.8-0.5,1.5-1.3,2-2.1c0.4-0.5,0.6-1.1,0.8-1.8h-6.3c-0.2,0-0.3-0.1-0.3-0.4v-0.8c0-0.3,0.1-0.4,0.3-0.4h1.6v-8.5
	c0-0.1,0-0.2,0.1-0.2c-0.1,0-0.2-0.1-0.2-0.2c-0.2-0.3-0.5-0.6-0.8-0.9c-0.2-0.1-0.3-0.2-0.3-0.3c0,0,0-0.1,0.1-0.1
	c0.5-0.2,1.1-0.5,1.6-0.9c0.6-0.5,1.2-1,1.8-1.5c0.4-0.3,0.7-0.7,1-1.1c0.3-0.4,0.5-0.8,0.7-1.3C164.6,84.9,164.7,84.8,164.7,84.8
	 M161.8,91.1h5.9l1.8-2.2h-5.6c-0.2,0.2-0.4,0.4-0.7,0.6c-0.4,0.4-0.9,0.8-1.4,1.1c-0.3,0.2-0.6,0.4-0.8,0.5H161.8z M162.4,100h3.2
	c0.1-0.6,0.1-1.2,0.1-1.8c0-0.2,0.1-0.4,0.5-0.4l1.8,0.2c0.3,0,0.5,0.1,0.5,0.4c0,0.3-0.1,0.5-0.4,0.5c-0.2,0-0.4,0.2-0.4,0.5
	c0,0.2-0.1,0.5-0.1,0.7h4.2v-7.3h-9.4L162.4,100L162.4,100z M166.9,92.8l1.4,1c0.1,0.1,0.2,0.2,0.2,0.3c0,0.1,0,0.1-0.1,0.2
	c0,0,0,0,0,0c-0.1,0-0.3,0.1-0.4,0.2c-0.1,0.2-0.2,0.4-0.3,0.6c0.7,0.4,1.2,0.8,1.7,1.1c0.7,0.5,1.2,1,1.7,1.5
	c0,0.1-0.1,0.1-0.1,0.2c-0.2,0.4-0.5,0.8-0.8,1.1c-0.7-0.7-1.5-1.3-2.4-1.8c-0.3-0.2-0.7-0.5-1-0.6c-0.1,0.1-0.1,0.2-0.2,0.2
	c-0.6,0.8-1.4,1.6-2.2,2.2c-0.2,0-0.3-0.1-0.4-0.2c-0.3-0.3-0.6-0.5-0.9-0.7c-0.1-0.1-0.2-0.1-0.2-0.2c0-0.1,0-0.1,0.1-0.2
	c0.4-0.2,0.7-0.4,1-0.7c0.6-0.5,1.1-1.2,1.5-1.8c0.5-0.7,0.9-1.4,1.2-2.1C166.9,92.9,166.9,92.8,166.9,92.8"/>
<path id="Path_39875" class="st0" d="M184.7,87c-0.1,0-0.3,0.1-0.4,0.1c-1.1,0.4-2.2,0.7-3.4,0.9v2.8h4.1c0.2,0,0.3,0.1,0.3,0.4v0.8
	c0,0.2-0.1,0.4-0.3,0.4H181v3.3h4.2c0.2,0,0.3,0.1,0.3,0.4v0.8c0,0.3-0.1,0.4-0.3,0.4H181v3.5h5.7v-5.6c0-0.2,0.1-0.2,0.4-0.2
	c1.1,0,1.6,0.1,1.6,0.2c0,0.2-0.1,0.3-0.2,0.3s-0.2,0.2-0.2,0.5v4.8h2v-7h-3.1c-0.2,0-0.4-0.1-0.4-0.3c0,0,0-0.1,0-0.1v-8.2
	c0-0.1,0.1-0.2,0.4-0.2c1.1,0,1.6,0.1,1.6,0.2c0,0.2-0.1,0.3-0.2,0.4s-0.2,0.2-0.2,0.5v2h3.4c0.1,0,0.2,0.1,0.2,0.3v0.8
	c0,0.3-0.1,0.4-0.2,0.4h-3.5v2.7h3.2c0.3,0,0.4,0.1,0.4,0.3v8.3h5v-3.5h-3.9c-0.2,0-0.3-0.1-0.3-0.4v-0.8c0-0.3,0.1-0.4,0.3-0.4h3.9
	v-3.3h-3.9c-0.2,0-0.3-0.1-0.3-0.4v-0.8c0-0.3,0.1-0.4,0.3-0.4h3.9v-3.2h-4c-0.2,0-0.3-0.1-0.3-0.4v-1c0-0.1,0.1-0.3,0.2-0.3
	c0,0,0.1,0,0.1,0h5.4c0.3,0,0.4,0.1,0.4,0.3V101h1.6c0.2,0,0.3,0.1,0.3,0.4v0.8c0,0.3-0.1,0.4-0.3,0.4h-23.1c-0.2,0-0.3-0.1-0.3-0.4
	v-0.8c0-0.2,0.1-0.4,0.3-0.4h1.7V86.3c0-0.1,0.1-0.3,0.2-0.3c0,0,0.1,0,0.1,0l1.2,0.5c0.5-0.1,1.1-0.2,1.6-0.4
	c0.7-0.2,1.4-0.5,2.1-0.9c0.1-0.1,0.2-0.1,0.3-0.2c0.4,0.6,0.8,1.2,1,1.9c0,0.1-0.1,0.2-0.1,0.2c0,0,0,0-0.1,0L184.7,87z
	 M184.6,102.9l1.9,0.9c0.1,0.1,0.2,0.2,0.2,0.4c0,0.2-0.2,0.3-0.5,0.3c-0.2,0-0.4,0-0.6,0.2c-0.5,0.6-1,1.1-1.6,1.5
	c-0.4,0.4-0.9,0.8-1.4,1.1c-0.5,0.4-1.1,0.7-1.6,1c-0.4,0.2-0.9,0.4-1.3,0.6c-0.2,0-0.3-0.1-0.4-0.2c-0.2-0.3-0.5-0.7-0.8-0.9
	c-0.2-0.1-0.2-0.2-0.2-0.2c0,0,0-0.1,0.1-0.1c0.6-0.2,1.3-0.5,1.9-0.8c0.7-0.4,1.4-0.8,2.1-1.3c0.4-0.3,0.8-0.6,1.1-1
	c0.3-0.4,0.6-0.7,0.9-1.1C184.5,102.9,184.5,102.9,184.6,102.9 M193.8,102.9c1.6,2.1,3.7,3.6,6.1,4.5c-0.3,0.5-0.8,1-1.2,1.4
	c-1.2-0.4-2.3-1-3.3-1.8c-1.1-0.8-2.1-1.8-3-2.8C192.3,104,192.8,103.5,193.8,102.9"/>
<path id="Path_39876" class="st0" d="M205,86.2h20.1c0.3,0,0.5,0.1,0.5,0.3v21.3c0,0.2-0.2,0.3-0.5,0.3h-1c-0.3,0-0.4-0.1-0.4-0.3
	v-1.2h-17.2v1.3c0,0.2-0.2,0.3-0.5,0.3h-1c-0.3,0-0.4-0.1-0.4-0.3V86.5C204.6,86.3,204.8,86.2,205,86.2 M206.6,105h17.2V87.9h-17.2
	V105z M210.7,91.6h8.9c0.3,0,0.4,0.1,0.4,0.3v10.6c0,0.2-0.1,0.3-0.4,0.3h-1c-0.3,0-0.4-0.1-0.4-0.3v-1.6h-6.1v1.4
	c0,0.2-0.1,0.3-0.4,0.3h-1c-0.3,0-0.4-0.1-0.4-0.3V92C210.3,91.7,210.4,91.6,210.7,91.6 M212.1,99.2h6.1v-6h-6.1V99.2z"/>
<path id="Path_39877" class="st0" d="M234.8,85.2l1.7,0.8c0.1,0.1,0.2,0.2,0.2,0.3c0,0.2-0.1,0.3-0.4,0.3c-0.2,0-0.4,0.1-0.5,0.2
	c0.4,0.6,0.9,1.2,1.5,1.7c0.7,0.6,1.4,1.2,2.3,1.6c0,0.1,0,0.3-0.1,0.4c-0.2,0.2-0.6,0.5-1,0.8c-0.1,0-0.1,0-0.1-0.1
	c-0.3-0.1-0.5-0.3-0.8-0.5v0.7c0,0.3-0.1,0.4-0.2,0.4h-4.7c-0.1,0-0.2-0.1-0.2-0.4V91c-0.3,0.3-0.6,0.6-0.9,0.8
	c-0.4,0.3-0.8,0.6-1.2,0.8c-0.1,0-0.3-0.1-0.4-0.2c-0.2-0.3-0.4-0.6-0.7-0.9c-0.2-0.1-0.2-0.2-0.2-0.2c0,0,0,0,0.1-0.1
	c0.6-0.3,1.2-0.6,1.8-1c0.7-0.6,1.3-1.2,1.9-1.8c0.4-0.4,0.7-0.9,1-1.4c0.3-0.5,0.6-1,0.8-1.6C234.6,85.3,234.7,85.2,234.8,85.2
	 M231.1,93h7c0.3,0,0.4,0.1,0.4,0.3v7.5c0,0.2-0.1,0.4-0.4,0.4h-5.6v4.8c0.2-0.1,0.4-0.1,0.6-0.2c1.1-0.3,2.2-0.7,3.2-1
	c-0.2-0.3-0.4-0.6-0.5-0.8c0-0.1-0.1-0.2-0.1-0.2c0.2-0.4,0.5-0.7,0.8-1c0.1-0.1,0.2-0.2,0.3-0.2c0.8,1.4,1.6,2.8,2.2,4.3
	c0.1,0.1,0.1,0.2,0.1,0.3c0,0.1-0.1,0.2-0.1,0.2c-0.5,0.5-0.9,0.8-1,0.8c-0.1,0-0.1,0-0.1-0.2c-0.3-0.7-0.6-1.3-0.9-1.8
	c-1.9,0.7-3.9,1.4-5.9,2c-0.2,0.5-0.4,0.7-0.6,0.7c-0.2,0-0.5-0.7-1-2.1c0.4-0.1,0.9-0.2,1.3-0.3V93.4C230.8,93.1,230.9,93,231.1,93
	 M232.6,96.3h4.3v-1.7h-4.3V96.3z M232.6,99.8h4.3v-2h-4.3V99.8z M233.1,90.4h4c-0.1-0.1-0.2-0.1-0.2-0.2c-0.7-0.7-1.3-1.3-1.8-2.1
	c-0.2,0.3-0.5,0.6-0.7,0.9C234,89.4,233.5,89.9,233.1,90.4 M241.4,87.4h3.8v-2c0-0.1,0.1-0.2,0.3-0.2c1.2,0,1.8,0.1,1.8,0.3
	c0,0.2-0.1,0.3-0.2,0.4s-0.2,0.2-0.2,0.5v1.1h4.2c0.3,0,0.4,0.1,0.4,0.3v4.1c0,0.2-0.1,0.3-0.4,0.3h-4.2v1.3h5.8
	c0.1,0,0.2,0.1,0.2,0.3v0.8c0,0.3-0.1,0.4-0.2,0.4h-12.5c-0.1,0-0.2-0.1-0.2-0.4v-0.8c0-0.2,0.1-0.3,0.2-0.3h5v-1.3h-3.8
	c-0.3,0-0.4-0.1-0.4-0.3v-4.1C241,87.5,241.1,87.4,241.4,87.4 M243.9,105.2c0.5,0.4,1,0.9,1.4,1.4c0,0.1-0.1,0.2-0.3,0.2
	c-0.3,0-0.5,0-0.5,0.1c-0.9,0.7-1.8,1.3-2.8,1.8c-0.2,0-0.3-0.1-0.4-0.2c-0.1-0.3-0.3-0.5-0.5-0.7c-0.1-0.1-0.2-0.2-0.2-0.3
	c0-0.1,0-0.1,0.1-0.1c0.5-0.2,1-0.5,1.5-0.8c0.6-0.4,1.1-0.8,1.6-1.3C243.8,105.3,243.9,105.3,243.9,105.2 M241.4,96.1h9.6
	c0.3,0,0.4,0.1,0.4,0.3v8.4c0,0.2-0.1,0.3-0.4,0.3h-9.6c-0.3,0-0.4-0.1-0.4-0.3v-8.4C241,96.2,241.1,96.1,241.4,96.1 M245.1,88.9
	h-2.4v1.8h2.4V88.9z M242.7,98.7h7v-1.2h-7V98.7z M242.7,101.2h7V100h-7V101.2z M249.7,102.6h-7v1.1h7V102.6z M249.7,88.9h-2.8v1.8
	h2.8V88.9z M248.9,105.3c0.7,0.3,1.3,0.7,1.9,1.2c0.6,0.4,1.1,0.8,1.5,1.2c0,0.1-0.1,0.1-0.1,0.2c-0.2,0.4-0.5,0.7-0.8,1
	c-0.6-0.6-1.3-1.1-2-1.6c-0.4-0.3-0.9-0.6-1.4-0.9c0.2-0.4,0.4-0.7,0.7-1C248.8,105.4,248.9,105.3,248.9,105.3"/>
<path id="Path_39878" class="st0" d="M255.5,86.8h4.1v-1.5c0-0.1,0.1-0.2,0.3-0.2c1.2,0,1.8,0.1,1.8,0.3c0,0.2-0.1,0.3-0.2,0.4
	s-0.2,0.2-0.2,0.5v0.6h4c0.1,0,0.2,0.1,0.2,0.3V88c0,0.2-0.1,0.4-0.2,0.4h-4v1.8h3.4c0.3,0,0.4,0.1,0.4,0.3v9.8
	c0,0.2-0.1,0.3-0.4,0.3h-3.4v2h3.9c0.2,0,0.3,0.1,0.3,0.4v0.8c0,0.3-0.1,0.4-0.3,0.4h-3.9v4.1c0,0.2-0.1,0.3-0.4,0.3h-1
	c-0.2,0-0.3-0.1-0.3-0.3v-4.1h-3.9c-0.2,0-0.3-0.1-0.3-0.4v-0.8c0-0.3,0.1-0.4,0.3-0.4h3.9v-2h-3.4c-0.3,0-0.4-0.1-0.4-0.3v-9.8
	c0-0.2,0.1-0.3,0.4-0.3h3.4v-1.9h-4.1c-0.1,0-0.2-0.1-0.2-0.4v-0.8C255.3,87,255.4,86.9,255.5,86.8 M257.5,94.6h2v-2.8h-2V94.6z
	 M259.6,96h-2V99h2V96z M261.3,94.5h2v-2.7h-2L261.3,94.5z M263.3,96h-2V99h2L263.3,96z M266.9,86.6h4.8v-1.3c0-0.1,0.1-0.2,0.3-0.2
	c1.2,0,1.8,0.1,1.8,0.3c0,0.2-0.1,0.3-0.2,0.4s-0.2,0.2-0.2,0.5v0.4h5.1c0.1,0,0.2,0.1,0.2,0.3v0.8c0,0.3-0.1,0.4-0.2,0.4h-5.1v2
	h4.3c0.3,0,0.4,0.1,0.4,0.3v6.7c0,0.2-0.1,0.3-0.4,0.3c0.3,0.5,0.6,0.9,0.8,1.3c0.3,0.6,0.6,1.2,0.9,1.8c-0.5,0.2-0.9,0.3-1.4,0.4
	c-0.1-0.4-0.2-0.7-0.4-1c-0.6,0-1.3,0.1-2,0.2c-2.6,0.2-5.3,0.4-8,0.6c-0.1,0.4-0.3,0.7-0.4,0.7c-0.1,0-0.2-0.1-0.2-0.1l-0.6-2
	c0.8,0,2.5-0.1,5.3-0.3v-1.6h-4.2c-0.3,0-0.4-0.1-0.4-0.3v-6.7c0-0.2,0.1-0.3,0.4-0.3h4.2v-2h-4.8c-0.1,0-0.2-0.1-0.2-0.4v-0.8
	C266.7,86.7,266.8,86.6,266.9,86.6 M266.8,102.1h7.2c0-0.4,0-0.7,0-0.9c0-0.2,0-0.3,0-0.5c0-0.1,0.1-0.1,0.4-0.1l2,0.3
	c0.2,0.1,0.3,0.2,0.3,0.2c0,0.2-0.1,0.2-0.3,0.2c-0.3,0.1-0.5,0.4-0.5,0.8h2.8c0.1,0,0.2,0.1,0.2,0.3v0.8c0,0.2-0.1,0.4-0.2,0.4
	h-2.8v3.7c0,1.2-0.9,1.7-2.5,1.7h-0.7c-0.1,0-0.2-0.1-0.2-0.4c-0.1-0.4-0.2-0.8-0.4-1.1c0-0.2,0.1-0.2,0.2-0.2
	c0.3,0.1,0.6,0.2,0.9,0.2c0.7,0,1-0.3,1-0.8v-3.1h-7.2c-0.1,0-0.2-0.1-0.2-0.4v-0.8C266.6,102.2,266.6,102.1,266.8,102.1
	 M268.5,104.1c0.5,0.3,0.9,0.7,1.3,1c0.4,0.4,0.7,0.8,1,1.1c0,0.1-0.1,0.1-0.1,0.2c-0.2,0.4-0.5,0.7-0.8,1c-0.4-0.5-0.8-1-1.3-1.4
	c-0.3-0.3-0.6-0.5-0.9-0.7c0.2-0.4,0.4-0.8,0.7-1.1C268.4,104.2,268.4,104.1,268.5,104.1 M268.8,93.1h2.8v-1.6h-2.8V93.1z
	 M271.7,94.5h-2.8V96h2.8V94.5z M273.4,93.1h3v-1.6h-3V93.1z M276.3,94.5h-3V96h3V94.5z M276.9,98.6c-0.2-0.4-0.5-0.9-0.9-1.2h-2.6
	v1.5c0.8-0.1,1.7-0.1,2.6-0.2C276.4,98.7,276.6,98.7,276.9,98.6"/>
<path id="Path_39879" class="st0" d="M283.4,103.9l1.5,0.6c0.2,0.1,0.4,0.2,0.4,0.4s-0.1,0.2-0.2,0.3c-0.2,0-0.4,0.1-0.4,0.3
	c-0.4,1.2-1,2.3-1.8,3.3c-0.1,0.2-0.2,0.2-0.3,0.2c-0.2,0-0.3-0.1-0.4-0.2c-0.3-0.2-0.7-0.3-1-0.4c-0.1-0.1-0.2-0.1-0.2-0.1
	c0-0.1,0-0.2,0.1-0.2c0.5-0.6,0.9-1.2,1.2-1.8c0.4-0.6,0.7-1.3,0.9-2.1C283.3,104,283.4,103.9,283.4,103.9 M282.3,85.9h6.6
	c0.3,0,0.4,0.1,0.4,0.3v16.9c0,0.2-0.1,0.3-0.4,0.3h-6.6c-0.3,0-0.4-0.1-0.4-0.3V86.2C281.9,86,282.1,85.9,282.3,85.9 M283.6,91.3h4
	v-3.9h-4V91.3z M283.6,96.8h4v-4h-4V96.8z M287.6,98.3h-4v3.6h4V98.3z M287.8,103.9c0,0,0.1,0.1,0.2,0.2c0.8,1.2,1.6,2.3,2.6,3.3
	c0.1,0.1,0.1,0.2,0.1,0.2c0,0.1-0.1,0.3-0.2,0.4c-0.5,0.5-0.9,0.8-1,0.8c-0.1,0-0.1,0-0.1-0.1c-1.1-1.1-2-2.4-2.8-3.8
	C287,104.5,287.4,104.2,287.8,103.9 M291.7,88.6h12.6c0.3,0,0.4,0.1,0.4,0.3v7.9c0,0.2-0.1,0.3-0.4,0.3h-12.6
	c-0.3,0-0.4-0.1-0.4-0.3v-7.9C291.3,88.7,291.4,88.6,291.7,88.6 M292.8,98.7h10.4c0.3,0,0.4,0.1,0.4,0.3v9.4c0,0.2-0.1,0.3-0.4,0.3
	h-1c-0.2,0-0.3-0.1-0.3-0.3v-0.7h-7.6v0.7c0,0.2-0.1,0.3-0.4,0.3h-1c-0.2,0-0.3-0.1-0.3-0.3V99C292.5,98.8,292.6,98.7,292.8,98.7
	 M294,85.1c0.6,0.5,1.2,1,1.8,1.5c0.4,0.4,0.8,0.9,1.1,1.4c-0.5,0.2-1.1,0.4-1.6,0.5c-0.2-0.4-0.5-0.8-0.8-1.1
	c-0.5-0.6-1.1-1.1-1.7-1.5C292.7,85.8,293.1,85.5,294,85.1 M297,95.6v-5.5H293v5.5L297,95.6L297,95.6z M294.7,90.7
	c0.4,0.6,0.8,1.3,1.1,2c0.3,0.6,0.5,1.2,0.7,1.8c-0.5,0.2-0.9,0.3-1.4,0.4c-0.1-0.5-0.3-1-0.5-1.4c-0.3-0.7-0.6-1.4-1-2
	C293.6,91.3,294,91.1,294.7,90.7 M294.2,102.5h7.6v-2.2h-7.6V102.5z M294.2,106.1h7.6V104h-7.6V106.1z M302.9,95.6v-5.5h-4.2v5.5
	L302.9,95.6L302.9,95.6z M301.7,85l1.6,0.9c0.1,0.1,0.2,0.2,0.2,0.3s-0.1,0.1-0.2,0.1c-0.3,0-0.4,0.1-0.5,0.2
	c-0.6,0.8-1.2,1.5-1.9,2.1c-0.2,0-0.4,0-0.4-0.1l-1.2-0.7c0.5-0.4,0.9-0.8,1.3-1.3c0.3-0.4,0.6-0.9,0.9-1.3
	C301.5,85,301.6,85,301.7,85 M301.1,90.7l1.4,0.8c0.1,0.1,0.2,0.2,0.2,0.3c0,0.1-0.1,0.2-0.2,0.2c-0.2,0-0.3,0.1-0.3,0.2
	c-0.4,0.9-0.8,1.9-1.4,2.7c-0.2,0-0.3,0-0.4-0.1l-1.1-0.6c0.4-0.5,0.7-1.1,0.9-1.6c0.2-0.6,0.4-1.2,0.6-1.8
	C301,90.7,301,90.7,301.1,90.7"/>
<g id="btn" transform="translate(0 3.81)">
	<path id="Path_39880" class="st1" d="M223.1,196.2h-68.2c-8.8,0-16,7.2-16,16s7.2,16,16,16h68.2c8.8,0,16-7.2,16-16
		S231.9,196.2,223.1,196.2z"/>
	<path id="Path_39881" class="st0" d="M167.4,210.8c1.7-0.8,3.2-1.8,4.7-3h-10v-1.4h11.8v1.4c-1.5,1.5-3.1,2.8-4.9,3.8v5.3
		c0.2,0.7-0.2,1.4-0.9,1.6c-0.2,0.1-0.5,0.1-0.7,0l-2.2,0l-0.3-1.4l2.1,0.1c0.2,0,0.4-0.1,0.4-0.3c0,0,0-0.1,0-0.1L167.4,210.8z"/>
	<path id="Path_39882" class="st0" d="M176.4,209.4l-0.4,0.4l-0.5-1.2c1-0.7,1.9-1.7,2.5-2.8l1.2,0.3l-0.4,0.7h2.4v0.7
		c-0.3,0.6-0.7,1.1-1.2,1.6h1.8v7.7c0.1,0.5-0.1,0.9-0.3,1.3c-0.3,0.3-0.8,0.4-1.2,0.4h-1l-0.2-1.2l1.1,0.1c0.3,0,0.5-0.1,0.6-0.4
		c0,0,0-0.1,0-0.1v-1.4h-3.1c0,1.2-0.4,2.3-1,3.3l-1-0.8c0.7-1.3,1-2.8,0.9-4.3L176.4,209.4L176.4,209.4z M176.9,209h1.7
		c0.4-0.4,0.8-0.8,1.1-1.2h-1.6C177.8,208.2,177.4,208.7,176.9,209 M178.6,210.2h-1v1.5h1V210.2z M178.6,212.6h-1v1.6h1V212.6z
		 M180.6,210.2h-1v1.5h1.1L180.6,210.2z M180.6,212.6h-1v1.6h1.1L180.6,212.6z M183.5,213.4c-0.2,0.4-0.4,0.8-0.7,1.2l-0.9-0.9
		c0.6-0.8,1.1-1.8,1.3-2.8l1.1,0.3c-0.1,0.3-0.2,0.7-0.3,1h0.9v-1.4h1.2v1.4h2.3v1.2H186v1.4h2.4v1.2H186v2.6h-1.2v-2.6h-2.5v-1.2
		h2.5v-1.4L183.5,213.4z M182.4,207.6v-1.2h5.6v0.6c0.1,1,0,2-0.3,3c-0.2,0.4-0.6,0.6-1.4,0.6c-0.3,0-0.6,0-0.9-0.1l-0.2-1.2
		c0.5,0.1,0.8,0.1,1,0.1c0.3,0,0.5-0.2,0.5-0.6c0-0.4,0.1-0.8,0.1-1.2v-0.1h-1.5c0,0.7-0.3,1.4-0.7,2c-0.5,0.7-1.2,1.1-2.1,1.4
		l-0.7-1c1.2-0.3,2-1.2,2.3-2.4L182.4,207.6z"/>
	<path id="Path_39883" class="st0" d="M194.6,208.5h-5.1v-1.2h2c-0.1-0.4-0.3-0.9-0.6-1.5l1.2-0.2c0.3,0.5,0.5,1.1,0.6,1.6h1.8
		L194.6,208.5z M189.9,209.4h4.4v1.1h-4.4V209.4z M189.9,211.5h4.4v1.1h-4.4V211.5z M194.2,218.5H193v-0.6h-1.9v0.8h-1.2v-4.9h4.3
		V218.5z M193,214.8h-1.9v2h1.9V214.8z M194.8,214.4h3v-1.8h-2.6v-1.2h2.6v-1.6h-2.9v-1.2h7.4v1.2h-3v1.6h2.6v1.2h-2.6v1.8h3.2v1.2
		h-3.2v3h-1.4v-3h-3V214.4z M196.7,208.6c-0.4-0.8-0.9-1.5-1.5-2.2l1.2-0.6c0.6,0.6,1.1,1.3,1.5,2.1L196.7,208.6z M199.1,207.9
		c0.6-0.6,1.1-1.4,1.4-2.2l1.3,0.5c-0.3,0.9-0.7,1.6-1.3,2.3L199.1,207.9z"/>
	<path id="Path_39884" class="st0" d="M204.9,209c0,1.2-0.1,2.4-0.3,3.5l-1-0.4c0.2-1.1,0.3-2.1,0.3-3.2L204.9,209z M205.3,205.7
		h1.3v12.9h-1.3V205.7z M208.1,210.3h3.2v-0.9h-3v-1h3v-0.7h-3.6v-1h3.6v-1h1.3v1h3.8v1h-3.8v0.7h3.3v1h-3.3v0.9h3.9v1h-9v-0.6
		l-0.3,0.1c-0.1-0.7-0.3-1.3-0.5-2l0.9-0.2C207.7,209.2,207.9,209.7,208.1,210.3 M215.9,216.9c0,0.4-0.1,0.9-0.3,1.3
		c-0.3,0.3-0.7,0.4-1.1,0.4h-1.5l-0.3-1.1l1.3,0.1c0.3,0,0.5-0.1,0.5-0.4v-0.6h-5.2v2.1h-1.3V212h7.8V216.9z M209.4,213.7h5.2V213
		h-5.2V213.7z M209.4,215.5h5.2v-0.9h-5.2V215.5z"/>
</g>
</svg>
