<?xml version="1.0" encoding="utf-8"?>
<!-- Generator: Adobe Illustrator 26.4.1, SVG Export Plug-In . SVG Version: 6.00 Build 0)  -->
<svg version="1.1" id="圖層_1" xmlns="http://www.w3.org/2000/svg" xmlns:xlink="http://www.w3.org/1999/xlink" x="0px" y="0px"
	 viewBox="0 0 375 353.9" style="enable-background:new 0 0 375 353.9;" xml:space="preserve">
<style type="text/css">
	.st0{fill:none;}
	.st1{fill:none;stroke:#1E3932;}
	.st2{fill:#1E3932;}
</style>
<path class="st0" d="M158.3,77h54c9.4,0,17,7.6,17,17l0,0c0,9.4-7.6,17-17,17h-54c-9.4,0-17-7.6-17-17l0,0
	C141.3,84.6,148.9,77,158.3,77z"/>
<path class="st1" d="M158.3,77.5h54c9.1,0,16.5,7.4,16.5,16.5l0,0c0,9.1-7.4,16.5-16.5,16.5h-54c-9.1,0-16.5-7.4-16.5-16.5l0,0
	C141.8,84.9,149.2,77.5,158.3,77.5z"/>
<path class="st2" d="M170.1,90c-1.3,1.4-3.1,2.9-4.8,3.9v5.4c0,1-0.2,1.4-0.9,1.7c-0.7,0.3-1.7,0.3-3,0.3c-0.1-0.5-0.4-1.2-0.7-1.7
	c1,0,2.1,0,2.5,0s0.4-0.1,0.4-0.3v-6.2c1.1-0.6,2.3-1.5,3.2-2.3h-8.1v-1.6h9.7l0.4-0.1L170.1,90z"/>
<path class="st2" d="M184.9,98.9h-2.4v2.3h-1.6v-2.3h-2.6v-1.4h2.6v-1.3h-1.2c-0.2,0.4-0.4,0.8-0.6,1.1c-0.2-0.2-0.7-0.4-1.1-0.6v3
	c0,0.7-0.1,1.1-0.5,1.3c-0.4,0.2-1,0.3-1.9,0.3c0-0.4-0.3-1-0.5-1.4c0.6,0,1.1,0,1.3,0s0.2-0.1,0.2-0.2v-2H174
	c-0.1,1.3-0.5,2.7-1.1,3.7c-0.2-0.2-0.8-0.6-1.1-0.7c0.9-1.4,1-3.5,1-5.1v-2.1c-0.3-0.3-0.8-0.7-1.1-0.9c1-1,1.7-2.7,2.1-4.3
	l1.5,0.3c-0.1,0.3-0.2,0.7-0.3,1h1.3l0.2-0.1l1,0.6c-0.2,0.5-0.5,1.2-0.8,1.8h1.6v0.9c1.2-0.5,1.6-1.3,1.8-2.4h-1.6v-1.4h6.2
	c0,0,0,0.4,0,0.5c-0.1,2.2-0.2,3.2-0.5,3.6c-0.2,0.3-0.5,0.4-0.9,0.5c-0.3,0-0.9,0.1-1.4,0c0-0.4-0.2-1-0.4-1.3c0.4,0,0.8,0.1,1,0.1
	c0.2,0,0.3,0,0.4-0.2c0.1-0.2,0.2-0.6,0.3-1.8h-1.6c-0.2,1.5-0.8,2.6-2.2,3.4l1.2,0.3c-0.1,0.3-0.1,0.6-0.2,0.9h0.7v-1.3h1.6v1.3
	h2.1v1.4h-2.1v1.3h2.4V98.9z M174.4,90.7c-0.2,0.3-0.3,0.7-0.5,1h1.2c0.1-0.3,0.3-0.7,0.4-1H174.4z M174.1,95.4c0,0.3,0,0.6,0,0.9
	h0.8v-1.2h-0.8V95.4z M174.1,94h0.8v-1.1h-0.8V94z M175.9,94h0.8v-1.1h-0.8V94z M176.7,96.3v-1.2h-0.8v1.2H176.7z M178.1,96.4
	c0.5-0.7,0.8-1.7,1-2.7c-0.1,0-0.2,0.1-0.3,0.1c-0.1-0.3-0.4-0.7-0.7-1V96.4z"/>
<path class="st2" d="M188.6,90.4h2.4v1.3h-5.3v-1.3h2.4c-0.2-0.5-0.6-1.2-0.9-1.8l1.2-0.6c0.4,0.6,0.8,1.3,1,1.9L188.6,90.4z
	 M190.7,100.4h-3v0.6h-1.4v-4.8h4.3V100.4z M190.6,93.7h-4.2v-1.3h4.2V93.7z M186.4,94.3h4.2v1.3h-4.2V94.3z M187.7,97.5v1.6h1.6
	v-1.6H187.7z M198.8,98.4h-3v2.8h-1.6v-2.8h-3v-1.5h3v-1.5h-2.4v-1.5h2.4v-1.4h-2.8v-1.5h1.4c-0.2-0.6-0.7-1.4-1.1-2.1l1.4-0.6
	c0.5,0.7,1.1,1.7,1.3,2.3l-0.7,0.3h2.8l-0.8-0.3c0.4-0.7,0.9-1.7,1.1-2.4l1.8,0.6c-0.5,0.8-1,1.6-1.4,2.1h1.5v1.5h-2.8v1.4h2.4v1.5
	h-2.4v1.5h3V98.4z"/>
<path class="st2" d="M199.6,94.6c0.3-0.9,0.6-2.5,0.7-3.7l1.3,0.2c-0.1,1.2-0.4,2.9-0.7,3.9L199.6,94.6z M212.8,92.6v1.2h-8.6v-1.2
	l-0.3,0.2c-0.1-0.4-0.3-1-0.6-1.5v9.9h-1.5V88.1h1.5v2.2L204,90c0.3,0.7,0.8,1.6,1,2.2l-0.8,0.4h3.4V92H205v-1.1h2.6v-0.6h-3.1v-1.2
	h3.1v-1h1.7v1h3.1v1.2h-3.1v0.6h2.6V92h-2.6v0.6H212.8z M212,99.6c0,0.7-0.1,1.1-0.7,1.3c-0.5,0.2-1.2,0.2-2.1,0.2
	c-0.1-0.4-0.3-1-0.4-1.4c0.6,0,1.2,0,1.4,0c0.2,0,0.3-0.1,0.3-0.2v-0.5h-4.2c-0.2,0.8-0.5,1.6-1,2.2c-0.2-0.3-0.9-0.9-1.2-1.1
	c0.8-1,0.9-2.3,0.9-3.4v-2.5h7.1V99.6z M210.4,98v-0.6h-4c0,0.2,0,0.4,0,0.6H210.4z M206.5,95.4v0.7h4v-0.7H206.5z"/>
<path class="st2" d="M29.5,54.1c6.1-5.4,9.2-9.4,9.2-12.8c0-2.2-1.2-3.8-3.5-3.8c-1.6,0-3,1-4.1,2.3l-1.8-1.8
	c1.8-1.9,3.6-3.1,6.3-3.1c3.8,0,6.2,2.5,6.2,6.2c0,4-3.2,8.1-7.5,12.3c1.1-0.1,2.4-0.2,3.4-0.2h5.2V56H29.5V54.1z"/>
<path class="st2" d="M45.7,45.6c0-7.1,2.6-10.6,6.7-10.6c4,0,6.7,3.5,6.7,10.6c0,7.2-2.6,10.8-6.7,10.8
	C48.3,56.4,45.7,52.8,45.7,45.6z M56,45.6c0-5.9-1.5-8.1-3.6-8.1s-3.6,2.2-3.6,8.1c0,6,1.5,8.2,3.6,8.2S56,51.6,56,45.6z"/>
<path class="st2" d="M61.8,54.1c6.1-5.4,9.2-9.4,9.2-12.8c0-2.2-1.2-3.8-3.5-3.8c-1.6,0-3,1-4.1,2.3l-1.8-1.8
	c1.8-1.9,3.6-3.1,6.3-3.1c3.8,0,6.2,2.5,6.2,6.2c0,4-3.2,8.1-7.5,12.3c1.1-0.1,2.4-0.2,3.4-0.2h5.2V56H61.8V54.1z"/>
<path class="st2" d="M78,54.1c6.1-5.4,9.2-9.4,9.2-12.8c0-2.2-1.2-3.8-3.5-3.8c-1.6,0-3,1-4.1,2.3l-1.8-1.8c1.8-1.9,3.6-3.1,6.3-3.1
	c3.8,0,6.2,2.5,6.2,6.2c0,4-3.2,8.1-7.5,12.3c1.1-0.1,2.4-0.2,3.4-0.2h5.2V56H78V54.1z"/>
<path class="st2" d="M118.5,47.2c-0.8,2.6-2.1,4.7-3.8,6.4c1.5,1,3.2,1.8,5.2,2.3c-0.6,0.5-1.2,1.5-1.6,2.1c-2-0.6-3.8-1.5-5.4-2.7
	c-1.6,1.2-3.4,2.2-5.3,2.9c-0.3-0.6-0.8-1.5-1.4-2v2.1h-2.4v-2.6c-3.4,0.4-6.7,0.8-9.2,1.1l-0.2-2.3c0.8-0.1,1.6-0.1,2.5-0.2v-9
	h-2.3v-2.1h24.5v2.1h-12.9V56c1.7-0.5,3.4-1.3,4.9-2.4c-1.2-1.3-2.2-2.9-3-4.7l0.7-0.2h-1.6v-2h9.2l0.4-0.1L118.5,47.2z M100.5,42
	H98v-8.6H116V42h-2.6v-6.7h-13V42z M99.3,45.2v1.6h4.6v-1.6H99.3z M99.3,50.2h4.6v-1.6h-4.6V50.2z M99.3,54c1.5-0.1,3-0.3,4.6-0.5
	v-1.3h-4.6V54z M112.2,36.6v1.6h-10.6v-1.6H112.2z M101.5,39.6h10.7v1.6h-10.7V39.6z M110.5,48.7c0.6,1.2,1.4,2.4,2.4,3.4
	c1-1,1.8-2.2,2.5-3.4H110.5z"/>
<path class="st2" d="M130.9,33.4c-0.7,2-1.6,4-2.6,5.9v18.9h-2.6V43.5c-0.7,0.9-1.3,1.8-2.1,2.5c-0.2-0.6-1-2-1.4-2.6
	c2.5-2.6,4.8-6.7,6.2-10.8L130.9,33.4z M148,54.7v2.5h-18.5v-2.5h8v-4.1h-6.4v-2.5h6.4v-2.9h2.6v2.9h6.5v2.5h-6.5v4.1H148z
	 M137.6,38.4h-5.9v-2.4h5.9v-3.4h2.6v3.4h6v2.4h-6v3.5h7.3v2.5h-17.1v-2.5h7.2V38.4z"/>
<path class="st2" d="M175.6,55.2v2.2h-24.3v-2.2h10.8v-2.6h-7.5v-2h7.5v-2.2h-6.4c-0.9,1.1-1.8,2.1-2.7,2.9
	c-0.5-0.4-1.6-1.3-2.2-1.6c2-1.5,3.8-3.8,4.9-6.1h-1.6V33.6h18.7v10.1h-16.7l2.2,0.6c-0.3,0.6-0.7,1.3-1.1,1.9h4.9v-2h2.7v2h9v2.2
	h-9v2.2h7.8v2h-7.8v2.6H175.6z M156.6,37.6h13.4v-2h-13.4V37.6z M156.6,41.6h13.4v-2.1h-13.4V41.6z"/>
<path class="st2" d="M188.9,55.3c0,1.3-0.2,2-1,2.5c-0.8,0.4-1.9,0.5-3.8,0.5c-0.1-0.6-0.4-1.8-0.7-2.5c1.1,0.1,2.3,0,2.6,0
	c0.3,0,0.5-0.1,0.5-0.5v-6.3h-3.8c-0.3,3.3-0.8,6.8-2,9.4c-0.4-0.4-1.5-1-2.1-1.2c1.8-3.9,2-9.5,2-13.6v-10h8.3V55.3z M186.5,46.5
	v-4.1h-3.6v1.2c0,0.9,0,1.9-0.1,2.9H186.5z M182.9,35.9v4h3.6v-4H182.9z M204,43.5c-0.7,3.8-1.9,6.8-3.6,9.3
	c1.3,1.4,2.8,2.6,4.5,3.4c-0.6,0.5-1.3,1.4-1.7,2c-1.6-0.9-3-2-4.3-3.4c-1.2,1.3-2.5,2.4-3.9,3.3c-0.3-0.6-1-1.4-1.5-1.9v2H191V33.6
	h12.2v5.4c0,1.2-0.3,1.9-1.2,2.2c-1,0.4-2.5,0.4-4.5,0.4c-0.1-0.7-0.5-1.6-0.8-2.2c1.5,0.1,3.1,0.1,3.5,0c0.4,0,0.6-0.1,0.6-0.4V36
	h-7.2v7.1h8.6l0.4-0.1L204,43.5z M193.5,56.2c1.5-0.8,2.8-1.9,4-3.3c-1.5-2.1-2.6-4.6-3.5-7.4h-0.5V56.2z M196.2,45.5
	c0.6,2,1.5,3.8,2.7,5.4c1-1.6,1.8-3.4,2.4-5.4H196.2z"/>
<path class="st2" d="M230.5,37.5c-0.8,1.8-1.8,3.2-3.1,4.5c1.7,1,3.6,1.7,5.7,2.1c-0.5,0.5-1.3,1.5-1.6,2.2
	c-2.2-0.6-4.3-1.5-6.1-2.7c-1.7,1.1-3.7,2-5.9,2.6c-0.1-0.3-0.4-0.7-0.7-1.1c-0.5,1.7-1,3.3-1.5,4.5l-1.8-0.9
	c0.4-1.1,0.9-2.7,1.2-4.2h-2.2v10.8c0,1.3-0.2,2-1,2.4c-0.8,0.4-2,0.4-3.7,0.4c-0.1-0.7-0.4-1.8-0.8-2.5c1.1,0.1,2.2,0.1,2.6,0
	s0.4-0.1,0.4-0.4v-7.6c-1,2.4-2.4,4.7-3.8,6.1c-0.3-0.8-0.9-1.8-1.3-2.5c1.7-1.5,3.3-4.1,4.3-6.7h-3.9v-2.3h7.1
	c-1.5-1.1-4-2.4-6-3.3l1.6-1.7c0.8,0.3,1.7,0.7,2.5,1.1c0.9-0.7,1.7-1.5,2.4-2.4h-7.4v-2.2h9.2l0.4-0.1l1.7,1
	c-1,1.7-2.7,3.4-4.4,4.7c0.9,0.5,1.7,1,2.2,1.5l-1.2,1.3h1.7l0.4-0.1l1.6,0.6c-0.1,0.4-0.2,0.7-0.3,1.1c1.6-0.4,3-1,4.3-1.8
	c-1-0.9-1.8-1.9-2.5-2.9c-0.6,0.6-1.1,1.1-1.7,1.6c-0.5-0.4-1.5-1.1-2.2-1.5c2.2-1.6,4.2-4.1,5.3-6.7l2.4,0.7
	c-0.3,0.8-0.7,1.5-1.1,2.2h8.8v2.2H230.5z M231.9,48c0,0,0,0.7-0.1,1c-0.5,5-1,7.2-1.8,8c-0.6,0.6-1.1,0.7-1.9,0.8
	c-0.7,0.1-1.8,0.1-3.1,0c-0.1-0.7-0.3-1.7-0.7-2.4c1.1,0.1,2.1,0.1,2.6,0.1c0.4,0,0.6-0.1,0.9-0.3c0.5-0.4,0.9-1.8,1.2-5.1H225
	c-1,3.4-2.9,6.2-7.3,8c-0.3-0.6-1-1.6-1.5-2c3.6-1.3,5.3-3.4,6.2-6h-3.9V48h4.5c0.1-0.9,0.3-1.7,0.3-2.7h2.6
	c-0.1,0.9-0.2,1.8-0.3,2.7H231.9z M222.4,37.5c0.7,1.1,1.7,2.2,2.8,3.1c1-0.9,1.8-1.9,2.4-3.1H222.4z"/>
<path class="st2" d="M243.9,52.6c-1.6,2-4.2,3.9-6.4,5.1c-0.4-0.4-1.4-1.3-1.9-1.7c2.2-1,4.6-2.6,6-4.2L243.9,52.6z M260.6,49.2v2.1
	h-11.2v6.9h-2.6v-6.9h-11.1v-2.1H260.6z M243.7,35.6H236v-2.1h24v2.1h-7.8v1.8h6.4v6.6h-21v-6.6h6V35.6z M239,47.6v-2h18.2v2H239z
	 M240.1,42.1h3.6v-2.7h-3.6V42.1z M249.8,35.6h-3.8v1.8h3.8V35.6z M246.1,42.1h3.8v-2.7h-3.8V42.1z M253.8,51.9
	c2.2,1.2,5.1,3,6.6,4.3l-2,1.5c-1.3-1.3-4.2-3.2-6.4-4.4L253.8,51.9z M252.3,39.4v2.7h3.8v-2.7H252.3z"/>
<path class="st2" d="M270.5,45.9c-0.4,2.4-1.2,4.9-2.2,6.9c0.6,0.3,1.1,0.8,2.2,1.4c1.9,1.2,4.5,1.3,7.8,1.3c3.4,0,8.1-0.3,11.2-0.6
	c-0.3,0.7-0.7,2-0.8,2.7c-2.2,0.1-7.3,0.3-10.6,0.3c-3.7,0-6.1-0.3-8.1-1.5c-1.1-0.6-2.2-1.6-2.8-1.6c-0.6,0-1.6,1.8-2.3,3.5
	l-1.8-2.4c0.8-1,1.5-1.8,2.2-2.4l0,0c1.1-1.5,2-3.8,2.5-5.9h-3.5c0.7-1.7,1.5-3.9,2.2-6.1h-2.8v-2.4h6c-0.6,2-1.4,4.3-2.1,6.2h1
	l0.4-0.1L270.5,45.9z M266.9,38.1c-0.4-1.3-1.1-3.3-1.7-4.8l2.4-0.6c0.6,1.5,1.3,3.4,1.7,4.6L266.9,38.1z M278.6,51.1
	c-1.5,1.4-3.7,2.7-5.6,3.6c-0.4-0.5-1.3-1.2-1.9-1.6c1.9-0.7,3.9-1.7,5.2-2.7h-5.6v-2h4.6v-2.2h-3.6v-2h3.6v-1.8h2.4v1.8h3.9v-1.8
	h2.4v1.8h3.7v2H284v2.2h4.8v2h-6c2,0.9,4.1,2.2,5.3,3.1l-2.3,1.1c-1.1-1-3.1-2.2-5-3.2l1.5-1h-5.8L278.6,51.1z M278.9,39.5
	c-0.2,0.6-0.4,1.4-0.4,1.9c-5.5,0.9-6.4,1.1-6.8,1.4c-0.1-0.5-0.6-1.5-0.9-2c0.4-0.2,0.8-0.6,0.8-1.7v-5.6h7.6v5h-5.5v1.8
	L278.9,39.5z M273.6,35.2v1.6h3.4v-1.6H273.6z M277.7,48.4h3.9v-2.2h-3.9V48.4z M283,42c-2.2,0-2.7-0.8-2.7-2.9v-5.6h7.7v5h-5.6v0.6
	c0,0.8,0.1,1,0.7,1h3.2c0.5,0,1.4-0.1,1.8-0.2c0.1,0.6,0.1,1.3,0.2,1.8c-0.4,0.1-1.2,0.2-1.9,0.2H283z M282.4,35.2v1.6h3.4v-1.6
	H282.4z"/>
<path class="st2" d="M296.9,45.4c-1.1-0.8-3.5-2.1-5.2-3l1.4-1.9c1.6,0.8,4,2,5.2,2.8L296.9,45.4z M292.3,56.1
	c1.5-2.1,3.6-5.7,5.3-8.8l1.9,1.7c-1.4,2.9-3.3,6.2-5,8.8L292.3,56.1z M298.2,37.8c-1.1-0.8-3.5-2.2-5.1-3.1l1.5-1.8
	c1.6,0.8,4,2,5.2,2.8L298.2,37.8z M309.9,43.1v4.1h5.8V58h-2.5v-1h-9.3v1.2h-2.4V47.3h5.9v-4.1h-7.8v-2.5h7.8v-4
	c-2,0.3-4,0.5-5.8,0.7c-0.1-0.6-0.4-1.6-0.8-2.2c4.8-0.5,10.2-1.4,13.3-2.5l2,2c-1.8,0.7-4,1.2-6.3,1.6v4.4h7.4v2.5H309.9z
	 M313.2,49.6h-9.3v5h9.3V49.6z"/>
<path class="st2" d="M345,38.9c0,0,0,0.9,0,1.2c-0.3,11.6-0.6,15.5-1.5,16.7c-0.5,0.8-1.1,1.1-2,1.2c-0.8,0.1-2.1,0.1-3.4,0
	c-0.1-0.7-0.3-1.8-0.7-2.5c1.3,0.1,2.4,0.1,2.9,0.1c0.5,0,0.7-0.1,1-0.4c0.6-0.8,0.9-4.3,1.1-14h-3.3c-0.4,7.4-1.6,13.4-6.4,17.1
	c-0.4-0.6-1.3-1.5-1.9-1.9c0.2-0.1,0.3-0.3,0.5-0.4c-4,0.5-8.1,0.9-11.1,1.2l-0.3-2.2c1.6-0.1,3.6-0.3,5.9-0.5v-2.1h-5.1v-1.9h5.1
	v-1.4h-5v-8.4h5v-1.5H320v-1.9h5.8v-1.6c-1.7,0.1-3.4,0.2-5,0.3c-0.1-0.5-0.4-1.4-0.6-1.9c4.1-0.2,9.1-0.7,12-1.4l1.2,2
	c-1.5,0.3-3.3,0.6-5.3,0.8v1.8h5.7v1.6h2.9c0-1.9,0-3.9,0-6h2.5c0,2.1,0,4.1-0.1,6H345z M322.9,44.1h2.9v-1.7h-2.9V44.1z
	 M325.8,47.4v-1.7h-2.9v1.7H325.8z M328.2,54.3c1.7-0.2,3.5-0.3,5.3-0.5c2.3-3.2,3-7.4,3.2-12.5h-3v-2.1h-5.5v1.5h5.2v8.4h-5.2v1.4
	h5.3v1.9h-5.3V54.3z M331.2,44.1v-1.7h-3v1.7H331.2z M328.2,45.7v1.7h3v-1.7H328.2z"/>
</svg>
