<?xml version="1.0" encoding="utf-8"?>
<!-- Generator: Adobe Illustrator 27.0.0, SVG Export Plug-In . SVG Version: 6.00 Build 0)  -->
<svg version="1.1" id="圖層_1" xmlns="http://www.w3.org/2000/svg" xmlns:xlink="http://www.w3.org/1999/xlink" x="0px" y="0px"
	 viewBox="0 0 375 470" style="enable-background:new 0 0 375 470;" xml:space="preserve">
<style type="text/css">
	.st0{fill:none;}
	.st1{fill:none;stroke:#FFFFFF;}
	.st2{fill:#FFFFFF;}
</style>
<g id="btn-more" transform="translate(106.09 106.153)">
	<g id="Rectangle_46">
		<path class="st0" d="M53.9,51.3h54c9.4,0,17,7.6,17,17l0,0c0,9.4-7.6,17-17,17h-54c-9.4,0-17-7.6-17-17l0,0
			C36.9,58.9,44.5,51.3,53.9,51.3z"/>
		<path class="st1" d="M53.9,51.8h54c9.1,0,16.5,7.4,16.5,16.5l0,0c0,9.1-7.4,16.5-16.5,16.5h-54c-9.1,0-16.5-7.4-16.5-16.5l0,0
			C37.4,59.2,44.8,51.8,53.9,51.8z"/>
	</g>
	<path id="Path_49564" class="st2" d="M64.3,63.3L64,63.4h-9.7v1.6h8.1c-1,0.9-2.1,1.7-3.2,2.3v6.2c0,0.2-0.1,0.3-0.4,0.3
		c-0.3,0-1.5,0-2.5,0c0.3,0.5,0.5,1.1,0.7,1.7c1,0.1,2,0,3-0.3c0.7-0.3,0.9-0.7,0.9-1.7v-5.4c1.8-1.1,3.4-2.4,4.8-3.9L64.3,63.3z
		 M73.7,67.2c0.3,0.3,0.5,0.6,0.7,1c0.1,0,0.2-0.1,0.3-0.1c-0.1,1-0.5,1.9-1,2.7V67.2z M71.5,70.6v-1.2h0.8v1.2H71.5z M69.7,69.5
		h0.8v1.2h-0.8c0-0.3,0-0.6,0-0.9L69.7,69.5z M71.1,65c-0.1,0.3-0.3,0.7-0.4,1h-1.2c0.2-0.3,0.3-0.7,0.5-1H71.1z M71.5,67.3h0.8v1.1
		h-0.8V67.3z M69.7,67.3h0.8v1.1h-0.8V67.3z M80.5,71.7h-2.4v-1.3h2.1v-1.4h-2.1v-1.3h-1.6v1.3h-0.7c0.1-0.3,0.1-0.6,0.2-0.9
		l-1.2-0.3c1.3-0.7,2.1-2,2.2-3.4h1.6c0,0.6,0,1.2-0.3,1.8c-0.1,0.1-0.2,0.2-0.4,0.2c-0.2,0-0.6,0-1-0.1c0.2,0.4,0.3,0.9,0.4,1.4
		c0.5,0,0.9,0,1.4,0c0.3,0,0.6-0.2,0.9-0.5c0.3-0.4,0.4-1.3,0.5-3.6c0-0.2,0-0.5,0-0.5h-6.2v1.4h1.6c-0.1,1.1-0.8,2-1.8,2.4V66h-1.6
		c0.3-0.6,0.5-1.2,0.8-1.8l-1-0.6l-0.2,0.1h-1.3c0.1-0.3,0.2-0.7,0.3-1l-1.5-0.3c-0.3,1.6-1,3.1-2.1,4.3c0.4,0.3,0.8,0.6,1.1,0.9
		v2.1c0,1.6-0.1,3.7-1,5.1c0.4,0.2,0.8,0.4,1.1,0.7c0.6-1.1,1-2.4,1.1-3.7h2.8v2c0,0.2-0.1,0.2-0.2,0.2c-0.2,0-0.7,0-1.3,0
		c0.2,0.4,0.4,0.9,0.5,1.4c0.6,0.1,1.3,0,1.9-0.3c0.4-0.2,0.5-0.7,0.5-1.3v-3c0.4,0.2,0.7,0.4,1.1,0.6c0.2-0.3,0.4-0.7,0.6-1.1h1.2
		v1.3h-2.6v1.4h2.6v2.3h1.6v-2.3h2.4L80.5,71.7z M84.9,71.8v1.6h-1.6v-1.6H84.9z M86.3,70.5h-4.3v4.8h1.4v-0.6h3V70.5z M82,69.8h4.2
		v-1.3H82V69.8z M86.2,66.7H82V68h4.2V66.7z M85.2,64.3c-0.3-0.6-0.6-1.3-1-1.9L82.9,63c0.3,0.6,0.6,1.2,0.9,1.8h-2.4v1.3h5.3v-1.3
		h-2.4L85.2,64.3z M94.4,71.2h-3v-1.5h2.4v-1.5h-2.4v-1.4h2.8v-1.5h-1.5c0.4-0.6,0.9-1.4,1.4-2.1l-1.8-0.6c-0.3,0.8-0.7,1.6-1.1,2.4
		l0.8,0.3h-2.8l0.7-0.3c-0.3-0.8-0.8-1.6-1.3-2.3l-1.4,0.6c0.4,0.7,0.8,1.3,1.1,2.1H87v1.5h2.8v1.4h-2.4v1.5h2.4v1.5h-3v1.5h3v2.8
		h1.6v-2.8h3V71.2z M96.6,69.3c0.3-1.3,0.6-2.6,0.7-3.9l-1.3-0.2c-0.1,1.2-0.4,2.5-0.7,3.7L96.6,69.3z M102.1,72.3
		c0-0.2,0-0.4,0-0.6h4v0.6H102.1z M106,69.8v0.7h-3.9v-0.7H106z M107.6,68.6h-7.1v2.5c0.1,1.2-0.2,2.4-0.9,3.4
		c0.4,0.3,0.8,0.7,1.2,1.1c0.5-0.6,0.9-1.4,1-2.2h4.2v0.5c0,0.2-0.1,0.2-0.3,0.2c-0.2,0-0.8,0-1.4,0c0.2,0.5,0.4,0.9,0.4,1.4
		c0.7,0.1,1.5,0,2.1-0.2c0.5-0.2,0.7-0.6,0.7-1.3V68.6z M104.8,66.9v-0.6h2.6v-1.1h-2.6v-0.6h3.1v-1.2h-3.1v-1h-1.7v1h-3.1v1.2h3.1
		v0.6h-2.6v1.1h2.6v0.6h-3.4l0.8-0.4c-0.2-0.5-0.6-1.5-1-2.2l-0.7,0.3v-2.2h-1.5v13.1h1.5v-9.9c0.2,0.5,0.4,1,0.6,1.5l0.3-0.2v1.2
		h8.6v-1.2L104.8,66.9z"/>
</g>
<g id="Group_3160" transform="translate(26.09 9.667)">
	<path id="Path_45153" class="st2" d="M56,115.6h-1.5V114h1.5L56,115.6z M58.3,112.2h-5.9v5.3h5.9V112.2z M49.3,115.6h-1.4V114h1.4
		V115.6z M51.5,112.2h-5.8v5.3h5.8V112.2z M40.5,122.6c0-0.9,0.1-1.8,0.1-2.8h4.2v-7.5H38v2.4h4.2v2.6h-3.9c0,2.5-0.1,5.6-0.3,7.6
		h4.2c-0.2,3.2-0.4,4.5-0.7,4.9c-0.2,0.2-0.5,0.3-0.8,0.3c-0.4,0-1.4,0-2.4-0.1c0.5,0.8,0.7,1.8,0.8,2.7c0.9,0,1.8,0,2.7-0.1
		c0.7,0,1.3-0.4,1.7-0.9c0.7-0.8,0.9-3,1.2-8.1c0-0.3,0-1,0-1L40.5,122.6z M48.5,124.5v-1.2h2.2v1.2H48.5z M48.5,120.3h2.2v1.2h-2.2
		V120.3z M55.6,121.5h-2.3v-1.2h2.3L55.6,121.5z M55.6,124.5h-2.3v-1.2h2.3L55.6,124.5z M59.2,127.6h-6v-1.1h4.8v-8.3H46.1v8.3h4.6
		v1.1h-5.7v2.3h5.7v3.1h2.5v-3.1h6V127.6z M77.5,129.6V125h4.3v-2.6h-4.3v-3.8h4.8V116h-4.8v-4.6h-2.8v4.6h-1.9
		c0.2-1,0.4-2.1,0.6-3.2l-2.7-0.4c-0.2,1.9-0.6,3.8-1.2,5.7c-0.4-1-0.8-2-1.3-2.9l-1.4,0.6v-4.4h-2.8v4.8l-2-0.3
		c-0.2,2.1-0.5,4.1-1.1,6.1l2,0.7c0.6-2,0.9-4.1,1-6.2V133h2.8v-15.9c0.4,0.9,0.7,1.8,0.9,2.7l1.3-0.6c-0.2,0.5-0.5,0.9-0.7,1.4
		c0.8,0.4,1.7,0.8,2.5,1.3c0.5-1,1-2.1,1.3-3.2h2.6v3.8h-4.5v2.6h4.5v4.7h-6.2v2.6H83v-2.6H77.5z M90.1,112.5
		c-0.9,2-2.2,3.8-3.9,5.2c0.8,0.5,1.6,1,2.4,1.6c1.8-1.7,3.3-3.8,4.3-6.1L90.1,112.5z M101.2,124.1H92v-1h9.2V124.1z M92,130.1v-1.1
		h9.2v1.1H92z M92,125.9h9.2v1.1H92V125.9z M106.7,117.5c-1.4-2-3.1-3.7-5-5.2l-2.2,1.3c1,0.9,2,1.9,2.9,2.9l-2.4-1.1
		c-0.8,0.9-1.7,1.6-2.7,2.2v-6.3h-2.7v7.7c-3.1,1.1-6.3,1.8-9.6,2.2c0.6,0.7,1.2,1.5,1.7,2.4c0.9-0.1,1.7-0.3,2.6-0.5v10H92v-0.9
		h9.2v0.8h2.8V121h-7.8c2.4-0.9,4.6-2.4,6.4-4.3c0.7,0.7,1.2,1.5,1.7,2.3L106.7,117.5z M114.5,115.1v4.1h-2.1v-4.1H114.5z
		 M112.4,126v-4.4h2.1v4.4L112.4,126z M117.1,112.7h-7.3v17.9h2.6v-2h4.7L117.1,112.7z M118.5,126.5c1,1.2,1.9,2.5,2.7,3.9l2.4-1.4
		c-0.8-1.3-1.8-2.6-2.8-3.7L118.5,126.5z M130.7,116.2v-2.4h-5.2v-2.5h-2.7v2.5h-5.2v2.4h5.2v2.2h-4.5v2.4h7.4v1.8h-8.2v2.4h8.2v5
		c0,0.3-0.1,0.4-0.5,0.4c-0.3,0-1.6,0-2.7,0c0.4,0.8,0.7,1.7,0.9,2.6c1.3,0.1,2.6-0.1,3.9-0.5c0.9-0.4,1.2-1.1,1.2-2.4V125h2.2v-2.4
		h-2.2v-1.8h1.7v-2.4h-4.6v-2.2L130.7,116.2z M162.8,119.5h-5.2v-1.5h5.2V119.5z M162.8,122.9h-5.2v-1.5h5.2V122.9z M162.8,126.3
		h-5.2v-1.5h5.2V126.3z M153.4,125.5c0.5-1.4,1.1-3.6,1.6-5.5l-1.7-0.4l-0.4,0.1h-1.1l0.6-0.9c-0.4-0.4-0.9-0.8-1.4-1.1
		c1.2-1.3,2.4-2.7,3.3-4.3v1h4.4c-0.1,0.5-0.1,1-0.2,1.5h-3.4v12.3h10.4V116h-4.2c0.2-0.5,0.3-1,0.5-1.5h4.4v-2.3h-11.8v1.1
		l-1.6-1.2l-0.5,0.2h-7.1v2.4h5.4c-0.4,0.7-0.9,1.3-1.5,1.9c-0.7-0.4-1.5-0.8-2.1-1.1l-1.4,1.8c1.4,0.7,2.8,1.5,4,2.4h-5v2.4h3.4
		v7.8c0,0.3-0.1,0.3-0.4,0.3c-0.3,0-1.4,0-2.4,0c0.4,0.8,0.7,1.7,0.8,2.7c1.2,0.1,2.4-0.1,3.6-0.5c0.9-0.4,1.1-1.1,1.1-2.4v-7.9h1.4
		c-0.3,1.1-0.5,2.2-0.8,2.9L153.4,125.5z M157.4,128.4c-1.4,1.3-3.1,2.3-4.9,2.9c0.7,0.6,1.3,1.2,1.9,1.8c1.9-0.8,3.7-1.9,5.3-3.2
		L157.4,128.4z M160.8,129.9c1.4,0.9,2.6,2,3.8,3.2l2.2-1.6c-1.2-1.1-2.6-2.1-4-3L160.8,129.9z M178.9,124.9c-0.4-1.7-0.9-3.3-1.6-5
		l-2.1,0.6c0.2,0.5,0.4,1.1,0.6,1.7l-2.6,0.4c1.9-2,3.6-4.2,5.1-6.5l-2.3-1.5c-0.6,1-1.2,2-1.8,2.9l-1.9,0.1
		c1.3-1.7,2.5-3.5,3.5-5.5l-2.5-1.1c-0.8,2-1.9,3.9-3.2,5.6c-0.3,0.5-0.8,1-1.4,1.2c0.3,0.8,0.6,1.6,0.8,2.4c1-0.3,2-0.5,3-0.6
		c-0.5,0.7-1.1,1.3-1.7,1.9c-0.5,0.7-1.2,1.2-2,1.5c0.3,0.7,0.7,2,0.9,2.5c0.6-0.3,1.5-0.5,6.8-1.4c0.1,0.4,0.2,0.8,0.2,1.2
		L178.9,124.9z M170,126.6c-0.2,1.8-0.7,3.6-1.5,5.3c0.8,0.2,1.6,0.5,2.4,0.8c0.7-1.8,1.2-3.7,1.5-5.6L170,126.6z M172.9,126.9
		c0.3,1.7,0.6,3.5,0.7,5.2l2.3-0.6c-0.2-1.7-0.4-3.5-0.8-5.2L172.9,126.9z M175.7,126.5c0.6,1.4,1,2.9,1.4,4.4l2.1-0.8
		c-0.4-1.5-0.9-2.9-1.5-4.3L175.7,126.5z M185.7,125.4c-1.2-1.8-2.6-3.4-4.2-4.9l-1.9,1.4c1.6,1.5,2.9,3.2,4,5.1L185.7,125.4z
		 M182.4,115.4c0.4-1.2,0.8-2.4,1-3.6l-2.7-0.5c-0.5,3-1.7,5.8-3.5,8.3c0.8,0.5,1.6,1,2.4,1.6c0.7-1,1.3-2,1.8-3.1h5.5
		c-0.2,7.8-0.5,11.1-1.1,11.8c-0.2,0.3-0.6,0.4-1,0.4c-0.6,0-1.9,0-3.3-0.1c0.5,0.8,0.8,1.8,0.9,2.8c1.2,0.1,2.4,0.1,3.6-0.1
		c0.9-0.1,1.7-0.5,2.3-1.3c0.9-1.2,1.2-4.8,1.4-14.8c0-0.3,0-1.3,0-1.3L182.4,115.4z M199.9,117.1h-3.1v-2.3h3.1V117.1z M196.8,124
		h3.1v2.2c-1,0.2-2.1,0.3-3.1,0.5V124z M196.8,119.3h3.1v2.4h-3.1V119.3z M192.8,114.7h1.5v12.3c-0.7,0.1-1.4,0.2-2,0.3l0.5,2.7
		c2-0.3,4.6-0.8,7.1-1.2v4.2h2.6v-18.3h1.7v-2.5h-11.4L192.8,114.7z M212,112.1l-0.4,0.1H205V133h2.6v-18.3h2.9
		c-0.5,1.7-1.2,3.5-2,5.5c2.1,2.2,3,3.6,3,4.8c0,0.8-0.2,1.5-0.7,1.7c-0.3,0.1-0.5,0.2-0.8,0.2c-0.3,0-0.9,0-1.4,0
		c0.4,0.8,0.6,1.6,0.7,2.5c0.6,0,1.2,0,1.8,0c0.5-0.1,1.1-0.3,1.5-0.6c1-0.7,1.4-2,1.4-3.7c0-1.5-0.8-3.1-2.9-5.4
		c1-2.4,2-4.6,2.8-6.6L212,112.1z M232.9,126h-1v-9H230v9H229v2.5h8.8V126h-2.6v-4.8h2.4v-2.5h-2.4v-4.1c1-0.2,1.9-0.5,2.8-0.8
		l-1.5-2.1c-2.3,0.8-4.8,1.4-7.3,1.7c0.3,0.7,0.5,1.4,0.7,2.1c1-0.1,2-0.2,3-0.4L232.9,126z M223.7,115.1h-3.8l1.7-0.6
		c-0.3-1.1-0.7-2.2-1.2-3.3l-2.2,0.7c0.3,1,0.8,2.3,1,3.2h-2.8v2.2h7.4L223.7,115.1z M223.2,118.4h-6v2.1h6V118.4z M217.2,123.6h6
		v-2.1h-6V123.6z M221,129.6h-1.8v-2.7h1.8V129.6z M228,119.1l-0.4,0H227c0.8-2.1,1.6-4.7,2.3-6.9h-5.4v2.5h2.1
		c-0.7,2.4-1.7,4.9-2.4,6.6h1.5v0h1.8c-0.1,1.3-0.4,2.6-0.7,3.8c-0.3-0.7-0.5-1.5-0.7-2.4l-1.7,0.6c0.3,1.5,0.8,3,1.5,4.4
		c-0.5,1.2-1.3,2.2-2.3,3v-6.1h-6.1v8h2.1v-1h4v-0.9c0.6,0.6,1.1,1.4,1.4,2.1c1-0.8,1.8-1.8,2.3-2.9c1.9,2,4.2,2.4,6.9,2.4h3.6
		c0.1-0.9,0.4-1.7,0.8-2.5c-1,0-3.5,0-4.2,0c-2.3,0-4.4-0.4-6.1-2.2c0.8-2.8,1.3-5.6,1.4-8.5L228,119.1z M261,127.2v-2.4h-9.1
		c0.1-0.4,0.1-0.8,0.2-1.2h9.6v-2.4h-9.3v-1.2h7.1v-2.3h-7.1v-1.2h8.2v-2.4h-4.5c0.5-0.7,1-1.4,1.6-2.3l-3-0.8c-0.5,1.1-1,2.1-1.7,3
		H248l0.7-0.3c-0.4-1-1-1.9-1.7-2.7l-2.5,1c0.5,0.6,0.9,1.3,1.3,2h-4.4v2.4h8.2v1.2h-6.9v2.3h6.9v1.2h-8.9v2.4h8.6
		c0,0.4-0.1,0.8-0.2,1.2h-7.8v2.4h6.9c-1.1,1.6-3.3,2.6-8,3.2c0.6,0.7,1.1,1.6,1.4,2.5c6.2-1,8.7-2.9,9.8-5.7h0.8l-1,1.7
		c3.2,1.1,6.3,2.5,9.3,4.1l1.3-2.4c-2.7-1.3-5.5-2.5-8.4-3.4L261,127.2z M269.2,115.9v8.5h-2v-8.5L269.2,115.9z M271.7,127.2v-13.9
		h-7V129h2.5v-1.9H271.7z M285.7,122.9v-2.6h-5.5v-2.9h4.8v-2.6h-4.8v-3.3h-2.8v3.3h-4.3v2.6h4.3v2.9h-5v2.6h4.3
		c-1.3,2.7-3.4,5-6,6.5c0.7,0.7,1.3,1.4,1.9,2.2c2-1.3,3.7-3.1,4.9-5.2v6.5h2.8v-6.4c1,1.9,2.2,3.6,3.8,5c0.6-0.8,1.3-1.6,2-2.3
		c-2.2-1.7-3.9-3.9-5.1-6.4L285.7,122.9z"/>
	<rect id="Rectangle_1842" x="38" y="97.4" class="st2" width="248" height="0.7"/>
	<path id="Path_39764" class="st2" d="M39.9,78.8l-2.1-2.4c1.8-2.2,3.2-4.8,4.1-7.5l2.8,0.6c-0.2,0.6-0.4,1.1-0.6,1.7h6.3v-1.9h3.2
		v1.9h9.6v2.8h-9.6v2.1h8.5v2.6h-8.5v2.1h10.9v2.8H39v-2.8h11.5v-2.1h-8v-2.6h8v-2.1H43C42.2,75.7,41.2,77.3,39.9,78.8 M61.6,68.5
		h-20V57.3h20V68.5z M58.4,59.9H44.6v1.7h13.8L58.4,59.9z M58.4,64.1H44.6v1.7h13.8L58.4,64.1z"/>
	<path id="Path_39765" class="st2" d="M93.1,71.3H73.2v7.5c0,1,0.5,1.5,1.7,1.5h15.5c0.7,0,1.2-0.5,1.4-1.1c0.4-1.5,0.6-3.1,0.6-4.7
		l3,1c-0.1,1.7-0.4,3.4-0.8,5.1c-0.3,1.6-1.7,2.7-3.2,2.7H73.6c-2.4,0-3.6-1.1-3.6-3.2V57.8h23V71.3z M73.2,68.3H80v-7.5h-6.8V68.3z
		 M90,60.8h-6.8v7.5H90V60.8z"/>
	<path id="Path_39766" class="st2" d="M114.2,56.4v2.9h11.4v3h-11.4v2.4h8.1v9.4h-4.9v5.6c0,0.7,0.4,1,1.1,1h3.3
		c0.4,0,0.7-0.1,1-0.3c0.3-0.2,0.6-1.2,0.7-2.9l3,1c-0.3,2.6-0.8,4.1-1.3,4.5c-0.8,0.5-1.7,0.7-2.6,0.7h-5c-2.2,0-3.3-1.2-3.3-3.5
		v-6.1h-4.1c-0.2,2.1-0.9,4.2-2.2,5.9c-1.4,1.6-3.8,3.1-7.2,4.3l-2-2.6c2.9-0.9,5-2,6.2-3.2c1.1-1.2,1.7-2.8,1.9-4.4h-4.1v-9.4h8.1
		v-2.4H99.6v-3H111v-2.9H114.2z M119.2,67.7H106v3.5h13.2L119.2,67.7z"/>
	<path id="Path_39767" class="st2" d="M138.6,58c-1.9,3.6-4.7,6.7-8.2,8.9l-1-3.2c2.7-1.8,4.8-4.3,6.3-7.1L138.6,58z M140,64.8
		c-0.8,1.6-1.8,3.1-3,4.5v14.9h-3.1V72.5c-1,0.8-2.1,1.7-3.3,2.5l-1-3.1c3.1-2.1,5.7-5,7.5-8.3L140,64.8z M157,65.5v3.1h-4.6v12.6
		c0,2-1.1,3-3.3,3h-4.4l-0.7-3.1c1.4,0.1,2.7,0.2,4,0.2c0.8,0,1.2-0.3,1.2-0.9V68.6h-9v-3.1L157,65.5z M155.8,61.1H141V58h14.8V61.1
		z"/>
	<path id="Path_39768" class="st2" d="M181.3,56.5v5.4h5.9c0,10.2-0.1,16.4-0.4,18.8c-0.3,2.2-1.7,3.3-4.1,3.3
		c-0.5,0-1.5-0.1-2.9-0.2l-0.8-2.7c1.2,0.1,2.3,0.1,3.2,0.1c1,0,1.5-0.7,1.7-2c0.2-1.4,0.3-6.2,0.3-14.5h-3v1
		c-0.1,8.4-1.9,14.5-5.4,18.4l-1.7-1.4c-4,0.5-8.5,0.9-13.6,1.2l-0.4-2.8c2.2-0.1,4.2-0.2,6.1-0.4v-1.9h-5.1v-2.5h5.1v-1.4h-5.2
		v-9.7h5.2v-1.3h-5.8v-2.6h5.8V60c-1.6,0.1-3.2,0.1-4.9,0.1l-0.8-2.4c4.3,0.1,8.6-0.3,12.8-1.2l1.4,2.3c-1.8,0.4-3.6,0.8-5.5,0.9
		v1.6h5.7v2.6h-5.7v1.3h5.2v9.7h-5.2v1.4h5.1v2.5h-5.1v1.7c1.8-0.2,3.5-0.4,5.1-0.5v1.3c2.6-3.5,3.9-8.6,4-15.5v-1h-2.6v-2.9h2.6
		v-5.4H181.3z M166.5,67.4H164V69h2.6V67.4z M166.5,71.1H164v1.6h2.6V71.1z M169.1,69h2.6v-1.6h-2.6L169.1,69z M171.7,71.1h-2.6v1.6
		h2.6L171.7,71.1z"/>
	<path id="Path_39769" class="st2" d="M196.6,63.5c0.9-1,1.7-2.1,2.5-3.3h-6.9v-2.8h10.2v2.3c-1.1,2-2.4,3.9-4,5.6
		c0.4,0.5,0.8,0.9,1.1,1.4h4.1v1.9c-0.3,1.9-0.9,3.8-1.6,5.5l-2.5-1c0.5-1.1,0.9-2.3,1.2-3.5h-2.3v11.7c0,1.9-0.9,2.9-2.6,2.9h-2.9
		l-0.6-2.8c0.8,0.1,1.7,0.2,2.6,0.2c0.5,0,0.7-0.3,0.7-1V69.6h-4.1v-2.9h4.9c-1.1-1.2-2.4-2.5-3.8-3.9l2.3-1.4
		C195.2,62.1,195.9,62.8,196.6,63.5 M208.9,62c0.2-0.6,0.4-1.2,0.6-1.8h-5.9v-2.8h15.1v2.8h-6.1c-0.2,0.6-0.4,1.2-0.6,1.8h5.6v16.6
		h-3.2c1.7,1,3.4,2.2,4.9,3.5l-2,2c-1.5-1.5-3.2-2.8-5-3.9l1.7-1.6h-5.5l1.8,1.6c-1.7,1.7-3.7,3.1-5.8,4.2l-1.7-2.2
		c1.9-0.9,3.8-2.1,5.4-3.5h-3.3V62L208.9,62z M214.6,64.5h-7v2.1h7V64.5z M214.6,69h-7v2.3h7V69z M214.6,73.7h-7V76h7V73.7z"/>
	<path id="Path_39770" class="st2" d="M225.3,78.3c-0.1,2-0.4,4-0.8,6l-2.6-0.8c0.6-1.8,0.9-3.6,1-5.5L225.3,78.3z M227.7,70.1v-1.4
		h-5V57.4h12.6v11.3h-4.9v1.4h4.5v2.5h-4.5v1.5h5.1v2.8h-13.1v-2.8h5.2v-1.5h-4.5v-2.5H227.7z M227.9,59.7h-2.7v1.6l1.5-0.5
		c0.4,1.4,0.8,2.8,1.1,4.3l-1.6,0.4c-0.3-1.4-0.6-2.7-1-4v4.8h2.7L227.9,59.7z M228.8,83.6l-2.5,0.3c0-2.3-0.1-4.2-0.2-5.5l2.3-0.3
		C228.6,80,228.7,81.8,228.8,83.6 M232.5,83l-2.5,0.6c-0.2-1.9-0.5-3.6-0.8-5.1l2.2-0.5C231.9,79.5,232.2,81.2,232.5,83 M232.9,59.7
		h-2.8v6.6h2.8V59.7z M232.7,60.9c-0.1,1.6-0.4,3.1-0.8,4.6l-1.6-0.6c0.4-1.5,0.6-3,0.8-4.5L232.7,60.9z M235.9,82.3l-2.2,0.8
		c-0.3-1.7-0.7-3.3-1.2-4.8l2.2-0.6C235.2,79.3,235.6,80.8,235.9,82.3 M243.7,56.6v5.2h6v2.9h-6v4.6h4.9v15h-2.9v-1.4h-6.1v1.4h-2.9
		v-15h4V56.6H243.7z M245.6,72.1h-6.1V80h6.1L245.6,72.1z"/>
	<path id="Path_39771" class="st2" d="M256.5,77.3h6.8v3.8h-10.6v-2.1c0-6.9,6.9-9.4,6.9-14.2c0-1.2-0.4-2.2-1.5-2.2
		c-1.2,0-1.7,1-1.8,3.4v0.5l-3.7,0v-0.9c0-4.3,2.3-6.2,5.5-6.2c3.2,0,5.5,2.3,5.5,6C263.6,71.1,258.2,72.8,256.5,77.3"/>
	<path id="Path_39772" class="st2" d="M266.7,79.3c0-1.1,0.9-2.1,2-2.1s2.1,0.9,2.1,2s-0.9,2.1-2,2.1c0,0,0,0,0,0
		c-1.1,0.1-2-0.7-2.1-1.8C266.7,79.4,266.7,79.4,266.7,79.3"/>
	<path id="Path_39773" class="st2" d="M285.8,70.5c0,9.3-2.5,11.2-5.8,11.2c-3.3,0-5.8-1.9-5.8-11.2s2.5-11.2,5.8-11.2
		C283.4,59.3,285.8,61.2,285.8,70.5 M278.3,70.5c0,7.2,0.6,8.1,1.7,8.1c1.1,0,1.7-0.8,1.7-8.1s-0.6-8.1-1.7-8.1
		C278.9,62.4,278.3,63.3,278.3,70.5"/>
</g>
</svg>
