<?xml version="1.0" encoding="utf-8"?>
<!-- Generator: Adobe Illustrator 27.0.0, SVG Export Plug-In . SVG Version: 6.00 Build 0)  -->
<svg version="1.1" id="圖層_1" xmlns="http://www.w3.org/2000/svg" xmlns:xlink="http://www.w3.org/1999/xlink" x="0px" y="0px"
	 viewBox="0 0 1326 605" style="enable-background:new 0 0 1326 605;" xml:space="preserve">
<style type="text/css">
	.st0{fill:#FFFFFF;}
</style>
<g id="title" transform="translate(554.309 -132.407)">
	<path id="Path_46135" class="st0" d="M361.4,265.8c5.2,0,9.3-2.6,9.3-8.5c0-8.4-11.3-7-11.3-9.6c0-0.9,0.9-1.4,2.2-1.4
		c2,0,3.7,0.8,5.9,2l2.6-4.9c-1.8-1.8-4.4-3-8.9-3s-9.3,2.2-9.3,8c0,9,10.9,7.1,10.9,10c0,0.9-0.8,1.4-2.4,1.4
		c-2.5,0-4.7-1.3-6.8-2.6l-2.5,5.2C353.1,264.2,356,265.8,361.4,265.8 M348.6,240.9h-7.4l-3.9,8l-3.9-8h-8.3l8,15.4v8.9h7.5v-9
		L348.6,240.9z M309.7,256.3l2.2-7.1l2.2,7.1H309.7z M316.8,265.3h8.4l-8.5-24.4h-8.5l-8.5,24.4h7.3l1.3-4.3h7.2L316.8,265.3z
		 M281.5,258.9v-11.5h2.2c2.7,0,4.7,1.8,4.7,5.7s-2,5.7-4.7,5.7H281.5z M274,265.3h9.8c7.6,0,12.7-3.6,12.7-12.2
		c0-8.5-5.1-12.2-12.7-12.2H274V265.3z M258.8,265.3h7.5v-24.4h-7.5V265.3z M245.6,258.9v-17.9H238v24.4h14.1v-6.5L245.6,258.9z
		 M219.1,258.8c-2.4,0-4.5-1.8-4.5-5.7s2.1-5.7,4.5-5.7s4.5,1.8,4.5,5.7S221.5,258.8,219.1,258.8 M219.1,265.8
		c6.9,0,12.5-5,12.5-12.7c0-7.7-5.6-12.7-12.5-12.7s-12.5,5-12.5,12.7C206.7,260.8,212.2,265.8,219.1,265.8 M192.7,240.9v9h-6.1v-9
		h-7.5v24.4h7.5V256h6.1v9.3h7.5v-24.4H192.7z M150,247.3h2c2.5,0,3.6,0.8,3.6,2.6c0,1.8-1,3-3.6,3h-2L150,247.3z M155.5,265.3h8.7
		l-5.7-8.4c3.4-1.3,5.1-4.2,5.1-7.9c0-5.1-3.4-8.1-9.8-8.1h-11.4v24.4h7.5v-7.6h1L155.5,265.3z M124.6,265.8
		c5.9,0,10.5-2.6,10.5-9.1v-15.7h-7.6v14.4c0,2.3-0.8,3.6-2.9,3.6s-2.8-1.4-2.8-3.6v-14.4h-7.5v15.7
		C114.2,263.2,118.9,265.8,124.6,265.8 M95.6,258.8c-2.4,0-4.5-1.8-4.5-5.7c0-3.9,2.1-5.7,4.5-5.7s4.5,1.8,4.5,5.7
		C100.2,257.1,98,258.8,95.6,258.8 M95.6,265.8c6.9,0,12.5-5,12.5-12.7s-5.6-12.7-12.5-12.7s-12.5,5-12.5,12.7
		C83.2,260.8,88.7,265.8,95.6,265.8 M80.7,240.9h-7.4l-3.9,8l-3.9-8h-8.3l8,15.4v8.9h7.5v-9L80.7,240.9z M37.1,240.9v10.7l-7-10.7
		h-7.8v24.4h6.5v-12.4l7.3,12.4h7.4v-24.4H37.1z M15.3,247.3v-6.3H0v24.4h15.3V259H7.5v-3.4h6.7v-5.6H7.5v-2.8H15.3z M-6.1,240.9
		h-18.7v6.5h5.6v17.9h7.5v-17.9h5.6L-6.1,240.9z M-38.5,240.9v9h-6.1v-9h-7.5v24.4h7.5V256h6.1v9.3h7.5v-24.4H-38.5z M-69.9,251.1
		v5.1h4.7c-0.3,2.1-2.1,3.3-4.4,3.3c-3,0-5-2.5-5-6.4c0-3.7,2-6.1,4.9-6.1c1.7,0,3.2,0.9,4,2.4l6.1-3.1c-2.2-3.8-5.5-5.9-10.7-5.9
		c-6.5,0-12.3,4.5-12.3,12.7s5.8,12.7,12.5,12.7s11.8-3.4,11.8-11.8v-2.9H-69.9z M-96.6,265.3h7.5v-24.4h-7.5V265.3z M-116.7,247.3
		h2c2.5,0,3.6,0.8,3.6,2.6c0,1.8-1,3-3.6,3h-2V247.3z M-111.1,265.3h8.7l-5.7-8.4c3.4-1.3,5.1-4.2,5.1-7.9c0-5.1-3.4-8.1-9.8-8.1
		h-11.4v24.4h7.5v-7.6h1L-111.1,265.3z M-140.8,259.7h-3.2v-4.5h3.2c1.6,0,2.5,0.8,2.5,2.1c0,1.3-1,2.4-2.3,2.4
		C-140.6,259.7-140.7,259.7-140.8,259.7 M-141.3,246.6c1.6,0,2.3,0.9,2.3,2.2c0.1,1.2-0.7,2.2-1.9,2.4c-0.2,0-0.3,0-0.5,0h-2.7v-4.5
		L-141.3,246.6z M-135,252.9c2.5-0.7,3.8-2.1,3.8-5c0-4.5-3.2-6.9-9.6-6.9h-10.7v24.4h11.4c6.4,0,9.8-2.4,9.8-6.9
		C-130.3,255.2-132.1,253.6-135,252.9"/>
	<path id="Path_46136" class="st0" d="M364.7,207.5l-2.8,1.8c2.2,1.9,4.1,4.1,5.9,6.4l3.4-2.3C369.6,211.6,367.4,209.7,364.7,207.5
		 M357.4,207.3c-1.9,2.4-4.1,4.5-6.5,6.4l3.2,2.3c2.4-2.1,4.6-4.5,6.3-7.3L357.4,207.3z M357.6,186.3h7.9v3.4h-7.9L357.6,186.3z
		 M357.6,192.7h7.9v3.7h-7.9L357.6,192.7z M365.6,203.4h-7.9v-4h7.9V203.4z M352.7,176v3.5h7.6c-0.3,1.2-0.6,2.4-1.1,3.5h-5.4v23.7
		h15.7V183h-6.3c0.4-1.1,0.7-2.3,1-3.5h7.2V176H352.7z M350.6,201.3l-3,0.9c1.1,2.7,2,5.6,2.7,8.4l3.3-0.9
		C352.8,206.9,351.8,204,350.6,201.3 M338.6,201.3c-0.6,3.1-1.7,6.2-3.2,9l3,1.9c1.6-3.2,2.8-6.7,3.5-10.2L338.6,201.3z
		 M341.6,186.5h6.2v3.5h-6.2V186.5z M347.8,196.9h-6.2v-3.9h6.2V196.9z M351.6,176h-19.4v15.5c0,3.3-0.1,6.9-0.4,10.8
		c-0.3,3.6-0.9,7.3-1.9,10.8l3.3,3c1-4.2,1.8-8.4,2.3-12.7c0.4-4.1,0.5-8.1,0.5-11.9v-12h6.7c-0.2,1.3-0.4,2.5-0.6,3.7h-4.4v17.1
		h5.5v10.9c0,0.6-0.5,0.9-1.4,0.9c-0.9,0-1.9-0.2-2.8-0.4l0.7,3.9h3.2c1.1,0.1,2.2-0.2,3-0.9c0.7-0.8,1-1.9,0.9-2.9v-11.4h4.5v-17.1
		h-5.4c0.2-1.1,0.4-2.3,0.5-3.7h5L351.6,176z M316.6,187.6l-4.2,1.4c2.3,6.6,4.3,13.4,5.8,20.2l4.4-1.9
		C321,200.6,319,194.1,316.6,187.6 M301.1,176l-3.7,2.3c3,3.5,5.7,7.2,8.1,11.1l4.4-3C307.1,182.7,304.2,179.3,301.1,176
		 M293.9,185.7V211c-0.1,1.2,0.4,2.4,1.2,3.2c0.9,0.8,2.1,1.2,3.2,1.2h10.2c1.5,0.2,3-0.5,3.9-1.8c0.8-1.2,1.4-5,1.8-11.6l-4.2-1.2
		c-0.1,5.6-0.3,8.7-0.6,9.4c-0.2,0.6-0.7,1-1.3,1h-8.1c-0.7,0.1-1.5-0.4-1.6-1.1c0-0.1,0-0.3,0-0.4v-23.9L293.9,185.7z M286.2,187.4
		c-0.8,7.1-2.3,14.1-4.4,20.9l4.2,2.6c2.3-7.4,3.9-15,4.8-22.7L286.2,187.4z M248.3,176.7v3.9h5c-1.5,3.1-3.3,6.2-5.4,9v3.2h5.7
		c-0.1,2.8-0.4,5.6-0.9,8.3c-0.1,0.4-0.2,0.8-0.3,1.2c-1-2.2-1.7-4.4-2.2-6.7l-3.3,1.3c0.7,3.4,2,6.7,3.8,9.8
		c-1.1,2-2.5,3.7-4.1,5.2l2.1,3.7c1.7-1.7,3.2-3.6,4.5-5.6c1.2,1.4,2.6,2.4,4.3,3.1c2.3,1.2,7.9,1.8,16.8,1.8l0.7-4.2
		c-2.5,0.3-5.1,0.4-7.7,0.4c-2.6,0.1-5.3-0.3-7.7-1.1c-1.8-0.7-3.4-2-4.5-3.5c0.5-1.5,1-3,1.3-4.6c0.8-4.1,1.2-8.3,1.3-12.6h-4.8
		c1.8-2.9,3.4-5.9,4.8-9v-3.4H248.3z M271.9,174.9c-4.3,2.1-9.1,3.2-13.9,3l1.3,3.7c2.2,0,4.5-0.1,6.7-0.5v21.1h-1.6
		c-0.7,0.1-1.3-0.3-1.4-1c0-0.1,0-0.3,0-0.4v-15.1h-3.7v16.5c-0.1,1.1,0.3,2.2,1.1,2.9c0.9,0.7,2,1,3.1,0.9h10.8v-3.9h-4.6v-9.1h3.9
		V189h-3.9v-8.7c1.5-0.4,2.9-1,4.2-1.8L271.9,174.9z M238.5,203.2h3.9v5.6h-3.9V203.2z M246.4,199.5h-12v16.2h4.1v-3.2h7.9
		L246.4,199.5z M234.6,196.4h11.6v-3.5h-11.6V196.4z M234.6,189.9h11.6v-3.5h-11.6V189.9z M241.8,174.6l-4.2,0.5
		c0.3,1.4,0.5,3,0.8,4.6H233v3.7h14.8v-3.7h-5.3C242.2,177.8,242,176.1,241.8,174.6 M208.9,176.3v39.6h4.2v-35.7h7.4
		c-1.4,3.9-3.1,7.7-5,11.4c1.7,2.8,3.3,5.7,4.6,8.6c0.6,1.3,0.8,2.8,0.9,4.2c0.1,0.8-0.1,1.6-0.6,2.3c-0.8,0.6-1.8,0.9-2.9,0.9
		c-1.3,0-2.6-0.1-3.9-0.4l1.3,4.4c4.7,0,7.6-0.6,8.8-1.8c1.2-1.2,1.8-3,1.8-5.4c0-1.9-0.4-3.7-1.2-5.4c-1.1-2.6-2.5-5.1-4.2-7.4
		c2-3.9,3.8-8,5.3-12.1v-3.2H208.9z M191.8,180h8.6v5.4h-8.6V180z M191.8,189h8.6v5.8h-8.6V189z M191.8,205.3v-7h8.6v5.1
		C197.6,204.2,194.7,204.9,191.8,205.3 M185.3,176.2v3.9h2.3v26c-0.9,0.2-1.9,0.3-2.8,0.4l1,4.4c5.4-1.1,10.3-2.3,14.6-3.4v8.6h4.2
		V180h2.7v-3.9L185.3,176.2z M162.2,184.8h8.2v9.7h-8.2L162.2,184.8z M162.2,198h8.2V209h-8.2L162.2,198z M154.8,181.3v3.5h3.3v31.2
		h4.1v-3.4h8.2v3.4h4.1v-31.2h3.3v-3.5h-3.3v-6.5h-4.1v6.5h-8.2v-6.5h-4.1v6.5H154.8z M142.3,200.6h8.1v9h-8.1L142.3,200.6z
		 M153.9,174.6c-5.7,1.9-11.7,2.8-17.7,2.6l1.2,3.7c2.3,0,4.7-0.1,7-0.3v6.1h-8.1v3.5h8.1v7h-6.1v18.7h4v-3h8.1v2.5h4.1v-18.1h-6v-7
		h7.7v-3.5h-7.7v-6.6c2.5-0.4,5-1,7.4-2L153.9,174.6z M110.5,195.8v-8.1h0.4c1.6,2.1,3.5,4,5.7,5.5c1.4,1,2.9,1.9,4.5,2.6H110.5z
		 M96.1,195.8c1.9-1,3.6-2.1,5.3-3.3c1.7-1.3,3.2-2.9,4.5-4.7h0.4v8.1H96.1z M97.8,199.7h21.7v3.2H97.8V199.7z M97.8,206.6h21.7v3.7
		H97.8V206.6z M123.3,174.9c-10.8,1.4-21.7,2.1-32.6,1.9l1.2,3.9c5.1,0,9.9-0.1,14.3-0.3v3.6H88.1v3.7h13.1
		c-0.9,0.9-1.9,1.7-2.9,2.3c-2.1,1.4-5.6,2.9-10.6,4.5l2.4,4.1c1.3-0.5,2.5-1.1,3.7-1.6v19h4.1V214h21.7v2.1h4.1V197
		c1.3,0.6,2.6,1.1,3.9,1.5l1.9-4.1c-3.2-0.8-6.3-2-9.3-3.5c-1.7-0.8-3.2-1.9-4.5-3.2h13.6v-3.7h-18.6v-3.9c5-0.3,10-0.8,15-1.6
		L123.3,174.9z M49.2,183h22.7v22.3H49.2V183z M76.6,178.8H44.4v34.5h4.7v-3.7h22.7v3.5h4.8L76.6,178.8z M-7.8,195.8h39.2v-4.2H-7.8
		V195.8z M-47,195.8c0.2-2,0.3-4.2,0.5-6.7h22.3c-0.1,2.4-0.1,4.6-0.2,6.7H-32l1.3-3.3c-3.3-1.2-6.7-2.1-10.2-2.8l-1.6,3.2
		c3.2,0.7,6.4,1.7,9.5,3L-47,195.8z M-24.9,207.3h-7l2.1-3.2c-3.5-1.6-7.2-2.9-10.9-3.9l-1.9,3c3.4,1,6.7,2.4,9.8,4.1h-15.6
		c0.4-2,0.8-4.6,1.1-7.7h22.8C-24.7,202.7-24.8,205.3-24.9,207.3 M-20,185.5h-30.6c-0.1,3.4-0.3,6.8-0.6,10.4h-6v3.7h5.7
		c-0.4,3.8-1,7.6-1.7,11.4h28.1c-0.1,0.9-0.8,1.4-2,1.4c-1.6,0-3.3,0-5.1-0.1l1.3,3.7c4.5,0,7.2-0.4,8.1-1.1c1-0.8,1.5-1.9,1.6-3.1
		c0-0.3,0-0.5,0.1-0.8h5v-3.7H-21c0.1-2,0.3-4.5,0.4-7.7h4.7v-3.7h-4.6C-20.3,192.9-20.2,189.4-20,185.5 M-48,174.4
		c-2.3,4-5.3,7.4-9,10.2l3,3.7c2.1-1.8,4-3.8,5.6-6h31.7v-4h-28.9c0.6-0.9,1.2-1.9,1.8-3L-48,174.4z M-105.2,176.8v4.1h15.5v34.7
		h4.6v-22.4c3.3,2.2,7.7,5.3,13,9.4l2.8-4.2c-5.4-3.8-10.6-7.2-15.8-10.1v-7.3h20.4v-4H-105.2z M-132,174.7
		c-0.7,6.7-2.6,12.1-5.6,16.2l3.9,2.6c2-2.8,3.4-6,4.2-9.3h3.6v11.6h-10v3.7h10v16.4h4.2v-16.4h8.8v-3.7h-8.8v-11.6h7v-3.7h-14
		c0.3-1.5,0.6-3.2,0.9-5.1L-132,174.7z M-142.2,208.9h-6.3v-5.6h6.3V208.9z M-148.5,212.6h6.3v2.1h4.1v-15.1h-14.4v16.2h4.1
		L-148.5,212.6z M-152.4,196.4h14.1v-3.5h-14.1V196.4z M-152.4,189.9h14.1v-3.5h-14.1V189.9z M-145.2,174.6l-4.2,0.5
		c0.9,1.5,1.7,3,2.4,4.6h-7v3.7h18v-3.7h-6.8C-143.5,177.9-144.3,176.2-145.2,174.6"/>
</g>
<g id="太妃核果風味冷萃咖啡" transform="translate(500.983 383.549)">
	<g id="Group_5571" transform="translate(-145.427 -22.955)">
		<path id="Path_46099" class="st0" d="M132.8,213.1c1.1,0,1.9,0.9,1.9,1.9c0,0,0,0,0,0h-3.9C130.8,214,131.7,213.1,132.8,213.1
			 M136.9,215.5c0.1-2.1-1.5-4-3.6-4.1c-0.2,0-0.3,0-0.5,0c-2.4,0-4.3,1.9-4.3,4.2c0,0.1,0,0.2,0,0.3c0,2.7,1.8,4.4,4.7,4.4
			c1.3,0,2.6-0.4,3.6-1.3l-0.8-1.5c-0.7,0.6-1.6,1-2.5,1c-1.3,0.1-2.5-0.8-2.7-2.2h6.1L136.9,215.5z M122.8,213.1
			c1.1,0,1.9,0.9,1.9,1.9c0,0,0,0,0,0h-3.9C120.9,214,121.7,213.1,122.8,213.1 M126.9,215.5c0.1-2.1-1.5-4-3.6-4.1
			c-0.2,0-0.3,0-0.5,0c-2.4,0-4.3,1.9-4.3,4.2c0,0.1,0,0.2,0,0.3c0,2.7,1.8,4.4,4.7,4.4c1.3,0,2.6-0.4,3.6-1.3l-0.8-1.5
			c-0.7,0.6-1.6,1-2.5,1c-1.3,0.1-2.5-0.8-2.7-2.2h6.1L126.9,215.5z M116.7,209.2c0.3,0,0.5,0,0.8,0v-1.7c-0.4-0.1-0.8-0.1-1.3-0.1
			c-2,0-2.9,1.1-2.9,2.7v1.4H112v1.7h1.3v6.7h2.1v-6.7h2v-1.7h-2v-1.2C115.5,209.6,115.8,209.2,116.7,209.2 M110.2,209.2
			c0.3,0,0.5,0,0.8,0v-1.7c-0.4-0.1-0.8-0.1-1.3-0.1c-2,0-2.9,1.1-2.9,2.7v1.4h-1.3v1.7h1.3v6.7h2.1v-6.7h2v-1.7h-2v-1.2
			C108.9,209.6,109.3,209.2,110.2,209.2 M99.6,218.4c-1.3,0-2.2-1-2.2-2.6c0-1.6,0.9-2.6,2.2-2.6s2.2,1,2.2,2.6
			C101.8,217.4,100.9,218.4,99.6,218.4 M99.6,220.3c2.5,0,4.5-2,4.5-4.5c0-2.5-2-4.5-4.5-4.5c-2.5,0-4.5,2-4.5,4.5c0,0,0,0,0,0
			c-0.1,2.4,1.8,4.4,4.2,4.5C99.4,220.3,99.5,220.3,99.6,220.3 M89.8,220.3c1.5,0.1,2.9-0.4,4-1.4l-0.7-1.9
			c-0.8,0.8-1.9,1.3-3.1,1.2c-1.9,0-3.6-1.4-3.6-4c0-2.7,1.8-4,3.6-4c1,0,2,0.4,2.8,1.1l0.7-2c-1.1-0.8-2.4-1.2-3.8-1.2
			c-3.2,0-5.6,2.4-5.6,6.1C84.1,218,86.5,220.3,89.8,220.3 M77,211.6l-1.8,5.9l-1.8-5.9h-2l-1.8,5.9l-1.7-5.9h-2.2l2.7,8.4h2l1.9-6
			l2,6h2l2.8-8.4H77z M60.5,213.1c1.1,0,1.9,0.9,1.9,1.9c0,0,0,0,0,0h-3.9C58.6,214,59.4,213.1,60.5,213.1 M64.6,215.5
			c0.1-2.1-1.5-4-3.6-4.1c-0.2,0-0.3,0-0.5,0c-2.4,0-4.3,1.9-4.3,4.2c0,0.1,0,0.2,0,0.3c0,2.7,1.8,4.4,4.7,4.4
			c1.3,0,2.6-0.4,3.6-1.3l-0.8-1.5c-0.7,0.6-1.6,1-2.5,1c-1.3,0.1-2.5-0.8-2.7-2.2h6.1L64.6,215.5z M52.1,213.5v-1.9h-2.1v8.4h2.1
			v-3.5c-0.1-1.5,1.1-2.8,2.6-2.9c0.1,0,0.2,0,0.3,0v-2.2C53.6,211.5,52.5,212.3,52.1,213.5 M43.4,218.3h-2v-3.5h2
			c1.1,0,2,0.5,2,1.7S44.5,218.3,43.4,218.3 M42.9,210.1c1.2,0,2,0.5,2,1.7s-0.8,1.7-2,1.7h-1.5v-3.3H42.9z M45.3,214
			c1.2-0.3,2-1.4,1.9-2.6c0-2.2-1.7-3.1-4-3.1h-4v11.8h4.4c2.5,0,4.1-1.1,4.1-3.3C47.8,215.3,46.7,214.1,45.3,214 M28.3,218.4
			c-1.4,0-2.2-1-2.2-2.6c0-1.6,0.8-2.6,2.2-2.6c1.4,0,2.2,1.2,2.2,2.6c0.1,1.3-0.8,2.4-2,2.6C28.4,218.4,28.3,218.4,28.3,218.4
			 M30.3,207.7v5c-0.6-0.9-1.6-1.3-2.6-1.3c-2.2,0-3.9,1.6-3.9,4.5c0,2.8,1.7,4.5,3.9,4.5c1.1,0.1,2.2-0.5,2.8-1.5l0,1.2h2v-12.4
			L30.3,207.7z M19.5,220.1h2.1v-12.4h-2.1V220.1z M12.8,218.4c-1.3,0-2.2-1-2.2-2.6c0-1.6,0.9-2.6,2.2-2.6s2.2,1,2.2,2.6
			C15,217.4,14.1,218.4,12.8,218.4 M12.8,220.3c2.5,0,4.5-2,4.5-4.5s-2-4.5-4.5-4.5c-2.5,0-4.5,2-4.5,4.5c0,0,0,0,0,0
			c-0.1,2.4,1.8,4.4,4.2,4.5C12.6,220.3,12.7,220.3,12.8,220.3 M3,220.3c1.5,0.1,2.9-0.4,4-1.4L6.3,217c-0.8,0.8-1.9,1.3-3.1,1.2
			c-1.9,0-3.6-1.4-3.6-4c0-2.7,1.8-4,3.6-4c1,0,2,0.4,2.8,1.1l0.7-2c-1.1-0.8-2.4-1.2-3.8-1.2c-3.2,0-5.6,2.3-5.6,6.1
			C-2.7,218-0.3,220.3,3,220.3 M-11.5,211.4c-1.2,0-2.3,0.5-3,1.5v-5.2h-2.1v12.4h2.1v-5.5c0.4-0.8,1.2-1.3,2.1-1.4
			c1.1,0,1.6,0.6,1.6,1.9v5h2.1v-5.7C-8.7,212.5-9.6,211.4-11.5,211.4 M-21.6,220.3c1.1,0,2.2-0.3,3.1-1l-0.6-1.7
			c-0.6,0.5-1.4,0.7-2.2,0.7c-1.3,0-2.4-1-2.4-2.3c0-0.1,0-0.1,0-0.2c-0.1-1.3,0.9-2.4,2.1-2.5c0.1,0,0.1,0,0.2,0
			c0.7,0,1.5,0.2,2.1,0.7l0.6-1.7c-0.8-0.6-1.8-0.9-2.9-0.9c-2.3-0.1-4.3,1.7-4.4,4c0,0.1,0,0.3,0,0.4c-0.2,2.3,1.5,4.3,3.8,4.5
			C-22,220.3-21.8,220.3-21.6,220.3 M-31,211.4c-1.2,0-2.3,0.5-3,1.5v-1.2h-2.1v8.4h2.1v-5.3c0.4-0.9,1.2-1.4,2.1-1.5
			c1.1,0,1.6,0.6,1.6,1.9v5h2.1v-5.7C-28.2,212.5-29.1,211.4-31,211.4 M-42.5,220.3c2.3,0,3.8-1,3.8-3.7v-5h-2.1v5.1
			c0,1.2-0.5,1.9-1.7,1.9s-1.7-0.7-1.7-1.9v-5.1h-2.1v5C-46.3,219.4-44.8,220.3-42.5,220.3 M-51,213.5v-1.9h-2.1v8.4h2.1v-3.5
			c-0.1-1.5,1.1-2.8,2.6-2.9c0.1,0,0.2,0,0.3,0v-2.2C-49.4,211.5-50.6,212.3-51,213.5 M-59.1,220.3c1.5,0.1,2.9-0.4,4-1.4l-0.7-1.9
			c-0.8,0.8-1.9,1.3-3.1,1.2c-1.9,0-3.6-1.4-3.6-4c0-2.7,1.8-4,3.6-4c1,0,2,0.4,2.8,1.1l0.7-2c-1.1-0.8-2.4-1.2-3.8-1.2
			c-3.2,0-5.6,2.4-5.6,6.1C-64.8,218-62.4,220.3-59.1,220.3 M-70.1,218.4c-0.4,0.1-0.7,0.1-1.1,0.1c-0.9,0-1.4-0.2-1.4-1.2v-3.9h2.3
			v-1.7h-2.3v-2.5l-2.1,0.4v2.1H-76v1.7h1.3v4.2c0,1.8,0.7,2.7,2.8,2.7c0.6,0,1.3-0.1,1.9-0.2L-70.1,218.4z M-81.5,220.3
			c2.3,0,3.8-1,3.8-3.7v-5h-2.1v5.1c0,1.2-0.5,1.9-1.7,1.9s-1.7-0.7-1.7-1.9v-5.1h-2.1v5C-85.4,219.4-83.8,220.3-81.5,220.3
			 M-90,208.3v7.7l-5.2-7.7h-2.3v11.8h2v-8.3l5.3,8.3h2.2v-11.8L-90,208.3z M-107.7,213.1c1.1,0,1.9,0.9,1.9,1.9c0,0,0,0,0,0h-3.9
			C-109.7,214-108.8,213.1-107.7,213.1 M-103.6,215.5c0.1-2.1-1.5-4-3.6-4.1c-0.2,0-0.3,0-0.5,0c-2.4,0-4.3,1.9-4.3,4.2
			c0,0.1,0,0.2,0,0.3c0,2.7,1.8,4.4,4.7,4.4c1.3,0,2.6-0.4,3.6-1.3l-0.8-1.5c-0.7,0.6-1.6,1-2.5,1c-1.3,0.1-2.5-0.8-2.7-2.2h6.1
			L-103.6,215.5z M-117.7,213.1c1.1,0,1.9,0.9,1.9,1.9c0,0,0,0,0,0h-3.9C-119.6,214-118.8,213.1-117.7,213.1 M-113.6,215.5
			c0.1-2.1-1.5-4-3.6-4.1c-0.2,0-0.3,0-0.5,0c-2.4,0-4.3,1.9-4.3,4.2c0,0.1,0,0.2,0,0.3c0,2.7,1.8,4.4,4.7,4.4
			c1.3,0,2.6-0.4,3.6-1.3l-0.8-1.5c-0.7,0.6-1.6,1-2.5,1c-1.3,0.1-2.5-0.8-2.7-2.2h6.1L-113.6,215.5z M-123.7,209.2
			c0.3,0,0.5,0,0.8,0v-1.7c-0.4-0.1-0.8-0.1-1.3-0.1c-2,0-2.9,1.1-2.9,2.7v1.4h-1.3v1.7h1.3v6.7h2.1v-6.7h2v-1.7h-2v-1.2
			C-125,209.6-124.7,209.2-123.7,209.2 M-130.3,209.2c0.3,0,0.5,0,0.8,0v-1.7c-0.4-0.1-0.8-0.1-1.3-0.1c-2,0-2.9,1.1-2.9,2.7v1.4
			h-1.3v1.7h1.3v6.7h2.1v-6.7h2v-1.7h-2v-1.2C-131.6,209.6-131.2,209.2-130.3,209.2 M-140.9,218.4c-1.3,0-2.2-1-2.2-2.6
			c0-1.6,0.9-2.6,2.2-2.6c1.3,0,2.2,1,2.2,2.6C-138.7,217.4-139.6,218.4-140.9,218.4 M-140.9,220.3c2.5,0,4.5-1.9,4.5-4.4
			c0-2.5-1.9-4.5-4.4-4.5c0,0-0.1,0-0.1,0c-2.5,0-4.5,1.9-4.5,4.4c0,2.5,1.9,4.5,4.4,4.5C-141,220.3-141,220.3-140.9,220.3
			 M-145.8,208.3h-8.2v1.9h3v9.9h2.2v-9.9h3L-145.8,208.3z"/>
		<path id="Path_46100" class="st0" d="M110.3,174.4v23h2.3v-5.7h4.4v-2.1h-4.4v-3.9h3.7v-2.2h-3.7v-3.4h4.1V178h-4.1v-3.6H110.3z
			 M96.8,178.1h2.3v13h-2.3V178.1z M101.3,176.1h-6.6v19.4h2.2v-2.2h4.4v-3.6l0.7,1.6c1.3-0.3,2.5-0.7,3.8-1.2
			c-0.1,0.6-0.3,1.1-0.7,1.7c-1,1.6-2.3,2.9-3.9,3.9l1.9,1.7c1.7-1.3,3.2-2.9,4.2-4.8c0.8-1.9,1.2-3.9,1.1-6v-12.1H106v3.6h-3.8v2.2
			h3.8v3h-3.7v2.2h3.7v1.2c0,0.4,0,0.8,0,1.2c-1.6,0.6-3.1,1-4.8,1.4L101.3,176.1z M86.9,177.9h1.8v15.2h-1.8V177.9z M90.8,176h-6.1
			v20.9h2.2V195h1.8v1.7h2.2L90.8,176z M76,179v2h1.8c-0.1,2.6-0.3,5.2-0.7,7.8c-0.4,2.3-1.1,4.5-2.2,6.6l1.5,1.9
			c1.5-2.6,2.4-5.5,2.8-8.5c0.3-2.1,0.5-4.7,0.7-7.8h1.6c0,6.7-0.1,10.7-0.1,11.9c-0.1,1-0.3,1.5-0.7,1.5c-0.8,0-1.5-0.1-2.3-0.2
			l0.4,2.4c0.7,0.1,1.3,0.1,1.9,0.1c0.7,0.1,1.5-0.2,2-0.7c0.4-0.7,0.6-1.5,0.6-2.3c0.2-1.5,0.2-6.4,0.2-14.6H80
			c0-1.3,0.1-2.8,0.1-4.3h-2.2c0,1.6-0.1,3-0.1,4.3L76,179z M71.5,178.1h1.9v13.6h-1.9V178.1z M75.3,176.3h-5.8v19.6h2v-2.3h3.8
			L75.3,176.3z M43.3,191.2v2.1h10.1v4.2h2.4v-4.2h10.5v-2.1H55.8v-2h-2.4v2H43.3z M55.2,179.5l-2.3,0.3c0.3,0.6,0.6,1.2,0.9,1.8H44
			v2.1h5.3c-0.2,0.8-0.7,1.5-1.2,2.1c-1.2,1.3-2.6,2.4-4.1,3.3l1.8,1.6c1.3-0.9,2.6-1.9,3.7-3c1.1,0.7,2,1.5,2.9,2.4l1.3-2
			c-0.9-0.7-1.9-1.4-2.9-2c0.4-0.7,0.7-1.5,0.9-2.3h7.1c-0.3,0.6-0.7,1.2-1.1,1.8c-0.8,0.9-1.8,1.8-2.8,2.5l1.9,1.7
			c0.9-0.7,1.7-1.5,2.4-2.4c1.7,0.8,3.3,1.9,4.7,3.1l1.4-2.1c-1.5-1.1-3.2-2-4.9-2.8c0.3-0.5,0.6-1.1,0.9-1.8h4.3v-2.1H56
			C55.8,180.8,55.5,180.1,55.2,179.5 M55.1,176.4v2.1h3.2v2.2h2.3v-2.2h5.6v-2.1h-5.6v-2h-2.3v2H55.1z M43.4,176.4v2.1H49v2.1h2.3
			v-2.1h2.9v-2.1h-2.9v-2H49v2H43.4z M24.9,185.7v2.2h10.8c-0.4,0.7-0.9,1.3-1.5,1.9c-0.8,0.9-1.8,1.7-2.8,2.5
			c-1.1-0.6-2.3-1.2-3.5-1.8l-1.4,2.1c3,1.4,5.7,3.2,8.2,5.4l1.6-2.5c-0.9-0.6-1.7-1.2-2.6-1.8c0.8-0.6,1.6-1.3,2.3-2.1
			c1.1-1.2,2-2.5,2.8-3.9v-2L24.9,185.7z M30.8,180.2l-1.8,1.7c1.2,1,2.3,2,3.2,3.2l1.9-1.9C33.2,182.1,32,181.1,30.8,180.2
			 M31.4,174.5h-1.4c-0.7,1.6-1.6,3.1-2.7,4.4c-1.4,1.6-3.1,3-5,4l1.3,2.2c1.8-1,3.5-2.3,5-3.8c1.2-1.3,2.1-2.8,2.9-4.3
			c1.1,1.9,2.4,3.7,4,5.3c1.3,1.2,2.7,2.2,4.4,2.8l1.5-2.2c-1.7-0.6-3.2-1.6-4.4-2.8c-1.6-1.6-3-3.5-4-5.5L31.4,174.5z M21.8,185.9
			c-1,3-2.3,5.9-3.9,8.6l1.9,2.2c1.7-3,3.1-6.1,4.1-9.3L21.8,185.9z M20.2,175.6l-1.9,1.8c1.4,0.9,2.7,2,3.8,3.2l2.1-2.1
			C22.9,177.4,21.6,176.4,20.2,175.6 M2.2,177.8v2.1h4.9v3.4H1.2v2.2h4.7c-1.4,2.9-3.3,5.5-5.7,7.6l1.5,2.2c2.3-2.3,4.1-5,5.4-7.9
			v10.1h2.3v-10.3c0.3,1.1,0.8,2.1,1.3,3.1c0.9,1.8,2,3.5,3.3,5.1l1.7-2.2c-1.2-1.2-2.3-2.6-3.2-4c-0.7-1.2-1.3-2.5-1.8-3.8h4.7
			v-2.2h-6v-3.4h5.2v-2.1H9.4v-3.4H7.1v3.4H2.2z M-4.2,178.1h2.6v12h-2.6V178.1z M0.5,176h-6.8v19h2.1v-2.7h4.7V176z M-22.9,188.6
			h-2.3v-3.7h2.3V188.6z M-18.3,188.6h-2.4v-3.7h2.4V188.6z M-27.7,178.8v2.1h4.8v2.1h-4.3v7.6h4.3v3.3c-1.7,0.1-3.6,0.1-5.7,0.1
			l0.7,2.4c3.6-0.2,7.2-0.6,10.8-1.2c0.2,0.5,0.4,1,0.6,1.5l1.9-0.8c-0.7-1.6-1.5-3.2-2.4-4.7l-1.9,0.6c0.3,0.5,0.6,1,0.9,1.5
			c-0.8,0.2-1.7,0.3-2.6,0.4v-3.1h4.4v-7.6h-4.4v-2.1h5v-2.1L-27.7,178.8z M-29.8,175.2h-1.1v10.5c0,1.7-0.1,3.4-0.3,5.1
			c-0.3,1.8-0.8,3.5-1.5,5.1l2,1.8c0.8-2,1.4-4.1,1.7-6.2c0.3-1.9,0.4-3.8,0.4-5.8v-8.3h13.7v11.6c0,3.9,0.4,6.3,1.3,7.3
			c0.5,0.6,1.2,0.9,1.9,0.9c0.5,0,0.9-0.3,1.2-0.7c0.6-1.2,1-2.6,1.2-4l-1.7-1c-0.4,1.9-0.6,2.8-0.9,2.8c-0.1,0-0.3-0.2-0.4-0.6
			c-0.3-0.4-0.4-2-0.4-4.9v-13.7H-29.8z M-45.3,177.5h5.9v2.1h-5.9V177.5z M-53.4,177.5h5.7v2.1h-5.7L-53.4,177.5z M-47.7,183.4
			h-5.7v-2h5.7V183.4z M-39.4,183.4h-5.9v-2h5.9V183.4z M-55.6,175.5v10h7.9v1.6h-10.2v2.1h7.5c-0.7,0.9-1.5,1.7-2.4,2.4
			c-1.6,1.3-3.4,2.3-5.3,3.2l1.2,2.1c2.5-1.2,4.7-2.8,6.7-4.7c0.9-0.9,1.6-1.8,2.2-2.9h0.4v8.3h2.3v-8.3h0.4
			c0.8,1.3,1.7,2.4,2.8,3.4c1.7,1.5,3.6,2.8,5.6,3.9l1.6-2c-1.7-0.8-3.4-1.7-5-2.9c-0.9-0.7-1.8-1.5-2.6-2.4h7.4V187h-10.2v-1.6h8.1
			v-10H-55.6z M-62.6,184.3c-1.5,2.6-3.5,4.9-5.7,6.8c-2.4,1.8-5.1,3.3-8,4.3l1.3,2c3-1,5.7-2.5,8.2-4.4l0,0
			c1.8,1.3,3.4,2.9,4.8,4.6l1.8-1.8c-1.5-1.6-3.2-3-4.9-4.4c1.8-1.8,3.3-3.8,4.5-6L-62.6,184.3z M-67.3,174.4l-2.4,0.3
			c0.4,0.7,0.8,1.4,1.1,2.2h-6.1v2.2h4.9c-0.7,1.6-1.6,3.1-2.6,4.4c-0.6,0-1.1,0-1.7,0l0.3,2.2c2.4-0.1,4.3-0.3,5.8-0.4
			c-0.3,0.4-0.7,0.7-1.1,1.1c-1.8,1.5-3.8,2.7-6,3.6l1.2,1.9c2.3-0.8,4.4-2.1,6.3-3.7c2-1.9,3.6-4,4.8-6.4l-1.9-1
			c-0.6,1-1.1,1.9-1.7,2.7c-1,0.1-2.1,0.1-3.3,0.1c1-1.3,1.8-2.8,2.4-4.3h7.2v-2.2h-6C-66.6,176-66.9,175.2-67.3,174.4 M-83,179.2
			v2.1h3.3c-0.9,2.6-2.1,5-3.7,7.2l1,2.7c1.2-1.7,2.1-3.6,2.8-5.5c0,0,0-0.1,0-0.1v11.9h2.2v-12.5c0.6,0.8,1.2,1.8,2,3l1.3-2
			c-1.1-1.3-2.2-2.5-3.2-3.6v-1.1h2.6v-2.1h-2.6v-4.8h-2.2v4.8H-83z M-97.9,175.8v2.2h8.9v5.5h-8.1v10.4c0,0.9,0.3,1.7,0.9,2.4
			c0.5,0.5,1.2,0.7,1.9,0.7h6.2c0.7,0,1.4-0.3,1.7-0.9c0.3-0.5,0.6-2.3,0.8-5.5l-2.2-0.7c0,1.5-0.2,3.1-0.4,4.6
			c-0.1,0.2-0.3,0.3-0.5,0.3h-5.1c-0.3,0-0.6-0.1-0.8-0.3c-0.2-0.3-0.3-0.6-0.3-1v-7.7h8.1v-9.8L-97.9,175.8z M-103.8,181.1h2.8
			c-0.1,2.8-0.7,5.6-1.8,8.2c-0.9-0.6-1.8-1.2-2.8-1.9C-104.8,185.3-104.2,183.2-103.8,181.1 M-108.7,178.8v2.3h2.6
			c-0.5,2.4-1.2,4.7-2.1,7c1.6,1.1,3.1,2.2,4.4,3.2c-1.2,1.7-2.7,3.2-4.4,4.4l1.8,1.9c1.7-1.3,3.2-2.9,4.4-4.7c0,0,0,0,0.1-0.1
			c0.9,0.8,1.8,1.6,2.5,2.3l1.6-1.9c-0.8-0.7-1.8-1.6-3-2.5c0.4-0.8,0.7-1.7,0.9-2.5c0.6-2.3,1-4.7,1.2-7v-2.3h-4.6
			c0.2-1.2,0.5-2.6,0.7-4l-2.4-0.2c-0.2,1.5-0.4,2.9-0.6,4.2L-108.7,178.8z M-124.4,190.6l-1.3,2c1.9,0.9,3.6,2.1,5.2,3.5l1.5-2.4
			C-120.7,192.5-122.5,191.4-124.4,190.6 M-133.5,180.3v2.4h8.4c-0.3,1.8-0.9,3.5-1.7,5.2c-1.7,3-4.1,5.5-7,7.3l1.5,2.4
			c3.3-2.2,5.9-5.2,7.7-8.8c0.9-1.9,1.6-3.9,2-6h0.6c0.9,3.3,2.2,6.4,4,9.3c1.5,2.1,3.4,3.9,5.6,5.3l1.5-2.4c-1.9-1.2-3.6-2.8-5-4.6
			c-1.6-2.4-2.8-5-3.6-7.7h8.1v-2.4h-10.8c0.3-1.9,0.4-3.9,0.4-5.9h-2.5c0,2-0.2,3.9-0.4,5.9H-133.5z"/>
	</g>
</g>
<g id="太妃核果那提" transform="translate(817.171 383.55)">
	<g id="Group_3692" transform="translate(-103.188 -22.956)">
		<path id="Path_42138" class="st0" d="M-144.6,180.5c0.2-2,0.4-4,0.4-6h2.5c0,2-0.1,4-0.4,6h11.1v2.4h-8.3c1.4,3.9,2.6,6.5,3.7,7.9
			c1.4,1.8,3.2,3.4,5.1,4.7l-1.5,2.4c-2.2-1.5-4.2-3.3-5.7-5.5c-1.8-3-3.2-6.2-4.1-9.6h-0.6c-0.4,2.2-1.1,4.3-2,6.2
			c-1.9,3.6-4.6,6.7-8,9l-1.5-2.4c3-1.8,5.5-4.4,7.2-7.5c0.9-1.7,1.5-3.5,1.8-5.3h-8.7v-2.4H-144.6z M-138.7,194.3l-1.5,2.4
			c-1.6-1.5-3.4-2.7-5.3-3.6l1.3-2C-142.3,191.9-140.5,193-138.7,194.3"/>
		<path id="Path_42139" class="st0" d="M-125,178.9c0.3-1.4,0.5-2.8,0.6-4.3l2.4,0.2c-0.2,1.5-0.4,2.9-0.7,4.1h4.7v2.3
			c-0.2,2.4-0.6,4.9-1.2,7.2c-0.2,0.9-0.5,1.8-0.9,2.6c1.2,1,2.2,1.8,3.1,2.6l-1.6,1.9c-0.8-0.8-1.6-1.6-2.6-2.4c0,0,0,0.1-0.1,0.1
			c-1.2,1.8-2.8,3.5-4.5,4.8l-1.8-1.9c1.7-1.2,3.3-2.8,4.5-4.5c-1.4-1-2.9-2.1-4.5-3.3c0.9-2.3,1.7-4.7,2.2-7.2h-2.7v-2.3H-125z
			 M-124.8,187.7c1,0.7,2,1.4,2.8,2c1.1-2.7,1.7-5.6,1.8-8.5h-2.9C-123.5,183.5-124,185.6-124.8,187.7 M-105.5,175.8v10.1h-8.4v8
			c0,0.4,0.1,0.7,0.3,1c0.2,0.2,0.5,0.3,0.8,0.3h5.2c0.2,0,0.4-0.1,0.5-0.3c0.3-1.6,0.4-3.1,0.4-4.7l2.2,0.7
			c-0.3,3.3-0.5,5.2-0.9,5.7c-0.4,0.6-1.1,1-1.8,1h-6.4c-0.7,0.1-1.4-0.2-1.9-0.7c-0.6-0.7-0.9-1.6-0.9-2.5v-10.7h8.4V178h-9.2v-2.2
			H-105.5z"/>
		<path id="Path_42140" class="st0" d="M-98.1,179.3v-4.9h2.2v4.9h2.7v2.1h-2.7v1.1c1.1,1.1,2.2,2.4,3.3,3.7l-1.3,2
			c-0.8-1.2-1.4-2.2-2-3.1v12.9h-2.2v-12.3c0,0,0,0.1,0,0.1c-0.7,2-1.7,3.9-2.9,5.7l-1-2.7c1.6-2.3,2.9-4.8,3.8-7.5h-3.4v-2.1H-98.1
			z M-78.6,185.6c-1.3,2.3-2.8,4.3-4.7,6.2c1.8,1.4,3.5,2.9,5,4.5l-1.8,1.8c-1.5-1.7-3.2-3.3-5-4.7l0,0c-2.5,2-5.4,3.6-8.4,4.6
			l-1.3-2c3-1,5.7-2.5,8.2-4.4c2.4-2,4.4-4.4,5.9-7L-78.6,185.6z M-84.4,176.9h6.2v2.2h-7.4c-0.6,1.6-1.4,3.1-2.4,4.4
			c1.2,0,2.4-0.1,3.4-0.2c0.6-0.8,1.1-1.7,1.7-2.8l1.9,1c-1.3,2.5-2.9,4.7-4.9,6.6c-1.9,1.7-4.1,3-6.5,3.9l-1.2-1.9
			c2.3-0.9,4.4-2.1,6.2-3.7c0.4-0.3,0.8-0.7,1.1-1.1c-1.6,0.2-3.6,0.3-6,0.4l-0.3-2.2c0.6,0,1.2,0,1.8,0c1.1-1.4,2-2.9,2.7-4.5h-5
			v-2.2h6.3c-0.4-0.8-0.7-1.5-1.1-2.2l2.5-0.3C-85.1,175.2-84.7,176.1-84.4,176.9"/>
		<path id="Path_42141" class="st0" d="M-54.4,175.5v10.3h-8.4v1.6h10.5v2.1h-7.6c0.8,0.9,1.7,1.8,2.7,2.5c1.6,1.2,3.3,2.1,5.1,2.9
			l-1.6,2c-2.1-1.1-4-2.5-5.7-4c-1.1-1-2.1-2.2-2.9-3.5h-0.4v8.6h-2.4v-8.6h-0.4c-0.6,1.1-1.3,2.1-2.2,3c-2,2-4.3,3.6-6.9,4.9
			l-1.2-2.1c2-0.9,3.8-2,5.5-3.3c0.9-0.7,1.8-1.5,2.5-2.5h-7.8v-2.1h10.5v-1.6h-8.2v-10.3H-54.4z M-65.2,177.6h-5.9v2.1h5.9V177.6z
			 M-65.2,181.7h-5.9v2h5.9V181.7z M-62.8,179.8h6.1v-2.1h-6.1L-62.8,179.8z M-56.8,181.7h-6.1v2h6.1V181.7z"/>
		<path id="Path_42142" class="st0" d="M-29.2,175.2v14.1c0,3,0.1,4.7,0.4,5c0.2,0.4,0.3,0.6,0.4,0.6c0.3,0,0.5-1,0.9-2.9l1.7,1
			c-0.1,1.4-0.5,2.8-1.2,4.1c-0.3,0.4-0.7,0.7-1.2,0.7c-0.8,0-1.5-0.3-2-0.9c-0.9-1-1.3-3.5-1.3-7.6v-11.9h-14.1v8.6
			c0,2-0.2,4-0.4,5.9c-0.4,2.2-1,4.3-1.8,6.4l-2-1.8c0.7-1.7,1.3-3.4,1.6-5.2c0.2-1.7,0.3-3.5,0.3-5.2v-10.8H-29.2z M-32.3,178.9
			v2.1h-5.1v2.1h4.5v7.9h-4.5v3.2c1-0.1,1.9-0.2,2.7-0.4c-0.3-0.6-0.6-1.1-0.9-1.6l1.9-0.6c1,1.5,1.8,3.2,2.5,4.8l-1.9,0.8
			c-0.2-0.5-0.4-1-0.6-1.5c-3.7,0.6-7.4,1-11.2,1.2l-0.7-2.4c2.2,0,4.1-0.1,5.8-0.2v-3.4h-4.4v-7.9h4.4V181h-4.9v-2.1H-32.3z
			 M-39.8,185.2h-2.3v3.8h2.3L-39.8,185.2z M-35,185.2h-2.4v3.8h2.4V185.2z"/>
		<path id="Path_42143" class="st0" d="M-15.6,192.9h-4.9v2.7h-2.2V176h7.1L-15.6,192.9z M-17.8,178.2h-2.6v12.4h2.6V178.2z
			 M-8.8,177.9v-3.5h2.4v3.5h5.4v2.1h-5.4v3.5h6.2v2.2h-4.9c0.5,1.3,1.1,2.6,1.9,3.9c1,1.5,2.1,2.9,3.3,4.1l-1.7,2.2
			c-1.3-1.6-2.5-3.4-3.4-5.3c-0.5-1-1-2.1-1.3-3.2v10.6h-2.4v-10.4c-1.3,3-3.2,5.8-5.6,8.1l-1.5-2.2c2.5-2.2,4.5-4.9,5.9-7.9h-4.9
			v-2.2h6.1V180h-5.1v-2.1H-8.8z"/>
		<path id="Path_42144" class="st0" d="M13.8,175.4c0,10.5-0.1,16.7-0.3,18.6c0,1.1-0.3,2.1-0.8,3c-0.7,0.7-1.6,1-2.5,0.9
			c-0.6,0-1.3-0.1-2.1-0.1l-0.4-2.7c0.8,0.1,1.7,0.2,2.5,0.2c0.6,0,1-0.6,1.1-1.9c0.1-0.7,0.1-2,0.1-4H8.1c-0.1,0.8-0.3,1.5-0.5,2.2
			c-0.8,2.3-1.9,4.5-3.5,6.4l-1.9-1.7c1.4-1.5,2.5-3.4,3.2-5.4c0.2-0.5,0.3-1,0.4-1.5H3v-2.2h3.1c0.1-1,0.1-2.1,0.1-3.4v-0.3H3v-2.2
			h3.2v-3.4H3.1v-2.3H13.8z M8.6,183.7c0,1.2-0.1,2.4-0.2,3.4h3c0-1.1,0-2.4,0.1-3.7H8.6L8.6,183.7z M8.6,181.2h2.9v-3.4H8.6V181.2z
			 M25.5,175.4v1.8c-0.9,2.7-1.9,5.3-3,7.9c1,1,1.8,2.2,2.4,3.5c0.4,0.8,0.7,1.7,0.7,2.6c0.1,1.3-0.2,2.5-1,3.6
			c-0.6,0.8-2.2,1.2-4.8,1.2l-0.7-2.5c0.7,0.1,1.5,0.2,2.2,0.2c0.6,0,1.1-0.2,1.5-0.6c0.3-0.6,0.4-1.2,0.3-1.8c0-0.7-0.2-1.4-0.5-2
			c-0.8-1.4-1.7-2.8-2.6-4.1c1.1-2.4,2-4.9,2.8-7.5h-4.6v20.5h-2.3v-22.7H25.5z"/>
		<path id="Path_42145" class="st0" d="M31.3,181.3v-6.7h2.3v6.7h2.8v2.2h-2.8v7.4c0.9-0.4,1.8-0.8,2.7-1.2v2.3
			c-2.4,1.2-4.9,2.2-7.5,3.1l-0.6-2.6c1-0.2,2-0.5,3-0.8v-8.2h-2.7v-2.2H31.3z M51.9,186v2.1H45v2.3h6v2h-6v2.7c1,0.1,2,0.1,3,0.1
			c1.5,0,2.9,0,4.4-0.2l-0.7,2.4c-5.6,0-9-0.3-10.1-0.8c-1.1-0.5-2.1-1.4-2.7-2.5c-0.8,1.4-1.8,2.7-2.9,3.8l-1.8-1.6
			c1.1-1.1,2.1-2.4,2.9-3.8c0.6-1.2,0.9-2.4,1.1-3.7l2.3,0.3c-0.1,1-0.3,1.9-0.6,2.9c0.6,1.1,1.5,2,2.7,2.5c0.1,0,0.2,0.1,0.3,0.1
			v-6.6h-6.6V186H51.9z M50.5,184.4H37.6v-9.1h12.9L50.5,184.4z M48.2,177.2h-8.3v1.7h8.3V177.2z M48.2,180.8h-8.3v1.7h8.3V180.8z"
			/>
		<path id="Path_42146" class="st0" d="M-133.9,210.9h-2.8v9.2h-2v-9.2h-2.8v-1.7h7.6V210.9z"/>
		<path id="Path_42147" class="st0" d="M-132.5,216.1c0-2.3,1.9-4.2,4.2-4.2c2.3,0,4.2,1.9,4.2,4.2s-1.9,4.2-4.2,4.2c0,0,0,0,0,0
			c-2.2,0.1-4.1-1.7-4.2-3.9C-132.5,216.3-132.5,216.2-132.5,216.1 M-126.3,216.1c0-1.5-0.9-2.4-2.1-2.4s-2.1,0.9-2.1,2.4
			c-0.2,1.1,0.6,2.2,1.7,2.4c1.1,0.2,2.2-0.6,2.4-1.7C-126.2,216.6-126.2,216.4-126.3,216.1"/>
		<path id="Path_42148" class="st0" d="M-119.6,211.1v1.1h1.8v1.6h-1.8v6.3h-2v-6.3h-1.2v-1.6h1.2v-1.3c0-1.5,0.9-2.5,2.7-2.5
			c0.4,0,0.8,0,1.2,0.1v1.6c-0.2,0-0.5,0-0.7,0C-119.2,210-119.6,210.3-119.6,211.1"/>
		<path id="Path_42149" class="st0" d="M-113.5,211.1v1.1h1.8v1.6h-1.8v6.3h-2v-6.3h-1.2v-1.6h1.2v-1.3c0-1.5,0.9-2.5,2.7-2.5
			c0.4,0,0.8,0,1.2,0.1v1.6c-0.2,0-0.5,0-0.7,0C-113.1,210-113.5,210.3-113.5,211.1"/>
		<path id="Path_42150" class="st0" d="M-102.6,216.5h-5.7c0.1,1.2,1.2,2.2,2.5,2c0.9,0,1.7-0.3,2.3-0.9l0.8,1.4
			c-0.9,0.8-2.1,1.3-3.4,1.2c-2.6,0-4.4-1.6-4.4-4.1c-0.1-2.2,1.5-4.1,3.7-4.2c0.1,0,0.2,0,0.3,0c2-0.1,3.7,1.4,3.8,3.4
			c0,0.2,0,0.3,0,0.5L-102.6,216.5z M-108.3,215.4h3.7c0-1-0.8-1.8-1.8-1.8c0,0,0,0,0,0C-107.4,213.6-108.2,214.4-108.3,215.4"/>
		<path id="Path_42151" class="st0" d="M-93.3,216.5H-99c0.1,1.2,1.2,2.2,2.5,2c0.9,0,1.7-0.3,2.3-0.9l0.8,1.4
			c-0.9,0.8-2.1,1.3-3.4,1.2c-2.6,0-4.4-1.6-4.4-4.1c-0.1-2.2,1.5-4.1,3.7-4.2c0.1,0,0.2,0,0.3,0c2-0.1,3.7,1.4,3.8,3.4
			c0,0.2,0,0.3,0,0.5L-93.3,216.5z M-99,215.4h3.7c0-1-0.8-1.8-1.8-1.8c0,0,0,0,0,0C-98.1,213.6-98.9,214.4-99,215.4"/>
		<path id="Path_42152" class="st0" d="M-78.7,209.1v11h-2l-5-7.7v7.7h-1.9v-11h2.1l4.9,7.2v-7.2H-78.7z"/>
		<path id="Path_42153" class="st0" d="M-76.1,216.9v-4.7h2v4.7c0,1.1,0.5,1.7,1.6,1.7s1.6-0.7,1.6-1.7v-4.7h2v4.7
			c0,2.5-1.4,3.4-3.6,3.4S-76.1,219.4-76.1,216.9"/>
		<path id="Path_42154" class="st0" d="M-61.9,220.1c-0.6,0.1-1.2,0.2-1.7,0.2c-2,0-2.6-0.8-2.6-2.6v-4h-1.2v-1.6h1.2v-1.9l2-0.4
			v2.3h2.1v1.6h-2.1v3.6c0,1,0.5,1.2,1.3,1.2c0.3,0,0.7,0,1-0.1L-61.9,220.1z"/>
		<path id="Path_42155" class="st0" d="M-56.9,214.6c0-3.5,2.3-5.7,5.3-5.7c1.3,0,2.5,0.3,3.5,1.1l-0.6,1.8c-0.7-0.7-1.7-1-2.6-1
			c-1.9,0-3.4,1.6-3.4,3.4c0,0.1,0,0.2,0,0.3c0,2.5,1.6,3.8,3.4,3.8c1.1,0,2.1-0.4,2.9-1.2l0.6,1.8c-1,0.9-2.4,1.4-3.7,1.3
			C-54.6,220.3-56.9,218.1-56.9,214.6"/>
		<path id="Path_42156" class="st0" d="M-41.3,212.1v2.1c-1.4-0.1-2.6,1-2.7,2.4c0,0.1,0,0.2,0,0.3v3.3h-2v-7.9h2v1.7
			C-43.6,212.8-42.5,212.1-41.3,212.1"/>
		<path id="Path_42157" class="st0" d="M-39.5,216.9v-4.7h2v4.7c0,1.1,0.5,1.7,1.6,1.7s1.6-0.7,1.6-1.7v-4.7h2v4.7
			c0,2.5-1.4,3.4-3.6,3.4S-39.5,219.4-39.5,216.9"/>
		<path id="Path_42158" class="st0" d="M-22.6,214.8v5.3h-2v-4.6c0-1.2-0.5-1.8-1.5-1.8c-0.9,0.1-1.6,0.6-1.9,1.4v5h-2v-7.9h2v1.2
			c0.6-0.9,1.7-1.4,2.8-1.4C-23.4,212-22.6,213-22.6,214.8"/>
		<path id="Path_42159" class="st0" d="M-20.5,216.1c-0.1-2.2,1.5-4,3.7-4.2c0.1,0,0.3,0,0.4,0c1,0,1.9,0.3,2.7,0.8l-0.6,1.6
			c-0.6-0.4-1.2-0.7-1.9-0.6c-1.2,0-2.2,0.9-2.2,2.1c0,0.1,0,0.1,0,0.2c-0.1,1.2,0.9,2.3,2.1,2.4c0.1,0,0.1,0,0.2,0
			c0.7,0,1.4-0.2,2-0.7l0.6,1.6c-0.8,0.6-1.8,1-2.9,0.9c-2.1,0.1-4-1.5-4.1-3.6C-20.5,216.5-20.5,216.3-20.5,216.1"/>
		<path id="Path_42160" class="st0" d="M-4.4,214.8v5.3h-2v-4.6c0-1.2-0.5-1.8-1.5-1.8c-0.8,0-1.6,0.5-1.9,1.3v5.1h-2v-11.6h2v4.9
			c0.6-0.9,1.7-1.4,2.8-1.4C-5.2,212-4.4,213-4.4,214.8"/>
		<path id="Path_42161" class="st0" d="M7.6,218.3v1.7H1.9v-11H4v9.2L7.6,218.3z"/>
		<path id="Path_42162" class="st0" d="M14.4,220.1c-0.1-0.3-0.2-0.6-0.2-0.9c-0.7,0.7-1.6,1.1-2.6,1.1c-1.4,0-2.6-0.6-2.6-2.3
			c0-1.9,1.7-2.8,5.1-2.8v-0.3c0-0.9-0.5-1.3-1.6-1.3c-0.9,0-1.7,0.3-2.3,1l-0.9-1.2c0.9-0.9,2.1-1.4,3.4-1.4c1.7,0,3.3,0.6,3.3,3.1
			v4c0,0.4,0,0.7,0.2,1.1L14.4,220.1z M14.3,217.8v-1.5c-1.9,0-3,0.5-3,1.5c0,0.6,0.4,1,1.1,1C13.1,218.8,13.8,218.5,14.3,217.8"/>
		<path id="Path_42163" class="st0" d="M23.5,220.1c-0.6,0.1-1.2,0.2-1.7,0.2c-2,0-2.6-0.8-2.6-2.6v-4H18v-1.6h1.2v-1.9l2-0.4v2.3
			h2.1v1.6h-2.1v3.6c0,1,0.5,1.2,1.3,1.2c0.3,0,0.7,0,1-0.1L23.5,220.1z"/>
		<path id="Path_42164" class="st0" d="M30.2,220.1c-0.6,0.1-1.2,0.2-1.7,0.2c-2,0-2.6-0.8-2.6-2.6v-4h-1.2v-1.6h1.2v-1.9l2-0.4v2.3
			H30v1.6h-2.1v3.6c0,1,0.5,1.2,1.3,1.2c0.3,0,0.7,0,1-0.1L30.2,220.1z"/>
		<path id="Path_42165" class="st0" d="M39.4,216.5h-5.7c0.1,1.2,1.2,2.2,2.5,2c0.9,0,1.7-0.3,2.3-0.9l0.8,1.4
			c-0.9,0.8-2.1,1.3-3.4,1.2c-2.6,0-4.4-1.6-4.4-4.1c-0.1-2.2,1.5-4.1,3.7-4.2c0.1,0,0.2,0,0.3,0c2-0.1,3.7,1.4,3.8,3.4
			c0,0.2,0,0.3,0,0.5L39.4,216.5z M33.7,215.4h3.7c0-1-0.8-1.8-1.8-1.8c0,0,0,0,0,0C34.6,213.6,33.8,214.4,33.7,215.4"/>
	</g>
</g>
<g id="薄荷風味摩卡" transform="translate(1131.122 383.548)">
	<g id="Group_5575" transform="translate(-73.567 -22.955)">
		<path id="Path_46133" class="st0" d="M-10.9,216.1c-0.7,0-1.2-0.4-1.2-1c0-1,1.2-1.5,3-1.5v1.5C-9.4,215.7-10.2,216.1-10.9,216.1
			 M-6.9,217.4C-7,217-7,216.7-7,216.3v-4c0-2.4-1.6-3.1-3.3-3.1c-1.3,0-2.5,0.5-3.4,1.4l0.9,1.2c0.6-0.6,1.4-1,2.3-1
			c1,0,1.6,0.5,1.6,1.4v0.3c-3.5,0.1-5.2,0.9-5.2,2.9c0,1.7,1.2,2.3,2.6,2.3c1,0,1.9-0.4,2.6-1.2c0,0.3,0.1,0.6,0.2,0.9L-6.9,217.4z
			 M-18.9,209.2c-1.1,0-2.2,0.5-2.8,1.4v-4.9h-2v11.7h2v-5.1c0.4-0.8,1.1-1.3,2-1.3c1,0,1.5,0.5,1.5,1.8v4.7h2V212
			C-16.3,210.3-17.1,209.2-18.9,209.2 M-28.4,217.6c1,0,2.1-0.3,2.9-0.9l-0.6-1.6c-0.6,0.5-1.3,0.7-2,0.7c-1.2,0-2.3-1-2.3-2.2
			c0-0.1,0-0.1,0-0.2c-0.1-1.2,0.8-2.3,2-2.3c0.1,0,0.1,0,0.2,0c0.7,0,1.4,0.2,1.9,0.6l0.6-1.6c-0.8-0.6-1.7-0.9-2.7-0.8
			c-2.2-0.1-4.1,1.6-4.2,3.8c0,0.1,0,0.3,0,0.4c-0.2,2.2,1.4,4.1,3.6,4.2C-28.8,217.6-28.6,217.6-28.4,217.6 M-38.3,215.8
			c-1.2,0-2.1-1-2.1-2.2c0-0.1,0-0.2,0-0.3c0-1.5,0.9-2.4,2.1-2.4s2.1,0.9,2.1,2.4c0.2,1.2-0.7,2.2-1.8,2.4
			C-38.1,215.8-38.2,215.8-38.3,215.8 M-38.3,217.6c2.3,0,4.2-1.9,4.2-4.2c0-2.3-1.9-4.2-4.2-4.2c-2.3,0-4.2,1.9-4.2,4.2
			c-0.1,2.3,1.7,4.1,3.9,4.2C-38.5,217.6-38.4,217.6-38.3,217.6 M-44.3,217.4l-1.3-11.1h-2.2l-3.1,7.9l-3.1-7.9h-2.2l-1.3,11.1h1.9
			l0.9-7.8l3,7.8h1.4l2.9-7.8l1,7.8L-44.3,217.4z M-62.8,215.8c-0.3,0.1-0.7,0.1-1,0.1c-0.8,0-1.3-0.2-1.3-1.2V211h2.2v-1.6h-2.2
			v-2.3l-2,0.4v1.9h-1.2v1.6h1.2v4c0,1.7,0.6,2.6,2.6,2.6c0.6,0,1.2-0.1,1.8-0.2L-62.8,215.8z M-72.8,209.2c-1.1,0-2.2,0.5-2.8,1.4
			v-1.2h-2v7.9h2v-5c0.3-0.8,1.1-1.4,2-1.4c1,0,1.5,0.5,1.5,1.8v4.7h2V212C-70.1,210.3-70.9,209.2-72.8,209.2 M-82.4,217.4h2v-7.9
			h-2V217.4z M-81.4,208c0.8,0,1.3-0.4,1.3-1.1c-0.1-0.7-0.7-1.2-1.4-1.1c-0.6,0.1-1.1,0.5-1.1,1.1C-82.7,207.6-82.1,208-81.4,208
			 M-87.9,209.2c-1.2,0-2.3,0.5-3,1.5c-0.4-1-1.4-1.6-2.5-1.5c-1.1-0.1-2.1,0.5-2.6,1.3v-1.1h-2v7.9h2v-5.1c0.3-0.8,1-1.3,1.8-1.3
			c1,0,1.4,0.5,1.4,1.8v4.7h2v-4.9c0.3-0.9,1.1-1.5,2-1.6c1,0,1.4,0.5,1.4,1.8v4.7h2V212C-85.3,210.3-86.1,209.2-87.9,209.2
			 M-102.8,211.2v-1.8h-2v7.9h2v-3.3c-0.1-1.4,1-2.6,2.4-2.7c0.1,0,0.2,0,0.3,0v-2.1C-101.3,209.3-102.4,210.1-102.8,211.2
			 M-110.7,210.8c1,0,1.8,0.8,1.8,1.8c0,0,0,0,0,0h-3.7C-112.5,211.6-111.7,210.8-110.7,210.8 M-106.8,213.1c0.1-2-1.4-3.7-3.4-3.9
			c-0.2,0-0.3,0-0.5,0c-2.2,0-4,1.7-4.1,4c0,0.1,0,0.2,0,0.3c0,2.6,1.7,4.2,4.4,4.2c1.2,0,2.5-0.4,3.4-1.2l-0.8-1.4
			c-0.6,0.6-1.5,0.9-2.4,0.9c-1.3,0.1-2.4-0.8-2.5-2h5.8V213.1z M-120.4,215.9c-1.2-0.1-2.2-1.1-2.1-2.3c0-0.1,0-0.1,0-0.2
			c-0.1-1.2,0.7-2.3,1.9-2.4c0,0,0.1,0,0.1,0c1.3,0,2.1,1,2.1,2.4C-118.3,214.9-119.1,215.9-120.4,215.9 M-119.9,209.2
			c-1.2-0.1-2.3,0.6-2.8,1.7v-1.4h-1.9v10.8h2v-4.1c0.5,0.9,1.6,1.5,2.6,1.4c2.1,0,3.7-1.5,3.7-4.2
			C-116.2,210.8-117.8,209.2-119.9,209.2 M-130.8,215.9c-1.2-0.1-2.2-1.1-2.1-2.3c0-0.1,0-0.1,0-0.2c-0.1-1.2,0.7-2.3,1.9-2.4
			c0,0,0.1,0,0.1,0c1.3,0,2.1,1,2.1,2.4C-128.7,214.9-129.5,215.9-130.8,215.9 M-130.2,209.2c-1.2-0.1-2.3,0.6-2.8,1.7v-1.4h-1.9
			v10.8h2v-4.1c0.5,0.9,1.6,1.5,2.6,1.4c2.1,0,3.7-1.5,3.7-4.2C-126.6,210.8-128.2,209.2-130.2,209.2 M-140.7,210.8
			c1,0,1.8,0.8,1.8,1.8c0,0,0,0,0,0h-3.7C-142.6,211.6-141.8,210.8-140.7,210.8 M-136.9,213.1c0.1-2-1.4-3.7-3.4-3.9
			c-0.2,0-0.3,0-0.5,0c-2.2,0-4,1.7-4.1,4c0,0.1,0,0.2,0,0.3c0,2.6,1.7,4.2,4.4,4.2c1.3,0,2.5-0.4,3.4-1.2l-0.8-1.4
			c-0.6,0.6-1.5,0.9-2.4,0.9c-1.3,0.1-2.4-0.8-2.5-2h5.8V213.1z M-150.6,212.4h-1.3V208h1.3c1.2,0,2.2,0.9,2.3,2.1
			c0,1.2-0.9,2.2-2.1,2.3C-150.6,212.5-150.6,212.5-150.6,212.4 M-150.3,206.3h-3.7v11.1h2.1v-3.3h1.6c2.1,0.2,3.9-1.3,4.1-3.4
			c0-0.2,0-0.4,0-0.6C-146.1,207.5-147.8,206.3-150.3,206.3"/>
		<path id="Path_46134" class="st0" d="M-23.9,174.4v8.5h-7.7v2.3h7.7v11h2.4v-6.8c1.9,1,4.4,2.4,7.5,4.2l1.4-2.1
			c-3-1.7-5.9-3.2-8.9-4.5v-1.7h11.1v-2.3h-11.1v-3.3h9.4v-2.3h-9.4v-2.9H-23.9z M-37,184.9c-4.6,0.6-9.2,0.9-13.8,0.8l0.5,1.7
			c2.2,0,4.3,0,6.2-0.1v1h-7.3v1.6h7.3v1.2h-8.1v1.6h8.1v0.9c0,0.3-0.3,0.5-0.8,0.5c-0.8,0-1.8-0.1-2.9-0.2l0.4,1.9h3.1
			c0.6,0.1,1.3-0.1,1.8-0.5c0.4-0.4,0.6-0.9,0.5-1.5v-1.2h7.8v-1.6h-7.8v-1.2h6.8v-1.6h-6.8v-1.1c2-0.1,4-0.3,6-0.7L-37,184.9z
			 M-37.8,181.2v1.8c0,0.4,0.1,0.8,0.5,1c0.4,0.2,0.8,0.3,1.3,0.3h1.4v-1.3h-1c-0.4,0-0.5-0.1-0.5-0.5v-1.4L-37.8,181.2z
			 M-42.9,181.2c0,1.2-0.3,2.3-0.8,3.4l1.5,0.6c0.5-1.3,0.8-2.6,0.8-4L-42.9,181.2z M-45.7,184.2h1.7v-2.9h-1.7V184.2z M-50.9,181.2
			c0,1.1-0.3,2.3-0.8,3.3l1.5,0.6c0.5-1.2,0.8-2.5,0.8-3.9L-50.9,181.2z M-43.8,174.4l-2.2,0.3c0.2,0.4,0.5,0.8,0.7,1.3h-9.1v8
			c0,1.6-0.1,3.3-0.3,5.2c-0.2,1.8-0.6,3.5-1.2,5.1l1.7,1.6c0.6-2,1.1-4.1,1.4-6.2c0.2-1.9,0.3-3.8,0.4-5.7v-6.3h4v1.2h-3.1v1.6h3.1
			v4.5h1.7v-4.5h2.7v-1.6h-2.7v-1.2h6.1v1.2h-2.9v1.6h2.9v4.2h1.8v-4.2h3.4v-1.6h-3.4v-1.2h4.4V176h-8.8
			C-43.3,175.4-43.5,174.9-43.8,174.4 M-70.5,177.6v1.9h4.6v3.2h-5.5v2h4.5c-1.3,2.7-3.1,5.2-5.4,7.2l1.4,2c2.1-2.2,3.8-4.7,5.1-7.4
			v9.5h2.2v-9.7c0.3,1,0.7,2,1.2,2.9c0.9,1.7,1.9,3.3,3.1,4.8l1.6-2c-1.1-1.1-2.1-2.4-3-3.8c-0.7-1.1-1.2-2.3-1.7-3.5h4.4v-2h-5.6
			v-3.2h4.9v-1.9h-4.9v-3.2h-2.2v3.2H-70.5z M-76.5,177.9h2.4v11.3h-2.4L-76.5,177.9z M-72.1,175.9h-6.4v17.9h2v-2.5h4.4
			L-72.1,175.9z M-94.2,187.8h-2.1v-3.5h2.1L-94.2,187.8z M-89.9,187.8h-2.2v-3.5h2.2L-89.9,187.8z M-98.7,178.5v1.9h4.5v1.9h-4.1
			v7.2h4.1v3.1c-1.6,0.1-3.4,0.1-5.3,0.1l0.6,2.2c3.4-0.2,6.8-0.5,10.2-1.1c0.2,0.4,0.4,0.9,0.6,1.4l1.7-0.7c-0.6-1.5-1.4-3-2.3-4.4
			l-1.8,0.5c0.3,0.4,0.5,0.9,0.8,1.4c-0.7,0.1-1.6,0.3-2.5,0.4v-2.9h4.2v-7.2h-4.2v-1.9h4.7v-1.9H-98.7z M-100.6,175.1h-1v9.9
			c0,1.6-0.1,3.2-0.3,4.8c-0.3,1.7-0.8,3.3-1.4,4.8l1.8,1.7c0.7-1.9,1.3-3.8,1.6-5.8c0.3-1.8,0.4-3.6,0.4-5.4v-7.8h12.9V188
			c0,3.7,0.4,6,1.2,6.9c0.4,0.5,1.1,0.8,1.8,0.8c0.5,0,0.9-0.2,1.1-0.6c0.6-1.2,1-2.4,1.1-3.7l-1.6-0.9c-0.3,1.8-0.6,2.7-0.8,2.7
			c-0.1,0-0.3-0.2-0.4-0.5c-0.2-0.3-0.4-1.9-0.4-4.6v-12.9H-100.6z M-114.2,190.1h-3.7v-2.9h3.7V190.1z M-120,192h7.9v-6.8h-7.9
			L-120,192z M-120.3,181.3v1.9h10.7v10.1c0,0.4-0.3,0.6-0.8,0.6c-0.8,0-1.8-0.1-3-0.2l0.4,2.3h3.1c0.7,0.1,1.3-0.1,1.8-0.5
			c0.4-0.5,0.6-1.1,0.5-1.8v-10.5h1.9v-1.9H-120.3z M-122.8,180.2c-0.9,2.6-2.4,5-4.4,6.9l0.5,2.6c0.8-0.8,1.6-1.6,2.3-2.5v8.9h2.1
			v-12c0.6-1,1.1-2.1,1.5-3.2L-122.8,180.2z M-115.8,176.5v1.9h2.5v1.9h2.2v-1.9h5.5v-1.9h-5.5v-2.1h-2.2v2.1H-115.8z M-127.2,176.5
			v1.9h5.5v1.9h2.2v-1.9h2.6v-1.9h-2.6v-2.1h-2.2v2.1H-127.2z M-136.6,183.3h4.2v0.9h-4.2V183.3z M-142.6,183.3h4v0.9h-4
			L-142.6,183.3z M-136.6,185.6h4.2v0.9h-4.2V185.6z M-142.6,185.6h4v0.9h-4L-142.6,185.6z M-147.8,188.7c-0.8,2-1.9,4-3.2,5.7
			l1.7,1.6c1.5-1.9,2.7-4.1,3.5-6.4L-147.8,188.7z M-149.4,183.4l-1.6,1.5c1.3,0.8,2.6,1.7,3.8,2.7l1.7-1.7
			C-146.8,185-148.1,184.2-149.4,183.4 M-149,178.7l-1.5,1.4c1.2,0.8,2.4,1.7,3.4,2.7l1.6-1.6C-146.6,180.3-147.7,179.5-149,178.7
			 M-139.8,175.8v1.7h2.5v0.7h-1.4v1.2h-6.8v1.6h6.8v0.8h-6v8.3h2V188h4v1.9h2V188h4.2v0.4c0,0.4-0.2,0.5-0.7,0.6l-2.3-0.1l0.3,1.4
			h1v0.5h-11.4v1.7h4.5l-1.1,1c1,0.7,2,1.4,2.9,2.3l1.5-1.5c-0.8-0.7-1.6-1.3-2.5-1.8h6.2v1.2c0,0.3-0.3,0.5-0.8,0.5
			c-0.7,0-1.4-0.1-2-0.2l0.4,2h2.2c0.7,0.1,1.3-0.1,1.8-0.5c0.4-0.4,0.6-1,0.5-1.5v-1.5h2.7v-1.7h-2.7v-0.6c0.4,0,0.7-0.1,1-0.3
			c0.4-0.2,0.6-0.7,0.6-1.1v-6.9h-6.2v-0.8h7.1v-1.6h-1.3c-0.4-0.6-0.8-1.1-1.2-1.6l-1.7,0.6c0.3,0.3,0.5,0.7,0.8,1h-3.6v-0.8h1.6
			v-1.1h5.5v-1.7h-5.5v-1.4h-2.2v1.4L-139.8,175.8z M-151,175.8v1.7h5.5v1.3h2.2v-1.3h2.6v-1.7h-2.6v-1.4h-2.2v1.4L-151,175.8z"/>
	</g>
</g>
</svg>
