<?xml version="1.0" encoding="utf-8"?>
<!-- Generator: Adobe Illustrator 27.0.0, SVG Export Plug-In . SVG Version: 6.00 Build 0)  -->
<svg version="1.1" id="圖層_1" xmlns="http://www.w3.org/2000/svg" xmlns:xlink="http://www.w3.org/1999/xlink" x="0px" y="0px"
	 viewBox="0 0 1326 387" style="enable-background:new 0 0 1326 387;" xml:space="preserve">
<style type="text/css">
	.st0{fill:none;}
	.st1{fill:none;stroke:#FFFFFF;}
	.st2{fill:#FFFFFF;}
</style>
<g id="text-block" transform="translate(1313 64.164)">
	<g id="btn-more" transform="translate(269 335.178)">
		<g id="Rectangle_46">
			<path class="st0" d="M-690-141h54c9.4,0,17,7.6,17,17l0,0c0,9.4-7.6,17-17,17h-54c-9.4,0-17-7.6-17-17l0,0
				C-707-133.4-699.4-141-690-141z"/>
			<path class="st1" d="M-690-140.5h54c9.1,0,16.5,7.4,16.5,16.5l0,0c0,9.1-7.4,16.5-16.5,16.5h-54c-9.1,0-16.5-7.4-16.5-16.5l0,0
				C-706.5-133.1-699.1-140.5-690-140.5z"/>
		</g>
		<path id="Path_49563" class="st2" d="M-679.6-129l-0.4,0.1h-9.7v1.6h8.1c-1,0.9-2.1,1.7-3.2,2.3v6.2c0,0.2-0.1,0.3-0.4,0.3
			s-1.5,0-2.5,0c0.3,0.5,0.5,1.1,0.7,1.7c1,0.1,2,0,3-0.3c0.7-0.3,0.9-0.7,0.9-1.7v-5.4c1.8-1.1,3.4-2.4,4.8-3.9L-679.6-129z
			 M-670.2-125.1c0.3,0.3,0.5,0.6,0.7,1c0.1,0,0.2-0.1,0.3-0.1c-0.1,1-0.5,1.9-1,2.7V-125.1z M-672.4-121.7v-1.2h0.8v1.2H-672.4z
			 M-674.3-122.8h0.8v1.2h-0.8c0-0.3,0-0.6,0-0.9L-674.3-122.8z M-672.8-127.3c-0.1,0.4-0.3,0.7-0.4,1h-1.2c0.2-0.3,0.3-0.7,0.5-1
			H-672.8z M-672.4-125.1h0.8v1h-0.8V-125.1z M-674.3-125.1h0.8v1h-0.8V-125.1z M-663.4-120.6h-2.4v-1.3h2.1v-1.4h-2.1v-1.3h-1.6
			v1.3h-0.7c0.1-0.3,0.1-0.6,0.2-0.9l-1.2-0.3c1.3-0.7,2.1-2,2.2-3.4h1.6c0,0.6,0,1.2-0.3,1.8c-0.1,0.1-0.2,0.2-0.4,0.2
			c-0.2,0-0.6,0-1-0.1c0.2,0.4,0.3,0.9,0.4,1.3c0.5,0,0.9,0,1.4,0c0.3,0,0.6-0.2,0.9-0.5c0.3-0.4,0.4-1.3,0.5-3.6c0-0.2,0-0.5,0-0.5
			h-6.2v1.4h1.6c-0.1,1.1-0.8,2-1.8,2.4v-0.9h-1.6c0.3-0.6,0.5-1.2,0.8-1.8l-1-0.6l-0.2,0.1h-1.3c0.1-0.3,0.2-0.7,0.3-1l-1.5-0.3
			c-0.3,1.6-1,3.1-2.1,4.3c0.4,0.3,0.8,0.6,1.1,0.9v2.1c0,1.6-0.1,3.7-1,5.1c0.4,0.2,0.8,0.4,1.1,0.7c0.6-1.1,1-2.4,1.1-3.7h2.8v2
			c0,0.2-0.1,0.2-0.2,0.2c-0.2,0-0.7,0-1.3,0c0.2,0.4,0.4,0.9,0.5,1.4c0.6,0.1,1.3,0,1.9-0.3c0.4-0.2,0.5-0.7,0.5-1.3v-3
			c0.4,0.2,0.7,0.4,1.1,0.6c0.2-0.3,0.4-0.7,0.6-1.1h1.2v1.3h-2.6v1.4h2.6v2.3h1.6v-2.3h2.4L-663.4-120.6z M-659-120.5v1.6h-1.6
			v-1.6H-659z M-657.6-121.8h-4.3v4.8h1.4v-0.6h3V-121.8z M-661.9-122.5h4.2v-1.3h-4.2V-122.5z M-657.7-125.6h-4.2v1.3h4.2V-125.6z
			 M-658.8-128.1c-0.3-0.6-0.6-1.3-1-1.9l-1.2,0.6c0.3,0.6,0.6,1.2,0.9,1.8h-2.4v1.3h5.3v-1.3h-2.4L-658.8-128.1z M-649.5-121.2h-3
			v-1.5h2.4v-1.5h-2.4v-1.4h2.8v-1.5h-1.5c0.4-0.6,0.9-1.4,1.4-2.1l-1.8-0.6c-0.3,0.8-0.7,1.6-1.1,2.4l0.8,0.3h-2.8l0.7-0.4
			c-0.3-0.8-0.8-1.6-1.3-2.3l-1.4,0.6c0.4,0.7,0.8,1.3,1.1,2.1h-1.4v1.5h2.8v1.4h-2.4v1.5h2.4v1.5h-3v1.5h3v2.8h1.6v-2.8h3V-121.2z
			 M-647.4-123c0.3-1.3,0.6-2.6,0.7-3.9l-1.3-0.2c-0.1,1.2-0.4,2.5-0.7,3.7L-647.4-123z M-641.9-120c0-0.2,0-0.4,0-0.6h4v0.6H-641.9
			z M-637.9-122.6v0.7h-3.9v-0.7H-637.9z M-636.3-123.7h-7.1v2.5c0.1,1.2-0.2,2.4-0.9,3.4c0.4,0.3,0.8,0.7,1.2,1.1
			c0.5-0.6,0.9-1.4,1-2.2h4.2v0.5c0,0.2-0.1,0.2-0.3,0.2s-0.8,0-1.4,0c0.2,0.5,0.4,0.9,0.4,1.4c0.7,0.1,1.5,0,2.1-0.2
			c0.5-0.2,0.7-0.6,0.7-1.3V-123.7z M-639.1-125.4v-0.6h2.6v-1.1h-2.6v-0.6h3.1v-1.2h-3.1v-1h-1.7v1h-3.1v1.2h3.1v0.6h-2.6v1.1h2.6
			v0.6h-3.4l0.8-0.4c-0.2-0.5-0.6-1.5-1-2.2l-0.7,0.3v-2.2h-1.5v13.1h1.5v-9.9c0.2,0.5,0.4,1,0.6,1.5l0.3-0.2v1.2h8.6v-1.2
			L-639.1-125.4z"/>
	</g>
	<g id="Group_3160" transform="translate(126.291 -85.347)">
		<g id="Group_3161">
			<path id="Path_39764" class="st2" d="M-702.7,172.8l-3.1-3.7c2.8-3.3,4.9-7.2,6.2-11.3l4.2,0.9c-0.3,0.9-0.6,1.7-0.9,2.5h9.5
				v-2.9h4.8v2.9h14.3v4.2H-682v3.2h12.7v4H-682v3.2h16.4v4.2h-38.5v-4.2h17.3v-3.2h-12v-4h12v-3.2h-11.3
				C-699.3,168.1-700.9,170.6-702.7,172.8 M-670.3,157.3h-30v-16.8h30V157.3z M-675,144.5h-20.7v2.6h20.7V144.5z M-675,150.7h-20.7
				v2.6h20.7V150.7z"/>
			<path id="Path_39765" class="st2" d="M-623,161.5h-29.8v11.3c0,1.5,0.8,2.3,2.5,2.3h23.3c1,0,1.8-0.7,2.1-1.6
				c0.3-0.7,0.6-3.1,0.9-7l4.6,1.4c-0.2,2.6-0.6,5.1-1.2,7.7c-0.4,2.3-2.5,4-4.9,4.1h-26.8c-3.6,0-5.4-1.6-5.4-4.9v-33.4h34.6V161.5
				z M-652.8,157h10.2v-11.2h-10.2V157z M-627.6,145.8h-10.2V157h10.2V145.8z"/>
			<path id="Path_39766" class="st2" d="M-591.3,139.2v4.3h17.1v4.6h-17.1v3.7h12.1v14.1h-7.4v8.3c0,1,0.5,1.5,1.7,1.5h4.9
				c0.5,0,1.1-0.2,1.5-0.5c0.5-0.4,0.9-1.8,1-4.3l4.5,1.4c-0.5,3.9-1.1,6.2-1.9,6.8c-1.2,0.7-2.5,1.1-3.9,1.1h-7.4
				c-3.3,0-5-1.8-5-5.2v-9.2h-6.1c-0.5,4-1.6,6.9-3.2,8.9c-2.2,2.4-5.7,4.6-10.7,6.5l-3-3.9c4.4-1.4,7.5-2.9,9.3-4.8
				c1.6-1.9,2.6-4.2,2.8-6.6h-6.1v-14.1h12.2V148h-17.1v-4.6h17.1v-4.3H-591.3z M-583.8,156.1h-19.9v5.3h19.9V156.1z"/>
			<path id="Path_39767" class="st2" d="M-554.7,141.5c-2.4,4.9-6.5,9.4-12.3,13.4l-1.4-4.7c4-2.7,7.2-6.4,9.5-10.7L-554.7,141.5z
				 M-552.7,151.9c-1.2,2.4-2.7,4.7-4.5,6.8V181h-4.7v-17.7c-1.5,1.3-3.2,2.5-4.9,3.7l-1.4-4.6c4.7-3.2,8.6-7.5,11.2-12.5
				L-552.7,151.9z M-527,152.8v4.6h-6.9v18.9c0,3-1.7,4.5-5,4.5h-6.5l-1-4.6c2.1,0.2,4.1,0.3,6,0.3c1.2,0,1.9-0.5,1.9-1.4v-17.7
				h-13.5v-4.6H-527z M-529,146.3h-22.2v-4.6h22.2V146.3z"/>
			<path id="Path_39768" class="st2" d="M-490.6,139.4v8.1h8.9c0,15.2-0.2,24.6-0.6,28.2c-0.5,3.3-2.5,5-6.1,5
				c-0.8,0-2.3-0.1-4.3-0.2l-1.1-4.1c1.8,0.1,3.4,0.2,4.7,0.2c1.4,0,2.3-1,2.5-2.9c0.3-2.1,0.4-9.3,0.5-21.8h-4.5v1.5
				c-0.1,12.6-2.8,21.8-8.1,27.6l-2.5-2.2c-6,0.7-12.8,1.3-20.3,1.8l-0.6-4.2c3.2-0.2,6.3-0.4,9.2-0.5v-2.8h-7.6v-3.8h7.6V167h-7.8
				v-14.6h7.8v-1.9h-8.7v-3.9h8.7v-2c-2.3,0.1-4.8,0.2-7.3,0.2l-1.3-3.7c6.4,0.1,12.9-0.5,19.2-1.8l2.1,3.5
				c-2.7,0.7-5.5,1.1-8.3,1.4v2.3h8.5v3.9h-8.5v1.9h7.9V167h-7.9v2.2h7.7v3.8h-7.7v2.5c2.7-0.3,5.3-0.5,7.6-0.8v2
				c3.9-5.2,5.9-13,6-23.3v-1.5h-3.9v-4.3h3.9v-8.1H-490.6z M-512.8,155.7h-3.8v2.4h3.8V155.7z M-512.8,161.2h-3.8v2.3h3.8V161.2z
				 M-508.9,158.1h3.9v-2.4h-3.9V158.1z M-505,161.2h-3.9v2.3h3.9V161.2z"/>
			<path id="Path_39769" class="st2" d="M-467.8,149.8c1.4-1.6,2.6-3.2,3.7-5h-10.4v-4.1h15.2v3.5c-1.7,3-3.7,5.8-6,8.4
				c0.6,0.7,1.2,1.4,1.6,2h6.1v2.8c-0.5,2.8-1.3,5.6-2.4,8.3l-3.7-1.5c0.8-1.7,1.3-3.5,1.8-5.3h-3.5v17.5c0,2.8-1.4,4.3-4,4.3h-4.4
				l-0.9-4.2c1.3,0.2,2.6,0.3,3.8,0.3c0.7,0,1-0.5,1-1.4V159h-6.2v-4.3h7.4c-1.6-1.8-3.6-3.8-5.7-5.9l3.4-2.2
				C-469.8,147.7-468.7,148.8-467.8,149.8 M-449.3,147.5c0.3-0.9,0.6-1.8,0.9-2.7h-8.8v-4.1h22.6v4.1h-9.1c-0.3,0.9-0.5,1.8-0.9,2.7
				h8.4v24.9h-4.9c2.6,1.5,5,3.3,7.3,5.3l-3,3c-2.2-2.3-4.7-4.3-7.4-5.9l2.5-2.4h-8.3l2.7,2.3c-2.6,2.5-5.5,4.6-8.8,6.2l-2.6-3.3
				c2.9-1.3,5.6-3.1,8-5.2h-5v-24.9H-449.3z M-440.7,151.3h-10.6v3.2h10.6L-440.7,151.3z M-440.7,158.1h-10.6v3.4h10.6L-440.7,158.1
				z M-440.7,165.1h-10.6v3.5h10.6L-440.7,165.1z"/>
			<path id="Path_39770" class="st2" d="M-424.7,172c-0.1,3-0.5,6-1.3,9l-3.8-1.2c0.9-2.7,1.4-5.4,1.5-8.3L-424.7,172z
				 M-421.1,159.8v-2.2h-7.4v-17h18.9v17h-7.4v2.2h6.7v3.7h-6.7v2.2h7.7v4.2h-19.6v-4.2h7.8v-2.2h-6.8v-3.7H-421.1z M-420.8,144.1
				h-4v2.3l2.3-0.7c0.7,2.1,1.2,4.3,1.6,6.5l-2.4,0.6c-0.4-2.1-0.9-4.1-1.4-6v7.3h4L-420.8,144.1z M-419.5,180l-3.8,0.5
				c0-3.5-0.1-6.3-0.3-8.2l3.4-0.5C-419.8,174.6-419.5,177.3-419.5,180 M-413.8,179.1l-3.7,0.9c-0.3-2.9-0.7-5.4-1.2-7.6l3.3-0.7
				C-414.8,173.9-414.3,176.4-413.8,179.1 M-413.3,144.1h-4.1v10h4.1V144.1z M-413.6,146c-0.2,2.3-0.6,4.7-1.2,6.9l-2.4-0.9
				c0.6-2.2,0.9-4.5,1.1-6.8L-413.6,146z M-408.8,178l-3.3,1.2c-0.5-2.5-1.1-4.9-1.8-7.3l3.3-0.9
				C-409.8,173.5-409.2,175.8-408.8,178 M-397,139.5v7.8h9.1v4.3h-9.1v6.9h7.3V181h-4.4v-2.1h-9.1v2.1h-4.4v-22.5h6v-19H-397z
				 M-394.2,162.7h-9.1v11.9h9.1V162.7z"/>
			<path id="Path_39771" class="st2" d="M-377.9,170.5h10.2v5.8h-15.8v-3.1c0-10.3,10.4-14.2,10.4-21.3c0-1.8-0.6-3.3-2.3-3.3
				c-1.8,0-2.6,1.5-2.7,5.1v0.7l-5.6,0v-1.4c0-6.5,3.5-9.3,8.2-9.3c4.8,0,8.3,3.4,8.3,9C-367.2,161.2-375.3,163.7-377.9,170.5"/>
			<path id="Path_39772" class="st2" d="M-362.5,173.5c0-1.7,1.3-3.1,3.1-3.2c1.7,0,3.1,1.3,3.2,3.1c0,1.7-1.3,3.1-3.1,3.2
				c0,0,0,0,0,0c-1.6,0.1-3-1.1-3.1-2.7C-362.5,173.7-362.5,173.6-362.5,173.5"/>
			<path id="Path_39773" class="st2" d="M-333.8,160.3c0,13.9-3.7,16.7-8.7,16.7c-4.9,0-8.7-2.8-8.7-16.7s3.8-16.7,8.7-16.7
				C-337.5,143.6-333.8,146.4-333.8,160.3 M-345.1,160.3c0,10.8,0.9,12.1,2.6,12.1c1.7,0,2.5-1.3,2.5-12.1c0-10.8-0.9-12.1-2.5-12.1
				C-344.3,148.2-345.1,149.5-345.1,160.3"/>
		</g>
		<rect id="Rectangle_1842" x="-705.6" y="201.2" class="st2" width="372" height="1"/>
	</g>
	<path id="Path_49562" class="st2" d="M-551.9,143.7h-2.3v-2.4h2.3V143.7z M-548.5,138.6h-8.9v7.9h8.9L-548.5,138.6z M-562.1,143.7
		h-2.1v-2.4h2.1V143.7z M-558.7,138.6h-8.7v7.9h8.7V138.6z M-575.3,154.2c0-1.3,0.1-2.8,0.1-4.2h6.3v-11.3h-10.2v3.7h6.3v3.9h-5.8
		c0,3.7-0.2,8.5-0.4,11.5h6.3c-0.2,4.8-0.6,6.8-1.1,7.3c-0.3,0.3-0.7,0.5-1.2,0.5c-0.7,0-2.1,0-3.5-0.2c0.7,1.2,1.1,2.6,1.2,4.1
		c1.4,0.1,2.7,0,4.1-0.1c1,0,2-0.5,2.6-1.4c1-1.2,1.4-4.4,1.8-12.1c0-0.5,0-1.6,0-1.6H-575.3z M-563.2,157.2v-1.8h3.3v1.8H-563.2z
		 M-563.2,150.8h3.3v1.8h-3.3V150.8z M-552.7,152.6h-3.5v-1.8h3.5V152.6z M-552.7,157.2h-3.5v-1.8h3.5V157.2z M-547.1,161.8h-9v-1.6
		h7.2v-12.4h-18v12.4h6.9v1.6h-8.5v3.4h8.5v4.7h3.8v-4.7h9V161.8z M-519.7,164.8v-7h6.4v-3.9h-6.4v-5.7h7.1v-3.9h-7.1v-6.9h-4.2v6.9
		h-2.8c0.3-1.6,0.6-3.2,0.9-4.9l-4.1-0.6c-0.3,2.9-0.9,5.8-1.9,8.5c-0.6-1.5-1.2-3-1.9-4.4l-2,0.8v-6.6h-4.2v7.1l-2.9-0.4
		c-0.2,3.1-0.8,6.1-1.7,9.1l3.1,1.1c0.9-3,1.4-6.1,1.6-9.3v25h4.2V146c0.6,1.3,1,2.6,1.3,4l2-0.9c-0.4,0.7-0.7,1.4-1.1,2
		c1.3,0.6,2.5,1.2,3.7,1.9c0.8-1.5,1.5-3.2,2-4.8h3.8v5.7h-6.8v3.9h6.8v7h-9.3v4h21.8v-4H-519.7z M-500.8,139
		c-1.3,3-3.3,5.7-5.9,7.8c1.3,0.7,2.5,1.5,3.6,2.4c2.7-2.6,4.9-5.7,6.5-9.1L-500.8,139z M-484.1,156.4h-13.8v-1.5h13.8V156.4z
		 M-497.9,165.5v-1.7h13.8v1.7H-497.9z M-497.9,159.3h13.8v1.7h-13.8V159.3z M-475.7,146.5c-2.2-2.9-4.7-5.6-7.6-7.8l-3.3,2
		c1.5,1.4,3,2.8,4.4,4.4l-3.6-1.6c-1.2,1.3-2.6,2.4-4.1,3.3v-9.5h-4.1v11.5c-4.7,1.7-9.5,2.8-14.4,3.3c1,1.1,1.8,2.3,2.6,3.6
		c1.3-0.2,2.6-0.5,4-0.7v15h4v-1.3h13.8v1.1h4.2v-17.9h-11.8c3.7-1.4,7-3.6,9.7-6.4c1,1,1.9,2.2,2.6,3.4L-475.7,146.5z M-464,143
		v6.2h-3.2V143H-464z M-467.2,159.4v-6.6h3.2v6.6H-467.2z M-460.1,139.3h-11v26.9h3.9v-3.1h7.1V139.3z M-458.1,160.2
		c1.5,1.9,2.8,3.8,4,5.9l3.6-2.1c-1.3-2-2.7-3.8-4.2-5.6L-458.1,160.2z M-439.7,144.6v-3.6h-7.9v-3.7h-4.1v3.7h-7.9v3.6h7.9v3.3
		h-6.8v3.6h11.2v2.7h-12.3v3.6h12.2v7.5c0,0.5-0.2,0.6-0.7,0.6c-0.5,0-2.4,0-4.1-0.1c0.6,1.2,1,2.6,1.3,3.9c2.6,0,4.5-0.1,5.8-0.7
		c1.4-0.6,1.8-1.7,1.8-3.7v-7.6h3.4v-3.6h-3.4v-2.7h2.6v-3.6h-6.9v-3.3H-439.7z M-391.4,149.7h-7.8v-2.2h7.8V149.7z M-391.4,154.7
		h-7.8v-2.2h7.8V154.7z M-391.4,159.8h-7.8v-2.2h7.8V159.8z M-405.6,158.6c0.8-2.1,1.7-5.4,2.4-8.3l-2.5-0.6l-0.6,0.1h-1.7l0.9-1.3
		c-0.7-0.6-1.4-1.2-2.1-1.6c1.9-2,3.5-4.1,5-6.4v1.5h6.6c-0.1,0.8-0.2,1.5-0.4,2.3h-5.1v18.5h15.6v-18.5h-6.3
		c0.2-0.7,0.5-1.5,0.7-2.3h6.6v-3.5h-17.8v1.6l-2.4-1.8l-0.7,0.2H-418v3.6h8.1c-0.7,1-1.4,2-2.2,2.8c-1.1-0.6-2.2-1.2-3.2-1.6
		l-2.1,2.7c2.1,1.1,4.1,2.3,6.1,3.7h-7.5v3.7h5.2v11.8c0,0.4-0.1,0.5-0.6,0.5c-0.5,0-2.1,0-3.6,0c0.6,1.3,1,2.6,1.3,4
		c2.3,0,4.1-0.1,5.4-0.7c1.3-0.6,1.6-1.7,1.6-3.7v-11.9h2.1c-0.4,1.6-0.8,3.3-1.2,4.4L-405.6,158.6z M-399.6,162.9
		c-2.1,1.9-4.6,3.4-7.3,4.3c1,0.8,1.9,1.7,2.8,2.7c2.9-1.1,5.6-2.8,7.9-4.9L-399.6,162.9z M-394.5,165.2c2,1.4,4,3,5.7,4.8l3.3-2.3
		c-1.9-1.6-3.9-3.1-6-4.5L-394.5,165.2z M-367.3,157.8c-0.6-2.5-1.4-5-2.3-7.5l-3.2,0.8c0.3,0.8,0.6,1.7,0.8,2.6l-3.9,0.6
		c2.9-3,5.4-6.2,7.7-9.7l-3.4-2.3c-0.8,1.5-1.8,3-2.7,4.4l-2.9,0.2c2-2.6,3.8-5.3,5.3-8.2l-3.8-1.6c-1.2,3-2.9,5.9-4.8,8.5
		c-0.5,0.8-1.3,1.5-2.2,1.9c0.5,1.2,0.9,2.4,1.3,3.6c1.4-0.5,2.9-0.8,4.4-0.8c-0.8,1-1.7,2-2.6,2.9c-1.2,1.3-2.1,2-3,2.2
		c0.5,1.1,1.1,3,1.3,3.8c0.9-0.4,2.2-0.8,10.2-2c0.2,0.6,0.3,1.2,0.4,1.8L-367.3,157.8z M-380.6,160.2c-0.4,2.7-1.1,5.4-2.2,7.9
		c1.2,0.3,2.4,0.7,3.5,1.2c1-2.7,1.8-5.5,2.2-8.4L-380.6,160.2z M-376.3,160.7c0.5,2.6,0.9,5.2,1,7.9l3.5-0.9
		c-0.2-2.6-0.7-5.2-1.2-7.8L-376.3,160.7z M-372.1,160c0.9,2.1,1.5,4.4,2.1,6.6l3.1-1.2c-0.6-2.2-1.3-4.4-2.2-6.4L-372.1,160z
		 M-357.1,158.5c-1.7-2.7-3.8-5.2-6.3-7.3l-2.8,2.1c2.4,2.2,4.4,4.8,6,7.6L-357.1,158.5z M-362.1,143.4c0.6-1.8,1.2-3.6,1.6-5.4
		l-4.1-0.8c-1,4.7-2.8,9.5-5.2,12.5c1.3,0.7,2.4,1.5,3.6,2.3c1-1.5,1.9-3,2.7-4.7h8.3c-0.3,11.7-0.7,16.7-1.7,17.7
		c-0.4,0.4-0.9,0.6-1.5,0.6c-0.9,0-2.8,0-5-0.2c0.7,1.3,1.2,2.7,1.4,4.2c1.8,0.1,3.6,0.1,5.5-0.1c1.4-0.1,2.6-0.8,3.4-1.9
		c1.3-1.8,1.8-7.2,2.1-22.3c0-0.5,0-2,0-2H-362.1z M-335.8,145.9h-4.7v-3.5h4.7L-335.8,145.9z M-340.4,156.3h4.7v3.4
		c-1.6,0.2-3.1,0.5-4.7,0.7V156.3z M-340.4,149.3h4.7v3.5h-4.7L-340.4,149.3z M-346.4,142.4h2.2V161c-1.1,0.1-2.1,0.3-2.9,0.4l0.7,4
		c3.1-0.5,6.9-1.2,10.7-1.8v6.4h3.9v-27.4h2.6v-3.8h-17.2L-346.4,142.4z M-317.5,138.5l-0.6,0.1h-10v31.3h3.9v-27.5h4.3
		c-0.8,2.5-1.8,5.3-3,8.3c3.2,3.3,4.5,5.4,4.5,7.3c0,1.2-0.3,2.2-1,2.6c-0.4,0.2-0.8,0.3-1.3,0.3c-0.5,0-1.3,0-2-0.1
		c0.6,1.2,0.9,2.5,1,3.8c0.9,0,1.8,0,2.7-0.1c0.8-0.1,1.6-0.4,2.3-0.8c1.5-1,2.2-3,2.2-5.6c0-2.2-1.2-4.7-4.3-8.1
		c1.5-3.6,3-6.9,4.2-9.9L-317.5,138.5z M-286.2,159.4h-1.5v-13.6h-2.8v13.6h-1.6v3.8h13.2v-3.8h-3.9v-7.2h3.7v-3.8h-3.7v-6.2
		c1.5-0.3,2.9-0.7,4.3-1.3l-2.2-3.2c-3.5,1.3-7.2,2.1-10.9,2.5c0.4,1,0.8,2.1,1,3.1c1.4-0.1,3-0.3,4.5-0.6L-286.2,159.4z M-300,143
		h-5.7l2.5-0.9c-0.5-1.7-1.1-3.3-1.8-5l-3.3,1c0.5,1.5,1.2,3.5,1.5,4.8h-4.3v3.3h11.1L-300,143z M-300.7,147.9h-9v3.2h9V147.9z
		 M-309.7,155.7h9v-3.1h-9V155.7z M-304,164.7h-2.7v-4h2.7L-304,164.7z M-293.5,149l-0.6,0.1h-0.8c1.2-3.2,2.5-7.1,3.5-10.4h-8.1
		v3.7h3.1c-1.1,3.6-2.5,7.3-3.6,10h2.3v0h2.7c-0.2,2-0.5,3.9-1,5.8c-0.4-1.1-0.8-2.3-1.1-3.6l-2.5,0.9c0.5,2.3,1.2,4.5,2.3,6.6
		c-0.7,1.8-1.9,3.3-3.4,4.5v-9.2h-9.1v12h3.1V168h6v-1.3c0.9,1,1.6,2.1,2.2,3.2c1.5-1.2,2.7-2.7,3.5-4.4c2.8,2.9,6.3,3.7,10.4,3.7
		h5.4c0.2-1.3,0.6-2.5,1.2-3.7c-1.4,0-5.2,0-6.4,0c-3.5,0-6.7-0.6-9.1-3.3c1.3-4.1,2-8.4,2.1-12.8L-293.5,149z M-243.8,161.2v-3.5
		h-13.6c0.1-0.6,0.2-1.2,0.3-1.8h14.4v-3.6h-13.9v-1.9h10.7v-3.5h-10.7v-1.8h12.4v-3.7h-6.7c0.8-1,1.6-2.2,2.3-3.4l-4.5-1.2
		c-0.7,1.6-1.5,3.1-2.5,4.5h-7.7l1-0.5c-0.7-1.5-1.5-2.9-2.6-4.1l-3.7,1.5c0.7,1,1.4,2,2,3.1h-6.6v3.7h12.4v1.8h-10.4v3.5h10.4v1.9
		h-13.4v3.6h12.9c-0.1,0.6-0.2,1.3-0.3,1.8h-11.8v3.5h10.4c-1.6,2.3-4.9,3.9-12,4.9c0.9,1.1,1.6,2.4,2.1,3.7
		c9.3-1.5,13.1-4.3,14.8-8.6h1.3l-1.6,2.6c4.8,1.7,9.5,3.8,14,6.1l2-3.6c-4.1-2-8.3-3.7-12.6-5.1H-243.8z M-231.5,144.2v12.8h-2.9
		v-12.8H-231.5z M-227.7,161.1v-20.9h-10.5v23.7h3.8v-2.8H-227.7z M-206.8,154.7v-4h-8.3v-4.3h7.2v-4h-7.2v-5h-4.2v5h-6.4v4h6.4v4.3
		h-7.5v4h6.4c-1.9,4.1-5.1,7.5-9,9.8c1.1,1,2,2.1,2.8,3.3c3-2,5.5-4.6,7.3-7.7v9.8h4.2v-9.6c1.5,2.8,3.4,5.4,5.6,7.6
		c0.9-1.3,1.9-2.4,3.1-3.5c-3.3-2.6-5.9-5.9-7.7-9.7L-206.8,154.7z"/>
</g>
</svg>
