<?xml version="1.0" encoding="utf-8"?>
<!-- Generator: Adobe Illustrator 26.3.1, SVG Export Plug-In . SVG Version: 6.00 Build 0)  -->
<svg version="1.1" id="圖層_1" xmlns="http://www.w3.org/2000/svg" xmlns:xlink="http://www.w3.org/1999/xlink" x="0px" y="0px"
	 viewBox="0 0 1326 387" style="enable-background:new 0 0 1326 387;" xml:space="preserve">
<style type="text/css">
	.st0{fill:#FFFFFF;}
</style>
<path id="Path_39795" class="st0" d="M878.2,83l-1.8-2.5c6.8-2.9,12.9-7.2,17.9-12.5h2.4c4,5,10,9.1,17.8,12.4l-1.7,2.5
	c-2.1-0.9-4.2-1.9-6.2-3.1V82h-9.5v6.1h15v2.8h-15v11.2h4.7c1.5-2.8,2.7-5.8,3.8-8.8l2.8,1c-0.9,2.7-2.1,5.3-3.5,7.9h8.7v2.9h-35.9
	v-2.9h8.7c-0.9-2.6-2-5.1-3.4-7.5l2.7-1c1.5,2.7,2.6,5.6,3.6,8.5h4.8V90.9h-15v-2.8h15v-6h-9.5v-2.4C882.5,80.8,880.4,82,878.2,83
	 M895.5,70.8c-3.2,3.3-6.7,6.2-10.6,8.5h20.9C902,77.1,898.5,74.2,895.5,70.8"/>
<path id="Path_39796" class="st0" d="M921.5,98.3l-2-2.3c2.7-3.3,4.8-7.1,6-11.3l2.7,0.6c-0.3,1.1-0.7,2.1-1.1,3.1h10.5v-3.3h3.1
	v3.3h14v2.7h-13.9v4.2h12.4V98h-12.4v4.3h15.8v2.8h-35.7v-2.8h16.7V98h-11.7v-2.6h11.7v-4.2h-11.7C924.7,93.7,923.2,96.1,921.5,98.3
	 M952,83.8h-27.3V68.9H952V83.8z M949,71.5h-21.4v3.6H949V71.5z M949,77.6h-21.4v3.7H949V77.6z"/>
<path id="Path_39797" class="st0" d="M961.2,93.7l-0.9-3.2c4.7-4.8,7.8-9.5,9.4-14.1H961v-2.9h5.2c-0.6-1.9-1.4-3.7-2.2-5.5l2.9-0.8
	c0.8,1.9,1.5,3.9,2.1,5.8l-1.2,0.5h4.8v2.6c-0.9,2.9-2.1,5.6-3.7,8.2v0.3c1.9,1.2,3.6,2.7,5.2,4.3l-1.7,2.5
	c-1.1-1.3-2.3-2.5-3.5-3.6v18h-3V88.6C964.4,90.2,962.8,92,961.2,93.7 M995.6,90.5v8.2H993l-1.7,3.7h7.1v2.7H973v-2.7h7.5l-1.5-3.7
	h-2.9v-8.2H995.6z M997.6,88.3h-23.5v-2.5h23.5L997.6,88.3z M981.2,70.7v-2.9h2.8v2.9h4v-2.9h2.8v2.9h5.9v12.9h-21.5V70.7H981.2z
	 M981.6,73.1h-3.7V76h3.7V73.1z M981.6,78.1h-3.7v3h3.7V78.1z M992.9,92.9h-14v3.4h14L992.9,92.9z M988.4,102.4l1.7-3.7h-8.1
	l1.5,3.7H988.4z M984.1,76h3.7v-2.9h-3.7V76z M987.8,78.1h-3.7v3h3.7V78.1z M990.3,76h3.7v-2.9h-3.7V76z M994,78.1h-3.7v3h3.7V78.1z
	"/>
<path id="Path_39798" class="st0" d="M1023,93.8c-0.9,3.9-2.4,7.6-4.4,11.1l-2.5-1.6c2-3.1,3.4-6.5,4.2-10.1L1023,93.8z
	 M1016.6,83.5v-2.7h4.9c-0.6-1.6-1.2-3.2-2-4.8l2.7-1c0.8,1.8,1.5,3.8,2.1,5.7h4.5c0.7-1.9,1.4-3.8,1.9-5.7l2.7,0.9
	c-0.5,1.6-1.2,3.2-1.9,4.8h4.8v2.7h-8.2v4.7h7.5v2.7h-7.5v15.3h-3V90.9h-7.7v-2.7h7.7v-4.7H1016.6 M1025.1,71.2
	c-0.5-1.2-1.2-2.4-1.8-3.5l3.2-0.5c0.6,1.2,1.1,2.5,1.6,4h7.9V74h-19v-2.8H1025.1z M1034.9,100.4l-2.6,1c-0.7-2.6-1.6-5.1-2.6-7.6
	l2.6-0.7C1033.4,95.7,1034.3,98.2,1034.9,100.4 M1053.7,70.8c-4,1.4-8.1,2.2-12.3,2.4v7.7h13.4v2.9h-4.4v22.3h-3V83.8h-6.1v4.7
	c-0.2,7.3-1.8,13.1-4.8,17.5l-2.2-2.2c2.5-3.7,3.9-8.8,4.1-15.3V70.8c4.7,0,9.4-0.9,13.7-2.7L1053.7,70.8z"/>
<path id="Path_39799" class="st0" d="M1058.7,75.2v-2.9h15.2v2.9h-6.1v19.3c2.2-0.6,4.4-1.3,6.6-2.2v3c-5,1.8-10.2,3.3-15.4,4.4
	l-0.8-3c2.2-0.4,4.4-0.8,6.5-1.3V75.2H1058.7z M1084.7,67.7v8.5h10.7c0,13.1-0.2,21.2-0.6,24.3c-0.5,3.4-2.9,5.2-7.1,5.2
	c-0.8,0-2-0.1-3.8-0.2l-0.7-2.8c1.6,0.1,2.9,0.1,4.1,0.1c2.7,0,4.3-1.2,4.8-3.6c0.2-2.2,0.4-8.9,0.5-20.1h-7.7
	c-0.2,12.3-3.6,21.4-10,27.1l-2.5-2.1c6.1-5.2,9.2-13.6,9.4-25h-6.7v-2.9h6.7v-8.5L1084.7,67.7L1084.7,67.7z"/>
<path id="Path_39800" class="st0" d="M1113.4,92.3c-1.5-0.3-2.9-0.6-4.4-0.8c-1-0.2-2.1-0.3-3.1-0.4V93c-0.1,5.4-1.2,9.8-3.4,13.2
	l-2.3-2.1c1.9-3.3,2.9-7,2.9-10.8V82.6h15.5v20.5c0,1.9-1.1,2.9-3.3,2.9h-3.8l-0.8-2.8c1.3,0.1,2.6,0.2,3.7,0.2
	c0.6,0.1,1.2-0.3,1.3-0.9c0-0.1,0-0.2,0-0.3v-4.8c-2.8,0.6-5.8,1.1-8.9,1.6l-0.7-2.6c3.2-0.3,6.4-0.8,9.6-1.4v-9.6h-9.7v3.6
	c1.8,0.2,3.3,0.4,4.4,0.6c1,0.2,2.3,0.4,4,0.7L1113.4,92.3z M1121.3,79.6l-2.4,1.7c-0.5-0.9-1-1.8-1.5-2.7c-4.4,0.7-9.8,1.2-16,1.6
	l-0.8-2.5c0.5-0.2,1-0.4,1.4-0.8c2.6-2.7,4.8-5.8,6.4-9.2l2.9,0.9c-1.6,3.3-3.8,6.3-6.4,8.9c3.4-0.2,7.2-0.6,11.1-1.1
	c-0.8-1.3-1.8-2.7-2.8-4.1l2.3-1.5C1117.8,73.5,1119.7,76.5,1121.3,79.6 M1126.3,105.5c-2.4,0-3.7-1.2-3.7-3.4V87.7h3v4.4l11.4-0.8
	v2.8l-11.4,0.8v6.4c0,0.9,0.5,1.3,1.5,1.3h5.8c0.6,0.1,1.3-0.1,1.8-0.6c0.5-0.6,0.8-2.1,0.9-4.7l2.7,0.8c-0.2,3.4-0.8,5.5-1.6,6.2
	c-0.9,0.7-2.1,1.1-3.3,1L1126.3,105.5z M1125.6,68.1v5.2l11.1-0.8v2.8l-11.1,0.8v5.7c-0.1,0.8,0.4,1.4,1.2,1.6c0.1,0,0.3,0,0.4,0
	h10.3V86h-11.1c-2.5,0-3.7-1.2-3.7-3.6V68.1L1125.6,68.1z"/>
<path id="Path_39801" class="st0" d="M835.2,155.7l-2.5,0.6l-0.4-2c-3.5,1.1-7,1.9-10.7,2.4l-0.8-2.7c0.5-0.2,1-0.5,1.4-0.9
	c2.1-2.3,3.9-4.9,5.5-7.6l-6.4,1l-0.7-2.8c0.5-0.3,0.9-0.7,1.2-1.1c2.2-3.8,4.1-7.8,5.4-11.9l2.9,1.2c-1.6,4.1-3.6,8-6,11.7
	c1.7-0.2,3.5-0.5,5.2-0.8c0.8-1.6,1.8-3.2,2.7-5l2.7,1c-3.9,7-7.1,11.9-9.6,14.9c2.2-0.4,4.4-0.9,6.5-1.5c-0.3-1.3-0.7-2.5-1.1-3.6
	l2.3-0.8C833.8,150.3,834.6,153,835.2,155.7 M824.9,159c-0.2,3.3-0.7,6.5-1.7,9.7l-2.7-0.8c1-3,1.6-6,1.8-9.2L824.9,159z
	 M830.4,166.8l-2.6,0.6c-0.3-3.3-0.6-6.2-1-8.7l2.3-0.5C829.7,160.8,830.1,163.7,830.4,166.8 M835.5,163.1l-2.2,1
	c-0.6-2.1-1.3-4.2-2.1-6.2l2.2-0.7C834.2,159.1,834.9,161.1,835.5,163.1 M843.6,153.3v2.1c-1.3,5.5-3.7,9.6-7.4,12.4l-1.6-2.2
	c3.1-2.5,5.4-5.9,6.4-9.8h-4.8v-2.5L843.6,153.3L843.6,153.3z M843.3,134.3c0.5-1.2,1-2.4,1.2-3.7l3,0.4c-0.3,1.1-0.8,2.2-1.3,3.3
	h9.5v15h-7.3v3c0.5,1.3,1.1,2.6,1.8,3.8c2.2-1.3,4.3-2.9,6.2-4.7l1.7,2.1c-2,1.8-4.2,3.3-6.5,4.6c2,2.8,4.5,5.3,7.3,7.4l-1.8,2.3
	c-3.5-3-6.4-6.6-8.6-10.7v8.6c0,2.3-1.1,3.4-3.3,3.4h-3.2l-0.6-2.7c1,0.1,2,0.2,2.9,0.2s1.4-0.6,1.4-1.6v-15.7h-8.3v-15L843.3,134.3
	z M853,137H840v3.6H853L853,137z M853,143.1H840v3.6H853L853,143.1z"/>
<path id="Path_39802" class="st0" d="M881.1,130.6v13h15.6v2.9h-15.6v18h19.2v2.9h-37.4v-2.9H878v-33.9H881.1z"/>
<path id="Path_39803" class="st0" d="M905.9,146.2l-1.7-2.5c5.9-2.2,10.7-6.7,13.2-12.6l2.6,1.1c-1.3,3.5-3.5,6.6-6.2,9.1h21.6
	c-2.5-2.9-5.2-5.8-8.4-8.7l2.3-1.6c4.7,4.3,9,9,12.9,14l-2.5,1.7c-1.3-1.8-2.7-3.5-4.2-5.2v13.4h-5.6v9.2c0,1,0.5,1.5,1.6,1.5h5.8
	c0.6,0,1.1-0.2,1.4-0.7c0.3-0.6,0.6-2.1,0.7-4.6l2.8,0.9c-0.2,3.4-0.7,5.5-1.4,6.3c-0.8,0.7-1.9,1.1-3,1h-7.3
	c-2.4,0-3.6-1.3-3.6-3.8v-9.9h-6.7c-0.8,6.5-5.2,11.2-13.4,14.2l-1.6-2.6c7.3-2.4,11.4-6.2,12.1-11.6h-5.6v-11.9
	C910,144.2,908,145.3,905.9,146.2 M932.6,144.2h-17.8v7.8h17.8V144.2z"/>
<path id="Path_39804" class="st0" d="M947.8,168.7l-0.6-2.9c1.1,0.1,2.2,0.2,3.2,0.2c0.9,0,1.3-0.5,1.3-1.5v-10.5
	c-1.5,0.6-3.1,1.1-4.7,1.6l-0.7-2.9c1.8-0.5,3.6-1,5.4-1.7v-9.7H947v-2.9h4.8v-7.7h2.9v7.7h3.7v2.9h-3.7v8.5
	c1.4-0.6,2.8-1.3,4.2-2.1v2.9c-1.4,0.7-2.8,1.4-4.2,2v12.5c0,2.4-1.1,3.5-3.2,3.5L947.8,168.7L947.8,168.7z M982.1,155.8h2.7v2.7
	h-12.4c-0.6,1.8-1.6,3.4-2.8,4.8c-2,2.3-5.5,4.2-10.5,5.5l-1.1-2.6c4.4-1.1,7.5-2.6,9.5-4.7c0.8-0.9,1.5-2,2.1-3.1h-10.3v-2.7h2.9
	v-14.4c-0.6,0.5-1.1,1-1.7,1.4l-1.8-2.2c3.7-2.7,6.7-6.2,8.8-10.2l2.7,0.6c-0.4,0.8-0.8,1.5-1.2,2.1h9.7v2.1
	c-1.2,1.7-2.5,3.3-3.9,4.8h7.5L982.1,155.8L982.1,155.8z M975,135.7h-7.9c-1.1,1.6-2.3,3-3.7,4.4h7.7
	C972.5,138.7,973.9,137.3,975,135.7 M970.4,155.8c0.2-1,0.4-2,0.5-3.1l2.7,0.3c-0.1,0.9-0.2,1.9-0.4,2.8h6.1v-13.3h-14.7v13.3
	L970.4,155.8L970.4,155.8z M967.6,153.1l-1.5-1.9c2.7-1.7,4.6-4.5,5.3-7.6l2.3,0.3c-0.3,0.9-0.6,1.9-1,2.8c1.9,1.2,3.7,2.6,5.3,4.2
	l-1.5,1.8c-1.4-1.5-3-2.9-4.7-4C970.8,150.4,969.3,152,967.6,153.1 M985,166.7l-1.5,2.4c-3.2-2.7-6.8-5-10.6-6.8l1.4-2.1
	C978.1,161.9,981.7,164.1,985,166.7"/>
<path id="Path_39805" class="st0" d="M1001.6,134c-2.4,0.9-4.8,1.7-7.3,2.1l0.2,4.7h6.3v2.7h-6.1l0.2,5.1h5.6v2.8H995l0.2,5.3h24.5
	l0.2-5.2h-4.7v-2.8h4.8l0.2-5.1h-4.8v-2.7h4.9l0.2-5.1h-5.5v-2.9h8.4l-1,23.9h3.4v2.9h-37.3v-2.9h3.5l-1-22.9c3.1-0.5,6.1-1.3,9-2.5
	L1001.6,134z M1003.5,162.1c-3.8,2.9-8,5.1-12.5,6.8l-1.9-2.4c4.3-1.6,8.4-3.7,12.2-6.3L1003.5,162.1z M1005.4,145.4
	c-0.1,3.4-0.8,6.8-1.9,10l-2.4-0.7c1.1-3,1.7-6.2,1.9-9.4L1005.4,145.4z M1006.2,140.9h7.1c-0.1,7.8-0.5,12.2-1.1,13.2
	c-0.6,0.9-1.8,1.3-3.8,1.3h-1.3l-0.8-2.7c0.8,0,1.5,0,2.2,0c0.7,0.1,1.3-0.2,1.6-0.8c0.3-0.6,0.5-3.4,0.5-8.4h-7.6
	c0.9-4.8,1.6-9.1,2.1-12.8l2.7,0.2c-0.2,1.2-0.3,2.3-0.4,3.4h6.3v2.7h-6.8C1006.7,138.4,1006.5,139.7,1006.2,140.9 M1026.3,166.3
	l-1.7,2.6c-4-2.7-8.3-5-12.8-6.7l1.5-2.3C1017.8,161.6,1022.2,163.8,1026.3,166.3"/>
<path id="Path_39806" class="st0" d="M1066.3,168.4h-2.9v-1.8h-27.8v1.8h-2.9v-35.3h33.7V168.4z M1063.4,135.8h-27.8v28.1h27.8
	V135.8z M1057.7,157.3h-16.2v-14.9h16.2V157.3z M1054.8,144.9h-10.5v9.8h10.5V144.9z"/>
<path id="Path_39807" class="st0" d="M1082.1,131.1c2.4,2.6,4.8,5.3,7,8.1l-1.8,1.9c-2.4-3.1-4.5-5.6-6.3-7.4
	c-1.2,1.7-2.4,3.2-3.7,4.7h7.3v2.4h-7.4v-2.2c-1.1,1.3-2.3,2.5-3.6,3.6l-1.6-2.3c2.8-2.7,5.3-5.6,7.4-8.9L1082.1,131.1L1082.1,131.1
	z M1088.1,167l-2.3,1.1c-0.3-0.9-0.6-1.8-0.9-2.6c-3.1,1.3-6.3,2.4-9.6,3.2l-0.8-2.2c0.4-0.1,0.7-0.5,0.8-1v-22h11.6v14.8h-8.8v7
	c2.2-0.7,4.2-1.4,6-2.2c-0.4-1.1-0.8-2.1-1.3-2.9l2.4-0.8C1086.3,161.9,1087.3,164.4,1088.1,167 M1084,146.2h-6v3.6h6V146.2z
	 M1078,155.8h6v-3.6h-6V155.8z M1097.8,165.2c-2.5,1.8-5.4,3.1-8.4,3.9l-1.3-2.1c3-0.6,5.8-1.8,8.3-3.5L1097.8,165.2z M1098.1,132.9
	v-2.4h2.7v2.4h7.4v7.5h-7.4v2.2h9.6v2.4h-22v-2.4h9.7v-2.2h-7.4v-7.5H1098.1z M1108.2,163h-17.3v-16.1h17.3V163z M1098.1,135h-4.9
	v3.2h4.9V135z M1105.3,149.1h-11.6v2.6h11.6V149.1z M1105.3,153.7h-11.6v2.5h11.6V153.7z M1105.3,158.1h-11.6v2.7h11.6V158.1z
	 M1105.7,135h-4.8v3.2h4.8V135z M1110.9,167l-0.9,2.2c-2.8-1.6-5.8-2.9-8.9-3.9l1.1-2C1105.2,164.2,1108.1,165.4,1110.9,167"/>
<path id="Path_39808" class="st0" d="M1120.8,140.6V137h-5.8v-2.5h5.8v-3.8h2.8v3.8h5.6v2.5h-5.6v3.5h5.1v16.1h-5.1v3.5h5.9v2.6
	h-5.9v6.3h-2.8v-6.3h-6.1v-2.6h6.1v-3.5h-5.2v-16.1H1120.8z M1121.1,142.8h-3.1v4.6h3.1V142.8z M1121.1,149.7h-3.1v4.7h3.1V149.7z
	 M1123.3,147.4h3.1v-4.6h-3.1V147.4z M1126.4,149.7h-3.1v4.7h3.1V149.7z M1139.6,132.8v-2.4h2.8v2.4h9.1v2.4h-9.1v2.4h8v12.1h-1.3
	c1.3,1.6,2.5,3.4,3.5,5.2l-1.9,1.3c-0.4-0.7-0.8-1.4-1.2-2.1c-0.7,0.1-1.3,0.1-2,0.2v3.4h4.9v2.6h-4.9v5.7c0,2.1-1,3.1-3,3.1h-4.2
	l-0.6-2.7c1.3,0.1,2.6,0.2,3.7,0.2c0.8,0,1.2-0.5,1.2-1.3v-5h-13.9v-2.6h13.9v-3.1c-3.8,0.2-8.3,0.4-13.7,0.6l-0.3-2.4
	c3.2-0.1,6.2-0.2,8.9-0.2v-2.8h-8v-12.1h8v-2.4h-8.9v-2.4L1139.6,132.8L1139.6,132.8z M1139.1,164.4l-1.5,2.3c-1.7-1.6-3.6-3-5.7-4
	l1.4-2C1135.4,161.7,1137.4,162.9,1139.1,164.4 M1139.8,139.6h-5.6v3h5.6V139.6z M1139.8,144.7h-5.6v3h5.6V144.7z M1142.3,142.6h5.5
	v-3h-5.5V142.6z M1147.9,144.7h-5.5v3h5.5V144.7z M1146.4,149.7h-4v2.7c2.1-0.1,4-0.2,5.8-0.3C1147.6,151.3,1147,150.5,1146.4,149.7
	"/>
<path id="Path_39809" class="st0" d="M1162.7,160.3c-1,2.9-2.3,5.7-3.9,8.3l-2.4-1.3c1.5-2.6,2.8-5.4,3.9-8.2L1162.7,160.3z
	 M1169.8,157.7h-11.9v-25.4h11.9V157.7z M1166.9,135h-6.1v5.1h6.1V135z M1166.9,142.6h-6.1v4.8h6.1V142.6z M1166.9,149.9h-6.1v5.1
	h6.1V149.9z M1171.4,166.4l-2.2,1.6c-1.3-2.6-2.7-5.2-4.4-7.6l2.2-1.4C1168.7,161.4,1170.1,163.9,1171.4,166.4 M1179.9,135.9h5.3
	c0.8-1.8,1.4-3.7,1.8-5.6l2.8,0.4c-0.4,1.8-1,3.6-1.8,5.2h5.2v14.2H1172v-14.2h5.2c-0.6-1.7-1.4-3.3-2.3-4.9l2.9-0.5
	C1178.6,132.3,1179.3,134.1,1179.9,135.9 M1191.8,169.1h-2.8v-1.8h-12.4v1.8h-2.8v-16.2h18L1191.8,169.1L1191.8,169.1z
	 M1181.3,138.5h-6.6v9.1h6.6V138.5z M1179.9,145.7l-2,0.5c-0.5-1.9-1-3.7-1.7-5.5l1.9-0.6C1178.9,141.9,1179.5,143.8,1179.9,145.7
	 M1189,155.5h-12.4v3.4h12.4V155.5z M1189,161.3h-12.4v3.6h12.4V161.3z M1190.5,138.5h-6.7v9.1h6.7V138.5z M1188.9,140.4
	c-0.4,2-1.1,4-2,5.9l-2-0.7c0.9-1.8,1.5-3.7,2-5.7L1188.9,140.4z"/>
<path id="Path_39810" class="st0" d="M1039.5,349.3h-68.2c-9.1,0-16.5-7.4-16.5-16.5s7.4-16.5,16.5-16.5h68.2
	c9.1,0,16.5,7.4,16.5,16.5S1048.7,349.3,1039.5,349.3 M971.3,317.3c-8.6,0-15.5,6.9-15.5,15.5s6.9,15.5,15.5,15.5l0,0h68.2
	c8.6,0,15.5-6.9,15.5-15.5s-6.9-15.5-15.5-15.5H971.3z"/>
<path id="Path_39811" class="st0" d="M987.8,327.7h-9v-1.3h10.8v1.3c-1.4,1.2-2.8,2.3-4.4,3.3v6c0.1,0.7-0.4,1.4-1.1,1.5
	c-0.1,0-0.2,0-0.4,0c-0.8,0-1.6,0-2.2-0.1l-0.4-1.3c0.7,0.1,1.5,0.1,2.2,0.1c0.2,0,0.5-0.1,0.5-0.4c0,0,0-0.1,0-0.1v-6.4
	C985.3,329.6,986.6,328.7,987.8,327.7"/>
<path id="Path_39812" class="st0" d="M992.8,338.8l-0.9-0.8c0.5-1.2,0.8-2.5,0.8-3.8V330l-0.7-0.9c0.9-1,1.6-2.2,2-3.4l1.2,0.3
	c-0.1,0.2-0.2,0.5-0.3,0.7h2.4v0.9c-0.2,0.5-0.5,0.9-0.8,1.4h1.5v8.5c0,0.7-0.4,1.1-1.2,1.1h-0.9l-0.3-1.1c0.3,0,0.6,0.1,0.8,0.1
	c0.3,0,0.4-0.1,0.4-0.5v-1.7h-3.1C993.7,336.6,993.4,337.7,992.8,338.8 M995.9,327.8h-1.5c-0.2,0.4-0.4,0.8-0.7,1.2h1.5
	C995.4,328.6,995.6,328.2,995.9,327.8 M994.8,330.1h-1v1.5h1V330.1z M993.9,334.3h1v-1.6h-1V334.3z M996.9,330.1h-1v1.5h1V330.1z
	 M995.9,334.3h1v-1.6h-1V334.3z M999,334.6l-0.8-0.9c0.6-0.7,1-1.6,1.2-2.6l1.1,0.2c-0.1,0.3-0.2,0.7-0.2,1h1v-1.2h1.3v1.2h1.9v1.2
	h-1.9v1.4h2.2v1.2h-2.2v2.6h-1.3v-2.6h-3v-1.2h3v-1.4h-1.5C999.6,333.9,999.3,334.3,999,334.6 M998.4,327.7v-1.2h6
	c0,2-0.2,3.2-0.4,3.6c-0.3,0.4-0.8,0.6-1.4,0.6c-0.3,0-0.7,0-1.2-0.1l-0.3-1.1c0.5,0,0.9,0.1,1.2,0.1c0.3,0,0.6-0.1,0.6-0.3
	c0.1-0.5,0.2-1.1,0.2-1.6h-1.8c-0.1,0.6-0.3,1.1-0.6,1.6c-0.4,0.7-1,1.2-1.6,1.6l-0.8-1c0.9-0.4,1.6-1.3,1.8-2.3L998.4,327.7
	L998.4,327.7z"/>
<path id="Path_39813" class="st0" d="M1007.9,327.4c-0.2-0.5-0.4-0.9-0.6-1.4l1.3-0.3c0.3,0.6,0.5,1.1,0.6,1.7h1.4v1.2h-4.5v-1.2
	H1007.9z M1007.6,338.6h-1.2v-5.1h3.9v4.9h-1.2v-0.6h-1.4L1007.6,338.6z M1010.2,330.7h-3.7v-1.2h3.7V330.7z M1010.2,332.6h-3.7
	v-1.2h3.7V332.6z M1009,334.7h-1.4v1.9h1.4V334.7z M1011.1,329.4v-1.3h1.9c-0.3-0.6-0.7-1.2-1.1-1.8l1.1-0.5c0.4,0.6,0.8,1.3,1.2,2
	l-0.8,0.4h2.1c0.4-0.8,0.7-1.6,1-2.4l1.3,0.4c-0.3,0.7-0.6,1.3-1,2h1.8v1.3h-3v1.8h2.6v1.3h-2.6v1.8h3.4v1.3h-3.4v3.2h-1.3v-3.2
	h-3.4v-1.3h3.4v-1.8h-2.7v-1.3h2.7v-1.8L1011.1,329.4z"/>
<path id="Path_39814" class="st0" d="M1021.3,328.5c0,1.3-0.2,2.7-0.5,4l-1-0.3c0.3-1.2,0.4-2.5,0.5-3.8L1021.3,328.5z
	 M1029.4,325.7v0.8h3.1v1.1h-3.1v0.7h2.7v1.1h-2.7v0.7h3.5v1.1h-8.4v-0.4l-0.7,0.2c-0.2-0.8-0.5-1.6-0.8-2.4v10h-1.3v-12.8h1.3v2.6
	l0.9-0.3c0.3,0.6,0.5,1.3,0.7,2h3.5v-0.7h-2.7v-1.1h2.7v-0.7h-3.2v-1.1h3.2v-0.8H1029.4z M1025.4,338.7l-1-0.9
	c0.7-0.9,1.1-1.9,1.1-3v-3h6.4v5.6c0,0.8-0.4,1.2-1.3,1.2h-1.7l-0.3-1.1c0.6,0,1.2,0,1.7,0c0.2,0,0.4-0.2,0.4-0.5v-0.5h-4.1
	C1026.3,337.3,1025.9,338,1025.4,338.7 M1026.7,335.5h3.9v-0.8h-3.9C1026.7,334.9,1026.7,335.2,1026.7,335.5 M1030.6,332.9h-3.9v0.8
	h3.9V332.9z"/>
<path id="Path_39815" class="st0" d="M792.7,225.5v-12.7h22.1v21.1c0.1,0.9-0.1,1.8-0.5,2.6c-0.4,0.4-1.2,0.7-2.6,0.7h-3.1l-0.7-2.7
	l3.4,0.2c0.4,0.1,0.8-0.2,0.9-0.7c0-0.1,0-0.1,0-0.2v-5h-7.1v8h-2.7v-8h-7c-0.2,3.1-1.2,6.1-2.8,8.7l-2.3-2
	C791.8,233.1,792.7,229.8,792.7,225.5 M795.3,219.4h6.9v-4.3h-6.9V219.4z M802.2,221.8h-6.9v4.5h6.9V221.8z M812,215.1h-7.1v4.3h7.1
	V215.1z M812,221.8h-7.1v4.5h7.1V221.8z"/>
<path id="Path_39816" class="st0" d="M820.6,222.8v-10.4h21.2v10.4h-8.7v2.5h9.6v2.4h-9.6v2.1h8.9v2.3h-8.9v2.4h10.8v2.3h-25.7v-2.3
	h12.1V232h-8.6v-2.3h8.6v-2.1h-6.9c-1,1.1-2.1,2.1-3.2,3.1l-2.1-2.1c2.3-1.4,4.1-3.5,5.3-5.9l2.6,0.9c-0.3,0.6-0.7,1.1-1,1.6h5.3
	v-2.5H820.6z M839.1,214.5h-15.7v1.9h15.7L839.1,214.5z M823.4,220.6h15.7v-2.1h-15.7L823.4,220.6z"/>
<path id="Path_39817" class="st0" d="M848.8,222.8v-10.4h21.2v10.4h-8.7v2.5h9.6v2.4h-9.6v2.1h8.9v2.3h-8.9v2.4h10.8v2.3h-25.7v-2.3
	h12.1V232h-8.6v-2.3h8.6v-2.1h-6.9c-1,1.1-2.1,2.1-3.2,3.1l-2.1-2.1c2.3-1.4,4.1-3.5,5.3-5.9l2.6,0.9c-0.3,0.6-0.7,1.1-1,1.6h5.3
	v-2.5H848.8z M867.2,214.5h-15.7v1.9h15.7L867.2,214.5z M851.5,220.6h15.7v-2.1h-15.7L851.5,220.6z"/>
<path id="Path_39818" class="st0" d="M885.2,227.7c0,2.2-0.8,4.3-2.2,5.9c-1.7,1.8-3.8,3.1-6.2,3.8l-1.9-2.4
	c4.9-1.4,7.4-3.9,7.7-7.3h-4.7v-9.7h19.3v9.7h-5.8v5.5c-0.1,0.5,0.3,0.9,0.7,1c0.1,0,0.2,0,0.2,0h3.5c0.6,0.1,1.2-0.3,1.3-1
	c0,0,0-0.1,0-0.1c0.1-0.7,0.1-1.9,0.2-3.4l2.7,0.8c0,1.6-0.2,3.2-0.6,4.8c-0.3,1-1.4,1.5-3.2,1.5h-4.3c-1.4,0.4-2.8-0.5-3.2-1.9
	c-0.1-0.4-0.1-0.9,0-1.3v-5.7L885.2,227.7z M883,217.9c-1-1.8-2.2-3.4-3.6-4.9l2.4-1.3c1.5,1.4,2.8,2.9,3.9,4.6L883,217.9z
	 M894.5,220.3h-14v4.9h14V220.3z M889.5,216.4c1.4-1.4,2.6-2.9,3.5-4.7l2.7,1.1c-0.9,1.9-2.1,3.7-3.5,5.2L889.5,216.4z"/>
<path id="Path_39819" class="st0" d="M905.7,227.7c-0.9,0.4-1.9,0.6-2.8,0.8l-0.4-2.6c1.1-0.1,2.2-0.4,3.2-0.8v-5.2h-3.1v-2.4h3.1
	v-5.9h2.6v5.9h2v2.4h-2v4.4c0.7-0.3,1.3-0.6,1.9-0.9l0.2,2.5c-0.7,0.5-1.4,0.8-2.2,1.1v6.9c0.1,0.9-0.1,1.8-0.6,2.5
	c-0.7,0.5-1.7,0.8-2.6,0.7h-1.6l-0.6-2.8l1.9,0.1c0.6,0,1-0.3,1-0.9V227.7z M910.2,237.4l-1-2.4c3.8-0.4,6.4-1.6,8-3.7h-7.7V229h8.4
	v-2.3h2.5v2.3h7.9v2.3H921c1.6,1.9,4,3.1,7.3,3.6l-1,2.5c-3.2-0.6-6.2-2.2-8.3-4.8C917.1,235.3,914.2,236.8,910.2,237.4
	 M924.8,228.4v-8.1h-11.1v8.1h-2.4v-9.7l-1.4-1.6c2.6-1.1,4.8-3,6.3-5.4l2.5,0.5c-0.3,0.5-0.6,1-1,1.5h7.6v1.5c-0.7,1-1.5,2-2.4,2.9
	h4.4v10.4L924.8,228.4L924.8,228.4z M919.5,218.1c0.9-0.6,1.7-1.4,2.4-2.2h-6.2c-0.8,0.8-1.8,1.6-2.8,2.2H919.5z M915.5,227.3
	l-1.5-2.1c2.1-0.7,3.6-2.4,4.2-4.6l2.4,0.3c-0.1,0.6-0.3,1.2-0.6,1.8c1.4,0.8,2.8,1.7,4.1,2.7l-1.6,1.9c-1.9-1.9-3-2.8-3.5-2.8
	C918,225.7,916.8,226.6,915.5,227.3"/>
<path id="Path_39820" class="st0" d="M953.4,227.3h-2.5v-6.1h-1.6c0,1.3-0.2,2.5-0.8,3.7c-0.5,1-1.1,1.8-2,2.5l-1.9-1.8
	c0.2-0.2,0.4-0.3,0.6-0.6c0.4-0.4,0.8-0.8,1.1-1.3c0.4-0.8,0.7-1.7,0.7-2.6h-2v-2h5.8v-1.6h-4.9v-5.4h2.4v3.4h2.5v-4.1h2.5
	L953.4,227.3L953.4,227.3z M970.4,234.8l-1,2.5c-0.8-0.1-1.6-0.3-2.4-0.5c-1.6-0.4-3.2-1-4.7-1.8c-1.8-1-3.4-2.5-4.6-4.2
	c-0.3,0.5-0.6,1.1-1,1.5c-1,1.2-2.3,2.2-3.7,2.8c-2.3,1.1-4.7,1.8-7.2,2.2l-1.2-2.4c0.7-0.1,1.3-0.2,2-0.3c1.4-0.2,2.8-0.6,4.2-1.1
	c1.6-0.6,3.1-1.5,4.3-2.8h-10.4v-2.2h11.3c0-0.2,0.1-0.6,0.2-1.1c0.1-0.4,0.1-0.7,0.1-1.1l2.6,0.1c0,0.2-0.1,0.6-0.1,1.2
	c0,0.4-0.1,0.7-0.2,0.9h11.9v2.2h-9.9c0.3,0.3,0.7,0.7,1.1,1c1,0.8,2.1,1.4,3.3,1.8C966.6,234.1,968.5,234.6,970.4,234.8
	 M964.9,217.9h2.3v2.4h3.2v2h-3.2v1.8c0.1,0.8-0.1,1.5-0.5,2.2c-0.6,0.7-1.5,1.1-2.4,1h-2.2l-0.7-2.3l2.1,0.1c0.6,0.1,0.9,0,1.1-0.2
	c0.1-0.2,0.2-0.4,0.2-0.7v-1.9h-10.6v-2h10.5V218c-0.4,0.2-0.8,0.3-1.2,0.5c-2.7,0.9-5.4,1.4-8.2,1.7l-1.2-1.9c0.3,0,0.8,0,1.7-0.1
	c0.5-0.1,1-0.2,1.6-0.3c-0.2-0.3-0.4-0.6-0.7-0.9c-0.2-0.3-0.5-0.6-0.7-0.8l-1.2,0.4l-1.3-1.7c1.4-0.4,2.8-0.8,4.1-1.4
	c1-0.5,2-1.1,2.9-1.9l2.5,0.4l-1.2,0.9h8v1.8c-0.4,0.4-0.8,0.8-1.3,1.1C967.5,216.6,966.2,217.4,964.9,217.9 M961.3,224.3l-1.5,1.6
	c-0.2-0.2-0.6-0.5-1.3-1c-0.5-0.4-1.1-0.8-1.6-1.2l1.5-1.3c0.3,0.2,0.8,0.5,1.7,1.1C960.5,223.7,960.9,224,961.3,224.3 M961.3,217.1
	l-1.1-1.1c-0.4-0.4-0.7-0.8-1.2-1.1l-1.4,0.6c0.3,0.3,0.6,0.7,0.9,1c0.2,0.3,0.5,0.7,0.7,1.1c0.2,0,0.5-0.1,1-0.2
	C960.6,217.3,960.9,217.2,961.3,217.1 M966.9,214.6h-5.8c0.2,0.2,0.6,0.5,1.2,1c0.2,0.2,0.5,0.5,0.8,0.9c0.3-0.1,0.9-0.3,1.8-0.7
	C965.7,215.4,966.3,215.1,966.9,214.6 M971.5,226.2l-1.3,1.6c-0.2-0.2-0.7-0.7-1.5-1.3c-0.5-0.4-1-0.8-1.5-1.2l1.4-1.3
	c0.2,0.2,0.7,0.5,1.4,1C970.5,225.3,971,225.8,971.5,226.2"/>
<path id="Path_39821" class="st0" d="M989.5,235.5c0,1.1-0.7,1.6-1.9,1.6h-2l-0.6-1.9l1.9,0.1c0.3,0,0.6-0.2,0.7-0.5
	c0-0.1,0-0.1,0-0.2v-4.7h-3.7v2.3l1.1-0.2l-0.3-1.3l1.6-0.3c0.3,1.2,0.6,2.5,0.8,3.8l-1.7,0.4l-0.1-1c-1.6,0.4-3.2,0.6-4.9,0.7
	l-0.3-1.8h0.1c0.1,0,0.3,0,0.8,0c0.4,0,0.7,0,1.1-0.1v-2.5h-2.7v7.5h-2.1v-7.5H976c-0.1,2.4-0.5,4.9-1.1,7.2l-2.1-1.7
	c0.8-3,1.2-7.8,1.2-14.5v-8.6h15.1v2.1h-12.8v8.1c0,2.1,0,3.9-0.1,5.5h1v-1h2.1v1h2.8v-1.5h-4.5v-7.6h1.9v-1.3H977v-1.6h2.4v-1.2h2
	v1.2h1.4v1.6h-1.4v1.3h3.4v-1.3h-1.4v-1.6h1.4v-1.2h2v1.2h1.9v1.6h-1.9v1.3h1.6v7.6h-4.6v1.5h5.7v6.9c1.4-4.7,2.1-9.5,2.1-14.4v-1.3
	H989v-2.3h2.5v-5.4h2.2v5.4h4.3v5.6c0,7.6-0.3,11.9-0.8,13c-0.7,1.1-1.9,1.6-3.1,1.5c-0.4,0-0.8,0-1.2-0.1l-0.5-2.6
	c0.5,0.1,0.9,0.2,1.4,0.2c0.8,0,1.3-0.2,1.5-0.7c0.3-1,0.5-2.1,0.4-3.2c0.1-1.7,0.1-4.1,0.1-7.2c0-1.6,0-2.9,0-4.2h-2v1
	c0.1,5.8-0.8,11.5-2.7,16.9L989.5,235.5z M982,220.7h-2.4v1.3h2.4V220.7z M982,223.4h-2.4v1.5h2.4V223.4z M986.4,220.7h-2.6v1.3h2.6
	V220.7z M986.4,223.4h-2.6v1.5h2.6V223.4z"/>
<path id="Path_39822" class="st0" d="M1014.1,214.8h10.2v22.6h-2.8V236h-15.7v1.4h-2.7v-22.6h8.2c0.4-1,0.8-2.1,1.1-3.1l2.8,0.2
	c-0.2,0.5-0.3,0.9-0.5,1.4C1014.5,213.8,1014.3,214.3,1014.1,214.8 M1021.5,217.4h-15.7v3.1h15.7V217.4z M1005.9,226.8h15.7v-3.7
	h-15.7V226.8z M1005.9,233.4h15.7v-4.1h-15.7V233.4z"/>
<path id="Path_39823" class="st0" d="M1049.7,234c0.7,0.1,1.3-0.4,1.3-1c0,0,0,0,0-0.1c0.1-1,0.2-2.1,0.2-3.1c0-0.6,0-1.1,0-1.5
	l2.9,0.9v0.2c0.1,1.9-0.1,3.8-0.6,5.6c-0.4,1.1-1.5,1.6-3.2,1.6h-13.8c-2.1,0-3.5-0.4-4.1-1.1c-0.7-1.1-1-2.3-0.9-3.6v-10.4h18.2
	v-5.9h-19.5v-2.6h22.4V224h-18.2v7.7c-0.2,1.1,0.6,2.1,1.7,2.3c0.2,0,0.4,0,0.6,0L1049.7,234L1049.7,234z"/>
<path id="Path_39824" class="st0" d="M1082.2,215.1v2.4h-7.2c0.1,3.1,0.3,6.3,0.7,9.4c1.3-2.3,2.4-4.7,3.2-7.2l2.4,1
	c-1.2,3.4-2.8,6.7-4.9,9.7c0.2,0.7,0.5,1.5,0.8,2.1c0.6,1.1,1.1,1.7,1.6,1.7c0.6,0,1.1-1.6,1.6-4.7l2.3,1.8c-0.7,4-2,6-3.8,6
	c-1.8,0-3.2-1.5-4.4-4.6c-1.4,1.7-3,3.1-4.8,4.4l-1.8-2.4c2.2-1.2,4.2-2.9,5.7-4.9c-0.9-4.1-1.3-8.2-1.2-12.4h-14.9v-2.4h14.9v-3.5
	h2.6v3.5h3.6c-0.7-0.7-1.5-1.5-2.3-2.1l1.9-1.3c1,0.7,2,1.5,2.9,2.3l-1.1,1.1L1082.2,215.1L1082.2,215.1z M1070.6,232.6
	c-4.2,1-8.5,1.8-12.8,2.2l-0.4-2.6c4.4-0.2,8.8-0.9,13.2-1.9L1070.6,232.6L1070.6,232.6z M1058.9,220.2h10.7v8.8h-10.7V220.2z
	 M1067.1,222.5h-5.6v4.1h5.6V222.5z"/>
<path id="Path_39825" class="st0" d="M1094.5,229v-7.4h2.4v7.4h2.5v-8.7h-4.9v-8.6h2.5v1.9h4.9v2.2h-4.9v2.3h4.9V229h5.2l0.1-3.1h-4
	v-2.2h4l0.1-3.3h-4.1v-2.2h4.1l0.1-2.9h-4.2V213h6.7l-0.4,16h1.6v2.4h-25.8V229h2l-0.5-15.1c2-0.3,4-0.9,5.8-1.9l1.2,2.3
	c-1.4,0.7-3,1.3-4.5,1.7l0.1,2.3h3.8v2.2h-3.8l0.1,3.3h3.5v2.2h-3.4l0.1,3.1L1094.5,229z M1095.7,233.4c-2.6,1.8-5.4,3.1-8.4,3.9
	l-1.6-2.3c2.8-0.7,5.5-1.8,8-3.4L1095.7,233.4z M1109,237.4c-2.6-1.4-5.4-2.7-8.2-3.8l1.8-2c1.4,0.6,2.7,1.1,4,1.6
	c1.3,0.5,2.7,1.1,4.2,1.9L1109,237.4z"/>
<path id="Path_39826" class="st0" d="M1116.7,216.4c0.2-1.7,0.4-3.2,0.6-4.7l2.6,0.3c-0.1,0.9-0.2,1.7-0.3,2.4
	c-0.1,0.7-0.2,1.3-0.2,2h4.9v3.2c0,4.4-0.8,7.8-2.3,10.4c0.7,0.5,1.3,0.9,1.8,1.3s1,0.8,1.5,1.1l-1.5,2.6c-0.5-0.5-1.6-1.4-3.2-2.7
	c-1.4,2-3.2,3.7-5.2,5.1l-1.9-2c1.9-1.3,3.6-2.9,4.9-4.8c-1.7-1.1-3.2-2.1-4.5-2.8c1.1-2.9,2-5.9,2.4-8.9h-2.9v-2.4L1116.7,216.4
	L1116.7,216.4z M1118.5,227.7c0.4,0.2,0.9,0.5,1.3,0.8c1.3-2.2,2-5.5,2.1-9.6h-2.9c-0.4,2.3-1,5-1.8,7.9
	C1117.5,227.1,1118,227.4,1118.5,227.7 M1133.7,223.3h5.5v2.6h-5.5v8.5c0,1.3-0.2,2.1-0.7,2.4c-0.9,0.4-1.9,0.6-2.9,0.5h-3l-0.6-2.6
	l2.7,0.1c0.5,0,1,0,1.4-0.1c0.2,0,0.3-0.3,0.3-0.7v-8.1h-6.4v-2.6h6.4v-3.4c1.6-1.3,3-2.7,4.3-4.3h-9.9V213h13v2.4
	c-1.3,2-2.9,3.9-4.6,5.6L1133.7,223.3L1133.7,223.3z"/>
<path id="Path_39827" class="st0" d="M1152.1,221.2h11.8v2.4c-0.8,2.9-2.3,5.6-4.2,7.9c2.4,1.6,5,2.7,7.8,3.4l-1.2,2.6
	c-3.1-0.9-5.9-2.4-8.5-4.2c-2.5,1.9-5.3,3.4-8.3,4.2l-1.9-2.3c2.9-0.7,5.7-1.9,8.2-3.6c-2-1.9-3.5-4.2-4.7-6.7
	c-1.4,4.5-4,8.6-7.5,11.9l-1.9-2.1c2.2-2,4-4.4,5.2-7.1c1.5-3.1,2.6-6.4,3.1-9.8h-8.4v-2.7h8.6l0.2-3.4h2.8l-0.2,3.4h14.3v2.6h-14.6
	C1152.6,218.9,1152.4,220,1152.1,221.2 M1153.2,223.7c1.1,2.3,2.6,4.4,4.5,6.1c1.6-1.7,2.8-3.8,3.5-6.1H1153.2z"/>
<path id="Path_39828" class="st0" d="M1177.5,212l2.4,1.2c-1.7,4.5-4.6,8.4-8.2,11.5l-1.9-2.4C1173.2,219.6,1175.9,216.1,1177.5,212
	 M1191.3,221.9c-0.2,5.1-0.3,8.5-0.6,10.3c-0.1,1.3-0.6,2.6-1.4,3.6c-0.7,0.6-2.3,0.9-5,0.9c-0.6,0-1,0-1.4,0l-0.8-2.6
	c1.3,0.1,2.5,0.1,3.4,0.1c1.3,0,2.2-0.4,2.4-1.3c0.4-1.4,0.7-4.3,0.7-8.6h-6.4c-0.8,5.8-3.9,10.1-9.3,12.9l-1.8-2.3
	c2.4-1.1,4.4-2.7,5.9-4.8c1.3-1.7,2.1-3.7,2.4-5.8h-4.5v-2.5L1191.3,221.9z M1188.3,212.3c1.8,3.7,4.3,7,7.3,9.7l-2.2,2.1
	c-2.7-2.7-4.9-5.9-6.5-9.3h-5.3v-2.5L1188.3,212.3z"/>
<path id="Path_39829" class="st0" d="M1213.7,230.2h10v2.5H1213v1.3c0.1,0.9-0.1,1.8-0.7,2.6c-0.7,0.5-1.6,0.7-2.5,0.6h-4l-0.6-2.5
	l4,0.1c0.4,0.1,0.8-0.2,0.9-0.7c0-0.1,0-0.2,0-0.2v-1.2h-12.2v-2.5h12.2v-1c1.8-0.5,3.7-1,5.6-1.6H1200v-2.4h20.7v2.1
	C1218.4,228.5,1216.1,229.4,1213.7,230.2 M1198.2,216.2v-2.5h10.7c-0.3-0.6-0.6-1.2-0.9-1.7l3.1-0.4c0.4,0.7,0.8,1.3,1.1,2.1h11.3
	v2.5L1198.2,216.2L1198.2,216.2z M1201,217.5h19.8v6.3H1201V217.5z M1217.9,219.7h-14.1v2h14.1V219.7z"/>
<path id="Path_39830" class="st0" d="M892.7,265.4c-0.1,5.1-0.5,8.4-1.1,9.8s-2.2,2.2-4.8,2.2c-0.5,0-0.8,0-1.2,0l-0.8-2.5
	c0.7,0.1,1.5,0.1,2.2,0.1h0.3c1.2,0,2-0.8,2.2-2.2c0.3-1.7,0.4-3.4,0.4-5.1h-16.8c-1.2,1.6-2.5,3.1-3.9,4.5l-2-1.9
	c1.8-1.5,3.3-3.2,4.6-5.2c1.5-2.2,2.6-4.5,3.4-7h-6.9v-2.4h3.3c-0.4-1-0.9-2-1.4-2.9l2.3-0.6c0.6,1.1,1.1,2.3,1.5,3.5h1.8
	c0.3-1.3,0.5-2.6,0.7-3.9l2.5,0.2c-0.1,1.2-0.3,2.5-0.6,3.7h11.1l-0.7,4.9h2.4l-0.7,4.9L892.7,265.4z M875.5,270
	c-0.5,2.4-1.3,4.7-2.4,6.9l-2.5-1.3c1.2-1.9,2-4.1,2.6-6.3L875.5,270z M888,265.4l0.4-2.5h-12.3c-0.4,0.9-0.8,1.7-1.4,2.5H888z
	 M877,276.6c0-2.2-0.1-4.5-0.4-6.7l2.3-0.2c0.4,2.2,0.6,4.5,0.6,6.7L877,276.6z M886.3,260.5l0.4-2.5h-8.9c-0.2,0.9-0.5,1.7-0.8,2.5
	H886.3z M881.7,275.2c-0.2-1.9-0.5-3.8-1.1-5.6l2.2-0.4c0.7,1.8,1.1,3.6,1.3,5.5L881.7,275.2z M886.1,273.6
	c-0.7-2.1-1.2-3.6-1.6-4.5l2-0.7c0.7,1.4,1.3,2.9,1.8,4.4L886.1,273.6z"/>
<path id="Path_39831" class="st0" d="M907.6,256.6v-5h2.9v5h10.3v2.6h-10.3v5.8h8.9v2.6h-8.9v6.5h10.8v2.6H896v-2.6h11.6v-6.5h-8.7
	V265h8.7v-5.8h-6.7c-1,1.9-2.3,3.7-3.6,5.4l-1.8-2.4c2.6-2.8,4.3-6.2,5-9.9l2.6,0.9c-0.2,1.2-0.6,2.3-1.1,3.4H907.6z"/>
<path id="Path_39832" class="st0" d="M928.6,264.8c-1.8-1.3-3.4-2.3-4.8-3.2l1.6-2.2c1.7,0.8,3.3,1.8,4.9,2.8L928.6,264.8z
	 M930.9,268.5c-1.3,3.1-2.9,6.1-5,8.8l-2.1-2.3c2-2.6,3.6-5.4,4.9-8.4L930.9,268.5z M929.2,258c-1.6-1.2-3.2-2.3-4.9-3.2l1.6-2.2
	c1.7,0.9,3.4,1.8,5,2.9L929.2,258z M930.6,259.6h8.1v-3.7c-1.5,0.2-3.6,0.2-6.1,0.2l-0.6-2.5c0.3,0,0.7,0,1.2,0
	c4.5,0.1,9.1-0.4,13.5-1.5l1.5,2.2c-2.2,0.6-4.5,1-6.8,1.3v4h8v2.4h-8v4h6.6v11.4h-2.7v-1.8h-10.4v1.8h-2.7V266h6.5v-4h-8.1V259.6z
	 M945.3,268.3h-10.4v5h10.4L945.3,268.3z"/>
<path id="Path_39833" class="st0" d="M957.4,268.8c-0.8,2.9-1.9,5.8-3.4,8.4l-2.2-2.1c1.4-2.4,2.6-5.1,3.3-7.8L957.4,268.8z
	 M956,264.7c-1.3-1.2-2.8-2.2-4.2-3.2l1.8-1.9c1.5,0.8,2.9,1.8,4.3,2.8L956,264.7z M956.5,257.6c-1.3-1.2-2.6-2.3-4-3.2l1.8-1.9
	c1.5,0.9,2.9,1.8,4.2,2.9L956.5,257.6z M965.3,255.4c-1.1,0.1-2.1,0.1-3,0.1c-0.9,0-1.9,0-3,0.1l-0.6-2.4h0.9
	c4.9,0.1,9.8-0.3,14.5-1.2l1.2,2.2c-1,0.2-3.4,0.6-7.2,1c-0.1,0-0.3,0.5-0.7,1.4c-0.1,0.4-0.3,0.8-0.5,1.1h10.2v2.3h-6.8
	c1.7,2.4,4.2,4.3,7,5.2l-1.2,2.5c-3.7-1.5-6.8-4.2-8.6-7.7H966c-1.9,3.1-4.5,5.7-7.5,7.6l-2-1.9c2.7-1.3,5-3.3,6.7-5.8h-5.5v-2.3
	h6.7C964.7,257,965.1,256.3,965.3,255.4 M962.8,267.9c-0.8,2.9-1.9,5.7-3.3,8.3l-2.2-1.6c1.4-2.3,2.5-4.8,3.2-7.5L962.8,267.9z
	 M966.7,263.6v10.2c0.1,0.9-0.1,1.8-0.6,2.5c-0.7,0.5-1.5,0.8-2.4,0.7h-2l-0.6-2.7l2.2,0.1c0.4,0.1,0.8-0.3,0.9-0.7
	c0-0.1,0-0.1,0-0.2v-10L966.7,263.6z M968.8,276c-0.5-4.1-0.9-7.1-1.2-8.8l2.4-0.3c0.5,1.9,1,4.8,1.5,8.8L968.8,276z M974.5,275.6
	c-0.9-2.7-2-5.3-3.2-7.9l2.2-0.9c1,1.9,2.2,4.5,3.6,7.8L974.5,275.6z"/>
<path id="Path_39834" class="st0" d="M987.2,251.7v4.7h5.8v0.9c0,10.7-0.3,16.8-0.8,18.1c-0.5,1.3-2.1,2-4.9,2c-0.3,0-0.6,0-0.8,0
	l-0.8-2.9c0.7,0.1,1.5,0.1,2.2,0.1h0.3c0.5,0,1.1-0.2,1.5-0.6c0.3-0.4,0.5-2,0.5-4.8s0.2-6.3,0.2-10.2h-3.2c0.1,6.5-1.7,13-5.1,18.5
	l-2.2-2.3c3.1-4,4.6-9.4,4.7-16.2h-4.7v-2.5h4.7v-4.7L987.2,251.7z M1005,277.2h-2.6v-2h-4.9v2.1h-2.6v-23.6h10.1L1005,277.2
	L1005,277.2z M997.5,272.8h4.9v-16.5h-4.9V272.8z"/>
<path id="Path_39835" class="st0" d="M1015.7,253.1h1.5v-1.2h2v1.2h3.1v1.6h-3.1v1h1.9v4.2c0,0.6-0.2,1.2-0.7,1.6
	c-0.3,0.3-0.7,0.5-1.1,0.5l-2,0l-0.2-0.5h-6.9v-2.8c-0.2,0.2-0.4,0.3-0.6,0.5c-0.2,0.1-0.5,0.3-0.8,0.5l-1-2
	c1.4-0.6,2.6-1.4,3.6-2.5v-0.6h-3v-1.6h3.1v-1.2h2v1.2h1.5v1.6h-1.5v1h3.5v-1h-1.5L1015.7,253.1z M1013.1,273.6
	c-0.5,1.4-1.4,2.7-2.4,3.8l-2.2-1c1-0.9,1.9-2.1,2.4-3.4L1013.1,273.6z M1029.2,275.4c1-0.1,1.5-1,1.5-2.8v0h-19.5v-9.9h21.1v1.8
	h-9.5v1h8.6v1.5h-8.6v1.1h8.6v1.5h-8.6v1.2h10.5c-0.2,2.7-0.5,4.5-1,5.4c-0.5,0.8-1.8,1.3-3.7,1.3c-0.4,0-0.8,0-1.2,0l-0.4-1.7
	l-1.2,0.3c-0.3-0.9-0.7-1.8-1.2-2.6l2.1-0.6c0.6,0.8,1,1.6,1.4,2.5c0.2,0,0.5,0,0.7,0C1029,275.4,1029.1,275.4,1029.2,275.4
	 M1017.5,260.5l1.2,0c0.3,0,0.5-0.2,0.5-0.6v-2.7h-6.7c-0.3,0.3-0.6,0.6-1,0.9h6.1V260.5z M1012.3,260.5h3.2v-1.1h-3.2V260.5z
	 M1013.6,265.5h7v-1h-7V265.5z M1020.6,267h-7v1.1h7V267z M1020.6,269.6h-7v1.2h7V269.6z M1015.5,277.2c0-1.2-0.2-2.5-0.4-3.7
	l2.2-0.4c0.3,1.2,0.5,2.5,0.6,3.8L1015.5,277.2z M1021,277.1c-0.2-1.2-0.6-2.4-1.1-3.5l2.1-0.4c0.5,1.1,1,2.2,1.3,3.4L1021,277.1z
	 M1033.4,253.6v1.8h-1.3c-0.6,1.4-1.5,2.7-2.7,3.8c1.3,0.7,2.7,1.3,4.1,1.7l-0.9,1.9c-1.7-0.5-3.4-1.3-4.9-2.2c-1.4,1-3,1.6-4.7,2
	l-1.2-1.8c1.4-0.2,2.8-0.7,4.1-1.4c-1-0.9-1.7-1.6-2.2-2c-0.4,0.4-0.8,0.7-1.2,1.1l-1.2-1.7c1.8-1.2,3.1-3.1,3.8-5.1l2,0.4
	c-0.2,0.5-0.4,1.1-0.6,1.6L1033.4,253.6z M1025.5,255.4l-0.4,0.6c0.8,0.8,1.7,1.5,2.5,2.1c0.9-0.8,1.6-1.7,2.2-2.8H1025.5z"/>
<path id="Path_39836" class="st0" d="M1056.1,265.3c-0.4,0.6-0.8,1.2-1.3,1.8h7.2v2.1h-25.8v-2.1h7.3c-0.4-0.6-0.8-1.2-1.3-1.8h-3.2
	v-5.4h20.3v5.4H1056.1z M1050.5,251.7v1.5h10.5v2.1h-10.5v1.4h9.5v2h-21.8v-2h9.3v-1.4h-10.5v-2.1h10.5v-1.5H1050.5z M1038.7,270.5
	h20.9v6.9h-2.8v-1.1h-15.3v1.1h-2.8L1038.7,270.5z M1056.8,272.5h-15.3v1.8h15.3V272.5z M1056.5,261.8h-14.8v1.6h14.8V261.8z
	 M1045.2,265.3c0.5,0.6,0.9,1.2,1.3,1.8h5.1c0.6-0.5,1.1-1.1,1.5-1.8H1045.2z"/>
<path id="Path_39837" class="st0" d="M1073.4,269v-7.4h2.4v7.4h2.5v-8.7h-4.9v-8.6h2.5v1.9h4.9v2.2h-4.9v2.3h4.9V269h5.2l0.1-3.1h-4
	v-2.2h4l0.1-3.3h-4.1v-2.2h4.1l0.1-2.9h-4.2V253h6.7l-0.4,16h1.6v2.4h-25.8V269h2l-0.5-15.1c2-0.3,4-0.9,5.8-1.9l1.2,2.3
	c-1.4,0.7-3,1.3-4.5,1.7l0.1,2.3h3.8v2.2h-3.8l0.1,3.3h3.5v2.2h-3.4l0.1,3.1L1073.4,269z M1074.6,273.5c-2.6,1.8-5.4,3.1-8.4,3.9
	l-1.6-2.3c2.8-0.7,5.5-1.8,8-3.4L1074.6,273.5z M1088,277.4c-2.6-1.4-5.4-2.7-8.2-3.8l1.8-2c1.4,0.6,2.7,1.1,4,1.6
	c1.3,0.5,2.7,1.1,4.2,1.9L1088,277.4z"/>
<path id="Path_39838" class="st0" d="M1107.3,268h-8.7v-6.3h8.7v5.2c1.2-0.8,2.2-1.7,3.1-2.8c-1-2.4-1.5-4.9-1.7-7.4h-11.5v1
	c0,5.1-0.9,9.1-2.6,11.9l-2.2-1.9c1.5-2.3,2.2-6.1,2.2-11.2v-2h13.9c-0.1-1-0.1-1.7-0.1-2.1c0-0.2,0-0.5,0-0.7h2.4
	c0,0.4,0,0.9,0.1,1.4c0,0.5,0,1,0.1,1.4h3.3c-0.4-0.6-0.9-1.2-1.4-1.7l1.9-1.1c0.7,0.6,1.3,1.2,1.8,1.9l-1.5,0.8h2.7v2.2h-6.7
	c0.1,1.8,0.5,3.5,1.1,5.2c0.9-1.3,1.7-2.7,2.3-4.1l2.1,1.1c-0.9,2-2,3.8-3.3,5.5c0.1,0.4,0.3,0.7,0.6,1c0.4,0.5,0.7,0.8,1,0.8
	c0.4,0,0.7-1.1,1-3.3l2.2,1.4c-0.5,3.3-1.5,4.9-3.1,4.9c-1.3,0-2.5-0.9-3.4-2.7c-1.1,1.1-2.2,2.1-3.4,3.1L1107.3,268z M1098.1,270.7
	c-0.8,2-1.9,3.9-3.3,5.5l-2-1.7c1.3-1.5,2.4-3.2,3.3-5L1098.1,270.7z M1098.4,258.1h9.2v2.1h-9.2V258.1z M1102.2,269.6v4.2
	c-0.1,0.5,0.3,0.9,0.7,1c0.1,0,0.2,0,0.2,0h5.5c0.6,0,0.9-0.2,1.1-0.5c0.3-0.8,0.4-1.7,0.4-2.6l2.5,0.9c-0.1,1.8-0.4,3-0.9,3.5
	c-0.8,0.7-1.8,1-2.8,0.8h-5.9c-0.9,0.1-1.8-0.1-2.5-0.7c-0.6-0.7-0.8-1.7-0.7-2.6v-4.1L1102.2,269.6L1102.2,269.6z M1105.1,263.7
	h-4.1v2.3h4.1V263.7z M1105.9,273.2c-0.6-1.2-1.2-2.4-2-3.6l2-1c0.8,1.1,1.6,2.2,2.2,3.4L1105.9,273.2z M1115.7,275.7
	c-1-1.8-2.2-3.5-3.5-5.1l1.9-1.4c1.4,1.5,2.6,3.2,3.8,4.9L1115.7,275.7z"/>
<path id="Path_39839" class="st0" d="M1134.9,275.2v0.7c-2.4,0.4-7,0.7-13.7,1.1l-0.5-2.4h3.4c1.1,0,2.1,0,3.1-0.1v-2.1h-5.2v-2h5.2
	v-1.7h-5.4v-8.9h5.4v-1.6h-6.7v-2.1h6.7v-1.8c-0.6,0.1-1.4,0.1-2.2,0.1c-0.9,0-1.8,0.1-2.8,0.1l-0.8-2.2h0.7c5.5,0,9.5-0.3,11.8-0.9
	l1.3,1.8c-1.8,0.5-3.7,0.8-5.5,0.9v1.9h6.2v0.7h3.4v-5h2.3v5h4.6c-0.1,9.7-0.2,15.2-0.3,16.5c0,1-0.3,2-0.9,2.8
	c-0.5,0.6-1.6,0.9-3.5,0.9c-0.4,0-0.8,0-1.1,0l-1-2.7c0.8,0.1,1.6,0.2,2.4,0.2c0.6,0.1,1.2-0.3,1.4-0.9c0.4-1.7,0.5-3.3,0.5-5
	c0.1-2.8,0.2-6,0.2-9.6h-2.2c-0.2,7.3-1.8,13.4-4.6,18.1L1134.9,275.2z M1127.3,261.7h-3v1.8h3V261.7z M1127.3,265.2h-3v1.9h3V265.2
	z M1134.9,275.2c2.6-3.5,4-8.8,4.3-15.9h-3.4v-0.9h-6.1v1.6h5.6v8.9h-5.6v1.7h5.2v2h-5.2v1.9c2.6-0.2,4.4-0.4,5.2-0.6L1134.9,275.2
	L1134.9,275.2z M1132.9,261.7h-3.2v1.8h3.2V261.7z M1132.9,265.2h-3.2v1.9h3.2V265.2z"/>
</svg>
