<?xml version="1.0" encoding="utf-8"?>
<!-- Generator: Adobe Illustrator 26.4.1, SVG Export Plug-In . SVG Version: 6.00 Build 0)  -->
<svg version="1.1" id="圖層_1" xmlns="http://www.w3.org/2000/svg" xmlns:xlink="http://www.w3.org/1999/xlink" x="0px" y="0px"
	 viewBox="0 0 1326 289" style="enable-background:new 0 0 1326 289;" xml:space="preserve">
<style type="text/css">
	.st0{fill:none;}
	.st1{fill:none;stroke:#1E3932;stroke-width:1.5;}
	.st2{enable-background:new    ;}
	.st3{fill:#1E3932;}
</style>
<g id="btn-more" transform="translate(283.992 269.668)">
	<g id="Rectangle_46">
		<path class="st0" d="M169-98.7h54c9.4,0,17,7.6,17,17l0,0c0,9.4-7.6,17-17,17h-54c-9.4,0-17-7.6-17-17l0,0
			C152-91.1,159.6-98.7,169-98.7z"/>
		<path class="st1" d="M169-98.2h54c9.1,0,16.5,7.4,16.5,16.5l0,0c0,9.1-7.4,16.5-16.5,16.5h-54c-9.1,0-16.5-7.4-16.5-16.5l0,0
			C152.5-90.8,159.9-98.2,169-98.2z"/>
	</g>
	<g class="st2">
		<path class="st3" d="M180.8-85.7c-1.3,1.4-3.1,2.9-4.8,3.9v5.4c0,1-0.2,1.4-0.9,1.7c-0.7,0.3-1.7,0.3-3,0.3
			c-0.1-0.5-0.4-1.2-0.7-1.7c1,0,2.1,0,2.5,0s0.4-0.1,0.4-0.3v-6.2c1.1-0.6,2.3-1.5,3.2-2.3h-8.1v-1.6h9.7l0.4-0.1L180.8-85.7z"/>
		<path class="st3" d="M195.6-76.8h-2.4v2.3h-1.6v-2.3H189v-1.4h2.6v-1.3h-1.2c-0.2,0.4-0.4,0.8-0.6,1.1c-0.2-0.2-0.7-0.4-1.1-0.6v3
			c0,0.7-0.1,1.1-0.5,1.3c-0.4,0.2-1,0.3-1.9,0.3c0-0.4-0.3-1-0.5-1.4c0.6,0,1.1,0,1.3,0s0.2-0.1,0.2-0.2v-2h-2.8
			c-0.1,1.3-0.5,2.7-1.1,3.7c-0.2-0.2-0.8-0.6-1.1-0.7c0.9-1.4,1-3.5,1-5.1v-2.1c-0.3-0.3-0.8-0.7-1.1-0.9c1-1,1.7-2.7,2.1-4.3
			l1.5,0.3c-0.1,0.3-0.2,0.7-0.3,1h1.3l0.2-0.1l1,0.6c-0.2,0.5-0.5,1.2-0.8,1.8h1.6v0.9c1.2-0.5,1.6-1.3,1.8-2.4H189v-1.4h6.2
			c0,0,0,0.4,0,0.5c-0.1,2.2-0.2,3.2-0.5,3.6c-0.2,0.3-0.5,0.4-0.9,0.5c-0.3,0-0.9,0.1-1.4,0c0-0.4-0.2-1-0.4-1.3
			c0.4,0,0.8,0.1,1,0.1s0.3,0,0.4-0.2c0.1-0.2,0.2-0.6,0.3-1.8h-1.6c-0.2,1.5-0.8,2.6-2.2,3.4l1.2,0.3c-0.1,0.3-0.1,0.6-0.2,0.9h0.7
			V-82h1.6v1.3h2.1v1.4h-2.1v1.3h2.4V-76.8z M185.1-85c-0.2,0.3-0.3,0.7-0.5,1h1.2c0.1-0.3,0.3-0.7,0.4-1H185.1z M184.7-80.3
			c0,0.3,0,0.6,0,0.9h0.8v-1.2h-0.8V-80.3z M184.7-81.7h0.8v-1.1h-0.8V-81.7z M186.6-81.7h0.8v-1.1h-0.8V-81.7z M187.4-79.3v-1.2
			h-0.8v1.2H187.4z M188.8-79.3c0.5-0.7,0.8-1.7,1-2.7c-0.1,0-0.2,0.1-0.3,0.1c-0.1-0.3-0.4-0.7-0.7-1V-79.3z"/>
		<path class="st3" d="M199.3-85.2h2.4v1.3h-5.3v-1.3h2.4c-0.2-0.5-0.6-1.2-0.9-1.8l1.2-0.6c0.4,0.6,0.8,1.3,1,1.9L199.3-85.2z
			 M201.4-75.2h-3v0.6H197v-4.8h4.3L201.4-75.2L201.4-75.2z M201.3-82h-4.2v-1.3h4.2V-82z M197.1-81.4h4.2v1.3h-4.2V-81.4z
			 M198.4-78.1v1.6h1.6v-1.6H198.4z M209.5-77.3h-3v2.8h-1.6v-2.8h-3v-1.5h3v-1.5h-2.4v-1.5h2.4v-1.4h-2.8v-1.5h1.4
			c-0.2-0.6-0.7-1.4-1.1-2.1l1.4-0.6c0.5,0.7,1.1,1.7,1.3,2.3l-0.7,0.3h2.8l-0.8-0.3c0.4-0.7,0.9-1.7,1.1-2.4l1.8,0.6
			c-0.5,0.8-1,1.6-1.4,2.1h1.5v1.5h-2.8v1.4h2.4v1.5h-2.4v1.5h3L209.5-77.3L209.5-77.3z"/>
		<path class="st3" d="M210.3-81.1c0.3-0.9,0.6-2.5,0.7-3.7l1.3,0.2c-0.1,1.2-0.4,2.9-0.7,3.9L210.3-81.1z M223.5-83.1v1.2h-8.6
			v-1.2l-0.3,0.2c-0.1-0.4-0.3-1-0.6-1.5v9.9h-1.5v-13.1h1.5v2.2l0.7-0.3c0.3,0.7,0.8,1.6,1,2.2l-0.8,0.4h3.4v-0.6h-2.6v-1.1h2.6
			v-0.6h-3.1v-1.2h3.1v-1h1.7v1h3.1v1.2H220v0.6h2.6v1.1H220v0.6C220-83.1,223.5-83.1,223.5-83.1z M222.7-76c0,0.7-0.1,1.1-0.7,1.3
			c-0.5,0.2-1.2,0.2-2.1,0.2c-0.1-0.4-0.3-1-0.4-1.4c0.6,0,1.2,0,1.4,0s0.3-0.1,0.3-0.2v-0.5H217c-0.2,0.8-0.5,1.6-1,2.2
			c-0.2-0.3-0.9-0.9-1.2-1.1c0.8-1,0.9-2.3,0.9-3.4v-2.5h7.1v5.4H222.7z M221.1-77.7v-0.6h-4c0,0.2,0,0.4,0,0.6H221.1z M217.2-80.2
			v0.7h4v-0.7H217.2z"/>
	</g>
</g>
<g class="st2">
	<path class="st3" d="M204.8,137.4c11-9.6,16.1-16.7,16.1-22.7c0-4-2.1-7-6.5-7c-2.9,0-5.4,1.8-7.3,4.1l-2.5-2.5
		c2.9-3.1,5.9-5.2,10.4-5.2c6.3,0,10.2,4.1,10.2,10.4c0,7-5.5,14.2-13.8,22c1.8-0.1,4-0.3,5.8-0.3h9.7v3.8h-22.1L204.8,137.4
		L204.8,137.4z"/>
	<path class="st3" d="M232,122.3c0-12.2,4.3-18.1,11-18.1s10.9,6,10.9,18.1c0,12.2-4.3,18.3-10.9,18.3
		C236.3,140.6,232,134.5,232,122.3z M249.7,122.3c0-10.3-2.7-14.6-6.7-14.6s-6.7,4.3-6.7,14.6c0,10.4,2.7,14.8,6.7,14.8
		S249.7,132.7,249.7,122.3z"/>
	<path class="st3" d="M258.8,137.4c11-9.6,16.1-16.7,16.1-22.7c0-4-2.1-7-6.5-7c-2.9,0-5.4,1.8-7.3,4.1l-2.5-2.5
		c2.9-3.1,5.9-5.2,10.4-5.2c6.3,0,10.2,4.1,10.2,10.4c0,7-5.5,14.2-13.8,22c1.8-0.1,4-0.3,5.8-0.3h9.7v3.8h-22.1L258.8,137.4
		L258.8,137.4z"/>
	<path class="st3" d="M285.8,137.4c11-9.6,16.1-16.7,16.1-22.7c0-4-2.1-7-6.5-7c-2.9,0-5.4,1.8-7.3,4.1l-2.5-2.5
		c2.9-3.1,5.9-5.2,10.4-5.2c6.3,0,10.2,4.1,10.2,10.4c0,7-5.5,14.2-13.8,22c1.8-0.1,4-0.3,5.8-0.3h9.7v3.8h-22.1L285.8,137.4
		L285.8,137.4z"/>
	<path class="st3" d="M344.4,121.2v22.5H341v-4.8c-5.9,0.8-11.8,1.4-16.3,2l-0.3-3.2c1.3-0.1,2.9-0.3,4.6-0.4v-16.1h-4.1v-3h42v3
		C366.9,121.2,344.4,121.2,344.4,121.2z M333.9,115.9h-3.4v-14.4h30.9v14.4h-3.5V104h-24V115.9z M341,121.2h-8.8v3.3h8.8V121.2z
		 M341,127.1h-8.8v3.3h8.8V127.1z M332.2,137c2.8-0.3,5.8-0.7,8.8-1.1V133h-8.8V137z M355.4,109.2H336v-2.4h19.4V109.2z
		 M336.1,114.3v-2.4h19.3v2.4H336.1z M365.5,125c-1.4,4.5-3.9,8.2-6.9,11.1c2.6,2,5.8,3.5,9.3,4.3c-0.7,0.7-1.6,1.9-2.1,2.8
		c-3.6-1.1-6.9-2.8-9.6-5c-3,2.3-6.3,4-9.7,5.2c-0.4-0.9-1.2-2.1-1.9-2.8c3.2-0.9,6.4-2.5,9.3-4.6c-2.4-2.5-4.3-5.4-5.6-8.7l0.8-0.2
		h-2.7v-2.9h16.5l0.6-0.1L365.5,125z M351.3,127c1.2,2.6,2.8,4.9,4.8,7c2.1-2,3.8-4.3,5-7H351.3z"/>
	<path class="st3" d="M386.6,101c-1.3,3.6-2.9,7.1-4.7,10.5v32.2h-3.5v-26.4c-1.3,1.9-2.7,3.7-4,5.3c-0.4-0.9-1.4-2.7-2-3.5
		c4.4-4.7,8.4-11.8,10.8-19.1L386.6,101z M416.2,138.5v3.5h-31.6v-3.5h14.2v-8h-11.3v-3.4h11.3v-5.5h3.6v5.5H414v3.4h-11.6v8H416.2z
		 M398.7,109.5h-10.3v-3.4h10.3v-6.3h3.6v6.3H413v3.4h-10.8v6.8h12.9v3.4H386v-3.4h12.7V109.5z"/>
	<path class="st3" d="M463.5,139.3v3.2h-41.6v-3.2h19v-5.2h-13.4v-2.9h13.4v-4.5h-11.8c-1.6,2-3.3,3.8-4.9,5.3
		c-0.7-0.7-2.1-1.8-3-2.3c3.6-2.7,6.9-6.8,8.8-11l3.5,1c-0.6,1.3-1.4,2.6-2.2,3.9h9.6v-3.8h3.6v3.8h15.9v3.1h-15.9v4.5h14v2.9h-14
		v5.2H463.5z M458.6,118.7h-31.8v-16.9h31.8V118.7z M455,104.7h-24.7v4.2H455V104.7z M455,111.6h-24.7v4.3H455V111.6z"/>
	<path class="st3" d="M486.2,139.4c0,1.9-0.4,3-1.6,3.6s-3.1,0.7-6.3,0.7c-0.1-0.9-0.6-2.5-1.1-3.4c2.2,0,4.2,0,4.8,0
		c0.7,0,0.9-0.2,0.9-0.9v-11.8h-7.5c-0.4,5.7-1.4,11.7-3.6,16.2c-0.6-0.6-2.1-1.4-2.9-1.7c3.3-6.7,3.6-16.2,3.6-23.3v-17.1h13.8
		L486.2,139.4L486.2,139.4z M482.9,124.2v-8.1h-7.2v2.6c0,1.6,0,3.5-0.1,5.4L482.9,124.2L482.9,124.2z M475.6,104.9v7.9h7.2v-7.9
		H475.6z M512,118.5c-1.2,6.5-3.6,11.9-6.6,16.2c2.3,2.6,5,4.8,8,6.3c-0.8,0.7-1.8,1.9-2.3,2.7c-2.9-1.6-5.5-3.8-7.8-6.5
		c-2.2,2.5-4.6,4.6-7.2,6.1c-0.5-0.8-1.4-2-2.1-2.6c2.6-1.4,5.1-3.5,7.3-6.1c-2.7-3.9-4.8-8.5-6.4-13.4h-1.2v22.5h-3.4v-42h20.3v9.2
		c0,1.8-0.4,2.7-1.9,3.3c-1.5,0.5-3.9,0.5-7.5,0.5c-0.1-1-0.7-2.2-1.2-3c2.9,0,5.4,0,6.1,0c0.8,0,1-0.2,1-0.8V105h-13.4v12.9h15.6
		l0.6-0.1L512,118.5z M498.1,121.2c1.3,3.9,3,7.6,5.2,10.8c2.1-3.1,3.7-6.7,4.8-10.8H498.1z"/>
	<path class="st3" d="M531.6,127.5c0.9-2,1.9-4.9,2.6-7.7h-4.6v19.8c0,1.8-0.4,2.8-1.6,3.4c-1.2,0.5-3.1,0.5-6,0.5
		c-0.1-0.9-0.6-2.4-1.1-3.3c2.1,0,3.9,0,4.6,0c0.6,0,0.8-0.2,0.8-0.7v-15.4c-1.9,4.6-4.4,9.1-7,11.8c-0.4-1-1.2-2.4-1.9-3.3
		c3-2.8,6-8,7.7-12.9h-7.2v-3.1h12.9c-2.5-2.1-6.9-4.8-10.7-6.4l2.2-2.3c1.5,0.6,3.1,1.4,4.7,2.2c1.8-1.3,3.6-3.1,5-4.8h-13.6v-3.1
		h16.1l0.6-0.1l2.3,1.4c-1.9,2.9-4.9,6-7.8,8.2c1.6,1,3,2,4,2.9l-1.8,2.1h3.6l0.5-0.2l2.2,0.8c-0.2,0.8-0.5,1.7-0.7,2.5
		c3.2-0.9,6.1-2.1,8.6-3.7c-1.9-1.7-3.6-3.7-4.9-5.9c-1.2,1.2-2.3,2.4-3.5,3.4c-0.7-0.6-2.1-1.6-2.9-2.1c3.7-2.8,7.2-7.2,9.1-11.7
		l3.4,0.9c-0.6,1.4-1.4,2.8-2.2,4.1h15.9v3h-3.7c-1.3,3.3-3.3,6-5.8,8.2c3,1.9,6.6,3.4,10.4,4.2c-0.7,0.8-1.8,2.1-2.3,3.1
		c-4-1.1-7.7-2.8-10.9-5.1c-3,2.1-6.6,3.7-10.5,4.9c-0.2-0.5-0.8-1.2-1.3-1.9c-0.8,2.8-1.8,5.5-2.8,7.5L531.6,127.5z M559.8,126.6
		c0,0,0,1-0.1,1.5c-0.9,8.9-1.8,12.6-3.2,14c-0.8,0.9-1.7,1.1-3,1.2c-1.2,0-3.2,0.1-5.3,0c-0.1-1-0.4-2.4-1-3.3
		c2.1,0.2,4,0.2,4.8,0.2s1.2,0,1.6-0.5c0.9-0.9,1.6-3.6,2.4-10.2h-8.1c-1.7,6.1-5,11.1-12.7,14.1c-0.4-0.8-1.4-2.1-2.1-2.7
		c6.6-2.4,9.6-6.4,11.1-11.3h-7.5v-3h8.3c0.3-1.5,0.5-3.1,0.6-4.8h3.6c-0.1,1.6-0.4,3.2-0.7,4.8
		C548.5,126.6,559.8,126.6,559.8,126.6z M543.2,107.9c1.3,2.3,3.2,4.4,5.4,6.2c2-1.7,3.6-3.7,4.7-6.2H543.2z"/>
	<path class="st3" d="M580.2,134c-2.8,3.5-7.4,6.7-11.4,8.7c-0.5-0.6-1.9-1.8-2.7-2.4c4.1-1.8,8.3-4.6,10.8-7.5L580.2,134z
		 M609.2,128.7v2.9h-19.7v12.2H586v-12.2h-19.5v-2.9H609.2z M580.5,104.7H567v-3h41.3v3h-13.5v3.7H606v10.9h-36.1v-10.9h10.6V104.7z
		 M572.3,125.4v-2.8h31.1v2.8H572.3z M573.2,116.6h7.3v-5.5h-7.3V116.6z M591.4,104.7h-7.5v3.7h7.5V104.7z M583.8,116.6h7.5v-5.5
		h-7.5V116.6z M594.8,111.1v5.5h7.7v-5.5H594.8z M597.3,132.9c3.9,2.1,9,5.3,11.6,7.5l-2.7,2.1c-2.4-2.2-7.5-5.4-11.4-7.7
		L597.3,132.9z"/>
	<path class="st3" d="M625.8,123c-0.8,4.2-2.1,8.6-3.9,12c1,0.5,2.1,1.5,4,2.6c3.4,2.1,7.7,2.4,13.4,2.4c6.2,0,14-0.5,19.3-1
		c-0.4,1-1,2.6-1,3.7c-3.6,0.2-12.7,0.5-18.4,0.5c-6.3,0-10.5-0.5-14.1-2.6c-1.9-1.2-3.6-2.8-4.8-2.8c-1.1,0-2.7,3-4.1,6l-2.4-3.2
		c1.3-1.9,2.6-3.6,3.8-4.6h-0.1c2.1-2.7,3.6-6.9,4.5-10.7h-6.2c1.3-2.8,2.9-6.9,4.2-10.7h-5.4v-3.2h10c-1.2,3.5-2.7,7.5-4.1,10.8
		h2.6l0.6-0.1L625.8,123z M620.3,109.1c-0.7-2.1-2-5.5-3-8.1l3.2-0.9c1.1,2.5,2.4,5.8,3.2,7.8L620.3,109.1z M657.5,130.2h-31.3v-2.8
		h8.3V123H628v-2.8h6.5v-3.5h3.3v3.5h7.8v-3.5h3.3v3.5h6.7v2.8H649v4.4h8.6L657.5,130.2L657.5,130.2z M640.2,112.1
		c-0.2,0.8-0.5,2-0.7,2.6c-9.5,1.7-10.8,2-11.6,2.4c-0.2-0.8-0.9-2.2-1.2-2.8c0.5-0.3,1.2-0.9,1.2-2.7v-9.8h12.8v8.1h-9.9v3.6
		L640.2,112.1z M639.7,131.5c-2.6,2.4-6.5,4.9-9.8,6.5c-0.6-0.6-1.9-1.8-2.7-2.2c3.5-1.4,7.1-3.4,9.4-5.4L639.7,131.5z M630.8,104.1
		v3.2h6.9v-3.2H630.8z M637.9,127.4h7.8V123h-7.8V127.4z M647.2,115.9c-3.3,0-4.1-1.2-4.1-4.4v-9.7h13.1v8.1h-10.1v1.7
		c0,1.3,0.2,1.7,1.2,1.7h6.2c0.9,0,2.3,0,3-0.2c0,0.8,0.2,1.9,0.3,2.5c-0.6,0.2-2,0.2-3.2,0.2h-6.4V115.9z M653.4,137.8
		c-2.1-1.8-5.8-4.1-9.3-5.9l2.3-1.7c3.7,1.7,7.7,4,10.1,5.9L653.4,137.8z M646.1,104.2v3.2h7v-3.2H646.1z"/>
	<path class="st3" d="M671.6,121.3c-2-1.3-5.9-3.6-8.8-5.2l2-2.6c2.8,1.4,6.8,3.5,8.9,4.8L671.6,121.3z M663.9,140.6
		c2.6-3.6,6.3-9.9,9.1-15.4l2.6,2.4c-2.5,5-5.9,11-8.7,15.4L663.9,140.6z M674,108.3c-2-1.4-6-3.7-8.9-5.3l2-2.5
		c2.9,1.4,7,3.6,9,4.9L674,108.3z M693.2,117.2v7.9h10v18.3h-3.4v-1.8h-17.1v2h-3.3v-18.5h10.3v-7.9h-13.8v-3.5h13.8V106
		c-3.5,0.5-7.2,1-10.6,1.3c-0.1-0.9-0.6-2.2-1-3c8.3-0.9,17.9-2.4,23.2-4.3l2.8,2.8c-3.1,1.1-7,2-11.1,2.7v8.3h13.2v3.5h-13V117.2z
		 M699.8,128.4h-17.1v9.9h17.1V128.4z"/>
	<path class="st3" d="M753.8,111c0,0,0,1.3,0,1.8c-0.5,20.1-1,26.8-2.6,28.8c-0.8,1.2-1.8,1.6-3.2,1.8c-1.3,0.2-3.6,0.1-5.8,0
		c-0.1-1-0.5-2.4-1-3.4c2.3,0.2,4.4,0.2,5.3,0.2c0.8,0,1.2-0.1,1.7-0.8c1.1-1.4,1.7-7.7,2.2-25.2h-6.9c-0.6,12.8-2.8,23.2-11.2,29.6
		c-0.5-0.8-1.8-2-2.6-2.5c0.8-0.5,1.4-1.1,2.1-1.7c-7.3,0.9-14.7,1.7-20.1,2.3l-0.5-3.1c2.9-0.2,6.5-0.6,10.4-1v-4.1h-9.1V131h9.1
		v-3h-9v-14.3h9v-3h-10.4V108h10.4v-3.2c-3.1,0.2-6.2,0.4-9,0.5c-0.1-0.8-0.5-1.9-0.9-2.6c7.1-0.4,15.7-1.2,20.7-2.4l1.8,2.7
		c-2.6,0.6-5.9,1-9.4,1.4v3.5H735v2.8h-10.2v3h9.3V128h-9.3v2.9h9.4v2.7h-9.4v3.8c3.1-0.3,6.4-0.6,9.6-1v0.2
		c4.2-5.7,5.4-13.4,5.9-22.4h-5.6V111h5.7c0.1-3.4,0.1-6.9,0.1-10.5h3.4c0,3.6,0,7.2-0.1,10.5H753.8z M715.5,119.7h6v-3.5h-6V119.7z
		 M721.5,125.6V122h-6v3.5L721.5,125.6L721.5,125.6z M724.7,116.2v3.5h6.3v-3.5H724.7z M731,122h-6.3v3.5h6.3V122z"/>
</g>
</svg>
