<svg xmlns="http://www.w3.org/2000/svg" width="144.572" height="73.155" viewBox="0 0 144.572 73.155">
  <g id="goldreward" transform="translate(0 0)">
    <path id="Path_3427-2" data-name="Path 3427-2" d="M981.926,398.615l-10.862-8.446-10.9,6.052,4.722-12.2-8.638-9.042,12.618.872,6.223-12.182,2.979,13.035,13.521,2.5-11.228,6.233Z" transform="translate(-871.51 -359.347)" fill="#d2a04a"/>
    <path id="Path_3428-2" data-name="Path 3428-2" d="M1007.415,420.025l1.892-7.32,6.775-1.026-6.15-3.724.724-6.833-5.2,4.614-6.8-3.212,3.079,6.671-5.045,5.625,6.978-1.056Z" transform="translate(-871.51 -359.347)" fill="#d2a04a"/>
    <path id="Path_3433-2" data-name="Path 3433-2" d="M924.527,428.877l5.247-8.237,8.732,1.444-6.065-7.028,3.613-8.107-8.226,3.594-7.067-6.659,1.119,9.425-8.442,4.9,8.993,1.487Z" transform="translate(-871.51 -359.347)" fill="#d2a04a"/>
    <path id="Path_3429-2" data-name="Path 3429-2" d="M956.031,432.5l1.9-4.559,4.477-.036-3.633-2.978,1.1-4.353-3.789,2.5-4.1-2.707,1.374,4.6-3.784,3.172,4.611-.038Z" transform="translate(-871.51 -359.347)" fill="#d2a04a"/>
    <path id="Path_3431-2" data-name="Path 3431-2" d="M875.628,408.566l1.213-2.909,2.856-.023-2.318-1.9.7-2.777-2.417,1.6-2.615-1.727.877,2.935-2.414,2.023,2.942-.024Z" transform="translate(-871.51 -359.347)" fill="#d2a04a"/>
    <path id="Path_3432-2" data-name="Path 3432-2" d="M987.916,367.083l1.213-2.909,2.856-.023-2.318-1.9.7-2.777-2.417,1.6-2.615-1.727.877,2.935L983.8,364.3l2.942-.024Z" transform="translate(-871.51 -359.347)" fill="#d2a04a"/>
  </g>
</svg>
