<svg id="msr-star" xmlns="http://www.w3.org/2000/svg" width="63.191" height="73.001" viewBox="0 0 63.191 73.001">
  <path id="Path_799" data-name="Path 799" d="M228.865,272.856l-8.565,6.66-8.6-4.772,3.723,9.62-6.811,7.129,9.949-.687,4.907,9.606,2.349-10.278,10.662-1.971-8.854-4.915Z" transform="translate(-208.616 -227.41)" fill="#d49626"/>
  <path id="Path_800" data-name="Path 800" d="M10.917,0l1.927,7.456,6.9,1.045-6.264,3.793.738,6.96-5.294-4.7L2,17.826l3.136-6.8L0,5.3,7.107,6.377Z" transform="matrix(0.914, -0.407, 0.407, 0.914, 37.322, 27.408)" fill="#d49626"/>
  <path id="Path_801" data-name="Path 801" d="M5.087,0l1.5,3.6,3.531.029L7.252,5.973,8.12,9.4,5.132,7.431,1.9,9.565,2.983,5.938,0,3.437l3.636.03Z" transform="matrix(0.966, -0.259, 0.259, 0.966, 26.976, 2.618)" fill="#d49626"/>
</svg>
